%TF.GenerationSoftware,KiCad,Pcbnew,8.0.2*%
%TF.CreationDate,2024-10-06T11:27:00+02:00*%
%TF.ProjectId,distribution_amp_for_singapore_dude,64697374-7269-4627-9574-696f6e5f616d,rev?*%
%TF.SameCoordinates,Original*%
%TF.FileFunction,Copper,L1,Top*%
%TF.FilePolarity,Positive*%
%FSLAX46Y46*%
G04 Gerber Fmt 4.6, Leading zero omitted, Abs format (unit mm)*
G04 Created by KiCad (PCBNEW 8.0.2) date 2024-10-06 11:27:00*
%MOMM*%
%LPD*%
G01*
G04 APERTURE LIST*
G04 Aperture macros list*
%AMRoundRect*
0 Rectangle with rounded corners*
0 $1 Rounding radius*
0 $2 $3 $4 $5 $6 $7 $8 $9 X,Y pos of 4 corners*
0 Add a 4 corners polygon primitive as box body*
4,1,4,$2,$3,$4,$5,$6,$7,$8,$9,$2,$3,0*
0 Add four circle primitives for the rounded corners*
1,1,$1+$1,$2,$3*
1,1,$1+$1,$4,$5*
1,1,$1+$1,$6,$7*
1,1,$1+$1,$8,$9*
0 Add four rect primitives between the rounded corners*
20,1,$1+$1,$2,$3,$4,$5,0*
20,1,$1+$1,$4,$5,$6,$7,0*
20,1,$1+$1,$6,$7,$8,$9,0*
20,1,$1+$1,$8,$9,$2,$3,0*%
G04 Aperture macros list end*
%TA.AperFunction,SMDPad,CuDef*%
%ADD10R,1.410000X1.350000*%
%TD*%
%TA.AperFunction,SMDPad,CuDef*%
%ADD11R,1.350000X1.410000*%
%TD*%
%TA.AperFunction,SMDPad,CuDef*%
%ADD12R,1.400000X0.760000*%
%TD*%
%TA.AperFunction,SMDPad,CuDef*%
%ADD13R,1.490000X1.730000*%
%TD*%
%TA.AperFunction,SMDPad,CuDef*%
%ADD14R,1.380000X1.130000*%
%TD*%
%TA.AperFunction,SMDPad,CuDef*%
%ADD15R,1.130000X1.380000*%
%TD*%
%TA.AperFunction,ComponentPad*%
%ADD16C,0.650000*%
%TD*%
%TA.AperFunction,ComponentPad*%
%ADD17O,2.100000X1.000000*%
%TD*%
%TA.AperFunction,ComponentPad*%
%ADD18O,1.800000X1.000000*%
%TD*%
%TA.AperFunction,SMDPad,CuDef*%
%ADD19R,1.150000X0.600000*%
%TD*%
%TA.AperFunction,SMDPad,CuDef*%
%ADD20R,1.150000X0.300000*%
%TD*%
%TA.AperFunction,SMDPad,CuDef*%
%ADD21R,2.000000X4.500000*%
%TD*%
%TA.AperFunction,SMDPad,CuDef*%
%ADD22R,1.730000X1.490000*%
%TD*%
%TA.AperFunction,ComponentPad*%
%ADD23C,2.300000*%
%TD*%
%TA.AperFunction,SMDPad,CuDef*%
%ADD24R,1.600000X3.500000*%
%TD*%
%TA.AperFunction,SMDPad,CuDef*%
%ADD25O,0.630000X1.860000*%
%TD*%
%TA.AperFunction,SMDPad,CuDef*%
%ADD26R,0.760000X1.400000*%
%TD*%
%TA.AperFunction,SMDPad,CuDef*%
%ADD27RoundRect,0.100000X-0.637500X-0.100000X0.637500X-0.100000X0.637500X0.100000X-0.637500X0.100000X0*%
%TD*%
%TA.AperFunction,ViaPad*%
%ADD28C,0.600000*%
%TD*%
%TA.AperFunction,ViaPad*%
%ADD29C,0.500000*%
%TD*%
%TA.AperFunction,Conductor*%
%ADD30C,0.500000*%
%TD*%
%TA.AperFunction,Conductor*%
%ADD31C,0.700000*%
%TD*%
%TA.AperFunction,Conductor*%
%ADD32C,0.300000*%
%TD*%
%TA.AperFunction,Conductor*%
%ADD33C,1.000000*%
%TD*%
G04 APERTURE END LIST*
D10*
X112500000Y-83300000D03*
X110500000Y-83300000D03*
X110500000Y-111800000D03*
X108500000Y-111800000D03*
X104000000Y-111800000D03*
X106000000Y-111800000D03*
X104100000Y-91000000D03*
X106100000Y-91000000D03*
D11*
X133600000Y-109900000D03*
X133600000Y-107900000D03*
D12*
X110500000Y-109170000D03*
X110500000Y-107900000D03*
X110500000Y-106630000D03*
X113940000Y-106630000D03*
X113940000Y-107900000D03*
X113940000Y-109170000D03*
D13*
X135380000Y-84700000D03*
X132200000Y-84700000D03*
D14*
X110400000Y-98150000D03*
X110400000Y-100150000D03*
D12*
X110500000Y-116970000D03*
X110500000Y-115700000D03*
X110500000Y-114430000D03*
X113940000Y-114430000D03*
X113940000Y-115700000D03*
X113940000Y-116970000D03*
D15*
X130970000Y-114500000D03*
X129030000Y-114500000D03*
D14*
X139700000Y-96800000D03*
X139700000Y-94800000D03*
D10*
X129000000Y-112000000D03*
X131000000Y-112000000D03*
D14*
X122800000Y-102850000D03*
X122800000Y-104850000D03*
D16*
X139010000Y-91190000D03*
X139010000Y-85410000D03*
D17*
X138510000Y-92620000D03*
X138510000Y-83980000D03*
D18*
X142660000Y-92620000D03*
X142660000Y-83980000D03*
D19*
X137940000Y-91500000D03*
X137940000Y-90700000D03*
D20*
X137940000Y-89550000D03*
X137940000Y-88550000D03*
X137940000Y-88050000D03*
X137940000Y-90050000D03*
D19*
X137940000Y-85100000D03*
X137940000Y-85900000D03*
D20*
X137940000Y-86550000D03*
X137940000Y-87550000D03*
X137940000Y-89050000D03*
X137940000Y-87050000D03*
D21*
X135500000Y-88800000D03*
X132200000Y-88800000D03*
D10*
X129400000Y-101500000D03*
X127400000Y-101500000D03*
D11*
X116100000Y-105700000D03*
X116100000Y-107700000D03*
D15*
X118000000Y-117000000D03*
X116000000Y-117000000D03*
D11*
X135400000Y-101600000D03*
X135400000Y-103600000D03*
D22*
X123600000Y-92880000D03*
X123600000Y-89700000D03*
D11*
X120800000Y-115000000D03*
X120800000Y-117000000D03*
D13*
X126500000Y-84700000D03*
X129680000Y-84700000D03*
D11*
X133600000Y-114500000D03*
X133600000Y-112500000D03*
D15*
X130900000Y-119500000D03*
X128960000Y-119500000D03*
D12*
X110500000Y-88340000D03*
X110500000Y-87070000D03*
X110500000Y-85800000D03*
X113940000Y-85800000D03*
X113940000Y-87070000D03*
X113940000Y-88340000D03*
D14*
X125100000Y-104850000D03*
X125100000Y-102850000D03*
D15*
X119300000Y-86700000D03*
X117300000Y-86700000D03*
D10*
X135600000Y-117000000D03*
X133600000Y-117000000D03*
D14*
X125100000Y-98150000D03*
X125100000Y-100150000D03*
D23*
X102460000Y-119540000D03*
X102460000Y-114460000D03*
X107540000Y-114460000D03*
X107540000Y-119540000D03*
X105000000Y-117000000D03*
D10*
X129000000Y-109700000D03*
X131000000Y-109700000D03*
D23*
X102560000Y-109140000D03*
X102560000Y-104060000D03*
X107640000Y-104060000D03*
X107640000Y-109140000D03*
X105100000Y-106600000D03*
D14*
X112700000Y-100150000D03*
X112700000Y-98150000D03*
D11*
X115400000Y-97200000D03*
X115400000Y-95200000D03*
D14*
X115400000Y-93100000D03*
X115400000Y-91100000D03*
D24*
X122400000Y-108100000D03*
X119200000Y-108100000D03*
D10*
X106000000Y-101400000D03*
X108000000Y-101400000D03*
D25*
X129737500Y-87420000D03*
X128457500Y-87420000D03*
X127197500Y-87420000D03*
X125927500Y-87420000D03*
X125927500Y-92780000D03*
X127197500Y-92780000D03*
X128457500Y-92780000D03*
X129737500Y-92780000D03*
D10*
X128900000Y-117000000D03*
X130900000Y-117000000D03*
D26*
X113000000Y-95420000D03*
X111730000Y-95420000D03*
X110460000Y-95420000D03*
X110460000Y-91980000D03*
X111730000Y-91980000D03*
X113000000Y-91980000D03*
D22*
X123600000Y-87380000D03*
X123600000Y-84200000D03*
D24*
X121000000Y-94500000D03*
X117800000Y-94500000D03*
D11*
X119400000Y-90900000D03*
X119400000Y-88900000D03*
D10*
X134200000Y-92800000D03*
X132200000Y-92800000D03*
D23*
X143240000Y-101060000D03*
X143240000Y-106140000D03*
X138160000Y-106140000D03*
X138160000Y-101060000D03*
X140700000Y-103600000D03*
X143240000Y-114460000D03*
X143240000Y-119540000D03*
X138160000Y-119540000D03*
X138160000Y-114460000D03*
X140700000Y-117000000D03*
D14*
X116100000Y-109900000D03*
X116100000Y-111900000D03*
D15*
X130970000Y-107200000D03*
X129030000Y-107200000D03*
D14*
X122800000Y-100150000D03*
X122800000Y-98150000D03*
D23*
X102560000Y-88340000D03*
X102560000Y-83260000D03*
X107640000Y-83260000D03*
X107640000Y-88340000D03*
X105100000Y-85800000D03*
D14*
X112700000Y-102600000D03*
X112700000Y-104600000D03*
X135400000Y-97300000D03*
X135400000Y-99300000D03*
D27*
X114937500Y-99450000D03*
X114937500Y-100100000D03*
X114937500Y-100750000D03*
X114937500Y-101400000D03*
X114937500Y-102050000D03*
X114937500Y-102700000D03*
X114937500Y-103350000D03*
X120662500Y-103350000D03*
X120662500Y-102700000D03*
X120662500Y-102050000D03*
X120662500Y-101400000D03*
X120662500Y-100750000D03*
X120662500Y-100100000D03*
X120662500Y-99450000D03*
D14*
X142000000Y-96800000D03*
X142000000Y-94800000D03*
D23*
X102560000Y-98740000D03*
X102560000Y-93660000D03*
X107640000Y-93660000D03*
X107640000Y-98740000D03*
X105100000Y-96200000D03*
D14*
X110400000Y-104600000D03*
X110400000Y-102600000D03*
D11*
X132400000Y-103600000D03*
X132400000Y-101600000D03*
D13*
X123700000Y-95500000D03*
X126880000Y-95500000D03*
D28*
X115700000Y-87000000D03*
X115700000Y-86100000D03*
X115700000Y-85300000D03*
D29*
X110400000Y-96900000D03*
X111500000Y-96900000D03*
X104200000Y-110300000D03*
X105800000Y-110300000D03*
X105800000Y-113300000D03*
D28*
X105000000Y-110300000D03*
X101500000Y-102000000D03*
X101500000Y-100700000D03*
X102600000Y-101300000D03*
X104100000Y-102500000D03*
X104100000Y-100700000D03*
X128800000Y-95000000D03*
X135900000Y-81100000D03*
X135500000Y-95600000D03*
X114800000Y-84400000D03*
X121400000Y-91600000D03*
X134900000Y-81100000D03*
X126900000Y-116000000D03*
X127100000Y-103600000D03*
X122900000Y-116000000D03*
X121800000Y-85300000D03*
X131300000Y-121900000D03*
X117300000Y-90400000D03*
X143100000Y-85500000D03*
X121400000Y-118700000D03*
X115900000Y-119500000D03*
X137900000Y-81100000D03*
X111400000Y-121900000D03*
X119900000Y-82800000D03*
X143800000Y-97600000D03*
X117900000Y-105700000D03*
X124900000Y-116000000D03*
X121400000Y-83600000D03*
X116200000Y-89600000D03*
X143000000Y-103600000D03*
X107500000Y-91000000D03*
X119400000Y-121900000D03*
X110900000Y-81100000D03*
X113600000Y-90000000D03*
X130900000Y-99700000D03*
X128100000Y-103600000D03*
X133800000Y-99700000D03*
X142200000Y-121900000D03*
X115400000Y-121900000D03*
X127500000Y-90500000D03*
X137800000Y-111300000D03*
X124400000Y-110700000D03*
X116900000Y-121100000D03*
X117300000Y-89600000D03*
X103400000Y-121900000D03*
X126400000Y-110700000D03*
X118500000Y-82000000D03*
X127300000Y-120300000D03*
X130300000Y-121900000D03*
X123300000Y-121900000D03*
X112200000Y-107900000D03*
X122900000Y-113300000D03*
X133300000Y-99000000D03*
X135000000Y-82700000D03*
X112800000Y-90000000D03*
X138700000Y-110400000D03*
X141700000Y-111300000D03*
X140700000Y-106800000D03*
X108400000Y-91000000D03*
X120400000Y-118700000D03*
X124800000Y-121100000D03*
X124900000Y-111500000D03*
X137600000Y-94700000D03*
X134300000Y-121900000D03*
X109200000Y-91000000D03*
X115700000Y-113500000D03*
X141700000Y-109500000D03*
X138000000Y-96600000D03*
X142700000Y-111300000D03*
X112400000Y-121900000D03*
X115900000Y-121100000D03*
X111900000Y-121100000D03*
X121900000Y-81100000D03*
X122900000Y-114200000D03*
X126600000Y-90500000D03*
X112900000Y-81100000D03*
X124900000Y-117800000D03*
X112200000Y-114400000D03*
X131400000Y-81900000D03*
X119900000Y-81100000D03*
X117900000Y-104400000D03*
X101500000Y-90300000D03*
X102400000Y-121900000D03*
X119400000Y-112600000D03*
X110400000Y-120300000D03*
X129800000Y-95000000D03*
X138700000Y-109500000D03*
X124900000Y-81100000D03*
X126600000Y-105900000D03*
X127600000Y-105900000D03*
X135800000Y-108600000D03*
X129000000Y-103600000D03*
X125900000Y-114200000D03*
X132800000Y-120200000D03*
X138700000Y-108600000D03*
X101800000Y-81100000D03*
X125000000Y-109900000D03*
X141900000Y-98600000D03*
X118800000Y-84400000D03*
X138000000Y-97600000D03*
X125700000Y-90500000D03*
X126300000Y-121900000D03*
X137200000Y-97600000D03*
X140700000Y-112200000D03*
X112200000Y-88400000D03*
X122900000Y-112400000D03*
X137400000Y-81900000D03*
X127900000Y-81100000D03*
X121900000Y-82800000D03*
X118900000Y-82800000D03*
X138000000Y-82700000D03*
X103800000Y-81100000D03*
X126900000Y-113300000D03*
X140700000Y-101000000D03*
X135800000Y-119300000D03*
X106800000Y-81100000D03*
X135800000Y-112200000D03*
X122900000Y-116900000D03*
X136900000Y-81100000D03*
X129300000Y-96000000D03*
X129300000Y-97500000D03*
X128300000Y-121900000D03*
X129800000Y-99700000D03*
X120800000Y-121100000D03*
X128000000Y-98200000D03*
X125900000Y-115100000D03*
X134800000Y-119300000D03*
X130300000Y-97500000D03*
X123800000Y-121100000D03*
X140700000Y-114500000D03*
X127600000Y-104400000D03*
X133800000Y-98200000D03*
X116400000Y-120300000D03*
X127900000Y-99700000D03*
X112900000Y-121100000D03*
X112200000Y-117000000D03*
X119400000Y-120300000D03*
X139700000Y-109500000D03*
X122300000Y-120300000D03*
X143900000Y-95600000D03*
X118200000Y-111700000D03*
X112300000Y-112700000D03*
X114400000Y-121900000D03*
X117900000Y-82800000D03*
X125900000Y-116900000D03*
X134000000Y-82700000D03*
X115900000Y-82800000D03*
X124900000Y-115100000D03*
X137800000Y-108600000D03*
X123900000Y-111500000D03*
X130900000Y-98200000D03*
X141200000Y-121900000D03*
X114900000Y-119500000D03*
X122900000Y-117800000D03*
X137200000Y-96600000D03*
X125900000Y-117800000D03*
X138200000Y-98600000D03*
X139000000Y-82700000D03*
X109900000Y-119500000D03*
X134800000Y-121100000D03*
X129400000Y-81900000D03*
X112500000Y-118700000D03*
X144100000Y-87300000D03*
X111400000Y-120300000D03*
X132400000Y-81900000D03*
X122800000Y-119500000D03*
X132700000Y-96800000D03*
X112500000Y-81900000D03*
X101500000Y-91500000D03*
X114500000Y-89600000D03*
X133800000Y-120200000D03*
X123900000Y-116000000D03*
X117900000Y-119500000D03*
X136400000Y-81900000D03*
X136800000Y-112200000D03*
X117700000Y-113500000D03*
X131900000Y-99700000D03*
X144100000Y-88200000D03*
X116900000Y-119500000D03*
X123900000Y-117800000D03*
X141400000Y-81900000D03*
X116500000Y-82000000D03*
X118700000Y-115300000D03*
X125300000Y-121900000D03*
X119800000Y-121100000D03*
X118200000Y-112600000D03*
X144000000Y-116900000D03*
X119400000Y-110900000D03*
X144100000Y-86400000D03*
X119500000Y-118700000D03*
X112200000Y-115700000D03*
X114900000Y-82800000D03*
X116800000Y-84400000D03*
X125800000Y-121100000D03*
X138200000Y-121900000D03*
X132200000Y-97500000D03*
X132000000Y-82700000D03*
X135500000Y-94700000D03*
X117900000Y-121100000D03*
X107400000Y-121900000D03*
X129000000Y-82700000D03*
X128100000Y-105100000D03*
X136800000Y-111300000D03*
X142900000Y-81100000D03*
X124900000Y-114200000D03*
X123400000Y-118700000D03*
X136300000Y-121900000D03*
X113900000Y-96900000D03*
X113900000Y-81100000D03*
X136800000Y-109500000D03*
X140700000Y-107700000D03*
X121800000Y-87100000D03*
X140700000Y-120800000D03*
X132800000Y-121100000D03*
X140700000Y-111300000D03*
X134500000Y-94700000D03*
X117500000Y-118700000D03*
X138400000Y-81900000D03*
X144100000Y-89000000D03*
X112900000Y-119500000D03*
X136800000Y-108600000D03*
X111000000Y-90000000D03*
X129800000Y-98200000D03*
X130000000Y-105100000D03*
X111500000Y-118700000D03*
X118400000Y-83600000D03*
X142200000Y-86400000D03*
X129800000Y-96800000D03*
X115900000Y-81100000D03*
X121500000Y-82000000D03*
X128900000Y-81100000D03*
X110900000Y-119500000D03*
X118900000Y-121100000D03*
X105800000Y-81100000D03*
X128400000Y-89600000D03*
X126900000Y-98200000D03*
X127400000Y-99000000D03*
X133800000Y-119300000D03*
X131700000Y-96800000D03*
X118900000Y-119500000D03*
X142200000Y-85500000D03*
X117700000Y-115300000D03*
X109400000Y-121900000D03*
X117900000Y-99700000D03*
X143100000Y-87300000D03*
X141900000Y-81100000D03*
X117300000Y-91300000D03*
X112400000Y-120300000D03*
X135800000Y-113100000D03*
X142900000Y-116900000D03*
X125900000Y-111500000D03*
X115500000Y-118700000D03*
X121800000Y-84400000D03*
X101700000Y-111800000D03*
X121800000Y-121100000D03*
X130100000Y-89600000D03*
X143700000Y-111300000D03*
X144100000Y-90900000D03*
X102500000Y-91000000D03*
X115400000Y-83600000D03*
X129300000Y-90500000D03*
X132800000Y-119300000D03*
X136600000Y-94700000D03*
X115500000Y-82000000D03*
X106400000Y-121900000D03*
X143900000Y-96600000D03*
X142700000Y-110400000D03*
X124800000Y-119500000D03*
X123300000Y-120300000D03*
X138700000Y-112200000D03*
X139400000Y-81900000D03*
X137800000Y-112200000D03*
X129300000Y-89600000D03*
X127100000Y-106700000D03*
X135800000Y-107600000D03*
X123900000Y-81100000D03*
X129900000Y-81100000D03*
X143400000Y-81900000D03*
X109300000Y-90000000D03*
X119500000Y-82000000D03*
X116100000Y-114400000D03*
X121800000Y-86200000D03*
X116700000Y-115300000D03*
X113500000Y-118700000D03*
X110200000Y-90000000D03*
X113900000Y-119500000D03*
X135800000Y-114900000D03*
X118500000Y-118700000D03*
X118200000Y-110900000D03*
X117200000Y-114400000D03*
X121400000Y-90700000D03*
X125400000Y-110700000D03*
X135300000Y-121900000D03*
X144100000Y-89900000D03*
X136000000Y-82700000D03*
X132300000Y-121900000D03*
X112800000Y-111800000D03*
X132200000Y-96000000D03*
X126900000Y-116900000D03*
X128400000Y-99000000D03*
X111900000Y-119500000D03*
X120800000Y-87100000D03*
X121400000Y-88000000D03*
X105400000Y-121900000D03*
X120300000Y-121900000D03*
X118400000Y-121900000D03*
X125300000Y-120300000D03*
X140700000Y-109500000D03*
X117900000Y-103000000D03*
X143100000Y-90900000D03*
X114900000Y-81100000D03*
X123900000Y-113300000D03*
X116700000Y-113500000D03*
X136600000Y-95600000D03*
X124900000Y-116900000D03*
X116500000Y-118700000D03*
X120900000Y-81100000D03*
X140000000Y-82700000D03*
X143800000Y-98600000D03*
X117400000Y-120300000D03*
X118700000Y-113500000D03*
X143900000Y-94600000D03*
X128300000Y-97200000D03*
X130300000Y-99000000D03*
X143700000Y-109500000D03*
X127800000Y-121100000D03*
X113900000Y-121100000D03*
X139700000Y-108600000D03*
X116900000Y-82800000D03*
X128400000Y-90500000D03*
X115400000Y-120300000D03*
X128600000Y-104400000D03*
X117400000Y-121900000D03*
X141000000Y-82700000D03*
X137600000Y-95600000D03*
X118200000Y-114400000D03*
X140700000Y-100000000D03*
X129500000Y-104400000D03*
X115800000Y-84400000D03*
X142800000Y-98600000D03*
X136100000Y-93700000D03*
X122900000Y-81100000D03*
X116400000Y-121900000D03*
X109900000Y-121100000D03*
X121400000Y-88900000D03*
X139700000Y-112200000D03*
X130100000Y-90500000D03*
X130000000Y-82700000D03*
X135800000Y-121100000D03*
X138900000Y-81100000D03*
X102800000Y-81100000D03*
X139000000Y-98600000D03*
X123900000Y-116900000D03*
X137200000Y-98600000D03*
X129000000Y-105100000D03*
X125900000Y-112400000D03*
X135800000Y-110400000D03*
X112200000Y-109200000D03*
X139200000Y-121900000D03*
X120500000Y-82000000D03*
X112200000Y-87100000D03*
X126100000Y-106700000D03*
X133400000Y-81900000D03*
X121300000Y-121900000D03*
X136800000Y-110400000D03*
X131400000Y-99000000D03*
X114500000Y-82000000D03*
X117400000Y-83600000D03*
X131200000Y-96000000D03*
X113400000Y-120300000D03*
X123900000Y-115100000D03*
X137800000Y-110400000D03*
X139900000Y-81100000D03*
X140900000Y-98600000D03*
X126300000Y-120300000D03*
X127500000Y-89600000D03*
X139700000Y-110400000D03*
X122900000Y-115100000D03*
X134400000Y-81900000D03*
X126900000Y-111500000D03*
X107800000Y-81100000D03*
X131000000Y-82700000D03*
X124300000Y-121900000D03*
X137000000Y-82700000D03*
X114400000Y-83600000D03*
X130800000Y-95000000D03*
X130800000Y-96800000D03*
X125400000Y-118700000D03*
X126900000Y-115100000D03*
X120800000Y-119500000D03*
X140000000Y-98600000D03*
X121300000Y-120300000D03*
X139600000Y-88400000D03*
X122800000Y-121100000D03*
X124900000Y-112400000D03*
X129300000Y-121900000D03*
X126800000Y-121100000D03*
X133000000Y-82700000D03*
X143700000Y-110400000D03*
X131200000Y-97500000D03*
X140700000Y-113400000D03*
X127000000Y-109900000D03*
X135800000Y-111300000D03*
X126400000Y-118700000D03*
X141700000Y-108600000D03*
X125800000Y-119500000D03*
X119400000Y-111700000D03*
X132800000Y-98200000D03*
X111900000Y-90000000D03*
X140700000Y-119700000D03*
X130400000Y-81900000D03*
X121800000Y-119500000D03*
X143100000Y-89900000D03*
X135800000Y-120200000D03*
X137300000Y-121900000D03*
X115400000Y-89600000D03*
X123800000Y-119500000D03*
X143700000Y-112200000D03*
X143100000Y-86400000D03*
X126900000Y-81100000D03*
X104400000Y-121900000D03*
X120800000Y-86200000D03*
X112300000Y-85800000D03*
X108400000Y-121900000D03*
X130900000Y-81100000D03*
X118900000Y-81100000D03*
X127400000Y-118700000D03*
X120900000Y-82800000D03*
X144100000Y-85500000D03*
X125700000Y-89600000D03*
X142700000Y-108600000D03*
X141700000Y-110400000D03*
X118400000Y-120300000D03*
X119800000Y-84400000D03*
X123900000Y-114200000D03*
X113400000Y-121900000D03*
X140900000Y-81100000D03*
X116900000Y-81100000D03*
X116500000Y-99700000D03*
X110400000Y-121900000D03*
X142700000Y-109500000D03*
X135400000Y-81900000D03*
X109800000Y-81100000D03*
X126900000Y-112400000D03*
X112200000Y-106600000D03*
X139700000Y-111300000D03*
X130300000Y-96000000D03*
X114500000Y-118700000D03*
X129300000Y-99000000D03*
X143700000Y-108600000D03*
X115700000Y-115300000D03*
X114400000Y-120300000D03*
X117500000Y-82000000D03*
X111900000Y-81100000D03*
X124400000Y-118700000D03*
X125900000Y-81100000D03*
X138700000Y-111300000D03*
X132800000Y-99700000D03*
X126900000Y-99700000D03*
X116400000Y-83600000D03*
X123900000Y-112400000D03*
X143100000Y-89000000D03*
X120300000Y-120300000D03*
X108800000Y-81100000D03*
X119200000Y-104400000D03*
X143900000Y-81100000D03*
X127300000Y-121900000D03*
X144300000Y-121900000D03*
X125900000Y-116000000D03*
X142400000Y-81900000D03*
X119400000Y-83600000D03*
X114900000Y-121100000D03*
X110900000Y-121100000D03*
X127100000Y-105100000D03*
X132900000Y-81100000D03*
X126900000Y-117800000D03*
X126800000Y-119500000D03*
X121400000Y-89800000D03*
X126000000Y-109900000D03*
X122400000Y-118700000D03*
X104800000Y-81100000D03*
X143200000Y-121900000D03*
X128800000Y-99700000D03*
X130500000Y-104400000D03*
X133900000Y-81100000D03*
X133800000Y-121100000D03*
X141700000Y-112200000D03*
X124900000Y-113300000D03*
X135800000Y-109500000D03*
X131800000Y-98200000D03*
X117800000Y-84400000D03*
X140700000Y-108600000D03*
X128800000Y-98200000D03*
X131900000Y-81100000D03*
X112300000Y-110900000D03*
X142700000Y-112200000D03*
X140700000Y-110400000D03*
X125900000Y-113300000D03*
X140400000Y-81900000D03*
X126900000Y-114200000D03*
X122300000Y-121900000D03*
X137800000Y-109500000D03*
X122900000Y-111500000D03*
X140200000Y-121900000D03*
X143100000Y-88200000D03*
X120800000Y-85300000D03*
X130000000Y-103600000D03*
X120400000Y-83600000D03*
X110500000Y-118700000D03*
X120800000Y-84400000D03*
X144100000Y-103600000D03*
X122500000Y-82000000D03*
X117900000Y-81100000D03*
X135800000Y-114000000D03*
X124300000Y-120300000D03*
X119800000Y-119500000D03*
X134800000Y-120200000D03*
X132400000Y-99000000D03*
X133300000Y-121900000D03*
X126600000Y-89600000D03*
X133900000Y-101600000D03*
X117900000Y-101400000D03*
X123900000Y-108100000D03*
X132200000Y-94400000D03*
X117800000Y-108100000D03*
X111500000Y-101400000D03*
X117800000Y-96900000D03*
X124000000Y-101400000D03*
D30*
X108500000Y-111800000D02*
X106000000Y-111800000D01*
D31*
X110500000Y-109170000D02*
X110500000Y-111800000D01*
D30*
X104000000Y-113360000D02*
X105100000Y-114460000D01*
X104000000Y-111800000D02*
X104000000Y-113360000D01*
D31*
X105100000Y-114460000D02*
X102460000Y-114460000D01*
X107540000Y-114460000D02*
X105100000Y-114460000D01*
D30*
X105585000Y-93660000D02*
X107640000Y-93660000D01*
X104100000Y-92175000D02*
X105585000Y-93660000D01*
X104100000Y-91000000D02*
X104100000Y-92175000D01*
D31*
X110460000Y-83260000D02*
X110500000Y-83300000D01*
X107640000Y-83260000D02*
X110460000Y-83260000D01*
X133600000Y-114500000D02*
X133600000Y-117000000D01*
X130900000Y-119500000D02*
X130900000Y-117000000D01*
X130900000Y-117000000D02*
X133600000Y-117000000D01*
X140700000Y-117000000D02*
X135600000Y-117000000D01*
D30*
X134200000Y-92800000D02*
X135500000Y-92800000D01*
X138160000Y-106140000D02*
X143240000Y-106140000D01*
D32*
X112670000Y-106630000D02*
X112300000Y-107000000D01*
D30*
X129400000Y-103600000D02*
X128150000Y-104850000D01*
D32*
X143240000Y-101060000D02*
X143240000Y-106140000D01*
X127800000Y-121100000D02*
X127960000Y-121260000D01*
D30*
X138160000Y-119540000D02*
X143240000Y-119540000D01*
X126097500Y-89700000D02*
X127197500Y-90800000D01*
X125100000Y-104850000D02*
X128150000Y-104850000D01*
X129400000Y-121700000D02*
X128960000Y-121260000D01*
D32*
X113940000Y-114430000D02*
X112870000Y-114430000D01*
X112300000Y-107000000D02*
X112300000Y-115000000D01*
X127960000Y-121260000D02*
X128960000Y-121260000D01*
X127640000Y-121260000D02*
X127800000Y-121100000D01*
X143240000Y-101060000D02*
X144500000Y-99800000D01*
D30*
X142660000Y-83980000D02*
X142660000Y-92620000D01*
D32*
X113940000Y-106630000D02*
X112670000Y-106630000D01*
D30*
X126880000Y-98030000D02*
X127000000Y-98150000D01*
X127197500Y-87420000D02*
X127197500Y-90800000D01*
D32*
X112300000Y-115000000D02*
X112300000Y-119300000D01*
D31*
X129030000Y-116870000D02*
X128900000Y-117000000D01*
D30*
X143240000Y-119540000D02*
X143240000Y-114460000D01*
D32*
X114260000Y-121260000D02*
X127640000Y-121260000D01*
X138800000Y-96800000D02*
X139700000Y-96800000D01*
D30*
X127197500Y-94102500D02*
X126880000Y-94420000D01*
D32*
X132100000Y-97300000D02*
X129400000Y-100000000D01*
D30*
X129400000Y-100000000D02*
X129400000Y-101500000D01*
X123600000Y-89700000D02*
X126097500Y-89700000D01*
D32*
X139700000Y-96800000D02*
X142000000Y-96800000D01*
D30*
X127000000Y-98150000D02*
X127550000Y-98150000D01*
D32*
X138510000Y-96510000D02*
X138800000Y-96800000D01*
D31*
X129030000Y-114500000D02*
X129030000Y-107200000D01*
D30*
X138160000Y-119540000D02*
X136000000Y-121700000D01*
D32*
X144100000Y-92600000D02*
X144080000Y-92620000D01*
D30*
X138160000Y-114460000D02*
X143240000Y-114460000D01*
D32*
X135680000Y-92620000D02*
X135500000Y-92800000D01*
D30*
X129030000Y-106230000D02*
X129030000Y-107200000D01*
D31*
X129030000Y-114500000D02*
X129030000Y-116870000D01*
D30*
X138510000Y-83980000D02*
X142660000Y-83980000D01*
D32*
X111500000Y-105700000D02*
X112300000Y-106500000D01*
X143240000Y-106140000D02*
X143240000Y-114460000D01*
X138510000Y-92620000D02*
X138510000Y-96400000D01*
X112200000Y-89200000D02*
X112200000Y-86200000D01*
X111500000Y-104900000D02*
X111500000Y-105700000D01*
X110460000Y-91980000D02*
X110460000Y-90940000D01*
X144500000Y-99800000D02*
X144500000Y-96900000D01*
D31*
X128960000Y-117060000D02*
X128900000Y-117000000D01*
D32*
X142000000Y-96800000D02*
X144400000Y-96800000D01*
X144500000Y-96900000D02*
X144500000Y-93000000D01*
D31*
X128960000Y-119500000D02*
X128960000Y-117060000D01*
D32*
X112600000Y-85800000D02*
X113940000Y-85800000D01*
D30*
X127197500Y-90800000D02*
X127197500Y-92780000D01*
D32*
X138510000Y-96400000D02*
X138510000Y-96510000D01*
X112200000Y-86200000D02*
X112600000Y-85800000D01*
D30*
X127197500Y-92780000D02*
X127197500Y-94102500D01*
X136000000Y-121700000D02*
X129400000Y-121700000D01*
X129000000Y-105700000D02*
X129000000Y-106200000D01*
D32*
X138510000Y-92620000D02*
X135680000Y-92620000D01*
D30*
X127550000Y-98150000D02*
X129400000Y-100000000D01*
D32*
X111200000Y-104600000D02*
X111500000Y-104900000D01*
D30*
X126880000Y-95500000D02*
X126880000Y-98030000D01*
D32*
X144400000Y-96800000D02*
X144500000Y-96900000D01*
X144500000Y-93000000D02*
X144100000Y-92600000D01*
D30*
X129400000Y-101500000D02*
X129400000Y-103600000D01*
X128960000Y-121260000D02*
X128960000Y-119500000D01*
D32*
X138160000Y-101060000D02*
X143240000Y-101060000D01*
D30*
X125100000Y-98150000D02*
X127000000Y-98150000D01*
D32*
X112870000Y-114430000D02*
X112300000Y-115000000D01*
D30*
X135500000Y-92800000D02*
X136800000Y-91500000D01*
D32*
X135400000Y-97300000D02*
X132100000Y-97300000D01*
D30*
X126880000Y-94420000D02*
X126880000Y-95500000D01*
D32*
X137610000Y-97300000D02*
X138510000Y-96400000D01*
D30*
X128150000Y-104850000D02*
X129000000Y-105700000D01*
D32*
X110400000Y-104600000D02*
X111200000Y-104600000D01*
X112300000Y-106500000D02*
X112300000Y-107000000D01*
X112300000Y-119300000D02*
X114260000Y-121260000D01*
D30*
X129000000Y-106200000D02*
X129030000Y-106230000D01*
D32*
X144080000Y-92620000D02*
X142660000Y-92620000D01*
X110460000Y-90940000D02*
X112200000Y-89200000D01*
D30*
X136800000Y-91500000D02*
X137940000Y-91500000D01*
D32*
X135400000Y-97300000D02*
X137610000Y-97300000D01*
D31*
X132200000Y-112000000D02*
X131000000Y-112000000D01*
X131000000Y-114470000D02*
X130970000Y-114500000D01*
X133600000Y-109900000D02*
X133600000Y-112500000D01*
X132700000Y-112500000D02*
X132200000Y-112000000D01*
X133600000Y-112500000D02*
X132700000Y-112500000D01*
X131000000Y-112000000D02*
X131000000Y-114470000D01*
D32*
X114937500Y-102050000D02*
X117150000Y-102050000D01*
D31*
X132400000Y-101600000D02*
X133900000Y-101600000D01*
D32*
X120662500Y-102050000D02*
X118550000Y-102050000D01*
X117250000Y-100750000D02*
X114937500Y-100750000D01*
X118550000Y-102050000D02*
X117900000Y-101400000D01*
X117150000Y-102050000D02*
X118450000Y-100750000D01*
X118450000Y-100750000D02*
X120662500Y-100750000D01*
D31*
X133900000Y-101600000D02*
X135400000Y-101600000D01*
X135400000Y-99300000D02*
X135400000Y-101600000D01*
D32*
X117900000Y-101400000D02*
X117250000Y-100750000D01*
D30*
X132180000Y-92780000D02*
X132200000Y-92800000D01*
D32*
X132200000Y-94400000D02*
X132200000Y-92800000D01*
D33*
X132200000Y-84700000D02*
X132200000Y-88800000D01*
D32*
X122400000Y-108100000D02*
X123900000Y-108100000D01*
D30*
X129737500Y-92780000D02*
X132180000Y-92780000D01*
D33*
X132200000Y-88800000D02*
X132200000Y-92800000D01*
D31*
X140700000Y-103600000D02*
X135400000Y-103600000D01*
X123600000Y-95400000D02*
X123700000Y-95500000D01*
X122500000Y-95500000D02*
X123700000Y-95500000D01*
D32*
X123700000Y-92780000D02*
X123600000Y-92880000D01*
D31*
X121000000Y-94500000D02*
X121500000Y-94500000D01*
X121500000Y-94500000D02*
X122500000Y-95500000D01*
D32*
X125927500Y-92780000D02*
X123700000Y-92780000D01*
D31*
X123600000Y-92880000D02*
X123600000Y-95400000D01*
D32*
X139207500Y-89550000D02*
X140300000Y-90642500D01*
X140300000Y-93400000D02*
X139700000Y-94000000D01*
X140300000Y-90642500D02*
X140300000Y-93400000D01*
X137940000Y-89550000D02*
X139207500Y-89550000D01*
X139700000Y-94000000D02*
X139700000Y-94800000D01*
X141200000Y-93400000D02*
X142000000Y-94200000D01*
X137940000Y-86550000D02*
X139650000Y-86550000D01*
X142000000Y-94200000D02*
X142000000Y-94800000D01*
X141200000Y-88100000D02*
X141200000Y-93400000D01*
X139650000Y-86550000D02*
X141200000Y-88100000D01*
D31*
X113900000Y-111200000D02*
X113940000Y-111160000D01*
X113940000Y-111160000D02*
X113940000Y-109170000D01*
X114600000Y-111900000D02*
X113900000Y-111200000D01*
X116100000Y-111900000D02*
X114600000Y-111900000D01*
X115970000Y-116970000D02*
X116000000Y-117000000D01*
X113940000Y-116970000D02*
X115970000Y-116970000D01*
D30*
X116860000Y-88340000D02*
X117300000Y-87900000D01*
X117300000Y-87900000D02*
X117300000Y-86700000D01*
X113940000Y-88340000D02*
X116860000Y-88340000D01*
D31*
X110500000Y-106630000D02*
X105130000Y-106630000D01*
X105130000Y-106630000D02*
X105100000Y-106600000D01*
D30*
X105100000Y-96200000D02*
X108600000Y-96200000D01*
X109420000Y-95420000D02*
X110460000Y-95420000D01*
X108600000Y-96200000D02*
X109400000Y-95400000D01*
X109400000Y-95400000D02*
X109420000Y-95420000D01*
D31*
X110500000Y-114430000D02*
X107570000Y-114430000D01*
X107570000Y-114430000D02*
X107540000Y-114460000D01*
X102460000Y-114460000D02*
X102460000Y-119540000D01*
X102460000Y-119540000D02*
X107540000Y-119540000D01*
X110500000Y-116970000D02*
X105030000Y-116970000D01*
X105030000Y-116970000D02*
X105000000Y-117000000D01*
X110500000Y-88340000D02*
X107640000Y-88340000D01*
X107640000Y-88340000D02*
X102560000Y-88340000D01*
X102560000Y-83260000D02*
X107640000Y-83260000D01*
X102560000Y-88340000D02*
X102560000Y-83260000D01*
X110500000Y-85800000D02*
X105100000Y-85800000D01*
X132400000Y-105300000D02*
X132400000Y-103600000D01*
X133600000Y-106500000D02*
X133600000Y-107900000D01*
X132400000Y-105300000D02*
X133600000Y-106500000D01*
X130970000Y-106730000D02*
X132400000Y-105300000D01*
X131000000Y-107230000D02*
X130970000Y-107200000D01*
X131000000Y-109700000D02*
X131000000Y-107230000D01*
X130970000Y-107200000D02*
X130970000Y-106730000D01*
D32*
X123600000Y-87380000D02*
X125887500Y-87380000D01*
X126500000Y-85800000D02*
X126500000Y-84700000D01*
X125887500Y-87380000D02*
X125927500Y-87420000D01*
X125927500Y-86372500D02*
X126500000Y-85800000D01*
X125927500Y-87420000D02*
X125927500Y-86372500D01*
X128457500Y-84942500D02*
X128700000Y-84700000D01*
X127200000Y-82700000D02*
X128000000Y-83500000D01*
X128700000Y-84700000D02*
X129680000Y-84700000D01*
X123600000Y-83100000D02*
X124000000Y-82700000D01*
X124000000Y-82700000D02*
X127200000Y-82700000D01*
X123600000Y-84200000D02*
X123600000Y-83100000D01*
X128000000Y-83500000D02*
X128000000Y-84485000D01*
X128457500Y-87420000D02*
X128457500Y-84942500D01*
X128000000Y-84485000D02*
X128457500Y-84942500D01*
D30*
X116100000Y-109900000D02*
X116100000Y-107700000D01*
D32*
X115400000Y-98500000D02*
X115400000Y-97200000D01*
X115400000Y-98987500D02*
X115400000Y-98500000D01*
X112700000Y-98150000D02*
X114150000Y-98150000D01*
X115400000Y-98987500D02*
X115387500Y-98987500D01*
X114500000Y-98500000D02*
X115400000Y-98500000D01*
X114150000Y-98150000D02*
X114500000Y-98500000D01*
X114937500Y-99450000D02*
X115400000Y-98987500D01*
D31*
X118000000Y-117000000D02*
X120800000Y-117000000D01*
D30*
X119300000Y-86700000D02*
X119300000Y-88800000D01*
X119300000Y-88800000D02*
X119400000Y-88900000D01*
D32*
X115400000Y-93100000D02*
X115400000Y-95200000D01*
X115850000Y-103350000D02*
X116100000Y-103600000D01*
X112700000Y-104600000D02*
X115500000Y-104600000D01*
X114937500Y-103350000D02*
X115850000Y-103350000D01*
X116100000Y-104000000D02*
X116100000Y-105700000D01*
X116100000Y-103600000D02*
X116100000Y-104000000D01*
X115500000Y-104600000D02*
X116100000Y-104000000D01*
D30*
X135500000Y-89335000D02*
X135500000Y-88800000D01*
X137940000Y-85900000D02*
X136965000Y-85900000D01*
X136965000Y-85900000D02*
X135500000Y-87365000D01*
X135500000Y-87365000D02*
X135500000Y-88800000D01*
X136865000Y-90700000D02*
X135500000Y-89335000D01*
X137940000Y-90700000D02*
X136865000Y-90700000D01*
D32*
X120662500Y-103350000D02*
X120662500Y-104000000D01*
X122800000Y-104850000D02*
X121512500Y-104850000D01*
X120662500Y-104000000D02*
X120662500Y-114862500D01*
X121512500Y-104850000D02*
X120662500Y-104000000D01*
X120662500Y-114862500D02*
X120800000Y-115000000D01*
X117800000Y-108100000D02*
X119200000Y-108100000D01*
X114937500Y-101400000D02*
X111500000Y-101400000D01*
X111500000Y-101400000D02*
X108000000Y-101400000D01*
X127300000Y-101400000D02*
X127400000Y-101500000D01*
X124000000Y-101400000D02*
X127300000Y-101400000D01*
X120662500Y-101400000D02*
X124000000Y-101400000D01*
X117800000Y-94500000D02*
X117800000Y-96900000D01*
X120662500Y-98162500D02*
X120650000Y-98150000D01*
X120662500Y-99450000D02*
X120662500Y-98162500D01*
X120350000Y-98150000D02*
X119400000Y-97200000D01*
X119400000Y-97200000D02*
X119400000Y-90900000D01*
X122800000Y-98150000D02*
X120350000Y-98150000D01*
X114937500Y-102700000D02*
X112800000Y-102700000D01*
X110400000Y-102600000D02*
X112700000Y-102600000D01*
X112800000Y-102700000D02*
X112700000Y-102600000D01*
X110400000Y-100150000D02*
X112700000Y-100150000D01*
X114937500Y-100100000D02*
X112750000Y-100100000D01*
X112750000Y-100100000D02*
X112700000Y-100150000D01*
X120662500Y-102700000D02*
X122650000Y-102700000D01*
X125100000Y-102850000D02*
X122800000Y-102850000D01*
X122650000Y-102700000D02*
X122800000Y-102850000D01*
X122800000Y-100150000D02*
X125100000Y-100150000D01*
X120662500Y-100100000D02*
X122750000Y-100100000D01*
X122750000Y-100100000D02*
X122800000Y-100150000D01*
D30*
X102560000Y-109140000D02*
X107640000Y-109140000D01*
X102560000Y-104060000D02*
X102560000Y-109140000D01*
D31*
X107670000Y-109170000D02*
X107640000Y-109140000D01*
X110500000Y-109170000D02*
X107670000Y-109170000D01*
D30*
X107640000Y-104060000D02*
X102560000Y-104060000D01*
D32*
X113000000Y-91980000D02*
X113620000Y-91980000D01*
X114100000Y-91100000D02*
X115400000Y-91100000D01*
X113900000Y-91300000D02*
X114100000Y-91100000D01*
X113900000Y-91700000D02*
X113900000Y-91300000D01*
X113620000Y-91980000D02*
X113900000Y-91700000D01*
D30*
X102560000Y-98740000D02*
X107640000Y-98740000D01*
X112440000Y-93660000D02*
X107640000Y-93660000D01*
X102560000Y-93660000D02*
X102560000Y-98740000D01*
X113000000Y-95420000D02*
X113000000Y-94220000D01*
X113000000Y-94220000D02*
X112440000Y-93660000D01*
X107640000Y-93660000D02*
X102560000Y-93660000D01*
%TA.AperFunction,Conductor*%
G36*
X137583967Y-101367896D02*
G01*
X137655103Y-101474358D01*
X137745642Y-101564897D01*
X137852104Y-101636033D01*
X137912502Y-101661050D01*
X137180354Y-102393197D01*
X137187157Y-102399007D01*
X137384228Y-102519773D01*
X137431103Y-102571585D01*
X137442526Y-102640514D01*
X137414869Y-102704677D01*
X137356913Y-102743702D01*
X137319438Y-102749500D01*
X136641006Y-102749500D01*
X136573967Y-102729815D01*
X136528212Y-102677011D01*
X136524824Y-102668832D01*
X136524736Y-102668597D01*
X136518796Y-102652669D01*
X136518795Y-102652668D01*
X136515696Y-102644358D01*
X136518953Y-102643143D01*
X136507628Y-102591225D01*
X136517841Y-102556440D01*
X136515696Y-102555640D01*
X136518794Y-102547333D01*
X136518796Y-102547331D01*
X136569091Y-102412483D01*
X136575500Y-102352873D01*
X136575499Y-102071902D01*
X136595183Y-102004866D01*
X136647987Y-101959111D01*
X136717146Y-101949167D01*
X136780701Y-101978192D01*
X136805226Y-102007114D01*
X136820994Y-102032845D01*
X136826801Y-102039644D01*
X137558949Y-101307497D01*
X137583967Y-101367896D01*
G37*
%TD.AperFunction*%
%TA.AperFunction,Conductor*%
G36*
X144842539Y-80520185D02*
G01*
X144888294Y-80572989D01*
X144899500Y-80624500D01*
X144899500Y-100170482D01*
X144879815Y-100237521D01*
X144827011Y-100283276D01*
X144757853Y-100293220D01*
X144694297Y-100264195D01*
X144669773Y-100235272D01*
X144579007Y-100087157D01*
X144573197Y-100080354D01*
X143841050Y-100812501D01*
X143816033Y-100752104D01*
X143744897Y-100645642D01*
X143654358Y-100555103D01*
X143547896Y-100483967D01*
X143487497Y-100458949D01*
X144219645Y-99726801D01*
X144212843Y-99720993D01*
X144212842Y-99720992D01*
X143991400Y-99585292D01*
X143991397Y-99585290D01*
X143751462Y-99485906D01*
X143751445Y-99485901D01*
X143498911Y-99425274D01*
X143498912Y-99425274D01*
X143240000Y-99404898D01*
X142981087Y-99425274D01*
X142728554Y-99485901D01*
X142728537Y-99485906D01*
X142488602Y-99585290D01*
X142488599Y-99585292D01*
X142267155Y-99720993D01*
X142260353Y-99726800D01*
X142992502Y-100458949D01*
X142932104Y-100483967D01*
X142825642Y-100555103D01*
X142735103Y-100645642D01*
X142663967Y-100752104D01*
X142638949Y-100812502D01*
X141906800Y-100080353D01*
X141900993Y-100087155D01*
X141765292Y-100308599D01*
X141765290Y-100308602D01*
X141665906Y-100548537D01*
X141665901Y-100548554D01*
X141605274Y-100801087D01*
X141584898Y-101060000D01*
X141605274Y-101318912D01*
X141665901Y-101571445D01*
X141665906Y-101571462D01*
X141765290Y-101811397D01*
X141765292Y-101811400D01*
X141900992Y-102032842D01*
X141900993Y-102032843D01*
X141906801Y-102039644D01*
X142638949Y-101307497D01*
X142663967Y-101367896D01*
X142735103Y-101474358D01*
X142825642Y-101564897D01*
X142932104Y-101636033D01*
X142992502Y-101661050D01*
X142260354Y-102393197D01*
X142267157Y-102399007D01*
X142488599Y-102534707D01*
X142488602Y-102534709D01*
X142728537Y-102634093D01*
X142728554Y-102634098D01*
X142981088Y-102694725D01*
X142981087Y-102694725D01*
X143240000Y-102715101D01*
X143498912Y-102694725D01*
X143751445Y-102634098D01*
X143751462Y-102634093D01*
X143991397Y-102534709D01*
X143991400Y-102534707D01*
X144212844Y-102399005D01*
X144219644Y-102393197D01*
X143487497Y-101661050D01*
X143547896Y-101636033D01*
X143654358Y-101564897D01*
X143744897Y-101474358D01*
X143816033Y-101367896D01*
X143841050Y-101307497D01*
X144573197Y-102039644D01*
X144579005Y-102032844D01*
X144669773Y-101884726D01*
X144721584Y-101837851D01*
X144790514Y-101826428D01*
X144854677Y-101854085D01*
X144893702Y-101912041D01*
X144899500Y-101949516D01*
X144899500Y-105250482D01*
X144879815Y-105317521D01*
X144827011Y-105363276D01*
X144757853Y-105373220D01*
X144694297Y-105344195D01*
X144669773Y-105315272D01*
X144579007Y-105167157D01*
X144573197Y-105160354D01*
X143841050Y-105892501D01*
X143816033Y-105832104D01*
X143744897Y-105725642D01*
X143654358Y-105635103D01*
X143547896Y-105563967D01*
X143487497Y-105538949D01*
X144219645Y-104806801D01*
X144212843Y-104800993D01*
X144212842Y-104800992D01*
X143991400Y-104665292D01*
X143991397Y-104665290D01*
X143751462Y-104565906D01*
X143751445Y-104565901D01*
X143498911Y-104505274D01*
X143498912Y-104505274D01*
X143240000Y-104484898D01*
X142981087Y-104505274D01*
X142728554Y-104565901D01*
X142728537Y-104565906D01*
X142488602Y-104665290D01*
X142488599Y-104665292D01*
X142267155Y-104800993D01*
X142260353Y-104806800D01*
X142992502Y-105538949D01*
X142932104Y-105563967D01*
X142825642Y-105635103D01*
X142735103Y-105725642D01*
X142663967Y-105832104D01*
X142638949Y-105892502D01*
X141906800Y-105160353D01*
X141900993Y-105167155D01*
X141765292Y-105388599D01*
X141765290Y-105388602D01*
X141665906Y-105628537D01*
X141665901Y-105628554D01*
X141605274Y-105881087D01*
X141584898Y-106140000D01*
X141605274Y-106398912D01*
X141665901Y-106651445D01*
X141665906Y-106651462D01*
X141765290Y-106891397D01*
X141765292Y-106891400D01*
X141900992Y-107112842D01*
X141900993Y-107112843D01*
X141906801Y-107119644D01*
X142638949Y-106387497D01*
X142663967Y-106447896D01*
X142735103Y-106554358D01*
X142825642Y-106644897D01*
X142932104Y-106716033D01*
X142992502Y-106741050D01*
X142260354Y-107473197D01*
X142267157Y-107479007D01*
X142488599Y-107614707D01*
X142488602Y-107614709D01*
X142728537Y-107714093D01*
X142728554Y-107714098D01*
X142981088Y-107774725D01*
X142981087Y-107774725D01*
X143240000Y-107795101D01*
X143498912Y-107774725D01*
X143751445Y-107714098D01*
X143751462Y-107714093D01*
X143991397Y-107614709D01*
X143991400Y-107614707D01*
X144212844Y-107479005D01*
X144219644Y-107473197D01*
X143487497Y-106741050D01*
X143547896Y-106716033D01*
X143654358Y-106644897D01*
X143744897Y-106554358D01*
X143816033Y-106447896D01*
X143841050Y-106387497D01*
X144573197Y-107119644D01*
X144579005Y-107112844D01*
X144669773Y-106964726D01*
X144721584Y-106917851D01*
X144790514Y-106906428D01*
X144854677Y-106934085D01*
X144893702Y-106992041D01*
X144899500Y-107029516D01*
X144899500Y-113570482D01*
X144879815Y-113637521D01*
X144827011Y-113683276D01*
X144757853Y-113693220D01*
X144694297Y-113664195D01*
X144669773Y-113635272D01*
X144579007Y-113487157D01*
X144573197Y-113480354D01*
X143841050Y-114212501D01*
X143816033Y-114152104D01*
X143744897Y-114045642D01*
X143654358Y-113955103D01*
X143547896Y-113883967D01*
X143487497Y-113858949D01*
X144219645Y-113126801D01*
X144212843Y-113120993D01*
X144212842Y-113120992D01*
X143991400Y-112985292D01*
X143991397Y-112985290D01*
X143751462Y-112885906D01*
X143751445Y-112885901D01*
X143498911Y-112825274D01*
X143498912Y-112825274D01*
X143240000Y-112804898D01*
X142981087Y-112825274D01*
X142728554Y-112885901D01*
X142728537Y-112885906D01*
X142488602Y-112985290D01*
X142488599Y-112985292D01*
X142267155Y-113120993D01*
X142260353Y-113126800D01*
X142992502Y-113858949D01*
X142932104Y-113883967D01*
X142825642Y-113955103D01*
X142735103Y-114045642D01*
X142663967Y-114152104D01*
X142638949Y-114212502D01*
X141906800Y-113480353D01*
X141900993Y-113487155D01*
X141765292Y-113708599D01*
X141765290Y-113708602D01*
X141665906Y-113948537D01*
X141665901Y-113948554D01*
X141605274Y-114201087D01*
X141584898Y-114460000D01*
X141605274Y-114718912D01*
X141665901Y-114971445D01*
X141665906Y-114971462D01*
X141765290Y-115211397D01*
X141765292Y-115211400D01*
X141900992Y-115432842D01*
X141900993Y-115432843D01*
X141906801Y-115439644D01*
X142638949Y-114707497D01*
X142663967Y-114767896D01*
X142735103Y-114874358D01*
X142825642Y-114964897D01*
X142932104Y-115036033D01*
X142992502Y-115061050D01*
X142260354Y-115793197D01*
X142267157Y-115799007D01*
X142488599Y-115934707D01*
X142488602Y-115934709D01*
X142728537Y-116034093D01*
X142728554Y-116034098D01*
X142981088Y-116094725D01*
X142981087Y-116094725D01*
X143240000Y-116115101D01*
X143498912Y-116094725D01*
X143751445Y-116034098D01*
X143751462Y-116034093D01*
X143991397Y-115934709D01*
X143991400Y-115934707D01*
X144212844Y-115799005D01*
X144219644Y-115793197D01*
X143487497Y-115061050D01*
X143547896Y-115036033D01*
X143654358Y-114964897D01*
X143744897Y-114874358D01*
X143816033Y-114767896D01*
X143841050Y-114707497D01*
X144573197Y-115439644D01*
X144579005Y-115432844D01*
X144669773Y-115284726D01*
X144721584Y-115237851D01*
X144790514Y-115226428D01*
X144854677Y-115254085D01*
X144893702Y-115312041D01*
X144899500Y-115349516D01*
X144899500Y-118650482D01*
X144879815Y-118717521D01*
X144827011Y-118763276D01*
X144757853Y-118773220D01*
X144694297Y-118744195D01*
X144669773Y-118715272D01*
X144579007Y-118567157D01*
X144573197Y-118560354D01*
X143841050Y-119292501D01*
X143816033Y-119232104D01*
X143744897Y-119125642D01*
X143654358Y-119035103D01*
X143547896Y-118963967D01*
X143487497Y-118938949D01*
X144219645Y-118206801D01*
X144212843Y-118200993D01*
X144212842Y-118200992D01*
X143991400Y-118065292D01*
X143991397Y-118065290D01*
X143751462Y-117965906D01*
X143751445Y-117965901D01*
X143498911Y-117905274D01*
X143498912Y-117905274D01*
X143240000Y-117884898D01*
X142981087Y-117905274D01*
X142728554Y-117965901D01*
X142728537Y-117965906D01*
X142488602Y-118065290D01*
X142488599Y-118065292D01*
X142267155Y-118200993D01*
X142260353Y-118206800D01*
X142992502Y-118938949D01*
X142932104Y-118963967D01*
X142825642Y-119035103D01*
X142735103Y-119125642D01*
X142663967Y-119232104D01*
X142638949Y-119292502D01*
X141906800Y-118560353D01*
X141900993Y-118567155D01*
X141765292Y-118788599D01*
X141765290Y-118788602D01*
X141665906Y-119028537D01*
X141665901Y-119028554D01*
X141605274Y-119281087D01*
X141584898Y-119540000D01*
X141605274Y-119798912D01*
X141665901Y-120051445D01*
X141665906Y-120051462D01*
X141765290Y-120291397D01*
X141765292Y-120291400D01*
X141900992Y-120512842D01*
X141900993Y-120512843D01*
X141906801Y-120519644D01*
X142638949Y-119787497D01*
X142663967Y-119847896D01*
X142735103Y-119954358D01*
X142825642Y-120044897D01*
X142932104Y-120116033D01*
X142992502Y-120141050D01*
X142260354Y-120873197D01*
X142267157Y-120879007D01*
X142488599Y-121014707D01*
X142488602Y-121014709D01*
X142728537Y-121114093D01*
X142728554Y-121114098D01*
X142981088Y-121174725D01*
X142981087Y-121174725D01*
X143240000Y-121195101D01*
X143498912Y-121174725D01*
X143751445Y-121114098D01*
X143751462Y-121114093D01*
X143991397Y-121014709D01*
X143991400Y-121014707D01*
X144212844Y-120879005D01*
X144219644Y-120873197D01*
X143487497Y-120141050D01*
X143547896Y-120116033D01*
X143654358Y-120044897D01*
X143744897Y-119954358D01*
X143816033Y-119847896D01*
X143841050Y-119787497D01*
X144573197Y-120519644D01*
X144579005Y-120512844D01*
X144669773Y-120364726D01*
X144721584Y-120317851D01*
X144790514Y-120306428D01*
X144854677Y-120334085D01*
X144893702Y-120392041D01*
X144899500Y-120429516D01*
X144899500Y-122175500D01*
X144879815Y-122242539D01*
X144827011Y-122288294D01*
X144775500Y-122299500D01*
X101024500Y-122299500D01*
X100957461Y-122279815D01*
X100911706Y-122227011D01*
X100900500Y-122175500D01*
X100900500Y-120591566D01*
X100920185Y-120524527D01*
X100972989Y-120478772D01*
X101042147Y-120468828D01*
X101105703Y-120497853D01*
X101118790Y-120511034D01*
X101120584Y-120513134D01*
X101120588Y-120513140D01*
X101289311Y-120710689D01*
X101486860Y-120879412D01*
X101708372Y-121015154D01*
X101708374Y-121015154D01*
X101708376Y-121015156D01*
X101769693Y-121040554D01*
X101948390Y-121114573D01*
X102201006Y-121175221D01*
X102460000Y-121195604D01*
X102718994Y-121175221D01*
X102971610Y-121114573D01*
X103211628Y-121015154D01*
X103433140Y-120879412D01*
X103630689Y-120710689D01*
X103799412Y-120513140D01*
X103826566Y-120468828D01*
X103838282Y-120449710D01*
X103890094Y-120402835D01*
X103944009Y-120390500D01*
X106055991Y-120390500D01*
X106123030Y-120410185D01*
X106161718Y-120449710D01*
X106200584Y-120513134D01*
X106200596Y-120513150D01*
X106229974Y-120547547D01*
X106369311Y-120710689D01*
X106566860Y-120879412D01*
X106788372Y-121015154D01*
X106788374Y-121015154D01*
X106788376Y-121015156D01*
X106849693Y-121040554D01*
X107028390Y-121114573D01*
X107281006Y-121175221D01*
X107540000Y-121195604D01*
X107798994Y-121175221D01*
X108051610Y-121114573D01*
X108291628Y-121015154D01*
X108513140Y-120879412D01*
X108710689Y-120710689D01*
X108879412Y-120513140D01*
X109015154Y-120291628D01*
X109037432Y-120237844D01*
X127895000Y-120237844D01*
X127901401Y-120297372D01*
X127901403Y-120297379D01*
X127951645Y-120432086D01*
X127951649Y-120432093D01*
X128037809Y-120547187D01*
X128037812Y-120547190D01*
X128152906Y-120633350D01*
X128152913Y-120633354D01*
X128287620Y-120683596D01*
X128287627Y-120683598D01*
X128347155Y-120689999D01*
X128347172Y-120690000D01*
X128710000Y-120690000D01*
X128710000Y-119750000D01*
X127895000Y-119750000D01*
X127895000Y-120237844D01*
X109037432Y-120237844D01*
X109114573Y-120051610D01*
X109175221Y-119798994D01*
X109195604Y-119540000D01*
X109175221Y-119281006D01*
X109114573Y-119028390D01*
X109051879Y-118877035D01*
X109015156Y-118788376D01*
X109005868Y-118773220D01*
X108879412Y-118566860D01*
X108710689Y-118369311D01*
X108513140Y-118200588D01*
X108291628Y-118064846D01*
X108291627Y-118064845D01*
X108291623Y-118064843D01*
X108277663Y-118059061D01*
X108223259Y-118015219D01*
X108201195Y-117948925D01*
X108218475Y-117881226D01*
X108269612Y-117833616D01*
X108325116Y-117820500D01*
X109606894Y-117820500D01*
X109650227Y-117828318D01*
X109692517Y-117844091D01*
X109692516Y-117844091D01*
X109699444Y-117844835D01*
X109752127Y-117850500D01*
X111247872Y-117850499D01*
X111307483Y-117844091D01*
X111442331Y-117793796D01*
X111557546Y-117707546D01*
X111643796Y-117592331D01*
X111694091Y-117457483D01*
X111700500Y-117397873D01*
X111700499Y-116542128D01*
X111694091Y-116482517D01*
X111655231Y-116378329D01*
X111650248Y-116308642D01*
X111655227Y-116291682D01*
X111694091Y-116187483D01*
X111700500Y-116127873D01*
X111700499Y-115272128D01*
X111694091Y-115212517D01*
X111655231Y-115108329D01*
X111650248Y-115038642D01*
X111655227Y-115021682D01*
X111694091Y-114917483D01*
X111700500Y-114857873D01*
X111700499Y-114002155D01*
X112740000Y-114002155D01*
X112740000Y-114180000D01*
X113690000Y-114180000D01*
X114190000Y-114180000D01*
X115140000Y-114180000D01*
X115140000Y-114002172D01*
X115139999Y-114002155D01*
X115133598Y-113942627D01*
X115133596Y-113942620D01*
X115083354Y-113807913D01*
X115083350Y-113807906D01*
X114997190Y-113692812D01*
X114997187Y-113692809D01*
X114882093Y-113606649D01*
X114882086Y-113606645D01*
X114747379Y-113556403D01*
X114747372Y-113556401D01*
X114687844Y-113550000D01*
X114190000Y-113550000D01*
X114190000Y-114180000D01*
X113690000Y-114180000D01*
X113690000Y-113550000D01*
X113192155Y-113550000D01*
X113132627Y-113556401D01*
X113132620Y-113556403D01*
X112997913Y-113606645D01*
X112997906Y-113606649D01*
X112882812Y-113692809D01*
X112882809Y-113692812D01*
X112796649Y-113807906D01*
X112796645Y-113807913D01*
X112746403Y-113942620D01*
X112746401Y-113942627D01*
X112740000Y-114002155D01*
X111700499Y-114002155D01*
X111700499Y-114002128D01*
X111694091Y-113942517D01*
X111672253Y-113883967D01*
X111643797Y-113807671D01*
X111643793Y-113807664D01*
X111557547Y-113692455D01*
X111557544Y-113692452D01*
X111442335Y-113606206D01*
X111442328Y-113606202D01*
X111307482Y-113555908D01*
X111307483Y-113555908D01*
X111247883Y-113549501D01*
X111247881Y-113549500D01*
X111247873Y-113549500D01*
X111247864Y-113549500D01*
X109752129Y-113549500D01*
X109752123Y-113549501D01*
X109692516Y-113555908D01*
X109650227Y-113571682D01*
X109606894Y-113579500D01*
X109005625Y-113579500D01*
X108938586Y-113559815D01*
X108899897Y-113520289D01*
X108892898Y-113508868D01*
X108879412Y-113486860D01*
X108710689Y-113289311D01*
X108598263Y-113193290D01*
X108560070Y-113134783D01*
X108559572Y-113064915D01*
X108596926Y-113005869D01*
X108660272Y-112976391D01*
X108678795Y-112975000D01*
X109252828Y-112975000D01*
X109252844Y-112974999D01*
X109312372Y-112968598D01*
X109312376Y-112968597D01*
X109455398Y-112915253D01*
X109456647Y-112918603D01*
X109508198Y-112907337D01*
X109543604Y-112917719D01*
X109544359Y-112915697D01*
X109687517Y-112969091D01*
X109687516Y-112969091D01*
X109694444Y-112969835D01*
X109747127Y-112975500D01*
X111252872Y-112975499D01*
X111312483Y-112969091D01*
X111447331Y-112918796D01*
X111562546Y-112832546D01*
X111648796Y-112717331D01*
X111699091Y-112582483D01*
X111705500Y-112522873D01*
X111705499Y-111077128D01*
X111699091Y-111017517D01*
X111684148Y-110977454D01*
X111648797Y-110882671D01*
X111648793Y-110882664D01*
X111562547Y-110767455D01*
X111562544Y-110767452D01*
X111447334Y-110681205D01*
X111431164Y-110675174D01*
X111375231Y-110633301D01*
X111350816Y-110567836D01*
X111350500Y-110558993D01*
X111350500Y-110114141D01*
X111370185Y-110047102D01*
X111422989Y-110001347D01*
X111431149Y-109997966D01*
X111442331Y-109993796D01*
X111557546Y-109907546D01*
X111643796Y-109792331D01*
X111694091Y-109657483D01*
X111700500Y-109597873D01*
X111700499Y-108742128D01*
X111694091Y-108682517D01*
X111655231Y-108578329D01*
X111650248Y-108508642D01*
X111655227Y-108491682D01*
X111694091Y-108387483D01*
X111700500Y-108327873D01*
X111700499Y-107472128D01*
X111694091Y-107412517D01*
X111655231Y-107308329D01*
X111650248Y-107238642D01*
X111655227Y-107221682D01*
X111694091Y-107117483D01*
X111700500Y-107057873D01*
X111700499Y-106202128D01*
X111694091Y-106142517D01*
X111693152Y-106140000D01*
X111643797Y-106007671D01*
X111643793Y-106007664D01*
X111557547Y-105892455D01*
X111557544Y-105892452D01*
X111442335Y-105806206D01*
X111442330Y-105806203D01*
X111405115Y-105792323D01*
X111349182Y-105750451D01*
X111324765Y-105684987D01*
X111339617Y-105616714D01*
X111374138Y-105576874D01*
X111447186Y-105522190D01*
X111450414Y-105517878D01*
X111506344Y-105476003D01*
X111576036Y-105471013D01*
X111637361Y-105504493D01*
X111648951Y-105517867D01*
X111652187Y-105522190D01*
X111652455Y-105522547D01*
X111767664Y-105608793D01*
X111767671Y-105608797D01*
X111902517Y-105659091D01*
X111902516Y-105659091D01*
X111909444Y-105659835D01*
X111962127Y-105665500D01*
X112813904Y-105665499D01*
X112880942Y-105685183D01*
X112926697Y-105737987D01*
X112936641Y-105807146D01*
X112907616Y-105870702D01*
X112888219Y-105888762D01*
X112882811Y-105892810D01*
X112882809Y-105892812D01*
X112796649Y-106007906D01*
X112796645Y-106007913D01*
X112746403Y-106142620D01*
X112746401Y-106142627D01*
X112740000Y-106202155D01*
X112740000Y-106380000D01*
X113690000Y-106380000D01*
X113690000Y-105750000D01*
X113685747Y-105745747D01*
X113652262Y-105684424D01*
X113657246Y-105614732D01*
X113699115Y-105558801D01*
X113747546Y-105522546D01*
X113833796Y-105407331D01*
X113833888Y-105407086D01*
X113862203Y-105331168D01*
X113904073Y-105275234D01*
X113969537Y-105250816D01*
X113978385Y-105250500D01*
X114800500Y-105250500D01*
X114867539Y-105270185D01*
X114913294Y-105322989D01*
X114924500Y-105374500D01*
X114924500Y-105643871D01*
X114904815Y-105710910D01*
X114852011Y-105756665D01*
X114782853Y-105766609D01*
X114757170Y-105760054D01*
X114747382Y-105756403D01*
X114747372Y-105756401D01*
X114687844Y-105750000D01*
X114190000Y-105750000D01*
X114190000Y-106756000D01*
X114170315Y-106823039D01*
X114117511Y-106868794D01*
X114066000Y-106880000D01*
X112740000Y-106880000D01*
X112740000Y-107057844D01*
X112746401Y-107117372D01*
X112746403Y-107117379D01*
X112785033Y-107220952D01*
X112790017Y-107290644D01*
X112785033Y-107307618D01*
X112745908Y-107412516D01*
X112739709Y-107470184D01*
X112739501Y-107472123D01*
X112739500Y-107472135D01*
X112739500Y-108327870D01*
X112739501Y-108327876D01*
X112745909Y-108387484D01*
X112784766Y-108491668D01*
X112789750Y-108561359D01*
X112784766Y-108578332D01*
X112745909Y-108682514D01*
X112745908Y-108682516D01*
X112740751Y-108730490D01*
X112739501Y-108742123D01*
X112739500Y-108742135D01*
X112739500Y-109597870D01*
X112739501Y-109597876D01*
X112745908Y-109657483D01*
X112796202Y-109792328D01*
X112796206Y-109792335D01*
X112882452Y-109907544D01*
X112882455Y-109907547D01*
X112997665Y-109993794D01*
X112997667Y-109993794D01*
X112997669Y-109993796D01*
X113008830Y-109997958D01*
X113064764Y-110039826D01*
X113089184Y-110105289D01*
X113089500Y-110114141D01*
X113089500Y-110909590D01*
X113082343Y-110945595D01*
X113083954Y-110946084D01*
X113082182Y-110951925D01*
X113049500Y-111116229D01*
X113049500Y-111283771D01*
X113082181Y-111448073D01*
X113082184Y-111448082D01*
X113146296Y-111602863D01*
X113146297Y-111602866D01*
X113239372Y-111742161D01*
X113239375Y-111742165D01*
X113939374Y-112442162D01*
X114010076Y-112512864D01*
X114057839Y-112560627D01*
X114090549Y-112582483D01*
X114197137Y-112653703D01*
X114351918Y-112717816D01*
X114516228Y-112750499D01*
X114516232Y-112750500D01*
X114516233Y-112750500D01*
X114936451Y-112750500D01*
X115003490Y-112770185D01*
X115035718Y-112800190D01*
X115052449Y-112822541D01*
X115052452Y-112822544D01*
X115052454Y-112822546D01*
X115052457Y-112822548D01*
X115167664Y-112908793D01*
X115167671Y-112908797D01*
X115302517Y-112959091D01*
X115302516Y-112959091D01*
X115309444Y-112959835D01*
X115362127Y-112965500D01*
X116837872Y-112965499D01*
X116897483Y-112959091D01*
X117032331Y-112908796D01*
X117147546Y-112822546D01*
X117233796Y-112707331D01*
X117284091Y-112572483D01*
X117290500Y-112512873D01*
X117290499Y-111287128D01*
X117284091Y-111227517D01*
X117280402Y-111217627D01*
X117233797Y-111092671D01*
X117233796Y-111092669D01*
X117226310Y-111082669D01*
X117147546Y-110977454D01*
X117147545Y-110977453D01*
X117145193Y-110974311D01*
X117120776Y-110908847D01*
X117135627Y-110840574D01*
X117145193Y-110825689D01*
X117159432Y-110806668D01*
X117233796Y-110707331D01*
X117284091Y-110572483D01*
X117290500Y-110512873D01*
X117290499Y-109287128D01*
X117284091Y-109227517D01*
X117254108Y-109147129D01*
X117233797Y-109092671D01*
X117233793Y-109092664D01*
X117167850Y-109004577D01*
X117147546Y-108977454D01*
X117129106Y-108963650D01*
X117087237Y-108907718D01*
X117082253Y-108838026D01*
X117115738Y-108776703D01*
X117129103Y-108765122D01*
X117132546Y-108762546D01*
X117133568Y-108761180D01*
X117134934Y-108760157D01*
X117138817Y-108756275D01*
X117139374Y-108756832D01*
X117189496Y-108719306D01*
X117259187Y-108714316D01*
X117298810Y-108730489D01*
X117353914Y-108765114D01*
X117436851Y-108817227D01*
X117450478Y-108825789D01*
X117568830Y-108867202D01*
X117620745Y-108885368D01*
X117620750Y-108885369D01*
X117789383Y-108904369D01*
X117853797Y-108931435D01*
X117893352Y-108989030D01*
X117899500Y-109027589D01*
X117899500Y-109897870D01*
X117899501Y-109897876D01*
X117905908Y-109957483D01*
X117956202Y-110092328D01*
X117956206Y-110092335D01*
X118042452Y-110207544D01*
X118042455Y-110207547D01*
X118157664Y-110293793D01*
X118157671Y-110293797D01*
X118292517Y-110344091D01*
X118292516Y-110344091D01*
X118299444Y-110344835D01*
X118352127Y-110350500D01*
X119888000Y-110350499D01*
X119955039Y-110370184D01*
X120000794Y-110422987D01*
X120012000Y-110474499D01*
X120012000Y-113716871D01*
X119992315Y-113783910D01*
X119939511Y-113829665D01*
X119931335Y-113833052D01*
X119882667Y-113851204D01*
X119882665Y-113851205D01*
X119767455Y-113937452D01*
X119767452Y-113937455D01*
X119681206Y-114052664D01*
X119681202Y-114052671D01*
X119630908Y-114187517D01*
X119624501Y-114247116D01*
X119624501Y-114247123D01*
X119624500Y-114247135D01*
X119624500Y-115752870D01*
X119624501Y-115752876D01*
X119630908Y-115812483D01*
X119684303Y-115955641D01*
X119681057Y-115956851D01*
X119692363Y-116008868D01*
X119682188Y-116043568D01*
X119684304Y-116044358D01*
X119681204Y-116052668D01*
X119681204Y-116052669D01*
X119675608Y-116067674D01*
X119675176Y-116068832D01*
X119633306Y-116124766D01*
X119567842Y-116149184D01*
X119558994Y-116149500D01*
X119125413Y-116149500D01*
X119058374Y-116129815D01*
X119012619Y-116077011D01*
X119009233Y-116068838D01*
X119008799Y-116067674D01*
X119008793Y-116067664D01*
X118922547Y-115952455D01*
X118922544Y-115952452D01*
X118807335Y-115866206D01*
X118807328Y-115866202D01*
X118672482Y-115815908D01*
X118672483Y-115815908D01*
X118612883Y-115809501D01*
X118612881Y-115809500D01*
X118612873Y-115809500D01*
X118612864Y-115809500D01*
X117387129Y-115809500D01*
X117387123Y-115809501D01*
X117327516Y-115815908D01*
X117192671Y-115866202D01*
X117192669Y-115866203D01*
X117101161Y-115934707D01*
X117084298Y-115947331D01*
X117074311Y-115954807D01*
X117008847Y-115979224D01*
X116940574Y-115964373D01*
X116925689Y-115954807D01*
X116915702Y-115947331D01*
X116827963Y-115881649D01*
X116807330Y-115866203D01*
X116807328Y-115866202D01*
X116672482Y-115815908D01*
X116672483Y-115815908D01*
X116612883Y-115809501D01*
X116612881Y-115809500D01*
X116612873Y-115809500D01*
X116612864Y-115809500D01*
X115387129Y-115809500D01*
X115387123Y-115809501D01*
X115327515Y-115815909D01*
X115307829Y-115823251D01*
X115238137Y-115828233D01*
X115176815Y-115794747D01*
X115143332Y-115733422D01*
X115140499Y-115707068D01*
X115140499Y-115272129D01*
X115140498Y-115272123D01*
X115140497Y-115272116D01*
X115134091Y-115212517D01*
X115133759Y-115211628D01*
X115094966Y-115107618D01*
X115089982Y-115037927D01*
X115094966Y-115020951D01*
X115133597Y-114917376D01*
X115133598Y-114917372D01*
X115139999Y-114857844D01*
X115140000Y-114857827D01*
X115140000Y-114680000D01*
X112740000Y-114680000D01*
X112740000Y-114857844D01*
X112746401Y-114917372D01*
X112746403Y-114917379D01*
X112785033Y-115020952D01*
X112790017Y-115090644D01*
X112785033Y-115107618D01*
X112745908Y-115212516D01*
X112739501Y-115272116D01*
X112739501Y-115272123D01*
X112739500Y-115272135D01*
X112739500Y-116127870D01*
X112739501Y-116127876D01*
X112745909Y-116187484D01*
X112784766Y-116291668D01*
X112789750Y-116361359D01*
X112784766Y-116378332D01*
X112745909Y-116482514D01*
X112745908Y-116482516D01*
X112739501Y-116542116D01*
X112739501Y-116542123D01*
X112739500Y-116542135D01*
X112739500Y-117397870D01*
X112739501Y-117397876D01*
X112745908Y-117457483D01*
X112796202Y-117592328D01*
X112796206Y-117592335D01*
X112882452Y-117707544D01*
X112882455Y-117707547D01*
X112997664Y-117793793D01*
X112997671Y-117793797D01*
X113132517Y-117844091D01*
X113132516Y-117844091D01*
X113139444Y-117844835D01*
X113192127Y-117850500D01*
X114687872Y-117850499D01*
X114747483Y-117844091D01*
X114789773Y-117828318D01*
X114833106Y-117820500D01*
X114863398Y-117820500D01*
X114930437Y-117840185D01*
X114976192Y-117892989D01*
X114979580Y-117901167D01*
X114991202Y-117932328D01*
X114991206Y-117932335D01*
X115077452Y-118047544D01*
X115077455Y-118047547D01*
X115192664Y-118133793D01*
X115192671Y-118133797D01*
X115327517Y-118184091D01*
X115327516Y-118184091D01*
X115334444Y-118184835D01*
X115387127Y-118190500D01*
X116612872Y-118190499D01*
X116672483Y-118184091D01*
X116807331Y-118133796D01*
X116922546Y-118047546D01*
X116922546Y-118047545D01*
X116925689Y-118045193D01*
X116991153Y-118020776D01*
X117059426Y-118035627D01*
X117074311Y-118045193D01*
X117077453Y-118047545D01*
X117077454Y-118047546D01*
X117097493Y-118062547D01*
X117192669Y-118133796D01*
X117192671Y-118133797D01*
X117327517Y-118184091D01*
X117327516Y-118184091D01*
X117334444Y-118184835D01*
X117387127Y-118190500D01*
X118612872Y-118190499D01*
X118672483Y-118184091D01*
X118807331Y-118133796D01*
X118922546Y-118047546D01*
X119008796Y-117932331D01*
X119008796Y-117932328D01*
X119008799Y-117932325D01*
X119009233Y-117931162D01*
X119009976Y-117930168D01*
X119013047Y-117924546D01*
X119013855Y-117924987D01*
X119051106Y-117875230D01*
X119116571Y-117850816D01*
X119125413Y-117850500D01*
X119558994Y-117850500D01*
X119626033Y-117870185D01*
X119671788Y-117922989D01*
X119675171Y-117931156D01*
X119681203Y-117947328D01*
X119681205Y-117947333D01*
X119681205Y-117947334D01*
X119767452Y-118062544D01*
X119767455Y-118062547D01*
X119882664Y-118148793D01*
X119882671Y-118148797D01*
X120017517Y-118199091D01*
X120017516Y-118199091D01*
X120024444Y-118199835D01*
X120077127Y-118205500D01*
X121522872Y-118205499D01*
X121582483Y-118199091D01*
X121717331Y-118148796D01*
X121832546Y-118062546D01*
X121918796Y-117947331D01*
X121969091Y-117812483D01*
X121975500Y-117752873D01*
X121975499Y-116277155D01*
X127695000Y-116277155D01*
X127695000Y-116750000D01*
X129026000Y-116750000D01*
X129093039Y-116769685D01*
X129138794Y-116822489D01*
X129150000Y-116874000D01*
X129150000Y-117126000D01*
X129130315Y-117193039D01*
X129077511Y-117238794D01*
X129026000Y-117250000D01*
X127695000Y-117250000D01*
X127695000Y-117722844D01*
X127701401Y-117782372D01*
X127701403Y-117782379D01*
X127751645Y-117917086D01*
X127751649Y-117917093D01*
X127837809Y-118032187D01*
X127837812Y-118032190D01*
X127952906Y-118118350D01*
X127952913Y-118118354D01*
X128094892Y-118171309D01*
X128093661Y-118174609D01*
X128140519Y-118201001D01*
X128173195Y-118262759D01*
X128167295Y-118332379D01*
X128126005Y-118386788D01*
X128037809Y-118452812D01*
X127951649Y-118567906D01*
X127951645Y-118567913D01*
X127901403Y-118702620D01*
X127901401Y-118702627D01*
X127895000Y-118762155D01*
X127895000Y-119250000D01*
X129086000Y-119250000D01*
X129153039Y-119269685D01*
X129198794Y-119322489D01*
X129210000Y-119374000D01*
X129210000Y-120690000D01*
X129572828Y-120690000D01*
X129572844Y-120689999D01*
X129632372Y-120683598D01*
X129632379Y-120683596D01*
X129767086Y-120633354D01*
X129767089Y-120633352D01*
X129855271Y-120567339D01*
X129920735Y-120542921D01*
X129989008Y-120557772D01*
X130003887Y-120567334D01*
X130092076Y-120633352D01*
X130092668Y-120633795D01*
X130092671Y-120633797D01*
X130227517Y-120684091D01*
X130227516Y-120684091D01*
X130234444Y-120684835D01*
X130287127Y-120690500D01*
X131512872Y-120690499D01*
X131572483Y-120684091D01*
X131707331Y-120633796D01*
X131822546Y-120547546D01*
X131908796Y-120432331D01*
X131959091Y-120297483D01*
X131965500Y-120237873D01*
X131965499Y-118762128D01*
X131959091Y-118702517D01*
X131949635Y-118677165D01*
X131908797Y-118567671D01*
X131908793Y-118567664D01*
X131822548Y-118452457D01*
X131822546Y-118452454D01*
X131822544Y-118452452D01*
X131822542Y-118452450D01*
X131800188Y-118435716D01*
X131758318Y-118379782D01*
X131750500Y-118336450D01*
X131750500Y-118241006D01*
X131770185Y-118173967D01*
X131822989Y-118128212D01*
X131831156Y-118124828D01*
X131847331Y-118118796D01*
X131962546Y-118032546D01*
X132048796Y-117917331D01*
X132048798Y-117917323D01*
X132050027Y-117915076D01*
X132051849Y-117913253D01*
X132054112Y-117910231D01*
X132054546Y-117910556D01*
X132099431Y-117865669D01*
X132158861Y-117850500D01*
X132341139Y-117850500D01*
X132408178Y-117870185D01*
X132445637Y-117910418D01*
X132445888Y-117910231D01*
X132447635Y-117912565D01*
X132449973Y-117915076D01*
X132451207Y-117917336D01*
X132537452Y-118032544D01*
X132537455Y-118032547D01*
X132652664Y-118118793D01*
X132652671Y-118118797D01*
X132787517Y-118169091D01*
X132787516Y-118169091D01*
X132794444Y-118169835D01*
X132847127Y-118175500D01*
X134352872Y-118175499D01*
X134412483Y-118169091D01*
X134547331Y-118118796D01*
X134547333Y-118118794D01*
X134555640Y-118115696D01*
X134556855Y-118118953D01*
X134608775Y-118107628D01*
X134643559Y-118117841D01*
X134644360Y-118115696D01*
X134652666Y-118118794D01*
X134652669Y-118118796D01*
X134787517Y-118169091D01*
X134847127Y-118175500D01*
X136352872Y-118175499D01*
X136412483Y-118169091D01*
X136547331Y-118118796D01*
X136662546Y-118032546D01*
X136748796Y-117917331D01*
X136748798Y-117917323D01*
X136750027Y-117915076D01*
X136751849Y-117913253D01*
X136754112Y-117910231D01*
X136754546Y-117910556D01*
X136799431Y-117865669D01*
X136858861Y-117850500D01*
X137319438Y-117850500D01*
X137386477Y-117870185D01*
X137432232Y-117922989D01*
X137442176Y-117992147D01*
X137413151Y-118055703D01*
X137384228Y-118080227D01*
X137187155Y-118200993D01*
X137180353Y-118206800D01*
X137912502Y-118938949D01*
X137852104Y-118963967D01*
X137745642Y-119035103D01*
X137655103Y-119125642D01*
X137583967Y-119232104D01*
X137558949Y-119292502D01*
X136826800Y-118560353D01*
X136820993Y-118567155D01*
X136685292Y-118788599D01*
X136685290Y-118788602D01*
X136585906Y-119028537D01*
X136585901Y-119028554D01*
X136525274Y-119281087D01*
X136504898Y-119540000D01*
X136525274Y-119798912D01*
X136585901Y-120051445D01*
X136585906Y-120051462D01*
X136685290Y-120291397D01*
X136685292Y-120291400D01*
X136820992Y-120512842D01*
X136820993Y-120512843D01*
X136826801Y-120519644D01*
X137558949Y-119787497D01*
X137583967Y-119847896D01*
X137655103Y-119954358D01*
X137745642Y-120044897D01*
X137852104Y-120116033D01*
X137912502Y-120141050D01*
X137180354Y-120873197D01*
X137187157Y-120879007D01*
X137408599Y-121014707D01*
X137408602Y-121014709D01*
X137648537Y-121114093D01*
X137648554Y-121114098D01*
X137901088Y-121174725D01*
X137901087Y-121174725D01*
X138160000Y-121195101D01*
X138418912Y-121174725D01*
X138671445Y-121114098D01*
X138671462Y-121114093D01*
X138911397Y-121014709D01*
X138911400Y-121014707D01*
X139132844Y-120879005D01*
X139139644Y-120873197D01*
X138407497Y-120141050D01*
X138467896Y-120116033D01*
X138574358Y-120044897D01*
X138664897Y-119954358D01*
X138736033Y-119847896D01*
X138761050Y-119787497D01*
X139493197Y-120519644D01*
X139499005Y-120512844D01*
X139634707Y-120291400D01*
X139634709Y-120291397D01*
X139734093Y-120051462D01*
X139734098Y-120051445D01*
X139794725Y-119798912D01*
X139815101Y-119540000D01*
X139794725Y-119281087D01*
X139734098Y-119028554D01*
X139734093Y-119028537D01*
X139634709Y-118788602D01*
X139634707Y-118788599D01*
X139499007Y-118567157D01*
X139493197Y-118560354D01*
X138761050Y-119292501D01*
X138736033Y-119232104D01*
X138664897Y-119125642D01*
X138574358Y-119035103D01*
X138467896Y-118963967D01*
X138407497Y-118938949D01*
X139139645Y-118206801D01*
X139132843Y-118200993D01*
X139132842Y-118200992D01*
X138935772Y-118080227D01*
X138888897Y-118028415D01*
X138877474Y-117959486D01*
X138905131Y-117895323D01*
X138963087Y-117856298D01*
X139000562Y-117850500D01*
X139215991Y-117850500D01*
X139283030Y-117870185D01*
X139321718Y-117909710D01*
X139360584Y-117973134D01*
X139360596Y-117973150D01*
X139411326Y-118032547D01*
X139529311Y-118170689D01*
X139726860Y-118339412D01*
X139948372Y-118475154D01*
X139948374Y-118475154D01*
X139948376Y-118475156D01*
X139970445Y-118484297D01*
X140188390Y-118574573D01*
X140441006Y-118635221D01*
X140700000Y-118655604D01*
X140958994Y-118635221D01*
X141211610Y-118574573D01*
X141451628Y-118475154D01*
X141673140Y-118339412D01*
X141870689Y-118170689D01*
X142039412Y-117973140D01*
X142175154Y-117751628D01*
X142274573Y-117511610D01*
X142335221Y-117258994D01*
X142355604Y-117000000D01*
X142335221Y-116741006D01*
X142274573Y-116488390D01*
X142188905Y-116281569D01*
X142175156Y-116248376D01*
X142174391Y-116247128D01*
X142039412Y-116026860D01*
X141870689Y-115829311D01*
X141673140Y-115660588D01*
X141451628Y-115524846D01*
X141451627Y-115524845D01*
X141451623Y-115524843D01*
X141285627Y-115456086D01*
X141211610Y-115425427D01*
X141211611Y-115425427D01*
X141059165Y-115388828D01*
X140958994Y-115364779D01*
X140958992Y-115364778D01*
X140958991Y-115364778D01*
X140700000Y-115344396D01*
X140441009Y-115364778D01*
X140188389Y-115425427D01*
X139948376Y-115524843D01*
X139726859Y-115660588D01*
X139529311Y-115829311D01*
X139360596Y-116026849D01*
X139360584Y-116026865D01*
X139321718Y-116090290D01*
X139269906Y-116137165D01*
X139215991Y-116149500D01*
X139000562Y-116149500D01*
X138933523Y-116129815D01*
X138887768Y-116077011D01*
X138877824Y-116007853D01*
X138906849Y-115944297D01*
X138935772Y-115919773D01*
X139132844Y-115799005D01*
X139139644Y-115793197D01*
X138407497Y-115061050D01*
X138467896Y-115036033D01*
X138574358Y-114964897D01*
X138664897Y-114874358D01*
X138736033Y-114767896D01*
X138761050Y-114707497D01*
X139493197Y-115439644D01*
X139499005Y-115432844D01*
X139634707Y-115211400D01*
X139634709Y-115211397D01*
X139734093Y-114971462D01*
X139734098Y-114971445D01*
X139794725Y-114718912D01*
X139815101Y-114460000D01*
X139794725Y-114201087D01*
X139734098Y-113948554D01*
X139734093Y-113948537D01*
X139634709Y-113708602D01*
X139634707Y-113708599D01*
X139499007Y-113487157D01*
X139493197Y-113480354D01*
X138761050Y-114212501D01*
X138736033Y-114152104D01*
X138664897Y-114045642D01*
X138574358Y-113955103D01*
X138467896Y-113883967D01*
X138407497Y-113858949D01*
X139139645Y-113126801D01*
X139132843Y-113120993D01*
X139132842Y-113120992D01*
X138911400Y-112985292D01*
X138911397Y-112985290D01*
X138671462Y-112885906D01*
X138671445Y-112885901D01*
X138418911Y-112825274D01*
X138418912Y-112825274D01*
X138160000Y-112804898D01*
X137901087Y-112825274D01*
X137648554Y-112885901D01*
X137648537Y-112885906D01*
X137408602Y-112985290D01*
X137408599Y-112985292D01*
X137187155Y-113120993D01*
X137180353Y-113126800D01*
X137912502Y-113858949D01*
X137852104Y-113883967D01*
X137745642Y-113955103D01*
X137655103Y-114045642D01*
X137583967Y-114152104D01*
X137558949Y-114212502D01*
X136826800Y-113480353D01*
X136820993Y-113487155D01*
X136685292Y-113708599D01*
X136685290Y-113708602D01*
X136585906Y-113948537D01*
X136585901Y-113948554D01*
X136525274Y-114201087D01*
X136504898Y-114460000D01*
X136525274Y-114718912D01*
X136585901Y-114971445D01*
X136585906Y-114971462D01*
X136685290Y-115211397D01*
X136685292Y-115211400D01*
X136820992Y-115432842D01*
X136820993Y-115432843D01*
X136826801Y-115439644D01*
X137558949Y-114707497D01*
X137583967Y-114767896D01*
X137655103Y-114874358D01*
X137745642Y-114964897D01*
X137852104Y-115036033D01*
X137912502Y-115061050D01*
X137180354Y-115793197D01*
X137187157Y-115799007D01*
X137384228Y-115919773D01*
X137431103Y-115971585D01*
X137442526Y-116040514D01*
X137414869Y-116104677D01*
X137356913Y-116143702D01*
X137319438Y-116149500D01*
X136858861Y-116149500D01*
X136791822Y-116129815D01*
X136754362Y-116089581D01*
X136754112Y-116089769D01*
X136752364Y-116087434D01*
X136750027Y-116084924D01*
X136748797Y-116082673D01*
X136748796Y-116082669D01*
X136744560Y-116077011D01*
X136662547Y-115967455D01*
X136662544Y-115967452D01*
X136547335Y-115881206D01*
X136547328Y-115881202D01*
X136412482Y-115830908D01*
X136412483Y-115830908D01*
X136352883Y-115824501D01*
X136352881Y-115824500D01*
X136352873Y-115824500D01*
X136352864Y-115824500D01*
X134847129Y-115824500D01*
X134847123Y-115824501D01*
X134787516Y-115830908D01*
X134644359Y-115884303D01*
X134643151Y-115881064D01*
X134591080Y-115892360D01*
X134556428Y-115882183D01*
X134555638Y-115884303D01*
X134547332Y-115881204D01*
X134547331Y-115881204D01*
X134531164Y-115875174D01*
X134475231Y-115833301D01*
X134450816Y-115767836D01*
X134450500Y-115758993D01*
X134450500Y-115758861D01*
X134470185Y-115691822D01*
X134510418Y-115654362D01*
X134510231Y-115654112D01*
X134512565Y-115652364D01*
X134515076Y-115650027D01*
X134517323Y-115648798D01*
X134517331Y-115648796D01*
X134632546Y-115562546D01*
X134718796Y-115447331D01*
X134769091Y-115312483D01*
X134775500Y-115252873D01*
X134775499Y-113747128D01*
X134769091Y-113687517D01*
X134718796Y-113552669D01*
X134718794Y-113552666D01*
X134715696Y-113544360D01*
X134718953Y-113543144D01*
X134707628Y-113491225D01*
X134717841Y-113456440D01*
X134715696Y-113455640D01*
X134718794Y-113447333D01*
X134718796Y-113447331D01*
X134769091Y-113312483D01*
X134775500Y-113252873D01*
X134775499Y-111747128D01*
X134769091Y-111687517D01*
X134737518Y-111602866D01*
X134718797Y-111552671D01*
X134718793Y-111552664D01*
X134632547Y-111437455D01*
X134632544Y-111437452D01*
X134517329Y-111351202D01*
X134515068Y-111349967D01*
X134513246Y-111348145D01*
X134510231Y-111345888D01*
X134510555Y-111345454D01*
X134465665Y-111300559D01*
X134450500Y-111241138D01*
X134450500Y-111158861D01*
X134470185Y-111091822D01*
X134510418Y-111054362D01*
X134510231Y-111054112D01*
X134512565Y-111052364D01*
X134515076Y-111050027D01*
X134517323Y-111048798D01*
X134517331Y-111048796D01*
X134632546Y-110962546D01*
X134718796Y-110847331D01*
X134769091Y-110712483D01*
X134775500Y-110652873D01*
X134775499Y-109147128D01*
X134769091Y-109087517D01*
X134718796Y-108952669D01*
X134718794Y-108952666D01*
X134715696Y-108944360D01*
X134718953Y-108943144D01*
X134707628Y-108891225D01*
X134717841Y-108856440D01*
X134715696Y-108855640D01*
X134718794Y-108847333D01*
X134718796Y-108847331D01*
X134769091Y-108712483D01*
X134775500Y-108652873D01*
X134775499Y-107147128D01*
X134769091Y-107087517D01*
X134758038Y-107057883D01*
X134718797Y-106952671D01*
X134718793Y-106952664D01*
X134632547Y-106837455D01*
X134632544Y-106837452D01*
X134517329Y-106751202D01*
X134515068Y-106749967D01*
X134513246Y-106748145D01*
X134510231Y-106745888D01*
X134510555Y-106745454D01*
X134465665Y-106700559D01*
X134450500Y-106641138D01*
X134450500Y-106416232D01*
X134450499Y-106416228D01*
X134443293Y-106380000D01*
X134417816Y-106251918D01*
X134385759Y-106174527D01*
X134385759Y-106174526D01*
X134385759Y-106174525D01*
X134353706Y-106097142D01*
X134353705Y-106097140D01*
X134353704Y-106097137D01*
X134260626Y-105957838D01*
X134260622Y-105957834D01*
X134260620Y-105957831D01*
X133286819Y-104984030D01*
X133253334Y-104922707D01*
X133250500Y-104896349D01*
X133250500Y-104858861D01*
X133270185Y-104791822D01*
X133310418Y-104754362D01*
X133310231Y-104754112D01*
X133312565Y-104752364D01*
X133315076Y-104750027D01*
X133317323Y-104748798D01*
X133317331Y-104748796D01*
X133432546Y-104662546D01*
X133518796Y-104547331D01*
X133569091Y-104412483D01*
X133575500Y-104352873D01*
X133575499Y-102847128D01*
X133569091Y-102787517D01*
X133518796Y-102652669D01*
X133518794Y-102652666D01*
X133515696Y-102644360D01*
X133518953Y-102643144D01*
X133507628Y-102591225D01*
X133517841Y-102556442D01*
X133515696Y-102555642D01*
X133518796Y-102547331D01*
X133524824Y-102531166D01*
X133566694Y-102475234D01*
X133632158Y-102450816D01*
X133641006Y-102450500D01*
X133816233Y-102450500D01*
X134158994Y-102450500D01*
X134226033Y-102470185D01*
X134271788Y-102522989D01*
X134275171Y-102531156D01*
X134281204Y-102547331D01*
X134284304Y-102555642D01*
X134281063Y-102556850D01*
X134292360Y-102608909D01*
X134282184Y-102643568D01*
X134284303Y-102644359D01*
X134230908Y-102787517D01*
X134224758Y-102844723D01*
X134224501Y-102847123D01*
X134224500Y-102847135D01*
X134224500Y-104352870D01*
X134224501Y-104352876D01*
X134230908Y-104412483D01*
X134281202Y-104547328D01*
X134281206Y-104547335D01*
X134367452Y-104662544D01*
X134367455Y-104662547D01*
X134482664Y-104748793D01*
X134482671Y-104748797D01*
X134617517Y-104799091D01*
X134617516Y-104799091D01*
X134620679Y-104799431D01*
X134677127Y-104805500D01*
X136122872Y-104805499D01*
X136182483Y-104799091D01*
X136317331Y-104748796D01*
X136432546Y-104662546D01*
X136504891Y-104565906D01*
X136518794Y-104547334D01*
X136518794Y-104547333D01*
X136518796Y-104547331D01*
X136524824Y-104531166D01*
X136566694Y-104475234D01*
X136632158Y-104450816D01*
X136641006Y-104450500D01*
X137319438Y-104450500D01*
X137386477Y-104470185D01*
X137432232Y-104522989D01*
X137442176Y-104592147D01*
X137413151Y-104655703D01*
X137384228Y-104680227D01*
X137187155Y-104800993D01*
X137180353Y-104806800D01*
X137912502Y-105538949D01*
X137852104Y-105563967D01*
X137745642Y-105635103D01*
X137655103Y-105725642D01*
X137583967Y-105832104D01*
X137558949Y-105892502D01*
X136826800Y-105160353D01*
X136820993Y-105167155D01*
X136685292Y-105388599D01*
X136685290Y-105388602D01*
X136585906Y-105628537D01*
X136585901Y-105628554D01*
X136525274Y-105881087D01*
X136504898Y-106140000D01*
X136525274Y-106398912D01*
X136585901Y-106651445D01*
X136585906Y-106651462D01*
X136685290Y-106891397D01*
X136685292Y-106891400D01*
X136820992Y-107112842D01*
X136820993Y-107112843D01*
X136826801Y-107119644D01*
X137558949Y-106387497D01*
X137583967Y-106447896D01*
X137655103Y-106554358D01*
X137745642Y-106644897D01*
X137852104Y-106716033D01*
X137912502Y-106741050D01*
X137180354Y-107473197D01*
X137187157Y-107479007D01*
X137408599Y-107614707D01*
X137408602Y-107614709D01*
X137648537Y-107714093D01*
X137648554Y-107714098D01*
X137901088Y-107774725D01*
X137901087Y-107774725D01*
X138160000Y-107795101D01*
X138418912Y-107774725D01*
X138671445Y-107714098D01*
X138671462Y-107714093D01*
X138911397Y-107614709D01*
X138911400Y-107614707D01*
X139132844Y-107479005D01*
X139139644Y-107473197D01*
X138407497Y-106741050D01*
X138467896Y-106716033D01*
X138574358Y-106644897D01*
X138664897Y-106554358D01*
X138736033Y-106447896D01*
X138761050Y-106387497D01*
X139493197Y-107119644D01*
X139499005Y-107112844D01*
X139634707Y-106891400D01*
X139634709Y-106891397D01*
X139734093Y-106651462D01*
X139734098Y-106651445D01*
X139794725Y-106398912D01*
X139815101Y-106140000D01*
X139794725Y-105881087D01*
X139734098Y-105628554D01*
X139734093Y-105628537D01*
X139634709Y-105388602D01*
X139634707Y-105388599D01*
X139499007Y-105167157D01*
X139493197Y-105160354D01*
X138761050Y-105892501D01*
X138736033Y-105832104D01*
X138664897Y-105725642D01*
X138574358Y-105635103D01*
X138467896Y-105563967D01*
X138407497Y-105538949D01*
X139139645Y-104806801D01*
X139132843Y-104800993D01*
X139132842Y-104800992D01*
X138935772Y-104680227D01*
X138888897Y-104628415D01*
X138877474Y-104559486D01*
X138905131Y-104495323D01*
X138963087Y-104456298D01*
X139000562Y-104450500D01*
X139215991Y-104450500D01*
X139283030Y-104470185D01*
X139321718Y-104509710D01*
X139360584Y-104573134D01*
X139360596Y-104573150D01*
X139393099Y-104611206D01*
X139529311Y-104770689D01*
X139726860Y-104939412D01*
X139948372Y-105075154D01*
X139948374Y-105075154D01*
X139948376Y-105075156D01*
X139999966Y-105096525D01*
X140188390Y-105174573D01*
X140441006Y-105235221D01*
X140700000Y-105255604D01*
X140958994Y-105235221D01*
X141211610Y-105174573D01*
X141451628Y-105075154D01*
X141673140Y-104939412D01*
X141870689Y-104770689D01*
X142039412Y-104573140D01*
X142175154Y-104351628D01*
X142274573Y-104111610D01*
X142335221Y-103858994D01*
X142355604Y-103600000D01*
X142335221Y-103341006D01*
X142274573Y-103088390D01*
X142175154Y-102848372D01*
X142039412Y-102626860D01*
X141870689Y-102429311D01*
X141673140Y-102260588D01*
X141451628Y-102124846D01*
X141451627Y-102124845D01*
X141451623Y-102124843D01*
X141272141Y-102050500D01*
X141211610Y-102025427D01*
X141211611Y-102025427D01*
X141073921Y-101992370D01*
X140958994Y-101964779D01*
X140958992Y-101964778D01*
X140958991Y-101964778D01*
X140700000Y-101944396D01*
X140441009Y-101964778D01*
X140188389Y-102025427D01*
X139948376Y-102124843D01*
X139726859Y-102260588D01*
X139529311Y-102429311D01*
X139360596Y-102626849D01*
X139360584Y-102626865D01*
X139321718Y-102690290D01*
X139269906Y-102737165D01*
X139215991Y-102749500D01*
X139000562Y-102749500D01*
X138933523Y-102729815D01*
X138887768Y-102677011D01*
X138877824Y-102607853D01*
X138906849Y-102544297D01*
X138935772Y-102519773D01*
X139132844Y-102399005D01*
X139139644Y-102393197D01*
X138407497Y-101661050D01*
X138467896Y-101636033D01*
X138574358Y-101564897D01*
X138664897Y-101474358D01*
X138736033Y-101367896D01*
X138761050Y-101307497D01*
X139493197Y-102039644D01*
X139499005Y-102032844D01*
X139634707Y-101811400D01*
X139634709Y-101811397D01*
X139734093Y-101571462D01*
X139734098Y-101571445D01*
X139794725Y-101318912D01*
X139815101Y-101060000D01*
X139794725Y-100801087D01*
X139734098Y-100548554D01*
X139734093Y-100548537D01*
X139634709Y-100308602D01*
X139634707Y-100308599D01*
X139499007Y-100087157D01*
X139493197Y-100080354D01*
X138761050Y-100812501D01*
X138736033Y-100752104D01*
X138664897Y-100645642D01*
X138574358Y-100555103D01*
X138467896Y-100483967D01*
X138407497Y-100458949D01*
X139139645Y-99726801D01*
X139132843Y-99720993D01*
X139132842Y-99720992D01*
X138911400Y-99585292D01*
X138911397Y-99585290D01*
X138671462Y-99485906D01*
X138671445Y-99485901D01*
X138418911Y-99425274D01*
X138418912Y-99425274D01*
X138160000Y-99404898D01*
X137901087Y-99425274D01*
X137648554Y-99485901D01*
X137648537Y-99485906D01*
X137408602Y-99585290D01*
X137408599Y-99585292D01*
X137187155Y-99720993D01*
X137180353Y-99726800D01*
X137912502Y-100458949D01*
X137852104Y-100483967D01*
X137745642Y-100555103D01*
X137655103Y-100645642D01*
X137583967Y-100752104D01*
X137558949Y-100812502D01*
X136826800Y-100080353D01*
X136820993Y-100087155D01*
X136776441Y-100159858D01*
X136724629Y-100206733D01*
X136655699Y-100218156D01*
X136591537Y-100190498D01*
X136552512Y-100132543D01*
X136551016Y-100062689D01*
X136554532Y-100051735D01*
X136571325Y-100006710D01*
X136584091Y-99972483D01*
X136590500Y-99912873D01*
X136590499Y-98687128D01*
X136584091Y-98627517D01*
X136533796Y-98492669D01*
X136447546Y-98377454D01*
X136447544Y-98377452D01*
X136444881Y-98373895D01*
X136420463Y-98308430D01*
X136435314Y-98240157D01*
X136444881Y-98225271D01*
X136533352Y-98107089D01*
X136533354Y-98107086D01*
X136583596Y-97972379D01*
X136583598Y-97972372D01*
X136589999Y-97912844D01*
X136590000Y-97912827D01*
X136590000Y-97550000D01*
X134210000Y-97550000D01*
X134210000Y-97912844D01*
X134216401Y-97972372D01*
X134216403Y-97972379D01*
X134266645Y-98107086D01*
X134266646Y-98107088D01*
X134355119Y-98225272D01*
X134379536Y-98290736D01*
X134364685Y-98359009D01*
X134355119Y-98373894D01*
X134266204Y-98492669D01*
X134266202Y-98492671D01*
X134215908Y-98627517D01*
X134214214Y-98643279D01*
X134209501Y-98687123D01*
X134209500Y-98687135D01*
X134209500Y-99912870D01*
X134209501Y-99912876D01*
X134215908Y-99972483D01*
X134266202Y-100107328D01*
X134266206Y-100107335D01*
X134334787Y-100198946D01*
X134352454Y-100222546D01*
X134437683Y-100286348D01*
X134479553Y-100342281D01*
X134484537Y-100411973D01*
X134451052Y-100473296D01*
X134437683Y-100484880D01*
X134367452Y-100537455D01*
X134281205Y-100652665D01*
X134281205Y-100652666D01*
X134275176Y-100668832D01*
X134233306Y-100724766D01*
X134167842Y-100749184D01*
X134158994Y-100749500D01*
X133641006Y-100749500D01*
X133573967Y-100729815D01*
X133528212Y-100677011D01*
X133524824Y-100668832D01*
X133518796Y-100652669D01*
X133518794Y-100652666D01*
X133518794Y-100652665D01*
X133432547Y-100537455D01*
X133432544Y-100537452D01*
X133317335Y-100451206D01*
X133317328Y-100451202D01*
X133182482Y-100400908D01*
X133182483Y-100400908D01*
X133122883Y-100394501D01*
X133122881Y-100394500D01*
X133122873Y-100394500D01*
X133122864Y-100394500D01*
X131677129Y-100394500D01*
X131677123Y-100394501D01*
X131617516Y-100400908D01*
X131482671Y-100451202D01*
X131482664Y-100451206D01*
X131367455Y-100537452D01*
X131367452Y-100537455D01*
X131281206Y-100652664D01*
X131281202Y-100652671D01*
X131230908Y-100787517D01*
X131224501Y-100847116D01*
X131224500Y-100847135D01*
X131224500Y-102352870D01*
X131224501Y-102352876D01*
X131230908Y-102412483D01*
X131284303Y-102555641D01*
X131281057Y-102556851D01*
X131292363Y-102608868D01*
X131282175Y-102643565D01*
X131284303Y-102644359D01*
X131230908Y-102787517D01*
X131224758Y-102844723D01*
X131224501Y-102847123D01*
X131224500Y-102847135D01*
X131224500Y-104352870D01*
X131224501Y-104352876D01*
X131230908Y-104412483D01*
X131281202Y-104547328D01*
X131281206Y-104547335D01*
X131367452Y-104662544D01*
X131367455Y-104662547D01*
X131482663Y-104748792D01*
X131482665Y-104748793D01*
X131482669Y-104748796D01*
X131482673Y-104748797D01*
X131484924Y-104750027D01*
X131486746Y-104751849D01*
X131489769Y-104754112D01*
X131489443Y-104754546D01*
X131534331Y-104799431D01*
X131549500Y-104858861D01*
X131549500Y-104896348D01*
X131529815Y-104963387D01*
X131513181Y-104984029D01*
X130524028Y-105973181D01*
X130462705Y-106006666D01*
X130436349Y-106009500D01*
X130357130Y-106009500D01*
X130357123Y-106009501D01*
X130297516Y-106015908D01*
X130162671Y-106066202D01*
X130162669Y-106066204D01*
X130073894Y-106132661D01*
X130008430Y-106157078D01*
X129940157Y-106142227D01*
X129925272Y-106132661D01*
X129837088Y-106066646D01*
X129837086Y-106066645D01*
X129702379Y-106016403D01*
X129702372Y-106016401D01*
X129642844Y-106010000D01*
X129280000Y-106010000D01*
X129280000Y-107326000D01*
X129260315Y-107393039D01*
X129207511Y-107438794D01*
X129156000Y-107450000D01*
X127965000Y-107450000D01*
X127965000Y-107937844D01*
X127971401Y-107997372D01*
X127971403Y-107997379D01*
X128021645Y-108132086D01*
X128021649Y-108132093D01*
X128107809Y-108247186D01*
X128205964Y-108320666D01*
X128247835Y-108376600D01*
X128252819Y-108446292D01*
X128219334Y-108507615D01*
X128174986Y-108536115D01*
X128052913Y-108581645D01*
X128052906Y-108581649D01*
X127937812Y-108667809D01*
X127937809Y-108667812D01*
X127851649Y-108782906D01*
X127851645Y-108782913D01*
X127801403Y-108917620D01*
X127801401Y-108917627D01*
X127795000Y-108977155D01*
X127795000Y-109450000D01*
X129126000Y-109450000D01*
X129193039Y-109469685D01*
X129238794Y-109522489D01*
X129250000Y-109574000D01*
X129250000Y-112126000D01*
X129230315Y-112193039D01*
X129177511Y-112238794D01*
X129126000Y-112250000D01*
X127795000Y-112250000D01*
X127795000Y-112722844D01*
X127801401Y-112782372D01*
X127801403Y-112782379D01*
X127851645Y-112917086D01*
X127851649Y-112917093D01*
X127937809Y-113032187D01*
X127937812Y-113032190D01*
X128052906Y-113118350D01*
X128052913Y-113118354D01*
X128174986Y-113163884D01*
X128230920Y-113205755D01*
X128255337Y-113271219D01*
X128240486Y-113339492D01*
X128205965Y-113379332D01*
X128107809Y-113452812D01*
X128021649Y-113567906D01*
X128021645Y-113567913D01*
X127971403Y-113702620D01*
X127971401Y-113702627D01*
X127965000Y-113762155D01*
X127965000Y-114250000D01*
X129156000Y-114250000D01*
X129223039Y-114269685D01*
X129268794Y-114322489D01*
X129280000Y-114374000D01*
X129280000Y-114626000D01*
X129260315Y-114693039D01*
X129207511Y-114738794D01*
X129156000Y-114750000D01*
X127965000Y-114750000D01*
X127965000Y-115237844D01*
X127971401Y-115297372D01*
X127971403Y-115297379D01*
X128021645Y-115432086D01*
X128021649Y-115432093D01*
X128107809Y-115547187D01*
X128107812Y-115547190D01*
X128184962Y-115604945D01*
X128226833Y-115660879D01*
X128231817Y-115730570D01*
X128198331Y-115791893D01*
X128137008Y-115825377D01*
X128123909Y-115827500D01*
X128087626Y-115831401D01*
X128087620Y-115831403D01*
X127952913Y-115881645D01*
X127952906Y-115881649D01*
X127837812Y-115967809D01*
X127837809Y-115967812D01*
X127751649Y-116082906D01*
X127751645Y-116082913D01*
X127701403Y-116217620D01*
X127701401Y-116217627D01*
X127695000Y-116277155D01*
X121975499Y-116277155D01*
X121975499Y-116247128D01*
X121969091Y-116187517D01*
X121918796Y-116052669D01*
X121918794Y-116052666D01*
X121915696Y-116044360D01*
X121918953Y-116043144D01*
X121907628Y-115991225D01*
X121917841Y-115956440D01*
X121915696Y-115955640D01*
X121918794Y-115947333D01*
X121918796Y-115947331D01*
X121969091Y-115812483D01*
X121975500Y-115752873D01*
X121975499Y-114247128D01*
X121969091Y-114187517D01*
X121966287Y-114180000D01*
X121918797Y-114052671D01*
X121918793Y-114052664D01*
X121832547Y-113937455D01*
X121832544Y-113937452D01*
X121717335Y-113851206D01*
X121717328Y-113851202D01*
X121582482Y-113800908D01*
X121582483Y-113800908D01*
X121522883Y-113794501D01*
X121522881Y-113794500D01*
X121522873Y-113794500D01*
X121522865Y-113794500D01*
X121437000Y-113794500D01*
X121369961Y-113774815D01*
X121324206Y-113722011D01*
X121313000Y-113670500D01*
X121313000Y-110455728D01*
X121322656Y-110422844D01*
X127795000Y-110422844D01*
X127801401Y-110482372D01*
X127801403Y-110482379D01*
X127851645Y-110617086D01*
X127851649Y-110617093D01*
X127937809Y-110732187D01*
X127962584Y-110750734D01*
X128004454Y-110806668D01*
X128009438Y-110876360D01*
X127975952Y-110937682D01*
X127962584Y-110949266D01*
X127937809Y-110967812D01*
X127851649Y-111082906D01*
X127851645Y-111082913D01*
X127801403Y-111217620D01*
X127801401Y-111217627D01*
X127795000Y-111277155D01*
X127795000Y-111750000D01*
X128750000Y-111750000D01*
X128750000Y-109950000D01*
X127795000Y-109950000D01*
X127795000Y-110422844D01*
X121322656Y-110422844D01*
X121332685Y-110388689D01*
X121385489Y-110342934D01*
X121454647Y-110332990D01*
X121480333Y-110339546D01*
X121492517Y-110344091D01*
X121492516Y-110344091D01*
X121499444Y-110344835D01*
X121552127Y-110350500D01*
X123247872Y-110350499D01*
X123307483Y-110344091D01*
X123442331Y-110293796D01*
X123557546Y-110207546D01*
X123643796Y-110092331D01*
X123694091Y-109957483D01*
X123700500Y-109897873D01*
X123700499Y-109021841D01*
X123720183Y-108954803D01*
X123772987Y-108909048D01*
X123838381Y-108898622D01*
X123889385Y-108904369D01*
X123899999Y-108905565D01*
X123900000Y-108905565D01*
X123900004Y-108905565D01*
X124079249Y-108885369D01*
X124079252Y-108885368D01*
X124079255Y-108885368D01*
X124249522Y-108825789D01*
X124402262Y-108729816D01*
X124529816Y-108602262D01*
X124625789Y-108449522D01*
X124685368Y-108279255D01*
X124685369Y-108279249D01*
X124705565Y-108100003D01*
X124705565Y-108099996D01*
X124685369Y-107920750D01*
X124685368Y-107920745D01*
X124643323Y-107800588D01*
X124625789Y-107750478D01*
X124529816Y-107597738D01*
X124402262Y-107470184D01*
X124249523Y-107374211D01*
X124079254Y-107314631D01*
X124079249Y-107314630D01*
X123900004Y-107294435D01*
X123899996Y-107294435D01*
X123838382Y-107301377D01*
X123769560Y-107289322D01*
X123718181Y-107241973D01*
X123700499Y-107178157D01*
X123700499Y-106462155D01*
X127965000Y-106462155D01*
X127965000Y-106950000D01*
X128780000Y-106950000D01*
X128780000Y-106010000D01*
X128417155Y-106010000D01*
X128357627Y-106016401D01*
X128357620Y-106016403D01*
X128222913Y-106066645D01*
X128222906Y-106066649D01*
X128107812Y-106152809D01*
X128107809Y-106152812D01*
X128021649Y-106267906D01*
X128021645Y-106267913D01*
X127971403Y-106402620D01*
X127971401Y-106402627D01*
X127965000Y-106462155D01*
X123700499Y-106462155D01*
X123700499Y-106302129D01*
X123700498Y-106302123D01*
X123700497Y-106302116D01*
X123694091Y-106242517D01*
X123679027Y-106202129D01*
X123643797Y-106107671D01*
X123643795Y-106107668D01*
X123635914Y-106097140D01*
X123616747Y-106071537D01*
X123592330Y-106006074D01*
X123607181Y-105937801D01*
X123656586Y-105888395D01*
X123672682Y-105881044D01*
X123732326Y-105858798D01*
X123732326Y-105858797D01*
X123732331Y-105858796D01*
X123847546Y-105772546D01*
X123851045Y-105767871D01*
X123906974Y-105726001D01*
X123976666Y-105721014D01*
X124037990Y-105754497D01*
X124049581Y-105767873D01*
X124052813Y-105772191D01*
X124167906Y-105858350D01*
X124167913Y-105858354D01*
X124302620Y-105908596D01*
X124302627Y-105908598D01*
X124362155Y-105914999D01*
X124362172Y-105915000D01*
X124850000Y-105915000D01*
X125350000Y-105915000D01*
X125837828Y-105915000D01*
X125837844Y-105914999D01*
X125897372Y-105908598D01*
X125897379Y-105908596D01*
X126032086Y-105858354D01*
X126032093Y-105858350D01*
X126147187Y-105772190D01*
X126147190Y-105772187D01*
X126233350Y-105657093D01*
X126233354Y-105657086D01*
X126283596Y-105522379D01*
X126283598Y-105522372D01*
X126289999Y-105462844D01*
X126290000Y-105462827D01*
X126290000Y-105100000D01*
X125350000Y-105100000D01*
X125350000Y-105915000D01*
X124850000Y-105915000D01*
X124850000Y-104724000D01*
X124869685Y-104656961D01*
X124922489Y-104611206D01*
X124974000Y-104600000D01*
X126290000Y-104600000D01*
X126290000Y-104237172D01*
X126289999Y-104237155D01*
X126283598Y-104177627D01*
X126283596Y-104177620D01*
X126233354Y-104042913D01*
X126233353Y-104042911D01*
X126144880Y-103924727D01*
X126120463Y-103859263D01*
X126135314Y-103790990D01*
X126144881Y-103776104D01*
X126147542Y-103772548D01*
X126147546Y-103772546D01*
X126233796Y-103657331D01*
X126284091Y-103522483D01*
X126290500Y-103462873D01*
X126290499Y-102736903D01*
X126310183Y-102669865D01*
X126362987Y-102624110D01*
X126432146Y-102614166D01*
X126457832Y-102620722D01*
X126587517Y-102669091D01*
X126587516Y-102669091D01*
X126594444Y-102669835D01*
X126647127Y-102675500D01*
X128152872Y-102675499D01*
X128212483Y-102669091D01*
X128347331Y-102618796D01*
X128347333Y-102618794D01*
X128355640Y-102615696D01*
X128356793Y-102618789D01*
X128409339Y-102607344D01*
X128443782Y-102617449D01*
X128444602Y-102615253D01*
X128587623Y-102668597D01*
X128587627Y-102668598D01*
X128647155Y-102674999D01*
X128647172Y-102675000D01*
X129150000Y-102675000D01*
X129650000Y-102675000D01*
X130152828Y-102675000D01*
X130152844Y-102674999D01*
X130212372Y-102668598D01*
X130212379Y-102668596D01*
X130347086Y-102618354D01*
X130347093Y-102618350D01*
X130462187Y-102532190D01*
X130462190Y-102532187D01*
X130548350Y-102417093D01*
X130548354Y-102417086D01*
X130598596Y-102282379D01*
X130598598Y-102282372D01*
X130604999Y-102222844D01*
X130605000Y-102222827D01*
X130605000Y-101750000D01*
X129650000Y-101750000D01*
X129650000Y-102675000D01*
X129150000Y-102675000D01*
X129150000Y-101250000D01*
X129650000Y-101250000D01*
X130605000Y-101250000D01*
X130605000Y-100777172D01*
X130604999Y-100777155D01*
X130598598Y-100717627D01*
X130598596Y-100717620D01*
X130548354Y-100582913D01*
X130548350Y-100582906D01*
X130462190Y-100467812D01*
X130462187Y-100467809D01*
X130347093Y-100381649D01*
X130347086Y-100381645D01*
X130212379Y-100331403D01*
X130212372Y-100331401D01*
X130152844Y-100325000D01*
X129650000Y-100325000D01*
X129650000Y-101250000D01*
X129150000Y-101250000D01*
X129150000Y-100325000D01*
X128647155Y-100325000D01*
X128587627Y-100331401D01*
X128587620Y-100331403D01*
X128444601Y-100384746D01*
X128443364Y-100381431D01*
X128391531Y-100392641D01*
X128356386Y-100382303D01*
X128355641Y-100384303D01*
X128212482Y-100330908D01*
X128212483Y-100330908D01*
X128152883Y-100324501D01*
X128152881Y-100324500D01*
X128152873Y-100324500D01*
X128152864Y-100324500D01*
X126647129Y-100324500D01*
X126647123Y-100324501D01*
X126587515Y-100330909D01*
X126457831Y-100379277D01*
X126388139Y-100384261D01*
X126326817Y-100350775D01*
X126293332Y-100289452D01*
X126290499Y-100263095D01*
X126290499Y-99537129D01*
X126290498Y-99537123D01*
X126290459Y-99536761D01*
X126284091Y-99477517D01*
X126233796Y-99342669D01*
X126147546Y-99227454D01*
X126147544Y-99227452D01*
X126144881Y-99223895D01*
X126120463Y-99158430D01*
X126135314Y-99090157D01*
X126144881Y-99075271D01*
X126233352Y-98957089D01*
X126233354Y-98957086D01*
X126283596Y-98822379D01*
X126283598Y-98822372D01*
X126289999Y-98762844D01*
X126290000Y-98762827D01*
X126290000Y-98400000D01*
X124974000Y-98400000D01*
X124906961Y-98380315D01*
X124861206Y-98327511D01*
X124850000Y-98276000D01*
X124850000Y-97900000D01*
X125350000Y-97900000D01*
X126290000Y-97900000D01*
X126290000Y-97537172D01*
X126289999Y-97537155D01*
X126283598Y-97477627D01*
X126283596Y-97477620D01*
X126259436Y-97412844D01*
X138510000Y-97412844D01*
X138516401Y-97472372D01*
X138516403Y-97472379D01*
X138566645Y-97607086D01*
X138566649Y-97607093D01*
X138652809Y-97722187D01*
X138652812Y-97722190D01*
X138767906Y-97808350D01*
X138767913Y-97808354D01*
X138902620Y-97858596D01*
X138902627Y-97858598D01*
X138962155Y-97864999D01*
X138962172Y-97865000D01*
X139450000Y-97865000D01*
X139950000Y-97865000D01*
X140437828Y-97865000D01*
X140437844Y-97864999D01*
X140497372Y-97858598D01*
X140497379Y-97858596D01*
X140632086Y-97808354D01*
X140632093Y-97808350D01*
X140747187Y-97722190D01*
X140747190Y-97722187D01*
X140750734Y-97717454D01*
X140806668Y-97675583D01*
X140876359Y-97670599D01*
X140937682Y-97704085D01*
X140949266Y-97717454D01*
X140952809Y-97722187D01*
X140952812Y-97722190D01*
X141067906Y-97808350D01*
X141067913Y-97808354D01*
X141202620Y-97858596D01*
X141202627Y-97858598D01*
X141262155Y-97864999D01*
X141262172Y-97865000D01*
X141750000Y-97865000D01*
X142250000Y-97865000D01*
X142737828Y-97865000D01*
X142737844Y-97864999D01*
X142797372Y-97858598D01*
X142797379Y-97858596D01*
X142932086Y-97808354D01*
X142932093Y-97808350D01*
X143047187Y-97722190D01*
X143047190Y-97722187D01*
X143133350Y-97607093D01*
X143133354Y-97607086D01*
X143183596Y-97472379D01*
X143183598Y-97472372D01*
X143189999Y-97412844D01*
X143190000Y-97412827D01*
X143190000Y-97050000D01*
X142250000Y-97050000D01*
X142250000Y-97865000D01*
X141750000Y-97865000D01*
X141750000Y-97050000D01*
X139950000Y-97050000D01*
X139950000Y-97865000D01*
X139450000Y-97865000D01*
X139450000Y-97050000D01*
X138510000Y-97050000D01*
X138510000Y-97412844D01*
X126259436Y-97412844D01*
X126233354Y-97342913D01*
X126233350Y-97342906D01*
X126147190Y-97227812D01*
X126147187Y-97227809D01*
X126032093Y-97141649D01*
X126032086Y-97141645D01*
X125897379Y-97091403D01*
X125897372Y-97091401D01*
X125837844Y-97085000D01*
X125350000Y-97085000D01*
X125350000Y-97900000D01*
X124850000Y-97900000D01*
X124850000Y-97085000D01*
X124634085Y-97085000D01*
X124567046Y-97065315D01*
X124521291Y-97012511D01*
X124511347Y-96943353D01*
X124540372Y-96879797D01*
X124590752Y-96844818D01*
X124667697Y-96816119D01*
X124687331Y-96808796D01*
X124802546Y-96722546D01*
X124888796Y-96607331D01*
X124939091Y-96472483D01*
X124945500Y-96412873D01*
X124945500Y-96412844D01*
X125635000Y-96412844D01*
X125641401Y-96472372D01*
X125641403Y-96472379D01*
X125691645Y-96607086D01*
X125691649Y-96607093D01*
X125777809Y-96722187D01*
X125777812Y-96722190D01*
X125892906Y-96808350D01*
X125892913Y-96808354D01*
X126027620Y-96858596D01*
X126027627Y-96858598D01*
X126087155Y-96864999D01*
X126087172Y-96865000D01*
X126630000Y-96865000D01*
X127130000Y-96865000D01*
X127672828Y-96865000D01*
X127672844Y-96864999D01*
X127732372Y-96858598D01*
X127732379Y-96858596D01*
X127867086Y-96808354D01*
X127867093Y-96808350D01*
X127982187Y-96722190D01*
X127982190Y-96722187D01*
X128008415Y-96687155D01*
X134210000Y-96687155D01*
X134210000Y-97050000D01*
X135150000Y-97050000D01*
X135650000Y-97050000D01*
X136590000Y-97050000D01*
X136590000Y-96687172D01*
X136589999Y-96687155D01*
X136583598Y-96627627D01*
X136583596Y-96627620D01*
X136533354Y-96492913D01*
X136533350Y-96492906D01*
X136447190Y-96377812D01*
X136447187Y-96377809D01*
X136332093Y-96291649D01*
X136332086Y-96291645D01*
X136197379Y-96241403D01*
X136197372Y-96241401D01*
X136137844Y-96235000D01*
X135650000Y-96235000D01*
X135650000Y-97050000D01*
X135150000Y-97050000D01*
X135150000Y-96235000D01*
X134662155Y-96235000D01*
X134602627Y-96241401D01*
X134602620Y-96241403D01*
X134467913Y-96291645D01*
X134467906Y-96291649D01*
X134352812Y-96377809D01*
X134352809Y-96377812D01*
X134266649Y-96492906D01*
X134266645Y-96492913D01*
X134216403Y-96627620D01*
X134216401Y-96627627D01*
X134210000Y-96687155D01*
X128008415Y-96687155D01*
X128068350Y-96607093D01*
X128068354Y-96607086D01*
X128118596Y-96472379D01*
X128118598Y-96472372D01*
X128124999Y-96412844D01*
X128125000Y-96412827D01*
X128125000Y-95750000D01*
X127130000Y-95750000D01*
X127130000Y-96865000D01*
X126630000Y-96865000D01*
X126630000Y-95750000D01*
X125635000Y-95750000D01*
X125635000Y-96412844D01*
X124945500Y-96412844D01*
X124945499Y-94587128D01*
X124939091Y-94527517D01*
X124922649Y-94483435D01*
X124888797Y-94392671D01*
X124888793Y-94392664D01*
X124802547Y-94277455D01*
X124802544Y-94277452D01*
X124748176Y-94236752D01*
X124706305Y-94180818D01*
X124701321Y-94111127D01*
X124734807Y-94049804D01*
X124748176Y-94038220D01*
X124804610Y-93995973D01*
X124822546Y-93982546D01*
X124908796Y-93867331D01*
X124955802Y-93741300D01*
X124997673Y-93685367D01*
X125063137Y-93660950D01*
X125131410Y-93675801D01*
X125180816Y-93725206D01*
X125186545Y-93737182D01*
X125204809Y-93781277D01*
X125204816Y-93781290D01*
X125294059Y-93914850D01*
X125294062Y-93914854D01*
X125407645Y-94028437D01*
X125407649Y-94028440D01*
X125541209Y-94117683D01*
X125541222Y-94117690D01*
X125609765Y-94146081D01*
X125653819Y-94164329D01*
X125665833Y-94169305D01*
X125720237Y-94213146D01*
X125742302Y-94279440D01*
X125725023Y-94347139D01*
X125717649Y-94358176D01*
X125691646Y-94392911D01*
X125691645Y-94392913D01*
X125641403Y-94527620D01*
X125641401Y-94527627D01*
X125635000Y-94587155D01*
X125635000Y-95250000D01*
X128125000Y-95250000D01*
X128125000Y-94587172D01*
X128124999Y-94587155D01*
X128118598Y-94527627D01*
X128118596Y-94527620D01*
X128068354Y-94392913D01*
X128068352Y-94392910D01*
X128039312Y-94354118D01*
X128014894Y-94288654D01*
X128029745Y-94220381D01*
X128079149Y-94170975D01*
X128147422Y-94156122D01*
X128186030Y-94165245D01*
X128199864Y-94170975D01*
X128219627Y-94179161D01*
X128377175Y-94210499D01*
X128377179Y-94210500D01*
X128377180Y-94210500D01*
X128537821Y-94210500D01*
X128537822Y-94210499D01*
X128695373Y-94179161D01*
X128843784Y-94117687D01*
X128977351Y-94028440D01*
X129009818Y-93995973D01*
X129071140Y-93962487D01*
X129140832Y-93967471D01*
X129185182Y-93995973D01*
X129217645Y-94028437D01*
X129217649Y-94028440D01*
X129351209Y-94117683D01*
X129351218Y-94117688D01*
X129361066Y-94121767D01*
X129499627Y-94179161D01*
X129657175Y-94210499D01*
X129657179Y-94210500D01*
X129657180Y-94210500D01*
X129817821Y-94210500D01*
X129817822Y-94210499D01*
X129975373Y-94179161D01*
X130123784Y-94117687D01*
X130257351Y-94028440D01*
X130370940Y-93914851D01*
X130460187Y-93781284D01*
X130521661Y-93632873D01*
X130522169Y-93630314D01*
X130522805Y-93629098D01*
X130523430Y-93627041D01*
X130523820Y-93627159D01*
X130554551Y-93568403D01*
X130615264Y-93533825D01*
X130643788Y-93530500D01*
X130895425Y-93530500D01*
X130962464Y-93550185D01*
X131008219Y-93602989D01*
X131011607Y-93611167D01*
X131051202Y-93717328D01*
X131051206Y-93717335D01*
X131137452Y-93832544D01*
X131137455Y-93832547D01*
X131252664Y-93918793D01*
X131252671Y-93918797D01*
X131375556Y-93964630D01*
X131431490Y-94006501D01*
X131455907Y-94071965D01*
X131449265Y-94121766D01*
X131414632Y-94220742D01*
X131414630Y-94220750D01*
X131394435Y-94399996D01*
X131394435Y-94400003D01*
X131414630Y-94579249D01*
X131414631Y-94579254D01*
X131474211Y-94749523D01*
X131543998Y-94860588D01*
X131570184Y-94902262D01*
X131697738Y-95029816D01*
X131850478Y-95125789D01*
X132020745Y-95185368D01*
X132020750Y-95185369D01*
X132199996Y-95205565D01*
X132200000Y-95205565D01*
X132200004Y-95205565D01*
X132379249Y-95185369D01*
X132379252Y-95185368D01*
X132379255Y-95185368D01*
X132549522Y-95125789D01*
X132702262Y-95029816D01*
X132829816Y-94902262D01*
X132925789Y-94749522D01*
X132985368Y-94579255D01*
X132986999Y-94564779D01*
X133005565Y-94400003D01*
X133005565Y-94399996D01*
X132985369Y-94220750D01*
X132985366Y-94220737D01*
X132950735Y-94121767D01*
X132947173Y-94051988D01*
X132981901Y-93991361D01*
X133024442Y-93964630D01*
X133147331Y-93918796D01*
X133147332Y-93918794D01*
X133155641Y-93915696D01*
X133156794Y-93918788D01*
X133209339Y-93907344D01*
X133243782Y-93917449D01*
X133244602Y-93915253D01*
X133387623Y-93968597D01*
X133387627Y-93968598D01*
X133447155Y-93974999D01*
X133447172Y-93975000D01*
X133950000Y-93975000D01*
X134450000Y-93975000D01*
X134952828Y-93975000D01*
X134952844Y-93974999D01*
X135012372Y-93968598D01*
X135012379Y-93968596D01*
X135147086Y-93918354D01*
X135147093Y-93918350D01*
X135262187Y-93832190D01*
X135262190Y-93832187D01*
X135348350Y-93717093D01*
X135348354Y-93717086D01*
X135398596Y-93582379D01*
X135398598Y-93582372D01*
X135404999Y-93522844D01*
X135405000Y-93522827D01*
X135405000Y-93050000D01*
X134450000Y-93050000D01*
X134450000Y-93975000D01*
X133950000Y-93975000D01*
X133950000Y-92674000D01*
X133969685Y-92606961D01*
X134022489Y-92561206D01*
X134074000Y-92550000D01*
X135405000Y-92550000D01*
X135405000Y-92077172D01*
X135404999Y-92077155D01*
X135398598Y-92017627D01*
X135398596Y-92017620D01*
X135348354Y-91882913D01*
X135348350Y-91882906D01*
X135262190Y-91767812D01*
X135256558Y-91762180D01*
X135223073Y-91700857D01*
X135228057Y-91631165D01*
X135269929Y-91575232D01*
X135335393Y-91550815D01*
X135344222Y-91550499D01*
X136547872Y-91550499D01*
X136607483Y-91544091D01*
X136697669Y-91510453D01*
X136767358Y-91505470D01*
X136828681Y-91538955D01*
X136862166Y-91600278D01*
X136865000Y-91626636D01*
X136865000Y-91847844D01*
X136871401Y-91907372D01*
X136871403Y-91907379D01*
X136921645Y-92042086D01*
X136921647Y-92042088D01*
X137005086Y-92153549D01*
X137029503Y-92219013D01*
X137020381Y-92275311D01*
X136998431Y-92328305D01*
X136998430Y-92328307D01*
X136990138Y-92370000D01*
X137793001Y-92370000D01*
X137775784Y-92379940D01*
X137719929Y-92435795D01*
X137680433Y-92504204D01*
X137659989Y-92580504D01*
X137659989Y-92659496D01*
X137680433Y-92735796D01*
X137719929Y-92804205D01*
X137775784Y-92860060D01*
X137793001Y-92870000D01*
X136990138Y-92870000D01*
X136998430Y-92911690D01*
X136998430Y-92911692D01*
X137073807Y-93093671D01*
X137073814Y-93093684D01*
X137183248Y-93257462D01*
X137183251Y-93257466D01*
X137322533Y-93396748D01*
X137322537Y-93396751D01*
X137486315Y-93506185D01*
X137486328Y-93506192D01*
X137668306Y-93581569D01*
X137668318Y-93581572D01*
X137861504Y-93619999D01*
X137861508Y-93620000D01*
X138260000Y-93620000D01*
X138260000Y-92920000D01*
X138760000Y-92920000D01*
X138760000Y-93620000D01*
X138760003Y-93620003D01*
X138793488Y-93681326D01*
X138788504Y-93751018D01*
X138746634Y-93806950D01*
X138652452Y-93877455D01*
X138566206Y-93992664D01*
X138566202Y-93992671D01*
X138515908Y-94127517D01*
X138510356Y-94179161D01*
X138509501Y-94187123D01*
X138509500Y-94187135D01*
X138509500Y-95412870D01*
X138509501Y-95412876D01*
X138515908Y-95472483D01*
X138566202Y-95607328D01*
X138566206Y-95607335D01*
X138655118Y-95726105D01*
X138679536Y-95791569D01*
X138664685Y-95859842D01*
X138655119Y-95874727D01*
X138566647Y-95992910D01*
X138566645Y-95992913D01*
X138516403Y-96127620D01*
X138516401Y-96127627D01*
X138510000Y-96187155D01*
X138510000Y-96550000D01*
X143190000Y-96550000D01*
X143190000Y-96187172D01*
X143189999Y-96187155D01*
X143183598Y-96127627D01*
X143183596Y-96127620D01*
X143133354Y-95992913D01*
X143133353Y-95992911D01*
X143044880Y-95874727D01*
X143020463Y-95809263D01*
X143035314Y-95740990D01*
X143044881Y-95726104D01*
X143047542Y-95722548D01*
X143047546Y-95722546D01*
X143133796Y-95607331D01*
X143184091Y-95472483D01*
X143190500Y-95412873D01*
X143190499Y-94187128D01*
X143184091Y-94127517D01*
X143183338Y-94125499D01*
X143133797Y-93992671D01*
X143133793Y-93992664D01*
X143047547Y-93877455D01*
X143001877Y-93843266D01*
X142960007Y-93787332D01*
X142955023Y-93717640D01*
X142988509Y-93656318D01*
X143049833Y-93622833D01*
X143076189Y-93620000D01*
X143158492Y-93620000D01*
X143158495Y-93619999D01*
X143351681Y-93581572D01*
X143351693Y-93581569D01*
X143533671Y-93506192D01*
X143533684Y-93506185D01*
X143697462Y-93396751D01*
X143697466Y-93396748D01*
X143836748Y-93257466D01*
X143836751Y-93257462D01*
X143946185Y-93093684D01*
X143946192Y-93093671D01*
X144021569Y-92911692D01*
X144021569Y-92911690D01*
X144029862Y-92870000D01*
X143226987Y-92870000D01*
X143244204Y-92860060D01*
X143300059Y-92804205D01*
X143339555Y-92735796D01*
X143359999Y-92659496D01*
X143359999Y-92580504D01*
X143339555Y-92504204D01*
X143300059Y-92435795D01*
X143244204Y-92379940D01*
X143226987Y-92370000D01*
X144029862Y-92370000D01*
X144021569Y-92328309D01*
X144021569Y-92328307D01*
X143946192Y-92146328D01*
X143946185Y-92146315D01*
X143836751Y-91982537D01*
X143836748Y-91982533D01*
X143697466Y-91843251D01*
X143697462Y-91843248D01*
X143533684Y-91733814D01*
X143533671Y-91733807D01*
X143351693Y-91658430D01*
X143351681Y-91658427D01*
X143158495Y-91620000D01*
X142910000Y-91620000D01*
X142910000Y-92320000D01*
X142410000Y-92320000D01*
X142410000Y-91620000D01*
X142161510Y-91620000D01*
X141998690Y-91652386D01*
X141929099Y-91646158D01*
X141873922Y-91603294D01*
X141850678Y-91537404D01*
X141850500Y-91530768D01*
X141850500Y-88035928D01*
X141825502Y-87910261D01*
X141825501Y-87910260D01*
X141825501Y-87910256D01*
X141776465Y-87791873D01*
X141705277Y-87685331D01*
X141705275Y-87685329D01*
X141705273Y-87685326D01*
X140064673Y-86044726D01*
X140064669Y-86044723D01*
X139958127Y-85973535D01*
X139839744Y-85924499D01*
X139839743Y-85924498D01*
X139834116Y-85922168D01*
X139834762Y-85920606D01*
X139783091Y-85886733D01*
X139754643Y-85822917D01*
X139765213Y-85753852D01*
X139767224Y-85749995D01*
X139768282Y-85747616D01*
X139768286Y-85747611D01*
X139783577Y-85700548D01*
X139786932Y-85691453D01*
X139803776Y-85650789D01*
X139808715Y-85625957D01*
X139812401Y-85611835D01*
X139813938Y-85607103D01*
X139821908Y-85582576D01*
X139826426Y-85539580D01*
X139828125Y-85528373D01*
X139835500Y-85491305D01*
X139835500Y-85459761D01*
X139836179Y-85446800D01*
X139836989Y-85439091D01*
X139840047Y-85410000D01*
X139836179Y-85373198D01*
X139835500Y-85360237D01*
X139835500Y-85328690D01*
X139828130Y-85291647D01*
X139826425Y-85280409D01*
X139821908Y-85237428D01*
X139821908Y-85237424D01*
X139812396Y-85208151D01*
X139808715Y-85194045D01*
X139803776Y-85169211D01*
X139786933Y-85128549D01*
X139783579Y-85119457D01*
X139768286Y-85072389D01*
X139756018Y-85051140D01*
X139748844Y-85036592D01*
X139741550Y-85018983D01*
X139741549Y-85018982D01*
X139741548Y-85018979D01*
X139713641Y-84977213D01*
X139709373Y-84970350D01*
X139681522Y-84922111D01*
X139680899Y-84921254D01*
X139680691Y-84920673D01*
X139678272Y-84916482D01*
X139679038Y-84916039D01*
X139657416Y-84855449D01*
X139673237Y-84787395D01*
X139693532Y-84760681D01*
X139836752Y-84617461D01*
X139946185Y-84453684D01*
X139946192Y-84453671D01*
X140021569Y-84271692D01*
X140021569Y-84271690D01*
X140029862Y-84230000D01*
X139226999Y-84230000D01*
X139244216Y-84220060D01*
X139300071Y-84164205D01*
X139339567Y-84095796D01*
X139360011Y-84019496D01*
X139360011Y-83940504D01*
X139339567Y-83864204D01*
X139300071Y-83795795D01*
X139244216Y-83739940D01*
X139226999Y-83730000D01*
X140029862Y-83730000D01*
X141290138Y-83730000D01*
X142093013Y-83730000D01*
X142075796Y-83739940D01*
X142019941Y-83795795D01*
X141980445Y-83864204D01*
X141960001Y-83940504D01*
X141960001Y-84019496D01*
X141980445Y-84095796D01*
X142019941Y-84164205D01*
X142075796Y-84220060D01*
X142093013Y-84230000D01*
X141290138Y-84230000D01*
X141298430Y-84271690D01*
X141298430Y-84271692D01*
X141373807Y-84453671D01*
X141373814Y-84453684D01*
X141483248Y-84617462D01*
X141483251Y-84617466D01*
X141622533Y-84756748D01*
X141622537Y-84756751D01*
X141786315Y-84866185D01*
X141786328Y-84866192D01*
X141968306Y-84941569D01*
X141968318Y-84941572D01*
X142161504Y-84979999D01*
X142161508Y-84980000D01*
X142410000Y-84980000D01*
X142410000Y-84280000D01*
X142910000Y-84280000D01*
X142910000Y-84980000D01*
X143158492Y-84980000D01*
X143158495Y-84979999D01*
X143351681Y-84941572D01*
X143351693Y-84941569D01*
X143533671Y-84866192D01*
X143533684Y-84866185D01*
X143697462Y-84756751D01*
X143697466Y-84756748D01*
X143836748Y-84617466D01*
X143836751Y-84617462D01*
X143946185Y-84453684D01*
X143946192Y-84453671D01*
X144021569Y-84271692D01*
X144021569Y-84271690D01*
X144029862Y-84230000D01*
X143226987Y-84230000D01*
X143244204Y-84220060D01*
X143300059Y-84164205D01*
X143339555Y-84095796D01*
X143359999Y-84019496D01*
X143359999Y-83940504D01*
X143339555Y-83864204D01*
X143300059Y-83795795D01*
X143244204Y-83739940D01*
X143226987Y-83730000D01*
X144029862Y-83730000D01*
X144021569Y-83688309D01*
X144021569Y-83688307D01*
X143946192Y-83506328D01*
X143946185Y-83506315D01*
X143836751Y-83342537D01*
X143836748Y-83342533D01*
X143697466Y-83203251D01*
X143697462Y-83203248D01*
X143533684Y-83093814D01*
X143533671Y-83093807D01*
X143351693Y-83018430D01*
X143351681Y-83018427D01*
X143158495Y-82980000D01*
X142910000Y-82980000D01*
X142910000Y-83680000D01*
X142410000Y-83680000D01*
X142410000Y-82980000D01*
X142161504Y-82980000D01*
X141968318Y-83018427D01*
X141968306Y-83018430D01*
X141786328Y-83093807D01*
X141786315Y-83093814D01*
X141622537Y-83203248D01*
X141622533Y-83203251D01*
X141483251Y-83342533D01*
X141483248Y-83342537D01*
X141373814Y-83506315D01*
X141373807Y-83506328D01*
X141298430Y-83688307D01*
X141298430Y-83688309D01*
X141290138Y-83730000D01*
X140029862Y-83730000D01*
X140021569Y-83688309D01*
X140021569Y-83688307D01*
X139946192Y-83506328D01*
X139946185Y-83506315D01*
X139836751Y-83342537D01*
X139836748Y-83342533D01*
X139697466Y-83203251D01*
X139697462Y-83203248D01*
X139533684Y-83093814D01*
X139533671Y-83093807D01*
X139351693Y-83018430D01*
X139351681Y-83018427D01*
X139158495Y-82980000D01*
X138760000Y-82980000D01*
X138760000Y-83680000D01*
X138260000Y-83680000D01*
X138260000Y-82980000D01*
X137861504Y-82980000D01*
X137668318Y-83018427D01*
X137668306Y-83018430D01*
X137486328Y-83093807D01*
X137486315Y-83093814D01*
X137322537Y-83203248D01*
X137322533Y-83203251D01*
X137183251Y-83342533D01*
X137183248Y-83342537D01*
X137073814Y-83506315D01*
X137073807Y-83506328D01*
X136998430Y-83688307D01*
X136998430Y-83688309D01*
X136990138Y-83730000D01*
X137793001Y-83730000D01*
X137775784Y-83739940D01*
X137719929Y-83795795D01*
X137680433Y-83864204D01*
X137659989Y-83940504D01*
X137659989Y-84019496D01*
X137680433Y-84095796D01*
X137719929Y-84164205D01*
X137775784Y-84220060D01*
X137793001Y-84230000D01*
X136990138Y-84230000D01*
X136998430Y-84271691D01*
X137020381Y-84324687D01*
X137027849Y-84394157D01*
X137005086Y-84446450D01*
X136921647Y-84557910D01*
X136921645Y-84557913D01*
X136871403Y-84692620D01*
X136871401Y-84692627D01*
X136865000Y-84752155D01*
X136865000Y-84890638D01*
X136845315Y-84957677D01*
X136792511Y-85003432D01*
X136723353Y-85013376D01*
X136659797Y-84984351D01*
X136653319Y-84978319D01*
X136625000Y-84950000D01*
X134135000Y-84950000D01*
X134135000Y-85612844D01*
X134141401Y-85672372D01*
X134141403Y-85672379D01*
X134191645Y-85807086D01*
X134191649Y-85807093D01*
X134283125Y-85929288D01*
X134280629Y-85931156D01*
X134306719Y-85978935D01*
X134301735Y-86048627D01*
X134259865Y-86104559D01*
X134142452Y-86192455D01*
X134056206Y-86307664D01*
X134056202Y-86307671D01*
X134005908Y-86442517D01*
X133999804Y-86499296D01*
X133999501Y-86502123D01*
X133999500Y-86502135D01*
X133999500Y-91097870D01*
X133999501Y-91097876D01*
X134005908Y-91157483D01*
X134056202Y-91292328D01*
X134056206Y-91292335D01*
X134142452Y-91407544D01*
X134148227Y-91413319D01*
X134181712Y-91474642D01*
X134176728Y-91544334D01*
X134134856Y-91600267D01*
X134069392Y-91624684D01*
X134060546Y-91625000D01*
X133639454Y-91625000D01*
X133572415Y-91605315D01*
X133526660Y-91552511D01*
X133516716Y-91483353D01*
X133545741Y-91419797D01*
X133551773Y-91413319D01*
X133557542Y-91407548D01*
X133557546Y-91407546D01*
X133643796Y-91292331D01*
X133694091Y-91157483D01*
X133700500Y-91097873D01*
X133700499Y-86502128D01*
X133694091Y-86442517D01*
X133691287Y-86435000D01*
X133643797Y-86307671D01*
X133643793Y-86307664D01*
X133557547Y-86192455D01*
X133557544Y-86192452D01*
X133442335Y-86106206D01*
X133442328Y-86106202D01*
X133380782Y-86083247D01*
X133324848Y-86041376D01*
X133300431Y-85975911D01*
X133315283Y-85907638D01*
X133324848Y-85892754D01*
X133388796Y-85807331D01*
X133439091Y-85672483D01*
X133445500Y-85612873D01*
X133445499Y-83787155D01*
X134135000Y-83787155D01*
X134135000Y-84450000D01*
X135130000Y-84450000D01*
X135630000Y-84450000D01*
X136625000Y-84450000D01*
X136625000Y-83787172D01*
X136624999Y-83787155D01*
X136618598Y-83727627D01*
X136618596Y-83727620D01*
X136568354Y-83592913D01*
X136568350Y-83592906D01*
X136482190Y-83477812D01*
X136482187Y-83477809D01*
X136367093Y-83391649D01*
X136367086Y-83391645D01*
X136232379Y-83341403D01*
X136232372Y-83341401D01*
X136172844Y-83335000D01*
X135630000Y-83335000D01*
X135630000Y-84450000D01*
X135130000Y-84450000D01*
X135130000Y-83335000D01*
X134587155Y-83335000D01*
X134527627Y-83341401D01*
X134527620Y-83341403D01*
X134392913Y-83391645D01*
X134392906Y-83391649D01*
X134277812Y-83477809D01*
X134277809Y-83477812D01*
X134191649Y-83592906D01*
X134191645Y-83592913D01*
X134141403Y-83727620D01*
X134141401Y-83727627D01*
X134135000Y-83787155D01*
X133445499Y-83787155D01*
X133445499Y-83787128D01*
X133439091Y-83727517D01*
X133428993Y-83700444D01*
X133388797Y-83592671D01*
X133388793Y-83592664D01*
X133302547Y-83477455D01*
X133302544Y-83477452D01*
X133187335Y-83391206D01*
X133187328Y-83391202D01*
X133052482Y-83340908D01*
X133052483Y-83340908D01*
X132992883Y-83334501D01*
X132992881Y-83334500D01*
X132992873Y-83334500D01*
X132992864Y-83334500D01*
X131407129Y-83334500D01*
X131407123Y-83334501D01*
X131347516Y-83340908D01*
X131212671Y-83391202D01*
X131212664Y-83391206D01*
X131097455Y-83477452D01*
X131097452Y-83477455D01*
X131039266Y-83555182D01*
X130983332Y-83597053D01*
X130913641Y-83602037D01*
X130852318Y-83568551D01*
X130840734Y-83555182D01*
X130782547Y-83477455D01*
X130782544Y-83477452D01*
X130667335Y-83391206D01*
X130667328Y-83391202D01*
X130532482Y-83340908D01*
X130532483Y-83340908D01*
X130472883Y-83334501D01*
X130472881Y-83334500D01*
X130472873Y-83334500D01*
X130472864Y-83334500D01*
X128887129Y-83334500D01*
X128887123Y-83334501D01*
X128827514Y-83340909D01*
X128775636Y-83360258D01*
X128705944Y-83365242D01*
X128644621Y-83331756D01*
X128617744Y-83291530D01*
X128576465Y-83191873D01*
X128566015Y-83176233D01*
X128505277Y-83085331D01*
X128505275Y-83085328D01*
X127614673Y-82194726D01*
X127614669Y-82194723D01*
X127508127Y-82123535D01*
X127389744Y-82074499D01*
X127389738Y-82074497D01*
X127264071Y-82049500D01*
X127264069Y-82049500D01*
X123935931Y-82049500D01*
X123935929Y-82049500D01*
X123810261Y-82074497D01*
X123810255Y-82074499D01*
X123691870Y-82123535D01*
X123585331Y-82194722D01*
X123585324Y-82194728D01*
X123094724Y-82685328D01*
X123052588Y-82748389D01*
X123052589Y-82748390D01*
X123023534Y-82791874D01*
X122987879Y-82877953D01*
X122944038Y-82932356D01*
X122877744Y-82954421D01*
X122873319Y-82954500D01*
X122687130Y-82954500D01*
X122687123Y-82954501D01*
X122627516Y-82960908D01*
X122492671Y-83011202D01*
X122492664Y-83011206D01*
X122377455Y-83097452D01*
X122377452Y-83097455D01*
X122291206Y-83212664D01*
X122291202Y-83212671D01*
X122240908Y-83347517D01*
X122234501Y-83407116D01*
X122234500Y-83407135D01*
X122234500Y-84992870D01*
X122234501Y-84992876D01*
X122240908Y-85052483D01*
X122291202Y-85187328D01*
X122291206Y-85187335D01*
X122377452Y-85302544D01*
X122377455Y-85302547D01*
X122492664Y-85388793D01*
X122492671Y-85388797D01*
X122627517Y-85439091D01*
X122627516Y-85439091D01*
X122634444Y-85439835D01*
X122687127Y-85445500D01*
X124512872Y-85445499D01*
X124572483Y-85439091D01*
X124707331Y-85388796D01*
X124822546Y-85302546D01*
X124908796Y-85187331D01*
X124959091Y-85052483D01*
X124965500Y-84992873D01*
X124965499Y-83474499D01*
X124985184Y-83407461D01*
X125037987Y-83361706D01*
X125089499Y-83350500D01*
X125244769Y-83350500D01*
X125311808Y-83370185D01*
X125357563Y-83422989D01*
X125367507Y-83492147D01*
X125344036Y-83548811D01*
X125311204Y-83592668D01*
X125311202Y-83592671D01*
X125260908Y-83727517D01*
X125259573Y-83739940D01*
X125254501Y-83787123D01*
X125254500Y-83787135D01*
X125254500Y-85612870D01*
X125254501Y-85612876D01*
X125260908Y-85672483D01*
X125311202Y-85807328D01*
X125311204Y-85807331D01*
X125370414Y-85886426D01*
X125394831Y-85951891D01*
X125379979Y-86020164D01*
X125374251Y-86029626D01*
X125356690Y-86055909D01*
X125356689Y-86055908D01*
X125351036Y-86064369D01*
X125301999Y-86182755D01*
X125301997Y-86182761D01*
X125281174Y-86287444D01*
X125262659Y-86332143D01*
X125204813Y-86418715D01*
X125174769Y-86491247D01*
X125130927Y-86545650D01*
X125064633Y-86567714D01*
X124996933Y-86550434D01*
X124949324Y-86499296D01*
X124944026Y-86487125D01*
X124908798Y-86392673D01*
X124908793Y-86392664D01*
X124822547Y-86277455D01*
X124822544Y-86277452D01*
X124707335Y-86191206D01*
X124707328Y-86191202D01*
X124572482Y-86140908D01*
X124572483Y-86140908D01*
X124512883Y-86134501D01*
X124512881Y-86134500D01*
X124512873Y-86134500D01*
X124512864Y-86134500D01*
X122687129Y-86134500D01*
X122687123Y-86134501D01*
X122627516Y-86140908D01*
X122492671Y-86191202D01*
X122492664Y-86191206D01*
X122377455Y-86277452D01*
X122377452Y-86277455D01*
X122291206Y-86392664D01*
X122291202Y-86392671D01*
X122240908Y-86527517D01*
X122234501Y-86587116D01*
X122234500Y-86587135D01*
X122234500Y-88172870D01*
X122234501Y-88172876D01*
X122240908Y-88232483D01*
X122291202Y-88367328D01*
X122291206Y-88367335D01*
X122365146Y-88466105D01*
X122389564Y-88531569D01*
X122374713Y-88599842D01*
X122365147Y-88614727D01*
X122291647Y-88712910D01*
X122291645Y-88712913D01*
X122241403Y-88847620D01*
X122241401Y-88847627D01*
X122235000Y-88907155D01*
X122235000Y-89450000D01*
X124965000Y-89450000D01*
X124965000Y-88907172D01*
X124964999Y-88907155D01*
X124958598Y-88847627D01*
X124958596Y-88847620D01*
X124908354Y-88712913D01*
X124908352Y-88712910D01*
X124834853Y-88614727D01*
X124810436Y-88549262D01*
X124825288Y-88480989D01*
X124834854Y-88466105D01*
X124908793Y-88367335D01*
X124908792Y-88367335D01*
X124908796Y-88367331D01*
X124911429Y-88360272D01*
X124928326Y-88314969D01*
X124970196Y-88259035D01*
X125035660Y-88234617D01*
X125103934Y-88249468D01*
X125153339Y-88298873D01*
X125159069Y-88310848D01*
X125204811Y-88421281D01*
X125204816Y-88421290D01*
X125294059Y-88554850D01*
X125294062Y-88554854D01*
X125407645Y-88668437D01*
X125407649Y-88668440D01*
X125541209Y-88757683D01*
X125541215Y-88757686D01*
X125541216Y-88757687D01*
X125689627Y-88819161D01*
X125847175Y-88850499D01*
X125847179Y-88850500D01*
X125847180Y-88850500D01*
X126007821Y-88850500D01*
X126007822Y-88850499D01*
X126165373Y-88819161D01*
X126313784Y-88757687D01*
X126447351Y-88668440D01*
X126475173Y-88640617D01*
X126536494Y-88607133D01*
X126606186Y-88612117D01*
X126650537Y-88640619D01*
X126677969Y-88668052D01*
X126811446Y-88757239D01*
X126811456Y-88757244D01*
X126947499Y-88813595D01*
X126947500Y-88813595D01*
X126947500Y-87294000D01*
X126967185Y-87226961D01*
X127019989Y-87181206D01*
X127071500Y-87170000D01*
X127323500Y-87170000D01*
X127390539Y-87189685D01*
X127436294Y-87242489D01*
X127447500Y-87294000D01*
X127447500Y-88813595D01*
X127583543Y-88757244D01*
X127583553Y-88757239D01*
X127717030Y-88668052D01*
X127739463Y-88645619D01*
X127800786Y-88612133D01*
X127870477Y-88617116D01*
X127914826Y-88645617D01*
X127937261Y-88668052D01*
X127937650Y-88668441D01*
X128071209Y-88757683D01*
X128071215Y-88757686D01*
X128071216Y-88757687D01*
X128219627Y-88819161D01*
X128377175Y-88850499D01*
X128377179Y-88850500D01*
X128377180Y-88850500D01*
X128537821Y-88850500D01*
X128537822Y-88850499D01*
X128695373Y-88819161D01*
X128843784Y-88757687D01*
X128977351Y-88668440D01*
X129009818Y-88635973D01*
X129071140Y-88602487D01*
X129140832Y-88607471D01*
X129185182Y-88635973D01*
X129217645Y-88668437D01*
X129217649Y-88668440D01*
X129351209Y-88757683D01*
X129351215Y-88757686D01*
X129351216Y-88757687D01*
X129499627Y-88819161D01*
X129657175Y-88850499D01*
X129657179Y-88850500D01*
X129657180Y-88850500D01*
X129817821Y-88850500D01*
X129817822Y-88850499D01*
X129975373Y-88819161D01*
X130123784Y-88757687D01*
X130257351Y-88668440D01*
X130370940Y-88554851D01*
X130460187Y-88421284D01*
X130460936Y-88419475D01*
X130461581Y-88418673D01*
X130463057Y-88415914D01*
X130463580Y-88416193D01*
X130504770Y-88365070D01*
X130571063Y-88342999D01*
X130638763Y-88360272D01*
X130686379Y-88411405D01*
X130699500Y-88466920D01*
X130699500Y-91097870D01*
X130699501Y-91097876D01*
X130705908Y-91157483D01*
X130756202Y-91292328D01*
X130756206Y-91292335D01*
X130842452Y-91407544D01*
X130842455Y-91407547D01*
X130957664Y-91493793D01*
X130957671Y-91493797D01*
X131002331Y-91510454D01*
X131092517Y-91544091D01*
X131092525Y-91544091D01*
X131095325Y-91544754D01*
X131097283Y-91545869D01*
X131099785Y-91546802D01*
X131099633Y-91547207D01*
X131156044Y-91579322D01*
X131188435Y-91641230D01*
X131182214Y-91710823D01*
X131141139Y-91764694D01*
X131137459Y-91767448D01*
X131137451Y-91767457D01*
X131051206Y-91882664D01*
X131051202Y-91882671D01*
X131026526Y-91948833D01*
X130984655Y-92004767D01*
X130919191Y-92029184D01*
X130910344Y-92029500D01*
X130643788Y-92029500D01*
X130576749Y-92009815D01*
X130530994Y-91957011D01*
X130522170Y-91929688D01*
X130521661Y-91927127D01*
X130477145Y-91819656D01*
X130460188Y-91778718D01*
X130460183Y-91778709D01*
X130370940Y-91645149D01*
X130370937Y-91645145D01*
X130257354Y-91531562D01*
X130257350Y-91531559D01*
X130123790Y-91442316D01*
X130123781Y-91442311D01*
X129975373Y-91380839D01*
X129975365Y-91380837D01*
X129817824Y-91349500D01*
X129817820Y-91349500D01*
X129657180Y-91349500D01*
X129657175Y-91349500D01*
X129499634Y-91380837D01*
X129499626Y-91380839D01*
X129351218Y-91442311D01*
X129351209Y-91442316D01*
X129217649Y-91531559D01*
X129217645Y-91531562D01*
X129185181Y-91564027D01*
X129123858Y-91597512D01*
X129054166Y-91592528D01*
X129009819Y-91564027D01*
X128977354Y-91531562D01*
X128977350Y-91531559D01*
X128843790Y-91442316D01*
X128843781Y-91442311D01*
X128695373Y-91380839D01*
X128695365Y-91380837D01*
X128537824Y-91349500D01*
X128537820Y-91349500D01*
X128377180Y-91349500D01*
X128377175Y-91349500D01*
X128219634Y-91380837D01*
X128219626Y-91380839D01*
X128071218Y-91442311D01*
X128071209Y-91442316D01*
X127937649Y-91531559D01*
X127937645Y-91531562D01*
X127914827Y-91554381D01*
X127853504Y-91587866D01*
X127783812Y-91582882D01*
X127739465Y-91554381D01*
X127717035Y-91531951D01*
X127717027Y-91531945D01*
X127583551Y-91442759D01*
X127447500Y-91386403D01*
X127447500Y-92906000D01*
X127427815Y-92973039D01*
X127375011Y-93018794D01*
X127323500Y-93030000D01*
X127071500Y-93030000D01*
X127004461Y-93010315D01*
X126958706Y-92957511D01*
X126947500Y-92906000D01*
X126947500Y-91386403D01*
X126811448Y-91442759D01*
X126677972Y-91531945D01*
X126677969Y-91531947D01*
X126650533Y-91559383D01*
X126589209Y-91592867D01*
X126519518Y-91587881D01*
X126475172Y-91559381D01*
X126447351Y-91531560D01*
X126447350Y-91531559D01*
X126447349Y-91531558D01*
X126313790Y-91442316D01*
X126313781Y-91442311D01*
X126165373Y-91380839D01*
X126165365Y-91380837D01*
X126007824Y-91349500D01*
X126007820Y-91349500D01*
X125847180Y-91349500D01*
X125847175Y-91349500D01*
X125689634Y-91380837D01*
X125689626Y-91380839D01*
X125541218Y-91442311D01*
X125541209Y-91442316D01*
X125407649Y-91531559D01*
X125407645Y-91531562D01*
X125294062Y-91645145D01*
X125294059Y-91645149D01*
X125204816Y-91778709D01*
X125204811Y-91778719D01*
X125147293Y-91917579D01*
X125103451Y-91971983D01*
X125037157Y-91994047D01*
X124969458Y-91976767D01*
X124921848Y-91925630D01*
X124916549Y-91913457D01*
X124914264Y-91907331D01*
X124908796Y-91892669D01*
X124908793Y-91892664D01*
X124822547Y-91777455D01*
X124822544Y-91777452D01*
X124707335Y-91691206D01*
X124707328Y-91691202D01*
X124572482Y-91640908D01*
X124572483Y-91640908D01*
X124512883Y-91634501D01*
X124512881Y-91634500D01*
X124512873Y-91634500D01*
X124512864Y-91634500D01*
X122687129Y-91634500D01*
X122687123Y-91634501D01*
X122627516Y-91640908D01*
X122492671Y-91691202D01*
X122492664Y-91691206D01*
X122377455Y-91777452D01*
X122377452Y-91777455D01*
X122291206Y-91892664D01*
X122291202Y-91892671D01*
X122240908Y-92027517D01*
X122234501Y-92087116D01*
X122234500Y-92087135D01*
X122234500Y-92202339D01*
X122214815Y-92269378D01*
X122162011Y-92315133D01*
X122092853Y-92325077D01*
X122051484Y-92307944D01*
X122050114Y-92310454D01*
X122042328Y-92306202D01*
X121907482Y-92255908D01*
X121907483Y-92255908D01*
X121847883Y-92249501D01*
X121847881Y-92249500D01*
X121847873Y-92249500D01*
X121847865Y-92249500D01*
X120421780Y-92249500D01*
X120354741Y-92229815D01*
X120308986Y-92177011D01*
X120299042Y-92107853D01*
X120328067Y-92044297D01*
X120347464Y-92026237D01*
X120432546Y-91962546D01*
X120518796Y-91847331D01*
X120569091Y-91712483D01*
X120575500Y-91652873D01*
X120575499Y-90492844D01*
X122235000Y-90492844D01*
X122241401Y-90552372D01*
X122241403Y-90552379D01*
X122291645Y-90687086D01*
X122291649Y-90687093D01*
X122377809Y-90802187D01*
X122377812Y-90802190D01*
X122492906Y-90888350D01*
X122492913Y-90888354D01*
X122627620Y-90938596D01*
X122627627Y-90938598D01*
X122687155Y-90944999D01*
X122687172Y-90945000D01*
X123350000Y-90945000D01*
X123850000Y-90945000D01*
X124512828Y-90945000D01*
X124512844Y-90944999D01*
X124572372Y-90938598D01*
X124572379Y-90938596D01*
X124707086Y-90888354D01*
X124707093Y-90888350D01*
X124822187Y-90802190D01*
X124822190Y-90802187D01*
X124908350Y-90687093D01*
X124908354Y-90687086D01*
X124958596Y-90552379D01*
X124958598Y-90552372D01*
X124964999Y-90492844D01*
X124965000Y-90492827D01*
X124965000Y-89950000D01*
X123850000Y-89950000D01*
X123850000Y-90945000D01*
X123350000Y-90945000D01*
X123350000Y-89950000D01*
X122235000Y-89950000D01*
X122235000Y-90492844D01*
X120575499Y-90492844D01*
X120575499Y-90147128D01*
X120569091Y-90087517D01*
X120518796Y-89952669D01*
X120518794Y-89952666D01*
X120515696Y-89944360D01*
X120518953Y-89943144D01*
X120507628Y-89891225D01*
X120517841Y-89856440D01*
X120515696Y-89855640D01*
X120518794Y-89847333D01*
X120518796Y-89847331D01*
X120569091Y-89712483D01*
X120575500Y-89652873D01*
X120575499Y-88147128D01*
X120569091Y-88087517D01*
X120526721Y-87973918D01*
X120518797Y-87952671D01*
X120518793Y-87952664D01*
X120432547Y-87837455D01*
X120427659Y-87833796D01*
X120382514Y-87800000D01*
X120350308Y-87775890D01*
X120308438Y-87719956D01*
X120303454Y-87650264D01*
X120308438Y-87633291D01*
X120350317Y-87521007D01*
X120359091Y-87497483D01*
X120365500Y-87437873D01*
X120365499Y-85962128D01*
X120360299Y-85913757D01*
X120359091Y-85902516D01*
X120308797Y-85767671D01*
X120308793Y-85767664D01*
X120222547Y-85652455D01*
X120222544Y-85652452D01*
X120107335Y-85566206D01*
X120107328Y-85566202D01*
X119972482Y-85515908D01*
X119972483Y-85515908D01*
X119912883Y-85509501D01*
X119912881Y-85509500D01*
X119912873Y-85509500D01*
X119912864Y-85509500D01*
X118687129Y-85509500D01*
X118687123Y-85509501D01*
X118627516Y-85515908D01*
X118492671Y-85566202D01*
X118492669Y-85566203D01*
X118374311Y-85654807D01*
X118308847Y-85679224D01*
X118240574Y-85664373D01*
X118225689Y-85654807D01*
X118107330Y-85566203D01*
X118107328Y-85566202D01*
X117972482Y-85515908D01*
X117972483Y-85515908D01*
X117912883Y-85509501D01*
X117912881Y-85509500D01*
X117912873Y-85509500D01*
X117912864Y-85509500D01*
X116687129Y-85509500D01*
X116687123Y-85509501D01*
X116627516Y-85515908D01*
X116492671Y-85566202D01*
X116492664Y-85566206D01*
X116377455Y-85652452D01*
X116377452Y-85652455D01*
X116291206Y-85767664D01*
X116291202Y-85767671D01*
X116240908Y-85902517D01*
X116234962Y-85957831D01*
X116234501Y-85962123D01*
X116234500Y-85962135D01*
X116234500Y-87437870D01*
X116234501Y-87437879D01*
X116236046Y-87452248D01*
X116223639Y-87521007D01*
X116176027Y-87572143D01*
X116112756Y-87589500D01*
X115264500Y-87589500D01*
X115197461Y-87569815D01*
X115151706Y-87517011D01*
X115140500Y-87465500D01*
X115140499Y-86642129D01*
X115140498Y-86642123D01*
X115140497Y-86642116D01*
X115134091Y-86582517D01*
X115131932Y-86576729D01*
X115104103Y-86502116D01*
X115094965Y-86477617D01*
X115089982Y-86407927D01*
X115094966Y-86390951D01*
X115133597Y-86287376D01*
X115133598Y-86287372D01*
X115139999Y-86227844D01*
X115140000Y-86227827D01*
X115140000Y-86050000D01*
X112740000Y-86050000D01*
X112740000Y-86227844D01*
X112746401Y-86287372D01*
X112746403Y-86287379D01*
X112785033Y-86390952D01*
X112790017Y-86460644D01*
X112785033Y-86477618D01*
X112745908Y-86582516D01*
X112739565Y-86641518D01*
X112739501Y-86642123D01*
X112739500Y-86642135D01*
X112739500Y-87497870D01*
X112739501Y-87497876D01*
X112745909Y-87557484D01*
X112784766Y-87661668D01*
X112789750Y-87731359D01*
X112784766Y-87748332D01*
X112745909Y-87852514D01*
X112745908Y-87852516D01*
X112739501Y-87912116D01*
X112739501Y-87912123D01*
X112739500Y-87912135D01*
X112739500Y-88767870D01*
X112739501Y-88767876D01*
X112745908Y-88827483D01*
X112796202Y-88962328D01*
X112796206Y-88962335D01*
X112882452Y-89077544D01*
X112882455Y-89077547D01*
X112997664Y-89163793D01*
X112997671Y-89163797D01*
X113132517Y-89214091D01*
X113132516Y-89214091D01*
X113139444Y-89214835D01*
X113192127Y-89220500D01*
X114687872Y-89220499D01*
X114747483Y-89214091D01*
X114882331Y-89163796D01*
X114947203Y-89115233D01*
X115012667Y-89090816D01*
X115021514Y-89090500D01*
X116933920Y-89090500D01*
X117031462Y-89071096D01*
X117078913Y-89061658D01*
X117215495Y-89005084D01*
X117279480Y-88962331D01*
X117338416Y-88922952D01*
X117882952Y-88378416D01*
X117940347Y-88292517D01*
X117965084Y-88255495D01*
X117985939Y-88205147D01*
X118029779Y-88150743D01*
X118096073Y-88128678D01*
X118163773Y-88145957D01*
X118211384Y-88197094D01*
X118224500Y-88252599D01*
X118224500Y-89652870D01*
X118224501Y-89652876D01*
X118230908Y-89712483D01*
X118284303Y-89855641D01*
X118281057Y-89856851D01*
X118292363Y-89908868D01*
X118282175Y-89943565D01*
X118284303Y-89944359D01*
X118230908Y-90087517D01*
X118224899Y-90143417D01*
X118224501Y-90147123D01*
X118224500Y-90147135D01*
X118224500Y-91652870D01*
X118224501Y-91652876D01*
X118230908Y-91712483D01*
X118281202Y-91847328D01*
X118281206Y-91847335D01*
X118367452Y-91962544D01*
X118367455Y-91962547D01*
X118452529Y-92026234D01*
X118494400Y-92082168D01*
X118499384Y-92151859D01*
X118465898Y-92213182D01*
X118404575Y-92246666D01*
X118378218Y-92249500D01*
X116952129Y-92249500D01*
X116952123Y-92249501D01*
X116892516Y-92255908D01*
X116757671Y-92306202D01*
X116757665Y-92306205D01*
X116718559Y-92335480D01*
X116653095Y-92359896D01*
X116584822Y-92345043D01*
X116539360Y-92299581D01*
X116539111Y-92299769D01*
X116537809Y-92298030D01*
X116535417Y-92295638D01*
X116533795Y-92292668D01*
X116506276Y-92255908D01*
X116447546Y-92177454D01*
X116447545Y-92177453D01*
X116445193Y-92174311D01*
X116420776Y-92108847D01*
X116435627Y-92040574D01*
X116445193Y-92025689D01*
X116451228Y-92017627D01*
X116533796Y-91907331D01*
X116584091Y-91772483D01*
X116590500Y-91712873D01*
X116590499Y-90487128D01*
X116584091Y-90427517D01*
X116561119Y-90365927D01*
X116533797Y-90292671D01*
X116533793Y-90292664D01*
X116447547Y-90177455D01*
X116447544Y-90177452D01*
X116332335Y-90091206D01*
X116332328Y-90091202D01*
X116197482Y-90040908D01*
X116197483Y-90040908D01*
X116137883Y-90034501D01*
X116137881Y-90034500D01*
X116137873Y-90034500D01*
X116137864Y-90034500D01*
X114662129Y-90034500D01*
X114662123Y-90034501D01*
X114602516Y-90040908D01*
X114467671Y-90091202D01*
X114467664Y-90091206D01*
X114352455Y-90177452D01*
X114352452Y-90177455D01*
X114266206Y-90292664D01*
X114266201Y-90292673D01*
X114237797Y-90368832D01*
X114195927Y-90424766D01*
X114130463Y-90449184D01*
X114121615Y-90449500D01*
X114035929Y-90449500D01*
X113910261Y-90474497D01*
X113910255Y-90474499D01*
X113796583Y-90521584D01*
X113796581Y-90521585D01*
X113791873Y-90523534D01*
X113685331Y-90594723D01*
X113535447Y-90744606D01*
X113474123Y-90778090D01*
X113434518Y-90780214D01*
X113427873Y-90779500D01*
X112572129Y-90779500D01*
X112572123Y-90779501D01*
X112512515Y-90785909D01*
X112408332Y-90824766D01*
X112338641Y-90829750D01*
X112321668Y-90824766D01*
X112217485Y-90785909D01*
X112217483Y-90785908D01*
X112157883Y-90779501D01*
X112157881Y-90779500D01*
X112157873Y-90779500D01*
X112157864Y-90779500D01*
X111302129Y-90779500D01*
X111302123Y-90779501D01*
X111242516Y-90785908D01*
X111137618Y-90825033D01*
X111067926Y-90830017D01*
X111050952Y-90825033D01*
X110947379Y-90786403D01*
X110947372Y-90786401D01*
X110887844Y-90780000D01*
X110710000Y-90780000D01*
X110710000Y-92106000D01*
X110690315Y-92173039D01*
X110637511Y-92218794D01*
X110586000Y-92230000D01*
X109580000Y-92230000D01*
X109580000Y-92727841D01*
X109584775Y-92772243D01*
X109572371Y-92841003D01*
X109524761Y-92892141D01*
X109461486Y-92909500D01*
X109185289Y-92909500D01*
X109118250Y-92889815D01*
X109079561Y-92850290D01*
X109051320Y-92804205D01*
X108979412Y-92686860D01*
X108810689Y-92489311D01*
X108613140Y-92320588D01*
X108391628Y-92184846D01*
X108391627Y-92184845D01*
X108391623Y-92184843D01*
X108222206Y-92114669D01*
X108151610Y-92085427D01*
X108151611Y-92085427D01*
X108013921Y-92052370D01*
X107898994Y-92024779D01*
X107898992Y-92024778D01*
X107898991Y-92024778D01*
X107664189Y-92006299D01*
X107640000Y-92004396D01*
X107639999Y-92004396D01*
X107396831Y-92023533D01*
X107328454Y-92009168D01*
X107278698Y-91960117D01*
X107263359Y-91891952D01*
X107270921Y-91856582D01*
X107298596Y-91782379D01*
X107298598Y-91782372D01*
X107304999Y-91722844D01*
X107305000Y-91722827D01*
X107305000Y-91250000D01*
X106350000Y-91250000D01*
X106350000Y-92175000D01*
X106501205Y-92175000D01*
X106568244Y-92194685D01*
X106613999Y-92247489D01*
X106623943Y-92316647D01*
X106594918Y-92380203D01*
X106581737Y-92393290D01*
X106469311Y-92489311D01*
X106300588Y-92686859D01*
X106245216Y-92777218D01*
X106238927Y-92787483D01*
X106200439Y-92850290D01*
X106148627Y-92897165D01*
X106094711Y-92909500D01*
X105947229Y-92909500D01*
X105880190Y-92889815D01*
X105859548Y-92873181D01*
X105373048Y-92386681D01*
X105339563Y-92325358D01*
X105344547Y-92255666D01*
X105386419Y-92199733D01*
X105451883Y-92175316D01*
X105460729Y-92175000D01*
X105850000Y-92175000D01*
X105850000Y-91232155D01*
X109580000Y-91232155D01*
X109580000Y-91730000D01*
X110210000Y-91730000D01*
X110210000Y-90780000D01*
X110032155Y-90780000D01*
X109972627Y-90786401D01*
X109972620Y-90786403D01*
X109837913Y-90836645D01*
X109837906Y-90836649D01*
X109722812Y-90922809D01*
X109722809Y-90922812D01*
X109636649Y-91037906D01*
X109636645Y-91037913D01*
X109586403Y-91172620D01*
X109586401Y-91172627D01*
X109580000Y-91232155D01*
X105850000Y-91232155D01*
X105850000Y-89825000D01*
X105347155Y-89825000D01*
X105287627Y-89831401D01*
X105287620Y-89831403D01*
X105144601Y-89884746D01*
X105143364Y-89881431D01*
X105091531Y-89892641D01*
X105056386Y-89882303D01*
X105055641Y-89884303D01*
X104912482Y-89830908D01*
X104912483Y-89830908D01*
X104852883Y-89824501D01*
X104852881Y-89824500D01*
X104852873Y-89824500D01*
X104852865Y-89824500D01*
X103699379Y-89824500D01*
X103632340Y-89804815D01*
X103586585Y-89752011D01*
X103576641Y-89682853D01*
X103605666Y-89619297D01*
X103618838Y-89606218D01*
X103730689Y-89510689D01*
X103899412Y-89313140D01*
X103921661Y-89276832D01*
X103938282Y-89249710D01*
X103990094Y-89202835D01*
X104044009Y-89190500D01*
X106155991Y-89190500D01*
X106223030Y-89210185D01*
X106261718Y-89249710D01*
X106300584Y-89313134D01*
X106300596Y-89313150D01*
X106366008Y-89389737D01*
X106469311Y-89510689D01*
X106581150Y-89606209D01*
X106581737Y-89606710D01*
X106619930Y-89665217D01*
X106620428Y-89735085D01*
X106583074Y-89794131D01*
X106519728Y-89823609D01*
X106501205Y-89825000D01*
X106350000Y-89825000D01*
X106350000Y-90750000D01*
X107305000Y-90750000D01*
X107305000Y-90277172D01*
X107304999Y-90277155D01*
X107298598Y-90217627D01*
X107298596Y-90217619D01*
X107270921Y-90143417D01*
X107265937Y-90073725D01*
X107299422Y-90012402D01*
X107360746Y-89978918D01*
X107396828Y-89976466D01*
X107640000Y-89995604D01*
X107898994Y-89975221D01*
X108151610Y-89914573D01*
X108391628Y-89815154D01*
X108613140Y-89679412D01*
X108810689Y-89510689D01*
X108979412Y-89313140D01*
X109001661Y-89276832D01*
X109018282Y-89249710D01*
X109070094Y-89202835D01*
X109124009Y-89190500D01*
X109606894Y-89190500D01*
X109650227Y-89198318D01*
X109692517Y-89214091D01*
X109692516Y-89214091D01*
X109699444Y-89214835D01*
X109752127Y-89220500D01*
X111247872Y-89220499D01*
X111307483Y-89214091D01*
X111442331Y-89163796D01*
X111557546Y-89077546D01*
X111643796Y-88962331D01*
X111694091Y-88827483D01*
X111700500Y-88767873D01*
X111700499Y-87912128D01*
X111694091Y-87852517D01*
X111655231Y-87748329D01*
X111650248Y-87678642D01*
X111655227Y-87661682D01*
X111694091Y-87557483D01*
X111700500Y-87497873D01*
X111700499Y-86642128D01*
X111694091Y-86582517D01*
X111655231Y-86478329D01*
X111650248Y-86408642D01*
X111655227Y-86391682D01*
X111694091Y-86287483D01*
X111700500Y-86227873D01*
X111700499Y-85372155D01*
X112740000Y-85372155D01*
X112740000Y-85550000D01*
X113690000Y-85550000D01*
X114190000Y-85550000D01*
X115140000Y-85550000D01*
X115140000Y-85372172D01*
X115139999Y-85372155D01*
X115133598Y-85312627D01*
X115133596Y-85312620D01*
X115083354Y-85177913D01*
X115083350Y-85177906D01*
X114997190Y-85062812D01*
X114997187Y-85062809D01*
X114882093Y-84976649D01*
X114882086Y-84976645D01*
X114747379Y-84926403D01*
X114747372Y-84926401D01*
X114687844Y-84920000D01*
X114190000Y-84920000D01*
X114190000Y-85550000D01*
X113690000Y-85550000D01*
X113690000Y-84920000D01*
X113192155Y-84920000D01*
X113132627Y-84926401D01*
X113132620Y-84926403D01*
X112997913Y-84976645D01*
X112997906Y-84976649D01*
X112882812Y-85062809D01*
X112882809Y-85062812D01*
X112796649Y-85177906D01*
X112796645Y-85177913D01*
X112746403Y-85312620D01*
X112746401Y-85312627D01*
X112740000Y-85372155D01*
X111700499Y-85372155D01*
X111700499Y-85372128D01*
X111694091Y-85312517D01*
X111690372Y-85302547D01*
X111643797Y-85177671D01*
X111643793Y-85177664D01*
X111557547Y-85062455D01*
X111557544Y-85062452D01*
X111442335Y-84976206D01*
X111442328Y-84976202D01*
X111307482Y-84925908D01*
X111307483Y-84925908D01*
X111247883Y-84919501D01*
X111247881Y-84919500D01*
X111247873Y-84919500D01*
X111247864Y-84919500D01*
X109752129Y-84919500D01*
X109752123Y-84919501D01*
X109692516Y-84925908D01*
X109650227Y-84941682D01*
X109606894Y-84949500D01*
X108481518Y-84949500D01*
X108414479Y-84929815D01*
X108368724Y-84877011D01*
X108358780Y-84807853D01*
X108387805Y-84744297D01*
X108416729Y-84719772D01*
X108461026Y-84692627D01*
X108613140Y-84599412D01*
X108810689Y-84430689D01*
X108979412Y-84233140D01*
X109010144Y-84182989D01*
X109018282Y-84169710D01*
X109070094Y-84122835D01*
X109124009Y-84110500D01*
X109225263Y-84110500D01*
X109292302Y-84130185D01*
X109338057Y-84182989D01*
X109341445Y-84191167D01*
X109351202Y-84217328D01*
X109351206Y-84217335D01*
X109437452Y-84332544D01*
X109437455Y-84332547D01*
X109552664Y-84418793D01*
X109552671Y-84418797D01*
X109687517Y-84469091D01*
X109687516Y-84469091D01*
X109694444Y-84469835D01*
X109747127Y-84475500D01*
X111252872Y-84475499D01*
X111312483Y-84469091D01*
X111447331Y-84418796D01*
X111447333Y-84418794D01*
X111455640Y-84415696D01*
X111456793Y-84418789D01*
X111509339Y-84407344D01*
X111543782Y-84417449D01*
X111544602Y-84415253D01*
X111687623Y-84468597D01*
X111687627Y-84468598D01*
X111747155Y-84474999D01*
X111747172Y-84475000D01*
X112250000Y-84475000D01*
X112750000Y-84475000D01*
X113252828Y-84475000D01*
X113252844Y-84474999D01*
X113312372Y-84468598D01*
X113312379Y-84468596D01*
X113447086Y-84418354D01*
X113447093Y-84418350D01*
X113562187Y-84332190D01*
X113562190Y-84332187D01*
X113648350Y-84217093D01*
X113648354Y-84217086D01*
X113698596Y-84082379D01*
X113698598Y-84082372D01*
X113704999Y-84022844D01*
X113705000Y-84022827D01*
X113705000Y-83550000D01*
X112750000Y-83550000D01*
X112750000Y-84475000D01*
X112250000Y-84475000D01*
X112250000Y-83050000D01*
X112750000Y-83050000D01*
X113705000Y-83050000D01*
X113705000Y-82577172D01*
X113704999Y-82577155D01*
X113698598Y-82517627D01*
X113698596Y-82517620D01*
X113648354Y-82382913D01*
X113648350Y-82382906D01*
X113562190Y-82267812D01*
X113562187Y-82267809D01*
X113447093Y-82181649D01*
X113447086Y-82181645D01*
X113312379Y-82131403D01*
X113312372Y-82131401D01*
X113252844Y-82125000D01*
X112750000Y-82125000D01*
X112750000Y-83050000D01*
X112250000Y-83050000D01*
X112250000Y-82125000D01*
X111747155Y-82125000D01*
X111687627Y-82131401D01*
X111687620Y-82131403D01*
X111544601Y-82184746D01*
X111543364Y-82181431D01*
X111491531Y-82192641D01*
X111456386Y-82182303D01*
X111455641Y-82184303D01*
X111312482Y-82130908D01*
X111312483Y-82130908D01*
X111252883Y-82124501D01*
X111252881Y-82124500D01*
X111252873Y-82124500D01*
X111252864Y-82124500D01*
X109747129Y-82124500D01*
X109747123Y-82124501D01*
X109687516Y-82130908D01*
X109552671Y-82181202D01*
X109552664Y-82181206D01*
X109437456Y-82267452D01*
X109437455Y-82267453D01*
X109437454Y-82267454D01*
X109422924Y-82286864D01*
X109368316Y-82359811D01*
X109312382Y-82401682D01*
X109269049Y-82409500D01*
X109124009Y-82409500D01*
X109056970Y-82389815D01*
X109018282Y-82350290D01*
X108979415Y-82286865D01*
X108979413Y-82286862D01*
X108979412Y-82286860D01*
X108963143Y-82267812D01*
X108931639Y-82230925D01*
X108810689Y-82089311D01*
X108613140Y-81920588D01*
X108391628Y-81784846D01*
X108391627Y-81784845D01*
X108391623Y-81784843D01*
X108225627Y-81716086D01*
X108151610Y-81685427D01*
X108151611Y-81685427D01*
X108013921Y-81652370D01*
X107898994Y-81624779D01*
X107898992Y-81624778D01*
X107898991Y-81624778D01*
X107640000Y-81604396D01*
X107381009Y-81624778D01*
X107128389Y-81685427D01*
X106888376Y-81784843D01*
X106666859Y-81920588D01*
X106469311Y-82089311D01*
X106300596Y-82286849D01*
X106300584Y-82286865D01*
X106261718Y-82350290D01*
X106209906Y-82397165D01*
X106155991Y-82409500D01*
X104044009Y-82409500D01*
X103976970Y-82389815D01*
X103938282Y-82350290D01*
X103899415Y-82286865D01*
X103899413Y-82286862D01*
X103899412Y-82286860D01*
X103883143Y-82267812D01*
X103851639Y-82230925D01*
X103730689Y-82089311D01*
X103533140Y-81920588D01*
X103311628Y-81784846D01*
X103311627Y-81784845D01*
X103311623Y-81784843D01*
X103145627Y-81716086D01*
X103071610Y-81685427D01*
X103071611Y-81685427D01*
X102933921Y-81652370D01*
X102818994Y-81624779D01*
X102818992Y-81624778D01*
X102818991Y-81624778D01*
X102560000Y-81604396D01*
X102301009Y-81624778D01*
X102048389Y-81685427D01*
X101808376Y-81784843D01*
X101586859Y-81920588D01*
X101389311Y-82089311D01*
X101220585Y-82286862D01*
X101220584Y-82286864D01*
X101130227Y-82434315D01*
X101078416Y-82481190D01*
X101009486Y-82492613D01*
X100945323Y-82464956D01*
X100906298Y-82407000D01*
X100900500Y-82369525D01*
X100900500Y-80624500D01*
X100920185Y-80557461D01*
X100972989Y-80511706D01*
X101024500Y-80500500D01*
X144775500Y-80500500D01*
X144842539Y-80520185D01*
G37*
%TD.AperFunction*%
%TA.AperFunction,Conductor*%
G36*
X106161750Y-109910185D02*
G01*
X106200437Y-109949708D01*
X106300588Y-110113140D01*
X106469311Y-110310689D01*
X106515924Y-110350500D01*
X106581737Y-110406710D01*
X106619930Y-110465217D01*
X106620428Y-110535085D01*
X106583074Y-110594131D01*
X106519728Y-110623609D01*
X106501205Y-110625000D01*
X106250000Y-110625000D01*
X106250000Y-112975000D01*
X106401205Y-112975000D01*
X106468244Y-112994685D01*
X106513999Y-113047489D01*
X106523943Y-113116647D01*
X106494918Y-113180203D01*
X106481737Y-113193290D01*
X106369311Y-113289311D01*
X106200596Y-113486849D01*
X106200584Y-113486865D01*
X106161718Y-113550290D01*
X106109906Y-113597165D01*
X106055991Y-113609500D01*
X105362230Y-113609500D01*
X105295191Y-113589815D01*
X105274549Y-113573181D01*
X104845475Y-113144107D01*
X104811990Y-113082784D01*
X104816974Y-113013092D01*
X104858846Y-112957159D01*
X104889819Y-112940246D01*
X104947331Y-112918796D01*
X104947331Y-112918795D01*
X104955642Y-112915696D01*
X104956795Y-112918788D01*
X105009339Y-112907344D01*
X105043782Y-112917449D01*
X105044602Y-112915253D01*
X105187623Y-112968597D01*
X105187627Y-112968598D01*
X105247155Y-112974999D01*
X105247172Y-112975000D01*
X105750000Y-112975000D01*
X105750000Y-110625000D01*
X105247155Y-110625000D01*
X105187627Y-110631401D01*
X105187620Y-110631403D01*
X105044601Y-110684746D01*
X105043364Y-110681431D01*
X104991531Y-110692641D01*
X104956386Y-110682303D01*
X104955641Y-110684303D01*
X104812482Y-110630908D01*
X104812483Y-110630908D01*
X104752883Y-110624501D01*
X104752881Y-110624500D01*
X104752873Y-110624500D01*
X104752865Y-110624500D01*
X103699380Y-110624500D01*
X103632341Y-110604815D01*
X103586586Y-110552011D01*
X103576642Y-110482853D01*
X103605667Y-110419297D01*
X103618848Y-110406210D01*
X103730689Y-110310689D01*
X103899412Y-110113140D01*
X103999562Y-109949708D01*
X104051373Y-109902835D01*
X104105289Y-109890500D01*
X106094711Y-109890500D01*
X106161750Y-109910185D01*
G37*
%TD.AperFunction*%
%TA.AperFunction,Conductor*%
G36*
X101105703Y-109936761D02*
G01*
X101130228Y-109965685D01*
X101208239Y-110092989D01*
X101220588Y-110113140D01*
X101389311Y-110310689D01*
X101586860Y-110479412D01*
X101808372Y-110615154D01*
X101808374Y-110615154D01*
X101808376Y-110615156D01*
X101869693Y-110640554D01*
X102048390Y-110714573D01*
X102301006Y-110775221D01*
X102560000Y-110795604D01*
X102699596Y-110784617D01*
X102767971Y-110798981D01*
X102817728Y-110848032D01*
X102833067Y-110916197D01*
X102825506Y-110951566D01*
X102800908Y-111017517D01*
X102794866Y-111073722D01*
X102794501Y-111077123D01*
X102794500Y-111077135D01*
X102794500Y-112522870D01*
X102794501Y-112522876D01*
X102800909Y-112582485D01*
X102828529Y-112656540D01*
X102833513Y-112726232D01*
X102800027Y-112787554D01*
X102738703Y-112821039D01*
X102702618Y-112823490D01*
X102529027Y-112809828D01*
X102460000Y-112804396D01*
X102459999Y-112804396D01*
X102201009Y-112824778D01*
X101948389Y-112885427D01*
X101708376Y-112984843D01*
X101486859Y-113120588D01*
X101289311Y-113289311D01*
X101118790Y-113488965D01*
X101060283Y-113527158D01*
X100990415Y-113527656D01*
X100931369Y-113490303D01*
X100901891Y-113426956D01*
X100900500Y-113408433D01*
X100900500Y-110030474D01*
X100920185Y-109963435D01*
X100972989Y-109917680D01*
X101042147Y-109907736D01*
X101105703Y-109936761D01*
G37*
%TD.AperFunction*%
%TA.AperFunction,Conductor*%
G36*
X117893333Y-102329126D02*
G01*
X117937681Y-102357627D01*
X118135325Y-102555272D01*
X118135326Y-102555273D01*
X118135329Y-102555275D01*
X118135331Y-102555277D01*
X118241873Y-102626465D01*
X118360256Y-102675501D01*
X118360260Y-102675501D01*
X118360261Y-102675502D01*
X118485928Y-102700500D01*
X118485931Y-102700500D01*
X119300501Y-102700500D01*
X119367540Y-102720185D01*
X119413295Y-102772989D01*
X119424501Y-102824500D01*
X119424501Y-102839363D01*
X119439953Y-102956753D01*
X119439957Y-102956765D01*
X119448566Y-102977550D01*
X119456033Y-103047019D01*
X119448566Y-103072450D01*
X119439957Y-103093234D01*
X119439955Y-103093239D01*
X119424500Y-103210638D01*
X119424500Y-103489363D01*
X119439953Y-103606753D01*
X119439956Y-103606762D01*
X119500464Y-103752841D01*
X119596718Y-103878282D01*
X119722159Y-103974536D01*
X119868238Y-104035044D01*
X119904185Y-104039776D01*
X119968081Y-104068042D01*
X120006553Y-104126366D01*
X120012000Y-104162715D01*
X120012000Y-105725500D01*
X119992315Y-105792539D01*
X119939511Y-105838294D01*
X119888000Y-105849500D01*
X118352129Y-105849500D01*
X118352123Y-105849501D01*
X118292516Y-105855908D01*
X118157671Y-105906202D01*
X118157664Y-105906206D01*
X118042455Y-105992452D01*
X118042452Y-105992455D01*
X117956206Y-106107664D01*
X117956202Y-106107671D01*
X117905908Y-106242517D01*
X117899501Y-106302116D01*
X117899501Y-106302123D01*
X117899500Y-106302135D01*
X117899500Y-107172410D01*
X117879815Y-107239449D01*
X117827011Y-107285204D01*
X117789384Y-107295630D01*
X117620749Y-107314630D01*
X117620745Y-107314631D01*
X117443905Y-107376511D01*
X117443207Y-107374517D01*
X117384333Y-107384199D01*
X117320204Y-107356463D01*
X117281251Y-107298459D01*
X117275499Y-107261130D01*
X117275499Y-106947129D01*
X117275498Y-106947123D01*
X117272437Y-106918650D01*
X117269091Y-106887517D01*
X117218796Y-106752669D01*
X117218794Y-106752666D01*
X117215696Y-106744360D01*
X117218953Y-106743144D01*
X117207628Y-106691225D01*
X117217841Y-106656440D01*
X117215696Y-106655640D01*
X117218794Y-106647333D01*
X117218796Y-106647331D01*
X117269091Y-106512483D01*
X117275500Y-106452873D01*
X117275499Y-104947128D01*
X117269091Y-104887517D01*
X117267402Y-104882989D01*
X117218797Y-104752671D01*
X117218793Y-104752664D01*
X117132547Y-104637455D01*
X117132544Y-104637452D01*
X117017335Y-104551206D01*
X117017328Y-104551202D01*
X116882483Y-104500908D01*
X116861243Y-104498625D01*
X116796692Y-104471886D01*
X116756845Y-104414493D01*
X116750500Y-104375336D01*
X116750500Y-103535928D01*
X116725502Y-103410261D01*
X116725501Y-103410260D01*
X116725501Y-103410256D01*
X116696776Y-103340908D01*
X116676465Y-103291872D01*
X116663509Y-103272483D01*
X116658288Y-103264669D01*
X116648680Y-103250290D01*
X116605274Y-103185327D01*
X116332128Y-102912181D01*
X116298643Y-102850858D01*
X116303627Y-102781166D01*
X116345499Y-102725233D01*
X116410963Y-102700816D01*
X116419809Y-102700500D01*
X117214071Y-102700500D01*
X117298615Y-102683682D01*
X117339744Y-102675501D01*
X117458127Y-102626465D01*
X117564669Y-102555277D01*
X117762319Y-102357627D01*
X117823642Y-102324142D01*
X117893333Y-102329126D01*
G37*
%TD.AperFunction*%
%TA.AperFunction,Conductor*%
G36*
X106161750Y-99510185D02*
G01*
X106200437Y-99549708D01*
X106300588Y-99713140D01*
X106469311Y-99910689D01*
X106545195Y-99975500D01*
X106581737Y-100006710D01*
X106619930Y-100065217D01*
X106620428Y-100135085D01*
X106583074Y-100194131D01*
X106519728Y-100223609D01*
X106501205Y-100225000D01*
X106250000Y-100225000D01*
X106250000Y-102575000D01*
X106501205Y-102575000D01*
X106568244Y-102594685D01*
X106613999Y-102647489D01*
X106623943Y-102716647D01*
X106594918Y-102780203D01*
X106581737Y-102793290D01*
X106469311Y-102889311D01*
X106300588Y-103086859D01*
X106200439Y-103250290D01*
X106148627Y-103297165D01*
X106094711Y-103309500D01*
X104105289Y-103309500D01*
X104038250Y-103289815D01*
X103999561Y-103250290D01*
X103976631Y-103212872D01*
X103899412Y-103086860D01*
X103730689Y-102889311D01*
X103533140Y-102720588D01*
X103311628Y-102584846D01*
X103311627Y-102584845D01*
X103311623Y-102584843D01*
X103132938Y-102510830D01*
X103071610Y-102485427D01*
X103071611Y-102485427D01*
X102909776Y-102446574D01*
X102818994Y-102424779D01*
X102818992Y-102424778D01*
X102818991Y-102424778D01*
X102560000Y-102404396D01*
X102301009Y-102424778D01*
X102048389Y-102485427D01*
X101808376Y-102584843D01*
X101586859Y-102720588D01*
X101389311Y-102889311D01*
X101220585Y-103086862D01*
X101220584Y-103086864D01*
X101130227Y-103234315D01*
X101078416Y-103281190D01*
X101009486Y-103292613D01*
X100945323Y-103264956D01*
X100906298Y-103207000D01*
X100900500Y-103169525D01*
X100900500Y-102122844D01*
X104795000Y-102122844D01*
X104801401Y-102182372D01*
X104801403Y-102182379D01*
X104851645Y-102317086D01*
X104851649Y-102317093D01*
X104937809Y-102432187D01*
X104937812Y-102432190D01*
X105052906Y-102518350D01*
X105052913Y-102518354D01*
X105187620Y-102568596D01*
X105187627Y-102568598D01*
X105247155Y-102574999D01*
X105247172Y-102575000D01*
X105750000Y-102575000D01*
X105750000Y-101650000D01*
X104795000Y-101650000D01*
X104795000Y-102122844D01*
X100900500Y-102122844D01*
X100900500Y-100677155D01*
X104795000Y-100677155D01*
X104795000Y-101150000D01*
X105750000Y-101150000D01*
X105750000Y-100225000D01*
X105247155Y-100225000D01*
X105187627Y-100231401D01*
X105187620Y-100231403D01*
X105052913Y-100281645D01*
X105052906Y-100281649D01*
X104937812Y-100367809D01*
X104937809Y-100367812D01*
X104851649Y-100482906D01*
X104851645Y-100482913D01*
X104801403Y-100617620D01*
X104801401Y-100617627D01*
X104795000Y-100677155D01*
X100900500Y-100677155D01*
X100900500Y-99630474D01*
X100920185Y-99563435D01*
X100972989Y-99517680D01*
X101042147Y-99507736D01*
X101105703Y-99536761D01*
X101130228Y-99565685D01*
X101220232Y-99712560D01*
X101220588Y-99713140D01*
X101389311Y-99910689D01*
X101586860Y-100079412D01*
X101808372Y-100215154D01*
X101808374Y-100215154D01*
X101808376Y-100215156D01*
X101869693Y-100240554D01*
X102048390Y-100314573D01*
X102301006Y-100375221D01*
X102560000Y-100395604D01*
X102818994Y-100375221D01*
X103071610Y-100314573D01*
X103311628Y-100215154D01*
X103533140Y-100079412D01*
X103730689Y-99910689D01*
X103899412Y-99713140D01*
X103999562Y-99549708D01*
X104051373Y-99502835D01*
X104105289Y-99490500D01*
X106094711Y-99490500D01*
X106161750Y-99510185D01*
G37*
%TD.AperFunction*%
%TA.AperFunction,Conductor*%
G36*
X116749159Y-96691232D02*
G01*
X116749359Y-96690697D01*
X116892517Y-96744091D01*
X116900062Y-96745874D01*
X116899384Y-96748740D01*
X116951173Y-96770174D01*
X116991038Y-96827554D01*
X116996617Y-96880628D01*
X116994435Y-96899999D01*
X116994435Y-96900003D01*
X117014630Y-97079249D01*
X117014631Y-97079254D01*
X117074211Y-97249523D01*
X117150345Y-97370688D01*
X117170184Y-97402262D01*
X117297738Y-97529816D01*
X117313010Y-97539412D01*
X117432788Y-97614674D01*
X117450478Y-97625789D01*
X117578538Y-97670599D01*
X117620745Y-97685368D01*
X117620750Y-97685369D01*
X117799996Y-97705565D01*
X117800000Y-97705565D01*
X117800004Y-97705565D01*
X117979249Y-97685369D01*
X117979252Y-97685368D01*
X117979255Y-97685368D01*
X118149522Y-97625789D01*
X118302262Y-97529816D01*
X118429816Y-97402262D01*
X118525789Y-97249522D01*
X118525790Y-97249518D01*
X118527700Y-97246479D01*
X118580034Y-97200188D01*
X118649088Y-97189539D01*
X118712936Y-97217914D01*
X118751309Y-97276304D01*
X118754311Y-97288256D01*
X118761060Y-97322183D01*
X118761060Y-97322184D01*
X118774497Y-97389736D01*
X118774499Y-97389744D01*
X118819961Y-97499500D01*
X118823535Y-97508127D01*
X118889661Y-97607093D01*
X118894726Y-97614673D01*
X118894727Y-97614674D01*
X119862010Y-98581956D01*
X119895495Y-98643279D01*
X119890511Y-98712970D01*
X119848639Y-98768904D01*
X119821783Y-98784198D01*
X119722159Y-98825464D01*
X119596718Y-98921718D01*
X119500463Y-99047160D01*
X119439956Y-99193237D01*
X119439955Y-99193239D01*
X119424500Y-99310638D01*
X119424500Y-99589363D01*
X119439953Y-99706753D01*
X119439957Y-99706765D01*
X119448566Y-99727550D01*
X119456033Y-99797019D01*
X119448566Y-99822450D01*
X119439957Y-99843234D01*
X119439955Y-99843239D01*
X119424501Y-99960629D01*
X119424500Y-99960645D01*
X119424500Y-99975500D01*
X119404815Y-100042539D01*
X119352011Y-100088294D01*
X119300500Y-100099500D01*
X118385929Y-100099500D01*
X118260261Y-100124497D01*
X118260251Y-100124500D01*
X118211220Y-100144810D01*
X118141881Y-100173530D01*
X118141863Y-100173540D01*
X118035332Y-100244721D01*
X118035325Y-100244727D01*
X117937681Y-100342372D01*
X117876358Y-100375857D01*
X117806666Y-100370873D01*
X117762319Y-100342372D01*
X117664673Y-100244726D01*
X117650524Y-100235272D01*
X117558127Y-100173535D01*
X117550756Y-100170482D01*
X117439744Y-100124499D01*
X117439738Y-100124497D01*
X117314071Y-100099500D01*
X117314069Y-100099500D01*
X116299499Y-100099500D01*
X116232460Y-100079815D01*
X116186705Y-100027011D01*
X116175499Y-99975500D01*
X116175499Y-99960638D01*
X116169211Y-99912873D01*
X116160044Y-99843238D01*
X116160042Y-99843234D01*
X116151435Y-99822455D01*
X116143965Y-99752986D01*
X116151435Y-99727545D01*
X116154149Y-99720993D01*
X116160044Y-99706762D01*
X116175500Y-99589361D01*
X116175499Y-99310640D01*
X116175499Y-99310638D01*
X116175499Y-99310636D01*
X116160046Y-99193246D01*
X116160044Y-99193239D01*
X116160044Y-99193238D01*
X116099536Y-99047159D01*
X116099535Y-99047158D01*
X116099535Y-99047157D01*
X116076124Y-99016647D01*
X116050930Y-98951477D01*
X116050500Y-98941161D01*
X116050500Y-98524663D01*
X116070185Y-98457624D01*
X116122989Y-98411869D01*
X116161248Y-98401373D01*
X116182483Y-98399091D01*
X116317331Y-98348796D01*
X116432546Y-98262546D01*
X116518796Y-98147331D01*
X116569091Y-98012483D01*
X116575500Y-97952873D01*
X116575499Y-96803314D01*
X116595184Y-96736276D01*
X116647987Y-96690521D01*
X116717146Y-96680577D01*
X116749159Y-96691232D01*
G37*
%TD.AperFunction*%
%TA.AperFunction,Conductor*%
G36*
X114150666Y-92494949D02*
G01*
X114197356Y-92546927D01*
X114209500Y-92600445D01*
X114209500Y-93712870D01*
X114209501Y-93712876D01*
X114215908Y-93772483D01*
X114266202Y-93907328D01*
X114266206Y-93907335D01*
X114347334Y-94015707D01*
X114371752Y-94081171D01*
X114356901Y-94149444D01*
X114347335Y-94164329D01*
X114281204Y-94252668D01*
X114281202Y-94252671D01*
X114230908Y-94387517D01*
X114224501Y-94447116D01*
X114224500Y-94447135D01*
X114224500Y-95952870D01*
X114224501Y-95952876D01*
X114230908Y-96012483D01*
X114284303Y-96155641D01*
X114281057Y-96156851D01*
X114292363Y-96208868D01*
X114282175Y-96243565D01*
X114284303Y-96244359D01*
X114230908Y-96387517D01*
X114224501Y-96447116D01*
X114224500Y-96447135D01*
X114224500Y-97375500D01*
X114204815Y-97442539D01*
X114152011Y-97488294D01*
X114100500Y-97499500D01*
X113978386Y-97499500D01*
X113911347Y-97479815D01*
X113865592Y-97427011D01*
X113862204Y-97418833D01*
X113833797Y-97342671D01*
X113833793Y-97342664D01*
X113747547Y-97227455D01*
X113747544Y-97227452D01*
X113632335Y-97141206D01*
X113632328Y-97141202D01*
X113497482Y-97090908D01*
X113497483Y-97090908D01*
X113437883Y-97084501D01*
X113437881Y-97084500D01*
X113437873Y-97084500D01*
X113437864Y-97084500D01*
X111962129Y-97084500D01*
X111962123Y-97084501D01*
X111902516Y-97090908D01*
X111767671Y-97141202D01*
X111767664Y-97141206D01*
X111652455Y-97227452D01*
X111652453Y-97227454D01*
X111648950Y-97232134D01*
X111593014Y-97274002D01*
X111523322Y-97278983D01*
X111462001Y-97245494D01*
X111450417Y-97232125D01*
X111447185Y-97227808D01*
X111332093Y-97141649D01*
X111332086Y-97141645D01*
X111197379Y-97091403D01*
X111197372Y-97091401D01*
X111137844Y-97085000D01*
X110650000Y-97085000D01*
X110650000Y-98276000D01*
X110630315Y-98343039D01*
X110577511Y-98388794D01*
X110526000Y-98400000D01*
X110274000Y-98400000D01*
X110206961Y-98380315D01*
X110161206Y-98327511D01*
X110150000Y-98276000D01*
X110150000Y-97085000D01*
X109662155Y-97085000D01*
X109602627Y-97091401D01*
X109602620Y-97091403D01*
X109467913Y-97141645D01*
X109467906Y-97141649D01*
X109352812Y-97227809D01*
X109352809Y-97227812D01*
X109266649Y-97342906D01*
X109266645Y-97342913D01*
X109216403Y-97477620D01*
X109216401Y-97477627D01*
X109210000Y-97537155D01*
X109210000Y-97703474D01*
X109190315Y-97770513D01*
X109137511Y-97816268D01*
X109068353Y-97826212D01*
X109004797Y-97797187D01*
X108982371Y-97770740D01*
X108982280Y-97770807D01*
X108981390Y-97769583D01*
X108980273Y-97768265D01*
X108979413Y-97766862D01*
X108979412Y-97766860D01*
X108810689Y-97569311D01*
X108613140Y-97400588D01*
X108391628Y-97264846D01*
X108391627Y-97264845D01*
X108391623Y-97264843D01*
X108208667Y-97189061D01*
X108154264Y-97145220D01*
X108132199Y-97078926D01*
X108149478Y-97011227D01*
X108200615Y-96963616D01*
X108256120Y-96950500D01*
X108673920Y-96950500D01*
X108776609Y-96930073D01*
X108818913Y-96921658D01*
X108955495Y-96865084D01*
X109004729Y-96832186D01*
X109078416Y-96782952D01*
X109476293Y-96385073D01*
X109537614Y-96351590D01*
X109607305Y-96356574D01*
X109663238Y-96398444D01*
X109722455Y-96477547D01*
X109837664Y-96563793D01*
X109837671Y-96563797D01*
X109972517Y-96614091D01*
X109972516Y-96614091D01*
X109979444Y-96614835D01*
X110032127Y-96620500D01*
X110887872Y-96620499D01*
X110947483Y-96614091D01*
X111051670Y-96575231D01*
X111121358Y-96570248D01*
X111138317Y-96575227D01*
X111242517Y-96614091D01*
X111302127Y-96620500D01*
X112157872Y-96620499D01*
X112217483Y-96614091D01*
X112321670Y-96575231D01*
X112391358Y-96570248D01*
X112408317Y-96575227D01*
X112512517Y-96614091D01*
X112572127Y-96620500D01*
X113427872Y-96620499D01*
X113487483Y-96614091D01*
X113622331Y-96563796D01*
X113737546Y-96477546D01*
X113823796Y-96362331D01*
X113874091Y-96227483D01*
X113880500Y-96167873D01*
X113880499Y-94672128D01*
X113875299Y-94623757D01*
X113874091Y-94612516D01*
X113823797Y-94477671D01*
X113823795Y-94477668D01*
X113818973Y-94471227D01*
X113775233Y-94412797D01*
X113750816Y-94347333D01*
X113750500Y-94338486D01*
X113750500Y-94146081D01*
X113750499Y-94146080D01*
X113738416Y-94085331D01*
X113721659Y-94001088D01*
X113681972Y-93905276D01*
X113681871Y-93905033D01*
X113665085Y-93864507D01*
X113665080Y-93864498D01*
X113588940Y-93750547D01*
X113588937Y-93750542D01*
X113582955Y-93741588D01*
X113582952Y-93741585D01*
X113233548Y-93392180D01*
X113200063Y-93330857D01*
X113205047Y-93261165D01*
X113246919Y-93205232D01*
X113312383Y-93180815D01*
X113321229Y-93180499D01*
X113427871Y-93180499D01*
X113427872Y-93180499D01*
X113487483Y-93174091D01*
X113622331Y-93123796D01*
X113737546Y-93037546D01*
X113823796Y-92922331D01*
X113874091Y-92787483D01*
X113880500Y-92727873D01*
X113880499Y-92654568D01*
X113900183Y-92587530D01*
X113935610Y-92551465D01*
X113942402Y-92546927D01*
X113966994Y-92530495D01*
X114016612Y-92497341D01*
X114083286Y-92476465D01*
X114150666Y-92494949D01*
G37*
%TD.AperFunction*%
%TA.AperFunction,Conductor*%
G36*
X101105703Y-89136761D02*
G01*
X101130227Y-89165684D01*
X101220588Y-89313140D01*
X101389311Y-89510689D01*
X101586860Y-89679412D01*
X101808372Y-89815154D01*
X101808374Y-89815154D01*
X101808376Y-89815156D01*
X101847600Y-89831403D01*
X102048390Y-89914573D01*
X102301006Y-89975221D01*
X102560000Y-89995604D01*
X102802620Y-89976509D01*
X102870995Y-89990873D01*
X102920752Y-90039924D01*
X102936091Y-90108090D01*
X102928530Y-90143458D01*
X102900908Y-90217517D01*
X102894501Y-90277116D01*
X102894500Y-90277135D01*
X102894500Y-91722870D01*
X102894501Y-91722876D01*
X102900909Y-91782485D01*
X102928529Y-91856540D01*
X102933513Y-91926232D01*
X102900027Y-91987554D01*
X102838703Y-92021039D01*
X102802618Y-92023490D01*
X102620635Y-92009168D01*
X102560000Y-92004396D01*
X102559999Y-92004396D01*
X102301009Y-92024778D01*
X102048389Y-92085427D01*
X101808376Y-92184843D01*
X101586859Y-92320588D01*
X101389311Y-92489311D01*
X101220585Y-92686862D01*
X101220584Y-92686864D01*
X101130227Y-92834315D01*
X101078416Y-92881190D01*
X101009486Y-92892613D01*
X100945323Y-92864956D01*
X100906298Y-92807000D01*
X100900500Y-92769525D01*
X100900500Y-89230474D01*
X100920185Y-89163435D01*
X100972989Y-89117680D01*
X101042147Y-89107736D01*
X101105703Y-89136761D01*
G37*
%TD.AperFunction*%
%TA.AperFunction,Conductor*%
G36*
X139396231Y-87220185D02*
G01*
X139416873Y-87236819D01*
X140513181Y-88333127D01*
X140546666Y-88394450D01*
X140549500Y-88420808D01*
X140549500Y-89672691D01*
X140529815Y-89739730D01*
X140477011Y-89785485D01*
X140407853Y-89795429D01*
X140344297Y-89766404D01*
X140337819Y-89760372D01*
X139622173Y-89044726D01*
X139622169Y-89044723D01*
X139515627Y-88973535D01*
X139397244Y-88924499D01*
X139397242Y-88924498D01*
X139397241Y-88924498D01*
X139389467Y-88922952D01*
X139389462Y-88922951D01*
X139271571Y-88899500D01*
X139271569Y-88899500D01*
X139137244Y-88899500D01*
X139070205Y-88879815D01*
X139024450Y-88827011D01*
X139013954Y-88762247D01*
X139015500Y-88747873D01*
X139015499Y-88352128D01*
X139015498Y-88352111D01*
X139011320Y-88313253D01*
X139011320Y-88286747D01*
X139015500Y-88247873D01*
X139015499Y-87852128D01*
X139015498Y-87852111D01*
X139011320Y-87813253D01*
X139011320Y-87786747D01*
X139015500Y-87747873D01*
X139015499Y-87352128D01*
X139013954Y-87337753D01*
X139026361Y-87268994D01*
X139073972Y-87217857D01*
X139137244Y-87200500D01*
X139329192Y-87200500D01*
X139396231Y-87220185D01*
G37*
%TD.AperFunction*%
M02*
