M48
; DRILL file {KiCad 8.0.2} date 2024-10-06T11:27:20+0200
; FORMAT={-:-/ absolute / metric / decimal}
; #@! TF.CreationDate,2024-10-06T11:27:20+02:00
; #@! TF.GenerationSoftware,Kicad,Pcbnew,8.0.2
; #@! TF.FileFunction,Plated,1,4,PTH
FMAT,2
METRIC
; #@! TA.AperFunction,Plated,PTH,ViaDrill
T1C0.200
; #@! TA.AperFunction,Plated,PTH,ViaDrill
T2C0.250
; #@! TA.AperFunction,Plated,PTH,ViaDrill
T3C0.300
; #@! TA.AperFunction,Plated,PTH,ComponentDrill
T4C0.600
; #@! TA.AperFunction,Plated,PTH,ComponentDrill
T5C0.650
; #@! TA.AperFunction,Plated,PTH,ComponentDrill
T6C1.300
%
G90
G05
T1
X104.2Y-110.3
X105.8Y-110.3
X105.8Y-113.3
X110.4Y-96.9
X111.5Y-96.9
T2
X111.5Y-101.4
X117.8Y-96.9
X117.8Y-108.1
X117.9Y-101.4
X124.0Y-101.4
X133.9Y-101.6
T3
X101.5Y-90.3
X101.5Y-91.5
X101.5Y-100.7
X101.5Y-102.0
X101.7Y-111.8
X101.8Y-81.1
X102.4Y-121.9
X102.5Y-91.0
X102.6Y-101.3
X102.8Y-81.1
X103.4Y-121.9
X103.8Y-81.1
X104.1Y-100.7
X104.1Y-102.5
X104.4Y-121.9
X104.8Y-81.1
X105.0Y-110.3
X105.4Y-121.9
X105.8Y-81.1
X106.4Y-121.9
X106.8Y-81.1
X107.4Y-121.9
X107.5Y-91.0
X107.8Y-81.1
X108.4Y-91.0
X108.4Y-121.9
X108.8Y-81.1
X109.2Y-91.0
X109.3Y-90.0
X109.4Y-121.9
X109.8Y-81.1
X109.9Y-119.5
X109.9Y-121.1
X110.2Y-90.0
X110.4Y-120.3
X110.4Y-121.9
X110.5Y-118.7
X110.9Y-81.1
X110.9Y-119.5
X110.9Y-121.1
X111.0Y-90.0
X111.4Y-120.3
X111.4Y-121.9
X111.5Y-118.7
X111.9Y-81.1
X111.9Y-90.0
X111.9Y-119.5
X111.9Y-121.1
X112.2Y-87.1
X112.2Y-88.4
X112.2Y-106.6
X112.2Y-107.9
X112.2Y-109.2
X112.2Y-114.4
X112.2Y-115.7
X112.2Y-117.0
X112.3Y-85.8
X112.3Y-110.9
X112.3Y-112.7
X112.4Y-120.3
X112.4Y-121.9
X112.5Y-81.9
X112.5Y-118.7
X112.8Y-90.0
X112.8Y-111.8
X112.9Y-81.1
X112.9Y-119.5
X112.9Y-121.1
X113.4Y-120.3
X113.4Y-121.9
X113.5Y-118.7
X113.6Y-90.0
X113.9Y-81.1
X113.9Y-96.9
X113.9Y-119.5
X113.9Y-121.1
X114.4Y-83.6
X114.4Y-120.3
X114.4Y-121.9
X114.5Y-82.0
X114.5Y-89.6
X114.5Y-118.7
X114.8Y-84.4
X114.9Y-81.1
X114.9Y-82.8
X114.9Y-119.5
X114.9Y-121.1
X115.4Y-83.6
X115.4Y-89.6
X115.4Y-120.3
X115.4Y-121.9
X115.5Y-82.0
X115.5Y-118.7
X115.7Y-85.3
X115.7Y-86.1
X115.7Y-87.0
X115.7Y-113.5
X115.7Y-115.3
X115.8Y-84.4
X115.9Y-81.1
X115.9Y-82.8
X115.9Y-119.5
X115.9Y-121.1
X116.1Y-114.4
X116.2Y-89.6
X116.4Y-83.6
X116.4Y-120.3
X116.4Y-121.9
X116.5Y-82.0
X116.5Y-99.7
X116.5Y-118.7
X116.7Y-113.5
X116.7Y-115.3
X116.8Y-84.4
X116.9Y-81.1
X116.9Y-82.8
X116.9Y-119.5
X116.9Y-121.1
X117.2Y-114.4
X117.3Y-89.6
X117.3Y-90.4
X117.3Y-91.3
X117.4Y-83.6
X117.4Y-120.3
X117.4Y-121.9
X117.5Y-82.0
X117.5Y-118.7
X117.7Y-113.5
X117.7Y-115.3
X117.8Y-84.4
X117.9Y-81.1
X117.9Y-82.8
X117.9Y-99.7
X117.9Y-103.0
X117.9Y-104.4
X117.9Y-105.7
X117.9Y-119.5
X117.9Y-121.1
X118.2Y-110.9
X118.2Y-111.7
X118.2Y-112.6
X118.2Y-114.4
X118.4Y-83.6
X118.4Y-120.3
X118.4Y-121.9
X118.5Y-82.0
X118.5Y-118.7
X118.7Y-113.5
X118.7Y-115.3
X118.8Y-84.4
X118.9Y-81.1
X118.9Y-82.8
X118.9Y-119.5
X118.9Y-121.1
X119.2Y-104.4
X119.4Y-83.6
X119.4Y-110.9
X119.4Y-111.7
X119.4Y-112.6
X119.4Y-120.3
X119.4Y-121.9
X119.5Y-82.0
X119.5Y-118.7
X119.8Y-84.4
X119.8Y-119.5
X119.8Y-121.1
X119.9Y-81.1
X119.9Y-82.8
X120.3Y-120.3
X120.3Y-121.9
X120.4Y-83.6
X120.4Y-118.7
X120.5Y-82.0
X120.8Y-84.4
X120.8Y-85.3
X120.8Y-86.2
X120.8Y-87.1
X120.8Y-119.5
X120.8Y-121.1
X120.9Y-81.1
X120.9Y-82.8
X121.3Y-120.3
X121.3Y-121.9
X121.4Y-83.6
X121.4Y-88.0
X121.4Y-88.9
X121.4Y-89.8
X121.4Y-90.7
X121.4Y-91.6
X121.4Y-118.7
X121.5Y-82.0
X121.8Y-84.4
X121.8Y-85.3
X121.8Y-86.2
X121.8Y-87.1
X121.8Y-119.5
X121.8Y-121.1
X121.9Y-81.1
X121.9Y-82.8
X122.3Y-120.3
X122.3Y-121.9
X122.4Y-118.7
X122.5Y-82.0
X122.8Y-119.5
X122.8Y-121.1
X122.9Y-81.1
X122.9Y-111.5
X122.9Y-112.4
X122.9Y-113.3
X122.9Y-114.2
X122.9Y-115.1
X122.9Y-116.0
X122.9Y-116.9
X122.9Y-117.8
X123.3Y-120.3
X123.3Y-121.9
X123.4Y-118.7
X123.8Y-119.5
X123.8Y-121.1
X123.9Y-81.1
X123.9Y-108.1
X123.9Y-111.5
X123.9Y-112.4
X123.9Y-113.3
X123.9Y-114.2
X123.9Y-115.1
X123.9Y-116.0
X123.9Y-116.9
X123.9Y-117.8
X124.3Y-120.3
X124.3Y-121.9
X124.4Y-110.7
X124.4Y-118.7
X124.8Y-119.5
X124.8Y-121.1
X124.9Y-81.1
X124.9Y-111.5
X124.9Y-112.4
X124.9Y-113.3
X124.9Y-114.2
X124.9Y-115.1
X124.9Y-116.0
X124.9Y-116.9
X124.9Y-117.8
X125.0Y-109.9
X125.3Y-120.3
X125.3Y-121.9
X125.4Y-110.7
X125.4Y-118.7
X125.7Y-89.6
X125.7Y-90.5
X125.8Y-119.5
X125.8Y-121.1
X125.9Y-81.1
X125.9Y-111.5
X125.9Y-112.4
X125.9Y-113.3
X125.9Y-114.2
X125.9Y-115.1
X125.9Y-116.0
X125.9Y-116.9
X125.9Y-117.8
X126.0Y-109.9
X126.1Y-106.7
X126.3Y-120.3
X126.3Y-121.9
X126.4Y-110.7
X126.4Y-118.7
X126.6Y-89.6
X126.6Y-90.5
X126.6Y-105.9
X126.8Y-119.5
X126.8Y-121.1
X126.9Y-81.1
X126.9Y-98.2
X126.9Y-99.7
X126.9Y-111.5
X126.9Y-112.4
X126.9Y-113.3
X126.9Y-114.2
X126.9Y-115.1
X126.9Y-116.0
X126.9Y-116.9
X126.9Y-117.8
X127.0Y-109.9
X127.1Y-103.6
X127.1Y-105.1
X127.1Y-106.7
X127.3Y-120.3
X127.3Y-121.9
X127.4Y-99.0
X127.4Y-118.7
X127.5Y-89.6
X127.5Y-90.5
X127.6Y-104.4
X127.6Y-105.9
X127.8Y-121.1
X127.9Y-81.1
X127.9Y-99.7
X128.0Y-98.2
X128.1Y-103.6
X128.1Y-105.1
X128.3Y-97.2
X128.3Y-121.9
X128.4Y-89.6
X128.4Y-90.5
X128.4Y-99.0
X128.6Y-104.4
X128.8Y-95.0
X128.8Y-98.2
X128.8Y-99.7
X128.9Y-81.1
X129.0Y-82.7
X129.0Y-103.6
X129.0Y-105.1
X129.3Y-89.6
X129.3Y-90.5
X129.3Y-96.0
X129.3Y-97.5
X129.3Y-99.0
X129.3Y-121.9
X129.4Y-81.9
X129.5Y-104.4
X129.8Y-95.0
X129.8Y-96.8
X129.8Y-98.2
X129.8Y-99.7
X129.9Y-81.1
X130.0Y-82.7
X130.0Y-103.6
X130.0Y-105.1
X130.1Y-89.6
X130.1Y-90.5
X130.3Y-96.0
X130.3Y-97.5
X130.3Y-99.0
X130.3Y-121.9
X130.4Y-81.9
X130.5Y-104.4
X130.8Y-95.0
X130.8Y-96.8
X130.9Y-81.1
X130.9Y-98.2
X130.9Y-99.7
X131.0Y-82.7
X131.2Y-96.0
X131.2Y-97.5
X131.3Y-121.9
X131.4Y-81.9
X131.4Y-99.0
X131.7Y-96.8
X131.8Y-98.2
X131.9Y-81.1
X131.9Y-99.7
X132.0Y-82.7
X132.2Y-94.4
X132.2Y-96.0
X132.2Y-97.5
X132.3Y-121.9
X132.4Y-81.9
X132.4Y-99.0
X132.7Y-96.8
X132.8Y-98.2
X132.8Y-99.7
X132.8Y-119.3
X132.8Y-120.2
X132.8Y-121.1
X132.9Y-81.1
X133.0Y-82.7
X133.3Y-99.0
X133.3Y-121.9
X133.4Y-81.9
X133.8Y-98.2
X133.8Y-99.7
X133.8Y-119.3
X133.8Y-120.2
X133.8Y-121.1
X133.9Y-81.1
X134.0Y-82.7
X134.3Y-121.9
X134.4Y-81.9
X134.5Y-94.7
X134.8Y-119.3
X134.8Y-120.2
X134.8Y-121.1
X134.9Y-81.1
X135.0Y-82.7
X135.3Y-121.9
X135.4Y-81.9
X135.5Y-94.7
X135.5Y-95.6
X135.8Y-107.6
X135.8Y-108.6
X135.8Y-109.5
X135.8Y-110.4
X135.8Y-111.3
X135.8Y-112.2
X135.8Y-113.1
X135.8Y-114.0
X135.8Y-114.9
X135.8Y-119.3
X135.8Y-120.2
X135.8Y-121.1
X135.9Y-81.1
X136.0Y-82.7
X136.1Y-93.7
X136.3Y-121.9
X136.4Y-81.9
X136.6Y-94.7
X136.6Y-95.6
X136.8Y-108.6
X136.8Y-109.5
X136.8Y-110.4
X136.8Y-111.3
X136.8Y-112.2
X136.9Y-81.1
X137.0Y-82.7
X137.2Y-96.6
X137.2Y-97.6
X137.2Y-98.6
X137.3Y-121.9
X137.4Y-81.9
X137.6Y-94.7
X137.6Y-95.6
X137.8Y-108.6
X137.8Y-109.5
X137.8Y-110.4
X137.8Y-111.3
X137.8Y-112.2
X137.9Y-81.1
X138.0Y-82.7
X138.0Y-96.6
X138.0Y-97.6
X138.2Y-98.6
X138.2Y-121.9
X138.4Y-81.9
X138.7Y-108.6
X138.7Y-109.5
X138.7Y-110.4
X138.7Y-111.3
X138.7Y-112.2
X138.9Y-81.1
X139.0Y-82.7
X139.0Y-98.6
X139.2Y-121.9
X139.4Y-81.9
X139.6Y-88.4
X139.7Y-108.6
X139.7Y-109.5
X139.7Y-110.4
X139.7Y-111.3
X139.7Y-112.2
X139.9Y-81.1
X140.0Y-82.7
X140.0Y-98.6
X140.2Y-121.9
X140.4Y-81.9
X140.7Y-100.0
X140.7Y-101.0
X140.7Y-106.8
X140.7Y-107.7
X140.7Y-108.6
X140.7Y-109.5
X140.7Y-110.4
X140.7Y-111.3
X140.7Y-112.2
X140.7Y-113.4
X140.7Y-114.5
X140.7Y-119.7
X140.7Y-120.8
X140.9Y-81.1
X140.9Y-98.6
X141.0Y-82.7
X141.2Y-121.9
X141.4Y-81.9
X141.7Y-108.6
X141.7Y-109.5
X141.7Y-110.4
X141.7Y-111.3
X141.7Y-112.2
X141.9Y-81.1
X141.9Y-98.6
X142.2Y-85.5
X142.2Y-86.4
X142.2Y-121.9
X142.4Y-81.9
X142.7Y-108.6
X142.7Y-109.5
X142.7Y-110.4
X142.7Y-111.3
X142.7Y-112.2
X142.8Y-98.6
X142.9Y-81.1
X142.9Y-116.9
X143.0Y-103.6
X143.1Y-85.5
X143.1Y-86.4
X143.1Y-87.3
X143.1Y-88.2
X143.1Y-89.0
X143.1Y-89.9
X143.1Y-90.9
X143.2Y-121.9
X143.4Y-81.9
X143.7Y-108.6
X143.7Y-109.5
X143.7Y-110.4
X143.7Y-111.3
X143.7Y-112.2
X143.8Y-97.6
X143.8Y-98.6
X143.9Y-81.1
X143.9Y-94.6
X143.9Y-95.6
X143.9Y-96.6
X144.0Y-116.9
X144.1Y-85.5
X144.1Y-86.4
X144.1Y-87.3
X144.1Y-88.2
X144.1Y-89.0
X144.1Y-89.9
X144.1Y-90.9
X144.1Y-103.6
X144.3Y-121.9
T5
X139.01Y-85.41
X139.01Y-91.19
T6
X102.46Y-114.46
X102.46Y-119.54
X102.56Y-83.26
X102.56Y-88.34
X102.56Y-93.66
X102.56Y-98.74
X102.56Y-104.06
X102.56Y-109.14
X105.0Y-117.0
X105.1Y-85.8
X105.1Y-96.2
X105.1Y-106.6
X107.54Y-114.46
X107.54Y-119.54
X107.64Y-83.26
X107.64Y-88.34
X107.64Y-93.66
X107.64Y-98.74
X107.64Y-104.06
X107.64Y-109.14
X138.16Y-101.06
X138.16Y-106.14
X138.16Y-114.46
X138.16Y-119.54
X140.7Y-103.6
X140.7Y-117.0
X143.24Y-101.06
X143.24Y-106.14
X143.24Y-114.46
X143.24Y-119.54
T4
X137.96Y-83.98G85X139.06Y-83.98
G05
X137.96Y-92.62G85X139.06Y-92.62
G05
X142.26Y-83.98G85X143.06Y-83.98
G05
X142.26Y-92.62G85X143.06Y-92.62
G05
M30
