%TF.GenerationSoftware,KiCad,Pcbnew,8.0.2*%
%TF.CreationDate,2024-10-06T11:27:21+02:00*%
%TF.ProjectId,distribution_amp_for_singapore_dude,64697374-7269-4627-9574-696f6e5f616d,rev?*%
%TF.SameCoordinates,Original*%
%TF.FileFunction,Drillmap*%
%TF.FilePolarity,Positive*%
%FSLAX45Y45*%
G04 Gerber Fmt 4.5, Leading zero omitted, Abs format (unit mm)*
G04 Created by KiCad (PCBNEW 8.0.2) date 2024-10-06 11:27:21*
%MOMM*%
%LPD*%
G01*
G04 APERTURE LIST*
%ADD10C,0.050000*%
%ADD11C,0.200000*%
%ADD12C,0.100000*%
%ADD13C,0.130002*%
G04 APERTURE END LIST*
D10*
X10040000Y-8000000D02*
X14540000Y-8000000D01*
X14540000Y-12280000D01*
X10040000Y-12280000D01*
X10040000Y-8000000D01*
D11*
D12*
X10410000Y-11020000D02*
X10430000Y-11040000D01*
X10430000Y-11020000D02*
X10410000Y-11040000D01*
X10570000Y-11020000D02*
X10590000Y-11040000D01*
X10590000Y-11020000D02*
X10570000Y-11040000D01*
X10570000Y-11320000D02*
X10590000Y-11340000D01*
X10590000Y-11320000D02*
X10570000Y-11340000D01*
X11030000Y-9680000D02*
X11050000Y-9700000D01*
X11050000Y-9680000D02*
X11030000Y-9700000D01*
X11140000Y-9680000D02*
X11160000Y-9700000D01*
X11160000Y-9680000D02*
X11140000Y-9700000D01*
X11162500Y-10140000D02*
G75*
G02*
X11137500Y-10140000I-12500J0D01*
G01*
X11137500Y-10140000D02*
G75*
G02*
X11162500Y-10140000I12500J0D01*
G01*
X11792500Y-9690000D02*
G75*
G02*
X11767500Y-9690000I-12500J0D01*
G01*
X11767500Y-9690000D02*
G75*
G02*
X11792500Y-9690000I12500J0D01*
G01*
X11792500Y-10810000D02*
G75*
G02*
X11767500Y-10810000I-12500J0D01*
G01*
X11767500Y-10810000D02*
G75*
G02*
X11792500Y-10810000I12500J0D01*
G01*
X11802500Y-10140000D02*
G75*
G02*
X11777500Y-10140000I-12500J0D01*
G01*
X11777500Y-10140000D02*
G75*
G02*
X11802500Y-10140000I12500J0D01*
G01*
X12412500Y-10140000D02*
G75*
G02*
X12387500Y-10140000I-12500J0D01*
G01*
X12387500Y-10140000D02*
G75*
G02*
X12412500Y-10140000I12500J0D01*
G01*
X13402500Y-10160000D02*
G75*
G02*
X13377500Y-10160000I-12500J0D01*
G01*
X13377500Y-10160000D02*
G75*
G02*
X13402500Y-10160000I12500J0D01*
G01*
X10150000Y-9015000D02*
X10150000Y-9045000D01*
X10135000Y-9030000D02*
X10165000Y-9030000D01*
X10150000Y-9135000D02*
X10150000Y-9165000D01*
X10135000Y-9150000D02*
X10165000Y-9150000D01*
X10150000Y-10055000D02*
X10150000Y-10085000D01*
X10135000Y-10070000D02*
X10165000Y-10070000D01*
X10150000Y-10185000D02*
X10150000Y-10215000D01*
X10135000Y-10200000D02*
X10165000Y-10200000D01*
X10170000Y-11165000D02*
X10170000Y-11195000D01*
X10155000Y-11180000D02*
X10185000Y-11180000D01*
X10180000Y-8095000D02*
X10180000Y-8125000D01*
X10165000Y-8110000D02*
X10195000Y-8110000D01*
X10240000Y-12175000D02*
X10240000Y-12205000D01*
X10225000Y-12190000D02*
X10255000Y-12190000D01*
X10250000Y-9085000D02*
X10250000Y-9115000D01*
X10235000Y-9100000D02*
X10265000Y-9100000D01*
X10260000Y-10115000D02*
X10260000Y-10145000D01*
X10245000Y-10130000D02*
X10275000Y-10130000D01*
X10280000Y-8095000D02*
X10280000Y-8125000D01*
X10265000Y-8110000D02*
X10295000Y-8110000D01*
X10340000Y-12175000D02*
X10340000Y-12205000D01*
X10325000Y-12190000D02*
X10355000Y-12190000D01*
X10380000Y-8095000D02*
X10380000Y-8125000D01*
X10365000Y-8110000D02*
X10395000Y-8110000D01*
X10410000Y-10055000D02*
X10410000Y-10085000D01*
X10395000Y-10070000D02*
X10425000Y-10070000D01*
X10410000Y-10235000D02*
X10410000Y-10265000D01*
X10395000Y-10250000D02*
X10425000Y-10250000D01*
X10440000Y-12175000D02*
X10440000Y-12205000D01*
X10425000Y-12190000D02*
X10455000Y-12190000D01*
X10480000Y-8095000D02*
X10480000Y-8125000D01*
X10465000Y-8110000D02*
X10495000Y-8110000D01*
X10500000Y-11015000D02*
X10500000Y-11045000D01*
X10485000Y-11030000D02*
X10515000Y-11030000D01*
X10540000Y-12175000D02*
X10540000Y-12205000D01*
X10525000Y-12190000D02*
X10555000Y-12190000D01*
X10580000Y-8095000D02*
X10580000Y-8125000D01*
X10565000Y-8110000D02*
X10595000Y-8110000D01*
X10640000Y-12175000D02*
X10640000Y-12205000D01*
X10625000Y-12190000D02*
X10655000Y-12190000D01*
X10680000Y-8095000D02*
X10680000Y-8125000D01*
X10665000Y-8110000D02*
X10695000Y-8110000D01*
X10740000Y-12175000D02*
X10740000Y-12205000D01*
X10725000Y-12190000D02*
X10755000Y-12190000D01*
X10750000Y-9085000D02*
X10750000Y-9115000D01*
X10735000Y-9100000D02*
X10765000Y-9100000D01*
X10780000Y-8095000D02*
X10780000Y-8125000D01*
X10765000Y-8110000D02*
X10795000Y-8110000D01*
X10840000Y-9085000D02*
X10840000Y-9115000D01*
X10825000Y-9100000D02*
X10855000Y-9100000D01*
X10840000Y-12175000D02*
X10840000Y-12205000D01*
X10825000Y-12190000D02*
X10855000Y-12190000D01*
X10880000Y-8095000D02*
X10880000Y-8125000D01*
X10865000Y-8110000D02*
X10895000Y-8110000D01*
X10920000Y-9085000D02*
X10920000Y-9115000D01*
X10905000Y-9100000D02*
X10935000Y-9100000D01*
X10930000Y-8985000D02*
X10930000Y-9015000D01*
X10915000Y-9000000D02*
X10945000Y-9000000D01*
X10940000Y-12175000D02*
X10940000Y-12205000D01*
X10925000Y-12190000D02*
X10955000Y-12190000D01*
X10980000Y-8095000D02*
X10980000Y-8125000D01*
X10965000Y-8110000D02*
X10995000Y-8110000D01*
X10990000Y-11935000D02*
X10990000Y-11965000D01*
X10975000Y-11950000D02*
X11005000Y-11950000D01*
X10990000Y-12095000D02*
X10990000Y-12125000D01*
X10975000Y-12110000D02*
X11005000Y-12110000D01*
X11020000Y-8985000D02*
X11020000Y-9015000D01*
X11005000Y-9000000D02*
X11035000Y-9000000D01*
X11040000Y-12015000D02*
X11040000Y-12045000D01*
X11025000Y-12030000D02*
X11055000Y-12030000D01*
X11040000Y-12175000D02*
X11040000Y-12205000D01*
X11025000Y-12190000D02*
X11055000Y-12190000D01*
X11050000Y-11855000D02*
X11050000Y-11885000D01*
X11035000Y-11870000D02*
X11065000Y-11870000D01*
X11090000Y-8095000D02*
X11090000Y-8125000D01*
X11075000Y-8110000D02*
X11105000Y-8110000D01*
X11090000Y-11935000D02*
X11090000Y-11965000D01*
X11075000Y-11950000D02*
X11105000Y-11950000D01*
X11090000Y-12095000D02*
X11090000Y-12125000D01*
X11075000Y-12110000D02*
X11105000Y-12110000D01*
X11100000Y-8985000D02*
X11100000Y-9015000D01*
X11085000Y-9000000D02*
X11115000Y-9000000D01*
X11140000Y-12015000D02*
X11140000Y-12045000D01*
X11125000Y-12030000D02*
X11155000Y-12030000D01*
X11140000Y-12175000D02*
X11140000Y-12205000D01*
X11125000Y-12190000D02*
X11155000Y-12190000D01*
X11150000Y-11855000D02*
X11150000Y-11885000D01*
X11135000Y-11870000D02*
X11165000Y-11870000D01*
X11190000Y-8095000D02*
X11190000Y-8125000D01*
X11175000Y-8110000D02*
X11205000Y-8110000D01*
X11190000Y-8985000D02*
X11190000Y-9015000D01*
X11175000Y-9000000D02*
X11205000Y-9000000D01*
X11190000Y-11935000D02*
X11190000Y-11965000D01*
X11175000Y-11950000D02*
X11205000Y-11950000D01*
X11190000Y-12095000D02*
X11190000Y-12125000D01*
X11175000Y-12110000D02*
X11205000Y-12110000D01*
X11220000Y-8695000D02*
X11220000Y-8725000D01*
X11205000Y-8710000D02*
X11235000Y-8710000D01*
X11220000Y-8825000D02*
X11220000Y-8855000D01*
X11205000Y-8840000D02*
X11235000Y-8840000D01*
X11220000Y-10645000D02*
X11220000Y-10675000D01*
X11205000Y-10660000D02*
X11235000Y-10660000D01*
X11220000Y-10775000D02*
X11220000Y-10805000D01*
X11205000Y-10790000D02*
X11235000Y-10790000D01*
X11220000Y-10905000D02*
X11220000Y-10935000D01*
X11205000Y-10920000D02*
X11235000Y-10920000D01*
X11220000Y-11425000D02*
X11220000Y-11455000D01*
X11205000Y-11440000D02*
X11235000Y-11440000D01*
X11220000Y-11555000D02*
X11220000Y-11585000D01*
X11205000Y-11570000D02*
X11235000Y-11570000D01*
X11220000Y-11685000D02*
X11220000Y-11715000D01*
X11205000Y-11700000D02*
X11235000Y-11700000D01*
X11230000Y-8565000D02*
X11230000Y-8595000D01*
X11215000Y-8580000D02*
X11245000Y-8580000D01*
X11230000Y-11075000D02*
X11230000Y-11105000D01*
X11215000Y-11090000D02*
X11245000Y-11090000D01*
X11230000Y-11255000D02*
X11230000Y-11285000D01*
X11215000Y-11270000D02*
X11245000Y-11270000D01*
X11240000Y-12015000D02*
X11240000Y-12045000D01*
X11225000Y-12030000D02*
X11255000Y-12030000D01*
X11240000Y-12175000D02*
X11240000Y-12205000D01*
X11225000Y-12190000D02*
X11255000Y-12190000D01*
X11250000Y-8175000D02*
X11250000Y-8205000D01*
X11235000Y-8190000D02*
X11265000Y-8190000D01*
X11250000Y-11855000D02*
X11250000Y-11885000D01*
X11235000Y-11870000D02*
X11265000Y-11870000D01*
X11280000Y-8985000D02*
X11280000Y-9015000D01*
X11265000Y-9000000D02*
X11295000Y-9000000D01*
X11280000Y-11165000D02*
X11280000Y-11195000D01*
X11265000Y-11180000D02*
X11295000Y-11180000D01*
X11290000Y-8095000D02*
X11290000Y-8125000D01*
X11275000Y-8110000D02*
X11305000Y-8110000D01*
X11290000Y-11935000D02*
X11290000Y-11965000D01*
X11275000Y-11950000D02*
X11305000Y-11950000D01*
X11290000Y-12095000D02*
X11290000Y-12125000D01*
X11275000Y-12110000D02*
X11305000Y-12110000D01*
X11340000Y-12015000D02*
X11340000Y-12045000D01*
X11325000Y-12030000D02*
X11355000Y-12030000D01*
X11340000Y-12175000D02*
X11340000Y-12205000D01*
X11325000Y-12190000D02*
X11355000Y-12190000D01*
X11350000Y-11855000D02*
X11350000Y-11885000D01*
X11335000Y-11870000D02*
X11365000Y-11870000D01*
X11360000Y-8985000D02*
X11360000Y-9015000D01*
X11345000Y-9000000D02*
X11375000Y-9000000D01*
X11390000Y-8095000D02*
X11390000Y-8125000D01*
X11375000Y-8110000D02*
X11405000Y-8110000D01*
X11390000Y-9675000D02*
X11390000Y-9705000D01*
X11375000Y-9690000D02*
X11405000Y-9690000D01*
X11390000Y-11935000D02*
X11390000Y-11965000D01*
X11375000Y-11950000D02*
X11405000Y-11950000D01*
X11390000Y-12095000D02*
X11390000Y-12125000D01*
X11375000Y-12110000D02*
X11405000Y-12110000D01*
X11440000Y-8345000D02*
X11440000Y-8375000D01*
X11425000Y-8360000D02*
X11455000Y-8360000D01*
X11440000Y-12015000D02*
X11440000Y-12045000D01*
X11425000Y-12030000D02*
X11455000Y-12030000D01*
X11440000Y-12175000D02*
X11440000Y-12205000D01*
X11425000Y-12190000D02*
X11455000Y-12190000D01*
X11450000Y-8185000D02*
X11450000Y-8215000D01*
X11435000Y-8200000D02*
X11465000Y-8200000D01*
X11450000Y-8945000D02*
X11450000Y-8975000D01*
X11435000Y-8960000D02*
X11465000Y-8960000D01*
X11450000Y-11855000D02*
X11450000Y-11885000D01*
X11435000Y-11870000D02*
X11465000Y-11870000D01*
X11480000Y-8425000D02*
X11480000Y-8455000D01*
X11465000Y-8440000D02*
X11495000Y-8440000D01*
X11490000Y-8095000D02*
X11490000Y-8125000D01*
X11475000Y-8110000D02*
X11505000Y-8110000D01*
X11490000Y-8265000D02*
X11490000Y-8295000D01*
X11475000Y-8280000D02*
X11505000Y-8280000D01*
X11490000Y-11935000D02*
X11490000Y-11965000D01*
X11475000Y-11950000D02*
X11505000Y-11950000D01*
X11490000Y-12095000D02*
X11490000Y-12125000D01*
X11475000Y-12110000D02*
X11505000Y-12110000D01*
X11540000Y-8345000D02*
X11540000Y-8375000D01*
X11525000Y-8360000D02*
X11555000Y-8360000D01*
X11540000Y-8945000D02*
X11540000Y-8975000D01*
X11525000Y-8960000D02*
X11555000Y-8960000D01*
X11540000Y-12015000D02*
X11540000Y-12045000D01*
X11525000Y-12030000D02*
X11555000Y-12030000D01*
X11540000Y-12175000D02*
X11540000Y-12205000D01*
X11525000Y-12190000D02*
X11555000Y-12190000D01*
X11550000Y-8185000D02*
X11550000Y-8215000D01*
X11535000Y-8200000D02*
X11565000Y-8200000D01*
X11550000Y-11855000D02*
X11550000Y-11885000D01*
X11535000Y-11870000D02*
X11565000Y-11870000D01*
X11570000Y-8515000D02*
X11570000Y-8545000D01*
X11555000Y-8530000D02*
X11585000Y-8530000D01*
X11570000Y-8595000D02*
X11570000Y-8625000D01*
X11555000Y-8610000D02*
X11585000Y-8610000D01*
X11570000Y-8685000D02*
X11570000Y-8715000D01*
X11555000Y-8700000D02*
X11585000Y-8700000D01*
X11570000Y-11335000D02*
X11570000Y-11365000D01*
X11555000Y-11350000D02*
X11585000Y-11350000D01*
X11570000Y-11515000D02*
X11570000Y-11545000D01*
X11555000Y-11530000D02*
X11585000Y-11530000D01*
X11580000Y-8425000D02*
X11580000Y-8455000D01*
X11565000Y-8440000D02*
X11595000Y-8440000D01*
X11590000Y-8095000D02*
X11590000Y-8125000D01*
X11575000Y-8110000D02*
X11605000Y-8110000D01*
X11590000Y-8265000D02*
X11590000Y-8295000D01*
X11575000Y-8280000D02*
X11605000Y-8280000D01*
X11590000Y-11935000D02*
X11590000Y-11965000D01*
X11575000Y-11950000D02*
X11605000Y-11950000D01*
X11590000Y-12095000D02*
X11590000Y-12125000D01*
X11575000Y-12110000D02*
X11605000Y-12110000D01*
X11610000Y-11425000D02*
X11610000Y-11455000D01*
X11595000Y-11440000D02*
X11625000Y-11440000D01*
X11620000Y-8945000D02*
X11620000Y-8975000D01*
X11605000Y-8960000D02*
X11635000Y-8960000D01*
X11640000Y-8345000D02*
X11640000Y-8375000D01*
X11625000Y-8360000D02*
X11655000Y-8360000D01*
X11640000Y-12015000D02*
X11640000Y-12045000D01*
X11625000Y-12030000D02*
X11655000Y-12030000D01*
X11640000Y-12175000D02*
X11640000Y-12205000D01*
X11625000Y-12190000D02*
X11655000Y-12190000D01*
X11650000Y-8185000D02*
X11650000Y-8215000D01*
X11635000Y-8200000D02*
X11665000Y-8200000D01*
X11650000Y-9955000D02*
X11650000Y-9985000D01*
X11635000Y-9970000D02*
X11665000Y-9970000D01*
X11650000Y-11855000D02*
X11650000Y-11885000D01*
X11635000Y-11870000D02*
X11665000Y-11870000D01*
X11670000Y-11335000D02*
X11670000Y-11365000D01*
X11655000Y-11350000D02*
X11685000Y-11350000D01*
X11670000Y-11515000D02*
X11670000Y-11545000D01*
X11655000Y-11530000D02*
X11685000Y-11530000D01*
X11680000Y-8425000D02*
X11680000Y-8455000D01*
X11665000Y-8440000D02*
X11695000Y-8440000D01*
X11690000Y-8095000D02*
X11690000Y-8125000D01*
X11675000Y-8110000D02*
X11705000Y-8110000D01*
X11690000Y-8265000D02*
X11690000Y-8295000D01*
X11675000Y-8280000D02*
X11705000Y-8280000D01*
X11690000Y-11935000D02*
X11690000Y-11965000D01*
X11675000Y-11950000D02*
X11705000Y-11950000D01*
X11690000Y-12095000D02*
X11690000Y-12125000D01*
X11675000Y-12110000D02*
X11705000Y-12110000D01*
X11720000Y-11425000D02*
X11720000Y-11455000D01*
X11705000Y-11440000D02*
X11735000Y-11440000D01*
X11730000Y-8945000D02*
X11730000Y-8975000D01*
X11715000Y-8960000D02*
X11745000Y-8960000D01*
X11730000Y-9025000D02*
X11730000Y-9055000D01*
X11715000Y-9040000D02*
X11745000Y-9040000D01*
X11730000Y-9115000D02*
X11730000Y-9145000D01*
X11715000Y-9130000D02*
X11745000Y-9130000D01*
X11740000Y-8345000D02*
X11740000Y-8375000D01*
X11725000Y-8360000D02*
X11755000Y-8360000D01*
X11740000Y-12015000D02*
X11740000Y-12045000D01*
X11725000Y-12030000D02*
X11755000Y-12030000D01*
X11740000Y-12175000D02*
X11740000Y-12205000D01*
X11725000Y-12190000D02*
X11755000Y-12190000D01*
X11750000Y-8185000D02*
X11750000Y-8215000D01*
X11735000Y-8200000D02*
X11765000Y-8200000D01*
X11750000Y-11855000D02*
X11750000Y-11885000D01*
X11735000Y-11870000D02*
X11765000Y-11870000D01*
X11770000Y-11335000D02*
X11770000Y-11365000D01*
X11755000Y-11350000D02*
X11785000Y-11350000D01*
X11770000Y-11515000D02*
X11770000Y-11545000D01*
X11755000Y-11530000D02*
X11785000Y-11530000D01*
X11780000Y-8425000D02*
X11780000Y-8455000D01*
X11765000Y-8440000D02*
X11795000Y-8440000D01*
X11790000Y-8095000D02*
X11790000Y-8125000D01*
X11775000Y-8110000D02*
X11805000Y-8110000D01*
X11790000Y-8265000D02*
X11790000Y-8295000D01*
X11775000Y-8280000D02*
X11805000Y-8280000D01*
X11790000Y-9955000D02*
X11790000Y-9985000D01*
X11775000Y-9970000D02*
X11805000Y-9970000D01*
X11790000Y-10285000D02*
X11790000Y-10315000D01*
X11775000Y-10300000D02*
X11805000Y-10300000D01*
X11790000Y-10425000D02*
X11790000Y-10455000D01*
X11775000Y-10440000D02*
X11805000Y-10440000D01*
X11790000Y-10555000D02*
X11790000Y-10585000D01*
X11775000Y-10570000D02*
X11805000Y-10570000D01*
X11790000Y-11935000D02*
X11790000Y-11965000D01*
X11775000Y-11950000D02*
X11805000Y-11950000D01*
X11790000Y-12095000D02*
X11790000Y-12125000D01*
X11775000Y-12110000D02*
X11805000Y-12110000D01*
X11820000Y-11075000D02*
X11820000Y-11105000D01*
X11805000Y-11090000D02*
X11835000Y-11090000D01*
X11820000Y-11155000D02*
X11820000Y-11185000D01*
X11805000Y-11170000D02*
X11835000Y-11170000D01*
X11820000Y-11245000D02*
X11820000Y-11275000D01*
X11805000Y-11260000D02*
X11835000Y-11260000D01*
X11820000Y-11425000D02*
X11820000Y-11455000D01*
X11805000Y-11440000D02*
X11835000Y-11440000D01*
X11840000Y-8345000D02*
X11840000Y-8375000D01*
X11825000Y-8360000D02*
X11855000Y-8360000D01*
X11840000Y-12015000D02*
X11840000Y-12045000D01*
X11825000Y-12030000D02*
X11855000Y-12030000D01*
X11840000Y-12175000D02*
X11840000Y-12205000D01*
X11825000Y-12190000D02*
X11855000Y-12190000D01*
X11850000Y-8185000D02*
X11850000Y-8215000D01*
X11835000Y-8200000D02*
X11865000Y-8200000D01*
X11850000Y-11855000D02*
X11850000Y-11885000D01*
X11835000Y-11870000D02*
X11865000Y-11870000D01*
X11870000Y-11335000D02*
X11870000Y-11365000D01*
X11855000Y-11350000D02*
X11885000Y-11350000D01*
X11870000Y-11515000D02*
X11870000Y-11545000D01*
X11855000Y-11530000D02*
X11885000Y-11530000D01*
X11880000Y-8425000D02*
X11880000Y-8455000D01*
X11865000Y-8440000D02*
X11895000Y-8440000D01*
X11890000Y-8095000D02*
X11890000Y-8125000D01*
X11875000Y-8110000D02*
X11905000Y-8110000D01*
X11890000Y-8265000D02*
X11890000Y-8295000D01*
X11875000Y-8280000D02*
X11905000Y-8280000D01*
X11890000Y-11935000D02*
X11890000Y-11965000D01*
X11875000Y-11950000D02*
X11905000Y-11950000D01*
X11890000Y-12095000D02*
X11890000Y-12125000D01*
X11875000Y-12110000D02*
X11905000Y-12110000D01*
X11920000Y-10425000D02*
X11920000Y-10455000D01*
X11905000Y-10440000D02*
X11935000Y-10440000D01*
X11940000Y-8345000D02*
X11940000Y-8375000D01*
X11925000Y-8360000D02*
X11955000Y-8360000D01*
X11940000Y-11075000D02*
X11940000Y-11105000D01*
X11925000Y-11090000D02*
X11955000Y-11090000D01*
X11940000Y-11155000D02*
X11940000Y-11185000D01*
X11925000Y-11170000D02*
X11955000Y-11170000D01*
X11940000Y-11245000D02*
X11940000Y-11275000D01*
X11925000Y-11260000D02*
X11955000Y-11260000D01*
X11940000Y-12015000D02*
X11940000Y-12045000D01*
X11925000Y-12030000D02*
X11955000Y-12030000D01*
X11940000Y-12175000D02*
X11940000Y-12205000D01*
X11925000Y-12190000D02*
X11955000Y-12190000D01*
X11950000Y-8185000D02*
X11950000Y-8215000D01*
X11935000Y-8200000D02*
X11965000Y-8200000D01*
X11950000Y-11855000D02*
X11950000Y-11885000D01*
X11935000Y-11870000D02*
X11965000Y-11870000D01*
X11980000Y-8425000D02*
X11980000Y-8455000D01*
X11965000Y-8440000D02*
X11995000Y-8440000D01*
X11980000Y-11935000D02*
X11980000Y-11965000D01*
X11965000Y-11950000D02*
X11995000Y-11950000D01*
X11980000Y-12095000D02*
X11980000Y-12125000D01*
X11965000Y-12110000D02*
X11995000Y-12110000D01*
X11990000Y-8095000D02*
X11990000Y-8125000D01*
X11975000Y-8110000D02*
X12005000Y-8110000D01*
X11990000Y-8265000D02*
X11990000Y-8295000D01*
X11975000Y-8280000D02*
X12005000Y-8280000D01*
X12030000Y-12015000D02*
X12030000Y-12045000D01*
X12015000Y-12030000D02*
X12045000Y-12030000D01*
X12030000Y-12175000D02*
X12030000Y-12205000D01*
X12015000Y-12190000D02*
X12045000Y-12190000D01*
X12040000Y-8345000D02*
X12040000Y-8375000D01*
X12025000Y-8360000D02*
X12055000Y-8360000D01*
X12040000Y-11855000D02*
X12040000Y-11885000D01*
X12025000Y-11870000D02*
X12055000Y-11870000D01*
X12050000Y-8185000D02*
X12050000Y-8215000D01*
X12035000Y-8200000D02*
X12065000Y-8200000D01*
X12080000Y-8425000D02*
X12080000Y-8455000D01*
X12065000Y-8440000D02*
X12095000Y-8440000D01*
X12080000Y-8515000D02*
X12080000Y-8545000D01*
X12065000Y-8530000D02*
X12095000Y-8530000D01*
X12080000Y-8605000D02*
X12080000Y-8635000D01*
X12065000Y-8620000D02*
X12095000Y-8620000D01*
X12080000Y-8695000D02*
X12080000Y-8725000D01*
X12065000Y-8710000D02*
X12095000Y-8710000D01*
X12080000Y-11935000D02*
X12080000Y-11965000D01*
X12065000Y-11950000D02*
X12095000Y-11950000D01*
X12080000Y-12095000D02*
X12080000Y-12125000D01*
X12065000Y-12110000D02*
X12095000Y-12110000D01*
X12090000Y-8095000D02*
X12090000Y-8125000D01*
X12075000Y-8110000D02*
X12105000Y-8110000D01*
X12090000Y-8265000D02*
X12090000Y-8295000D01*
X12075000Y-8280000D02*
X12105000Y-8280000D01*
X12130000Y-12015000D02*
X12130000Y-12045000D01*
X12115000Y-12030000D02*
X12145000Y-12030000D01*
X12130000Y-12175000D02*
X12130000Y-12205000D01*
X12115000Y-12190000D02*
X12145000Y-12190000D01*
X12140000Y-8345000D02*
X12140000Y-8375000D01*
X12125000Y-8360000D02*
X12155000Y-8360000D01*
X12140000Y-8785000D02*
X12140000Y-8815000D01*
X12125000Y-8800000D02*
X12155000Y-8800000D01*
X12140000Y-8875000D02*
X12140000Y-8905000D01*
X12125000Y-8890000D02*
X12155000Y-8890000D01*
X12140000Y-8965000D02*
X12140000Y-8995000D01*
X12125000Y-8980000D02*
X12155000Y-8980000D01*
X12140000Y-9055000D02*
X12140000Y-9085000D01*
X12125000Y-9070000D02*
X12155000Y-9070000D01*
X12140000Y-9145000D02*
X12140000Y-9175000D01*
X12125000Y-9160000D02*
X12155000Y-9160000D01*
X12140000Y-11855000D02*
X12140000Y-11885000D01*
X12125000Y-11870000D02*
X12155000Y-11870000D01*
X12150000Y-8185000D02*
X12150000Y-8215000D01*
X12135000Y-8200000D02*
X12165000Y-8200000D01*
X12180000Y-8425000D02*
X12180000Y-8455000D01*
X12165000Y-8440000D02*
X12195000Y-8440000D01*
X12180000Y-8515000D02*
X12180000Y-8545000D01*
X12165000Y-8530000D02*
X12195000Y-8530000D01*
X12180000Y-8605000D02*
X12180000Y-8635000D01*
X12165000Y-8620000D02*
X12195000Y-8620000D01*
X12180000Y-8695000D02*
X12180000Y-8725000D01*
X12165000Y-8710000D02*
X12195000Y-8710000D01*
X12180000Y-11935000D02*
X12180000Y-11965000D01*
X12165000Y-11950000D02*
X12195000Y-11950000D01*
X12180000Y-12095000D02*
X12180000Y-12125000D01*
X12165000Y-12110000D02*
X12195000Y-12110000D01*
X12190000Y-8095000D02*
X12190000Y-8125000D01*
X12175000Y-8110000D02*
X12205000Y-8110000D01*
X12190000Y-8265000D02*
X12190000Y-8295000D01*
X12175000Y-8280000D02*
X12205000Y-8280000D01*
X12230000Y-12015000D02*
X12230000Y-12045000D01*
X12215000Y-12030000D02*
X12245000Y-12030000D01*
X12230000Y-12175000D02*
X12230000Y-12205000D01*
X12215000Y-12190000D02*
X12245000Y-12190000D01*
X12240000Y-11855000D02*
X12240000Y-11885000D01*
X12225000Y-11870000D02*
X12255000Y-11870000D01*
X12250000Y-8185000D02*
X12250000Y-8215000D01*
X12235000Y-8200000D02*
X12265000Y-8200000D01*
X12280000Y-11935000D02*
X12280000Y-11965000D01*
X12265000Y-11950000D02*
X12295000Y-11950000D01*
X12280000Y-12095000D02*
X12280000Y-12125000D01*
X12265000Y-12110000D02*
X12295000Y-12110000D01*
X12290000Y-8095000D02*
X12290000Y-8125000D01*
X12275000Y-8110000D02*
X12305000Y-8110000D01*
X12290000Y-11135000D02*
X12290000Y-11165000D01*
X12275000Y-11150000D02*
X12305000Y-11150000D01*
X12290000Y-11225000D02*
X12290000Y-11255000D01*
X12275000Y-11240000D02*
X12305000Y-11240000D01*
X12290000Y-11315000D02*
X12290000Y-11345000D01*
X12275000Y-11330000D02*
X12305000Y-11330000D01*
X12290000Y-11405000D02*
X12290000Y-11435000D01*
X12275000Y-11420000D02*
X12305000Y-11420000D01*
X12290000Y-11495000D02*
X12290000Y-11525000D01*
X12275000Y-11510000D02*
X12305000Y-11510000D01*
X12290000Y-11585000D02*
X12290000Y-11615000D01*
X12275000Y-11600000D02*
X12305000Y-11600000D01*
X12290000Y-11675000D02*
X12290000Y-11705000D01*
X12275000Y-11690000D02*
X12305000Y-11690000D01*
X12290000Y-11765000D02*
X12290000Y-11795000D01*
X12275000Y-11780000D02*
X12305000Y-11780000D01*
X12330000Y-12015000D02*
X12330000Y-12045000D01*
X12315000Y-12030000D02*
X12345000Y-12030000D01*
X12330000Y-12175000D02*
X12330000Y-12205000D01*
X12315000Y-12190000D02*
X12345000Y-12190000D01*
X12340000Y-11855000D02*
X12340000Y-11885000D01*
X12325000Y-11870000D02*
X12355000Y-11870000D01*
X12380000Y-11935000D02*
X12380000Y-11965000D01*
X12365000Y-11950000D02*
X12395000Y-11950000D01*
X12380000Y-12095000D02*
X12380000Y-12125000D01*
X12365000Y-12110000D02*
X12395000Y-12110000D01*
X12390000Y-8095000D02*
X12390000Y-8125000D01*
X12375000Y-8110000D02*
X12405000Y-8110000D01*
X12390000Y-10795000D02*
X12390000Y-10825000D01*
X12375000Y-10810000D02*
X12405000Y-10810000D01*
X12390000Y-11135000D02*
X12390000Y-11165000D01*
X12375000Y-11150000D02*
X12405000Y-11150000D01*
X12390000Y-11225000D02*
X12390000Y-11255000D01*
X12375000Y-11240000D02*
X12405000Y-11240000D01*
X12390000Y-11315000D02*
X12390000Y-11345000D01*
X12375000Y-11330000D02*
X12405000Y-11330000D01*
X12390000Y-11405000D02*
X12390000Y-11435000D01*
X12375000Y-11420000D02*
X12405000Y-11420000D01*
X12390000Y-11495000D02*
X12390000Y-11525000D01*
X12375000Y-11510000D02*
X12405000Y-11510000D01*
X12390000Y-11585000D02*
X12390000Y-11615000D01*
X12375000Y-11600000D02*
X12405000Y-11600000D01*
X12390000Y-11675000D02*
X12390000Y-11705000D01*
X12375000Y-11690000D02*
X12405000Y-11690000D01*
X12390000Y-11765000D02*
X12390000Y-11795000D01*
X12375000Y-11780000D02*
X12405000Y-11780000D01*
X12430000Y-12015000D02*
X12430000Y-12045000D01*
X12415000Y-12030000D02*
X12445000Y-12030000D01*
X12430000Y-12175000D02*
X12430000Y-12205000D01*
X12415000Y-12190000D02*
X12445000Y-12190000D01*
X12440000Y-11055000D02*
X12440000Y-11085000D01*
X12425000Y-11070000D02*
X12455000Y-11070000D01*
X12440000Y-11855000D02*
X12440000Y-11885000D01*
X12425000Y-11870000D02*
X12455000Y-11870000D01*
X12480000Y-11935000D02*
X12480000Y-11965000D01*
X12465000Y-11950000D02*
X12495000Y-11950000D01*
X12480000Y-12095000D02*
X12480000Y-12125000D01*
X12465000Y-12110000D02*
X12495000Y-12110000D01*
X12490000Y-8095000D02*
X12490000Y-8125000D01*
X12475000Y-8110000D02*
X12505000Y-8110000D01*
X12490000Y-11135000D02*
X12490000Y-11165000D01*
X12475000Y-11150000D02*
X12505000Y-11150000D01*
X12490000Y-11225000D02*
X12490000Y-11255000D01*
X12475000Y-11240000D02*
X12505000Y-11240000D01*
X12490000Y-11315000D02*
X12490000Y-11345000D01*
X12475000Y-11330000D02*
X12505000Y-11330000D01*
X12490000Y-11405000D02*
X12490000Y-11435000D01*
X12475000Y-11420000D02*
X12505000Y-11420000D01*
X12490000Y-11495000D02*
X12490000Y-11525000D01*
X12475000Y-11510000D02*
X12505000Y-11510000D01*
X12490000Y-11585000D02*
X12490000Y-11615000D01*
X12475000Y-11600000D02*
X12505000Y-11600000D01*
X12490000Y-11675000D02*
X12490000Y-11705000D01*
X12475000Y-11690000D02*
X12505000Y-11690000D01*
X12490000Y-11765000D02*
X12490000Y-11795000D01*
X12475000Y-11780000D02*
X12505000Y-11780000D01*
X12500000Y-10975000D02*
X12500000Y-11005000D01*
X12485000Y-10990000D02*
X12515000Y-10990000D01*
X12530000Y-12015000D02*
X12530000Y-12045000D01*
X12515000Y-12030000D02*
X12545000Y-12030000D01*
X12530000Y-12175000D02*
X12530000Y-12205000D01*
X12515000Y-12190000D02*
X12545000Y-12190000D01*
X12540000Y-11055000D02*
X12540000Y-11085000D01*
X12525000Y-11070000D02*
X12555000Y-11070000D01*
X12540000Y-11855000D02*
X12540000Y-11885000D01*
X12525000Y-11870000D02*
X12555000Y-11870000D01*
X12570000Y-8945000D02*
X12570000Y-8975000D01*
X12555000Y-8960000D02*
X12585000Y-8960000D01*
X12570000Y-9035000D02*
X12570000Y-9065000D01*
X12555000Y-9050000D02*
X12585000Y-9050000D01*
X12580000Y-11935000D02*
X12580000Y-11965000D01*
X12565000Y-11950000D02*
X12595000Y-11950000D01*
X12580000Y-12095000D02*
X12580000Y-12125000D01*
X12565000Y-12110000D02*
X12595000Y-12110000D01*
X12590000Y-8095000D02*
X12590000Y-8125000D01*
X12575000Y-8110000D02*
X12605000Y-8110000D01*
X12590000Y-11135000D02*
X12590000Y-11165000D01*
X12575000Y-11150000D02*
X12605000Y-11150000D01*
X12590000Y-11225000D02*
X12590000Y-11255000D01*
X12575000Y-11240000D02*
X12605000Y-11240000D01*
X12590000Y-11315000D02*
X12590000Y-11345000D01*
X12575000Y-11330000D02*
X12605000Y-11330000D01*
X12590000Y-11405000D02*
X12590000Y-11435000D01*
X12575000Y-11420000D02*
X12605000Y-11420000D01*
X12590000Y-11495000D02*
X12590000Y-11525000D01*
X12575000Y-11510000D02*
X12605000Y-11510000D01*
X12590000Y-11585000D02*
X12590000Y-11615000D01*
X12575000Y-11600000D02*
X12605000Y-11600000D01*
X12590000Y-11675000D02*
X12590000Y-11705000D01*
X12575000Y-11690000D02*
X12605000Y-11690000D01*
X12590000Y-11765000D02*
X12590000Y-11795000D01*
X12575000Y-11780000D02*
X12605000Y-11780000D01*
X12600000Y-10975000D02*
X12600000Y-11005000D01*
X12585000Y-10990000D02*
X12615000Y-10990000D01*
X12610000Y-10655000D02*
X12610000Y-10685000D01*
X12595000Y-10670000D02*
X12625000Y-10670000D01*
X12630000Y-12015000D02*
X12630000Y-12045000D01*
X12615000Y-12030000D02*
X12645000Y-12030000D01*
X12630000Y-12175000D02*
X12630000Y-12205000D01*
X12615000Y-12190000D02*
X12645000Y-12190000D01*
X12640000Y-11055000D02*
X12640000Y-11085000D01*
X12625000Y-11070000D02*
X12655000Y-11070000D01*
X12640000Y-11855000D02*
X12640000Y-11885000D01*
X12625000Y-11870000D02*
X12655000Y-11870000D01*
X12660000Y-8945000D02*
X12660000Y-8975000D01*
X12645000Y-8960000D02*
X12675000Y-8960000D01*
X12660000Y-9035000D02*
X12660000Y-9065000D01*
X12645000Y-9050000D02*
X12675000Y-9050000D01*
X12660000Y-10575000D02*
X12660000Y-10605000D01*
X12645000Y-10590000D02*
X12675000Y-10590000D01*
X12680000Y-11935000D02*
X12680000Y-11965000D01*
X12665000Y-11950000D02*
X12695000Y-11950000D01*
X12680000Y-12095000D02*
X12680000Y-12125000D01*
X12665000Y-12110000D02*
X12695000Y-12110000D01*
X12690000Y-8095000D02*
X12690000Y-8125000D01*
X12675000Y-8110000D02*
X12705000Y-8110000D01*
X12690000Y-9805000D02*
X12690000Y-9835000D01*
X12675000Y-9820000D02*
X12705000Y-9820000D01*
X12690000Y-9955000D02*
X12690000Y-9985000D01*
X12675000Y-9970000D02*
X12705000Y-9970000D01*
X12690000Y-11135000D02*
X12690000Y-11165000D01*
X12675000Y-11150000D02*
X12705000Y-11150000D01*
X12690000Y-11225000D02*
X12690000Y-11255000D01*
X12675000Y-11240000D02*
X12705000Y-11240000D01*
X12690000Y-11315000D02*
X12690000Y-11345000D01*
X12675000Y-11330000D02*
X12705000Y-11330000D01*
X12690000Y-11405000D02*
X12690000Y-11435000D01*
X12675000Y-11420000D02*
X12705000Y-11420000D01*
X12690000Y-11495000D02*
X12690000Y-11525000D01*
X12675000Y-11510000D02*
X12705000Y-11510000D01*
X12690000Y-11585000D02*
X12690000Y-11615000D01*
X12675000Y-11600000D02*
X12705000Y-11600000D01*
X12690000Y-11675000D02*
X12690000Y-11705000D01*
X12675000Y-11690000D02*
X12705000Y-11690000D01*
X12690000Y-11765000D02*
X12690000Y-11795000D01*
X12675000Y-11780000D02*
X12705000Y-11780000D01*
X12700000Y-10975000D02*
X12700000Y-11005000D01*
X12685000Y-10990000D02*
X12715000Y-10990000D01*
X12710000Y-10345000D02*
X12710000Y-10375000D01*
X12695000Y-10360000D02*
X12725000Y-10360000D01*
X12710000Y-10495000D02*
X12710000Y-10525000D01*
X12695000Y-10510000D02*
X12725000Y-10510000D01*
X12710000Y-10655000D02*
X12710000Y-10685000D01*
X12695000Y-10670000D02*
X12725000Y-10670000D01*
X12730000Y-12015000D02*
X12730000Y-12045000D01*
X12715000Y-12030000D02*
X12745000Y-12030000D01*
X12730000Y-12175000D02*
X12730000Y-12205000D01*
X12715000Y-12190000D02*
X12745000Y-12190000D01*
X12740000Y-9885000D02*
X12740000Y-9915000D01*
X12725000Y-9900000D02*
X12755000Y-9900000D01*
X12740000Y-11855000D02*
X12740000Y-11885000D01*
X12725000Y-11870000D02*
X12755000Y-11870000D01*
X12750000Y-8945000D02*
X12750000Y-8975000D01*
X12735000Y-8960000D02*
X12765000Y-8960000D01*
X12750000Y-9035000D02*
X12750000Y-9065000D01*
X12735000Y-9050000D02*
X12765000Y-9050000D01*
X12760000Y-10425000D02*
X12760000Y-10455000D01*
X12745000Y-10440000D02*
X12775000Y-10440000D01*
X12760000Y-10575000D02*
X12760000Y-10605000D01*
X12745000Y-10590000D02*
X12775000Y-10590000D01*
X12780000Y-12095000D02*
X12780000Y-12125000D01*
X12765000Y-12110000D02*
X12795000Y-12110000D01*
X12790000Y-8095000D02*
X12790000Y-8125000D01*
X12775000Y-8110000D02*
X12805000Y-8110000D01*
X12790000Y-9955000D02*
X12790000Y-9985000D01*
X12775000Y-9970000D02*
X12805000Y-9970000D01*
X12800000Y-9805000D02*
X12800000Y-9835000D01*
X12785000Y-9820000D02*
X12815000Y-9820000D01*
X12810000Y-10345000D02*
X12810000Y-10375000D01*
X12795000Y-10360000D02*
X12825000Y-10360000D01*
X12810000Y-10495000D02*
X12810000Y-10525000D01*
X12795000Y-10510000D02*
X12825000Y-10510000D01*
X12830000Y-9705000D02*
X12830000Y-9735000D01*
X12815000Y-9720000D02*
X12845000Y-9720000D01*
X12830000Y-12175000D02*
X12830000Y-12205000D01*
X12815000Y-12190000D02*
X12845000Y-12190000D01*
X12840000Y-8945000D02*
X12840000Y-8975000D01*
X12825000Y-8960000D02*
X12855000Y-8960000D01*
X12840000Y-9035000D02*
X12840000Y-9065000D01*
X12825000Y-9050000D02*
X12855000Y-9050000D01*
X12840000Y-9885000D02*
X12840000Y-9915000D01*
X12825000Y-9900000D02*
X12855000Y-9900000D01*
X12860000Y-10425000D02*
X12860000Y-10455000D01*
X12845000Y-10440000D02*
X12875000Y-10440000D01*
X12880000Y-9485000D02*
X12880000Y-9515000D01*
X12865000Y-9500000D02*
X12895000Y-9500000D01*
X12880000Y-9805000D02*
X12880000Y-9835000D01*
X12865000Y-9820000D02*
X12895000Y-9820000D01*
X12880000Y-9955000D02*
X12880000Y-9985000D01*
X12865000Y-9970000D02*
X12895000Y-9970000D01*
X12890000Y-8095000D02*
X12890000Y-8125000D01*
X12875000Y-8110000D02*
X12905000Y-8110000D01*
X12900000Y-8255000D02*
X12900000Y-8285000D01*
X12885000Y-8270000D02*
X12915000Y-8270000D01*
X12900000Y-10345000D02*
X12900000Y-10375000D01*
X12885000Y-10360000D02*
X12915000Y-10360000D01*
X12900000Y-10495000D02*
X12900000Y-10525000D01*
X12885000Y-10510000D02*
X12915000Y-10510000D01*
X12930000Y-8945000D02*
X12930000Y-8975000D01*
X12915000Y-8960000D02*
X12945000Y-8960000D01*
X12930000Y-9035000D02*
X12930000Y-9065000D01*
X12915000Y-9050000D02*
X12945000Y-9050000D01*
X12930000Y-9585000D02*
X12930000Y-9615000D01*
X12915000Y-9600000D02*
X12945000Y-9600000D01*
X12930000Y-9735000D02*
X12930000Y-9765000D01*
X12915000Y-9750000D02*
X12945000Y-9750000D01*
X12930000Y-9885000D02*
X12930000Y-9915000D01*
X12915000Y-9900000D02*
X12945000Y-9900000D01*
X12930000Y-12175000D02*
X12930000Y-12205000D01*
X12915000Y-12190000D02*
X12945000Y-12190000D01*
X12940000Y-8175000D02*
X12940000Y-8205000D01*
X12925000Y-8190000D02*
X12955000Y-8190000D01*
X12950000Y-10425000D02*
X12950000Y-10455000D01*
X12935000Y-10440000D02*
X12965000Y-10440000D01*
X12980000Y-9485000D02*
X12980000Y-9515000D01*
X12965000Y-9500000D02*
X12995000Y-9500000D01*
X12980000Y-9665000D02*
X12980000Y-9695000D01*
X12965000Y-9680000D02*
X12995000Y-9680000D01*
X12980000Y-9805000D02*
X12980000Y-9835000D01*
X12965000Y-9820000D02*
X12995000Y-9820000D01*
X12980000Y-9955000D02*
X12980000Y-9985000D01*
X12965000Y-9970000D02*
X12995000Y-9970000D01*
X12990000Y-8095000D02*
X12990000Y-8125000D01*
X12975000Y-8110000D02*
X13005000Y-8110000D01*
X13000000Y-8255000D02*
X13000000Y-8285000D01*
X12985000Y-8270000D02*
X13015000Y-8270000D01*
X13000000Y-10345000D02*
X13000000Y-10375000D01*
X12985000Y-10360000D02*
X13015000Y-10360000D01*
X13000000Y-10495000D02*
X13000000Y-10525000D01*
X12985000Y-10510000D02*
X13015000Y-10510000D01*
X13010000Y-8945000D02*
X13010000Y-8975000D01*
X12995000Y-8960000D02*
X13025000Y-8960000D01*
X13010000Y-9035000D02*
X13010000Y-9065000D01*
X12995000Y-9050000D02*
X13025000Y-9050000D01*
X13030000Y-9585000D02*
X13030000Y-9615000D01*
X13015000Y-9600000D02*
X13045000Y-9600000D01*
X13030000Y-9735000D02*
X13030000Y-9765000D01*
X13015000Y-9750000D02*
X13045000Y-9750000D01*
X13030000Y-9885000D02*
X13030000Y-9915000D01*
X13015000Y-9900000D02*
X13045000Y-9900000D01*
X13030000Y-12175000D02*
X13030000Y-12205000D01*
X13015000Y-12190000D02*
X13045000Y-12190000D01*
X13040000Y-8175000D02*
X13040000Y-8205000D01*
X13025000Y-8190000D02*
X13055000Y-8190000D01*
X13050000Y-10425000D02*
X13050000Y-10455000D01*
X13035000Y-10440000D02*
X13065000Y-10440000D01*
X13080000Y-9485000D02*
X13080000Y-9515000D01*
X13065000Y-9500000D02*
X13095000Y-9500000D01*
X13080000Y-9665000D02*
X13080000Y-9695000D01*
X13065000Y-9680000D02*
X13095000Y-9680000D01*
X13090000Y-8095000D02*
X13090000Y-8125000D01*
X13075000Y-8110000D02*
X13105000Y-8110000D01*
X13090000Y-9805000D02*
X13090000Y-9835000D01*
X13075000Y-9820000D02*
X13105000Y-9820000D01*
X13090000Y-9955000D02*
X13090000Y-9985000D01*
X13075000Y-9970000D02*
X13105000Y-9970000D01*
X13100000Y-8255000D02*
X13100000Y-8285000D01*
X13085000Y-8270000D02*
X13115000Y-8270000D01*
X13120000Y-9585000D02*
X13120000Y-9615000D01*
X13105000Y-9600000D02*
X13135000Y-9600000D01*
X13120000Y-9735000D02*
X13120000Y-9765000D01*
X13105000Y-9750000D02*
X13135000Y-9750000D01*
X13130000Y-12175000D02*
X13130000Y-12205000D01*
X13115000Y-12190000D02*
X13145000Y-12190000D01*
X13140000Y-8175000D02*
X13140000Y-8205000D01*
X13125000Y-8190000D02*
X13155000Y-8190000D01*
X13140000Y-9885000D02*
X13140000Y-9915000D01*
X13125000Y-9900000D02*
X13155000Y-9900000D01*
X13170000Y-9665000D02*
X13170000Y-9695000D01*
X13155000Y-9680000D02*
X13185000Y-9680000D01*
X13180000Y-9805000D02*
X13180000Y-9835000D01*
X13165000Y-9820000D02*
X13195000Y-9820000D01*
X13190000Y-8095000D02*
X13190000Y-8125000D01*
X13175000Y-8110000D02*
X13205000Y-8110000D01*
X13190000Y-9955000D02*
X13190000Y-9985000D01*
X13175000Y-9970000D02*
X13205000Y-9970000D01*
X13200000Y-8255000D02*
X13200000Y-8285000D01*
X13185000Y-8270000D02*
X13215000Y-8270000D01*
X13220000Y-9425000D02*
X13220000Y-9455000D01*
X13205000Y-9440000D02*
X13235000Y-9440000D01*
X13220000Y-9585000D02*
X13220000Y-9615000D01*
X13205000Y-9600000D02*
X13235000Y-9600000D01*
X13220000Y-9735000D02*
X13220000Y-9765000D01*
X13205000Y-9750000D02*
X13235000Y-9750000D01*
X13230000Y-12175000D02*
X13230000Y-12205000D01*
X13215000Y-12190000D02*
X13245000Y-12190000D01*
X13240000Y-8175000D02*
X13240000Y-8205000D01*
X13225000Y-8190000D02*
X13255000Y-8190000D01*
X13240000Y-9885000D02*
X13240000Y-9915000D01*
X13225000Y-9900000D02*
X13255000Y-9900000D01*
X13270000Y-9665000D02*
X13270000Y-9695000D01*
X13255000Y-9680000D02*
X13285000Y-9680000D01*
X13280000Y-9805000D02*
X13280000Y-9835000D01*
X13265000Y-9820000D02*
X13295000Y-9820000D01*
X13280000Y-9955000D02*
X13280000Y-9985000D01*
X13265000Y-9970000D02*
X13295000Y-9970000D01*
X13280000Y-11915000D02*
X13280000Y-11945000D01*
X13265000Y-11930000D02*
X13295000Y-11930000D01*
X13280000Y-12005000D02*
X13280000Y-12035000D01*
X13265000Y-12020000D02*
X13295000Y-12020000D01*
X13280000Y-12095000D02*
X13280000Y-12125000D01*
X13265000Y-12110000D02*
X13295000Y-12110000D01*
X13290000Y-8095000D02*
X13290000Y-8125000D01*
X13275000Y-8110000D02*
X13305000Y-8110000D01*
X13300000Y-8255000D02*
X13300000Y-8285000D01*
X13285000Y-8270000D02*
X13315000Y-8270000D01*
X13330000Y-9885000D02*
X13330000Y-9915000D01*
X13315000Y-9900000D02*
X13345000Y-9900000D01*
X13330000Y-12175000D02*
X13330000Y-12205000D01*
X13315000Y-12190000D02*
X13345000Y-12190000D01*
X13340000Y-8175000D02*
X13340000Y-8205000D01*
X13325000Y-8190000D02*
X13355000Y-8190000D01*
X13380000Y-9805000D02*
X13380000Y-9835000D01*
X13365000Y-9820000D02*
X13395000Y-9820000D01*
X13380000Y-9955000D02*
X13380000Y-9985000D01*
X13365000Y-9970000D02*
X13395000Y-9970000D01*
X13380000Y-11915000D02*
X13380000Y-11945000D01*
X13365000Y-11930000D02*
X13395000Y-11930000D01*
X13380000Y-12005000D02*
X13380000Y-12035000D01*
X13365000Y-12020000D02*
X13395000Y-12020000D01*
X13380000Y-12095000D02*
X13380000Y-12125000D01*
X13365000Y-12110000D02*
X13395000Y-12110000D01*
X13390000Y-8095000D02*
X13390000Y-8125000D01*
X13375000Y-8110000D02*
X13405000Y-8110000D01*
X13400000Y-8255000D02*
X13400000Y-8285000D01*
X13385000Y-8270000D02*
X13415000Y-8270000D01*
X13430000Y-12175000D02*
X13430000Y-12205000D01*
X13415000Y-12190000D02*
X13445000Y-12190000D01*
X13440000Y-8175000D02*
X13440000Y-8205000D01*
X13425000Y-8190000D02*
X13455000Y-8190000D01*
X13450000Y-9455000D02*
X13450000Y-9485000D01*
X13435000Y-9470000D02*
X13465000Y-9470000D01*
X13480000Y-11915000D02*
X13480000Y-11945000D01*
X13465000Y-11930000D02*
X13495000Y-11930000D01*
X13480000Y-12005000D02*
X13480000Y-12035000D01*
X13465000Y-12020000D02*
X13495000Y-12020000D01*
X13480000Y-12095000D02*
X13480000Y-12125000D01*
X13465000Y-12110000D02*
X13495000Y-12110000D01*
X13490000Y-8095000D02*
X13490000Y-8125000D01*
X13475000Y-8110000D02*
X13505000Y-8110000D01*
X13500000Y-8255000D02*
X13500000Y-8285000D01*
X13485000Y-8270000D02*
X13515000Y-8270000D01*
X13530000Y-12175000D02*
X13530000Y-12205000D01*
X13515000Y-12190000D02*
X13545000Y-12190000D01*
X13540000Y-8175000D02*
X13540000Y-8205000D01*
X13525000Y-8190000D02*
X13555000Y-8190000D01*
X13550000Y-9455000D02*
X13550000Y-9485000D01*
X13535000Y-9470000D02*
X13565000Y-9470000D01*
X13550000Y-9545000D02*
X13550000Y-9575000D01*
X13535000Y-9560000D02*
X13565000Y-9560000D01*
X13580000Y-10745000D02*
X13580000Y-10775000D01*
X13565000Y-10760000D02*
X13595000Y-10760000D01*
X13580000Y-10845000D02*
X13580000Y-10875000D01*
X13565000Y-10860000D02*
X13595000Y-10860000D01*
X13580000Y-10935000D02*
X13580000Y-10965000D01*
X13565000Y-10950000D02*
X13595000Y-10950000D01*
X13580000Y-11025000D02*
X13580000Y-11055000D01*
X13565000Y-11040000D02*
X13595000Y-11040000D01*
X13580000Y-11115000D02*
X13580000Y-11145000D01*
X13565000Y-11130000D02*
X13595000Y-11130000D01*
X13580000Y-11205000D02*
X13580000Y-11235000D01*
X13565000Y-11220000D02*
X13595000Y-11220000D01*
X13580000Y-11295000D02*
X13580000Y-11325000D01*
X13565000Y-11310000D02*
X13595000Y-11310000D01*
X13580000Y-11385000D02*
X13580000Y-11415000D01*
X13565000Y-11400000D02*
X13595000Y-11400000D01*
X13580000Y-11475000D02*
X13580000Y-11505000D01*
X13565000Y-11490000D02*
X13595000Y-11490000D01*
X13580000Y-11915000D02*
X13580000Y-11945000D01*
X13565000Y-11930000D02*
X13595000Y-11930000D01*
X13580000Y-12005000D02*
X13580000Y-12035000D01*
X13565000Y-12020000D02*
X13595000Y-12020000D01*
X13580000Y-12095000D02*
X13580000Y-12125000D01*
X13565000Y-12110000D02*
X13595000Y-12110000D01*
X13590000Y-8095000D02*
X13590000Y-8125000D01*
X13575000Y-8110000D02*
X13605000Y-8110000D01*
X13600000Y-8255000D02*
X13600000Y-8285000D01*
X13585000Y-8270000D02*
X13615000Y-8270000D01*
X13610000Y-9355000D02*
X13610000Y-9385000D01*
X13595000Y-9370000D02*
X13625000Y-9370000D01*
X13630000Y-12175000D02*
X13630000Y-12205000D01*
X13615000Y-12190000D02*
X13645000Y-12190000D01*
X13640000Y-8175000D02*
X13640000Y-8205000D01*
X13625000Y-8190000D02*
X13655000Y-8190000D01*
X13660000Y-9455000D02*
X13660000Y-9485000D01*
X13645000Y-9470000D02*
X13675000Y-9470000D01*
X13660000Y-9545000D02*
X13660000Y-9575000D01*
X13645000Y-9560000D02*
X13675000Y-9560000D01*
X13680000Y-10845000D02*
X13680000Y-10875000D01*
X13665000Y-10860000D02*
X13695000Y-10860000D01*
X13680000Y-10935000D02*
X13680000Y-10965000D01*
X13665000Y-10950000D02*
X13695000Y-10950000D01*
X13680000Y-11025000D02*
X13680000Y-11055000D01*
X13665000Y-11040000D02*
X13695000Y-11040000D01*
X13680000Y-11115000D02*
X13680000Y-11145000D01*
X13665000Y-11130000D02*
X13695000Y-11130000D01*
X13680000Y-11205000D02*
X13680000Y-11235000D01*
X13665000Y-11220000D02*
X13695000Y-11220000D01*
X13690000Y-8095000D02*
X13690000Y-8125000D01*
X13675000Y-8110000D02*
X13705000Y-8110000D01*
X13700000Y-8255000D02*
X13700000Y-8285000D01*
X13685000Y-8270000D02*
X13715000Y-8270000D01*
X13720000Y-9645000D02*
X13720000Y-9675000D01*
X13705000Y-9660000D02*
X13735000Y-9660000D01*
X13720000Y-9745000D02*
X13720000Y-9775000D01*
X13705000Y-9760000D02*
X13735000Y-9760000D01*
X13720000Y-9845000D02*
X13720000Y-9875000D01*
X13705000Y-9860000D02*
X13735000Y-9860000D01*
X13730000Y-12175000D02*
X13730000Y-12205000D01*
X13715000Y-12190000D02*
X13745000Y-12190000D01*
X13740000Y-8175000D02*
X13740000Y-8205000D01*
X13725000Y-8190000D02*
X13755000Y-8190000D01*
X13760000Y-9455000D02*
X13760000Y-9485000D01*
X13745000Y-9470000D02*
X13775000Y-9470000D01*
X13760000Y-9545000D02*
X13760000Y-9575000D01*
X13745000Y-9560000D02*
X13775000Y-9560000D01*
X13780000Y-10845000D02*
X13780000Y-10875000D01*
X13765000Y-10860000D02*
X13795000Y-10860000D01*
X13780000Y-10935000D02*
X13780000Y-10965000D01*
X13765000Y-10950000D02*
X13795000Y-10950000D01*
X13780000Y-11025000D02*
X13780000Y-11055000D01*
X13765000Y-11040000D02*
X13795000Y-11040000D01*
X13780000Y-11115000D02*
X13780000Y-11145000D01*
X13765000Y-11130000D02*
X13795000Y-11130000D01*
X13780000Y-11205000D02*
X13780000Y-11235000D01*
X13765000Y-11220000D02*
X13795000Y-11220000D01*
X13790000Y-8095000D02*
X13790000Y-8125000D01*
X13775000Y-8110000D02*
X13805000Y-8110000D01*
X13800000Y-8255000D02*
X13800000Y-8285000D01*
X13785000Y-8270000D02*
X13815000Y-8270000D01*
X13800000Y-9645000D02*
X13800000Y-9675000D01*
X13785000Y-9660000D02*
X13815000Y-9660000D01*
X13800000Y-9745000D02*
X13800000Y-9775000D01*
X13785000Y-9760000D02*
X13815000Y-9760000D01*
X13820000Y-9845000D02*
X13820000Y-9875000D01*
X13805000Y-9860000D02*
X13835000Y-9860000D01*
X13820000Y-12175000D02*
X13820000Y-12205000D01*
X13805000Y-12190000D02*
X13835000Y-12190000D01*
X13840000Y-8175000D02*
X13840000Y-8205000D01*
X13825000Y-8190000D02*
X13855000Y-8190000D01*
X13870000Y-10845000D02*
X13870000Y-10875000D01*
X13855000Y-10860000D02*
X13885000Y-10860000D01*
X13870000Y-10935000D02*
X13870000Y-10965000D01*
X13855000Y-10950000D02*
X13885000Y-10950000D01*
X13870000Y-11025000D02*
X13870000Y-11055000D01*
X13855000Y-11040000D02*
X13885000Y-11040000D01*
X13870000Y-11115000D02*
X13870000Y-11145000D01*
X13855000Y-11130000D02*
X13885000Y-11130000D01*
X13870000Y-11205000D02*
X13870000Y-11235000D01*
X13855000Y-11220000D02*
X13885000Y-11220000D01*
X13890000Y-8095000D02*
X13890000Y-8125000D01*
X13875000Y-8110000D02*
X13905000Y-8110000D01*
X13900000Y-8255000D02*
X13900000Y-8285000D01*
X13885000Y-8270000D02*
X13915000Y-8270000D01*
X13900000Y-9845000D02*
X13900000Y-9875000D01*
X13885000Y-9860000D02*
X13915000Y-9860000D01*
X13920000Y-12175000D02*
X13920000Y-12205000D01*
X13905000Y-12190000D02*
X13935000Y-12190000D01*
X13940000Y-8175000D02*
X13940000Y-8205000D01*
X13925000Y-8190000D02*
X13955000Y-8190000D01*
X13960000Y-8825000D02*
X13960000Y-8855000D01*
X13945000Y-8840000D02*
X13975000Y-8840000D01*
X13970000Y-10845000D02*
X13970000Y-10875000D01*
X13955000Y-10860000D02*
X13985000Y-10860000D01*
X13970000Y-10935000D02*
X13970000Y-10965000D01*
X13955000Y-10950000D02*
X13985000Y-10950000D01*
X13970000Y-11025000D02*
X13970000Y-11055000D01*
X13955000Y-11040000D02*
X13985000Y-11040000D01*
X13970000Y-11115000D02*
X13970000Y-11145000D01*
X13955000Y-11130000D02*
X13985000Y-11130000D01*
X13970000Y-11205000D02*
X13970000Y-11235000D01*
X13955000Y-11220000D02*
X13985000Y-11220000D01*
X13990000Y-8095000D02*
X13990000Y-8125000D01*
X13975000Y-8110000D02*
X14005000Y-8110000D01*
X14000000Y-8255000D02*
X14000000Y-8285000D01*
X13985000Y-8270000D02*
X14015000Y-8270000D01*
X14000000Y-9845000D02*
X14000000Y-9875000D01*
X13985000Y-9860000D02*
X14015000Y-9860000D01*
X14020000Y-12175000D02*
X14020000Y-12205000D01*
X14005000Y-12190000D02*
X14035000Y-12190000D01*
X14040000Y-8175000D02*
X14040000Y-8205000D01*
X14025000Y-8190000D02*
X14055000Y-8190000D01*
X14070000Y-9985000D02*
X14070000Y-10015000D01*
X14055000Y-10000000D02*
X14085000Y-10000000D01*
X14070000Y-10085000D02*
X14070000Y-10115000D01*
X14055000Y-10100000D02*
X14085000Y-10100000D01*
X14070000Y-10665000D02*
X14070000Y-10695000D01*
X14055000Y-10680000D02*
X14085000Y-10680000D01*
X14070000Y-10755000D02*
X14070000Y-10785000D01*
X14055000Y-10770000D02*
X14085000Y-10770000D01*
X14070000Y-10845000D02*
X14070000Y-10875000D01*
X14055000Y-10860000D02*
X14085000Y-10860000D01*
X14070000Y-10935000D02*
X14070000Y-10965000D01*
X14055000Y-10950000D02*
X14085000Y-10950000D01*
X14070000Y-11025000D02*
X14070000Y-11055000D01*
X14055000Y-11040000D02*
X14085000Y-11040000D01*
X14070000Y-11115000D02*
X14070000Y-11145000D01*
X14055000Y-11130000D02*
X14085000Y-11130000D01*
X14070000Y-11205000D02*
X14070000Y-11235000D01*
X14055000Y-11220000D02*
X14085000Y-11220000D01*
X14070000Y-11325000D02*
X14070000Y-11355000D01*
X14055000Y-11340000D02*
X14085000Y-11340000D01*
X14070000Y-11435000D02*
X14070000Y-11465000D01*
X14055000Y-11450000D02*
X14085000Y-11450000D01*
X14070000Y-11955000D02*
X14070000Y-11985000D01*
X14055000Y-11970000D02*
X14085000Y-11970000D01*
X14070000Y-12065000D02*
X14070000Y-12095000D01*
X14055000Y-12080000D02*
X14085000Y-12080000D01*
X14090000Y-8095000D02*
X14090000Y-8125000D01*
X14075000Y-8110000D02*
X14105000Y-8110000D01*
X14090000Y-9845000D02*
X14090000Y-9875000D01*
X14075000Y-9860000D02*
X14105000Y-9860000D01*
X14100000Y-8255000D02*
X14100000Y-8285000D01*
X14085000Y-8270000D02*
X14115000Y-8270000D01*
X14120000Y-12175000D02*
X14120000Y-12205000D01*
X14105000Y-12190000D02*
X14135000Y-12190000D01*
X14140000Y-8175000D02*
X14140000Y-8205000D01*
X14125000Y-8190000D02*
X14155000Y-8190000D01*
X14170000Y-10845000D02*
X14170000Y-10875000D01*
X14155000Y-10860000D02*
X14185000Y-10860000D01*
X14170000Y-10935000D02*
X14170000Y-10965000D01*
X14155000Y-10950000D02*
X14185000Y-10950000D01*
X14170000Y-11025000D02*
X14170000Y-11055000D01*
X14155000Y-11040000D02*
X14185000Y-11040000D01*
X14170000Y-11115000D02*
X14170000Y-11145000D01*
X14155000Y-11130000D02*
X14185000Y-11130000D01*
X14170000Y-11205000D02*
X14170000Y-11235000D01*
X14155000Y-11220000D02*
X14185000Y-11220000D01*
X14190000Y-8095000D02*
X14190000Y-8125000D01*
X14175000Y-8110000D02*
X14205000Y-8110000D01*
X14190000Y-9845000D02*
X14190000Y-9875000D01*
X14175000Y-9860000D02*
X14205000Y-9860000D01*
X14220000Y-8535000D02*
X14220000Y-8565000D01*
X14205000Y-8550000D02*
X14235000Y-8550000D01*
X14220000Y-8625000D02*
X14220000Y-8655000D01*
X14205000Y-8640000D02*
X14235000Y-8640000D01*
X14220000Y-12175000D02*
X14220000Y-12205000D01*
X14205000Y-12190000D02*
X14235000Y-12190000D01*
X14240000Y-8175000D02*
X14240000Y-8205000D01*
X14225000Y-8190000D02*
X14255000Y-8190000D01*
X14270000Y-10845000D02*
X14270000Y-10875000D01*
X14255000Y-10860000D02*
X14285000Y-10860000D01*
X14270000Y-10935000D02*
X14270000Y-10965000D01*
X14255000Y-10950000D02*
X14285000Y-10950000D01*
X14270000Y-11025000D02*
X14270000Y-11055000D01*
X14255000Y-11040000D02*
X14285000Y-11040000D01*
X14270000Y-11115000D02*
X14270000Y-11145000D01*
X14255000Y-11130000D02*
X14285000Y-11130000D01*
X14270000Y-11205000D02*
X14270000Y-11235000D01*
X14255000Y-11220000D02*
X14285000Y-11220000D01*
X14280000Y-9845000D02*
X14280000Y-9875000D01*
X14265000Y-9860000D02*
X14295000Y-9860000D01*
X14290000Y-8095000D02*
X14290000Y-8125000D01*
X14275000Y-8110000D02*
X14305000Y-8110000D01*
X14290000Y-11675000D02*
X14290000Y-11705000D01*
X14275000Y-11690000D02*
X14305000Y-11690000D01*
X14300000Y-10345000D02*
X14300000Y-10375000D01*
X14285000Y-10360000D02*
X14315000Y-10360000D01*
X14310000Y-8535000D02*
X14310000Y-8565000D01*
X14295000Y-8550000D02*
X14325000Y-8550000D01*
X14310000Y-8625000D02*
X14310000Y-8655000D01*
X14295000Y-8640000D02*
X14325000Y-8640000D01*
X14310000Y-8715000D02*
X14310000Y-8745000D01*
X14295000Y-8730000D02*
X14325000Y-8730000D01*
X14310000Y-8805000D02*
X14310000Y-8835000D01*
X14295000Y-8820000D02*
X14325000Y-8820000D01*
X14310000Y-8885000D02*
X14310000Y-8915000D01*
X14295000Y-8900000D02*
X14325000Y-8900000D01*
X14310000Y-8975000D02*
X14310000Y-9005000D01*
X14295000Y-8990000D02*
X14325000Y-8990000D01*
X14310000Y-9075000D02*
X14310000Y-9105000D01*
X14295000Y-9090000D02*
X14325000Y-9090000D01*
X14320000Y-12175000D02*
X14320000Y-12205000D01*
X14305000Y-12190000D02*
X14335000Y-12190000D01*
X14340000Y-8175000D02*
X14340000Y-8205000D01*
X14325000Y-8190000D02*
X14355000Y-8190000D01*
X14370000Y-10845000D02*
X14370000Y-10875000D01*
X14355000Y-10860000D02*
X14385000Y-10860000D01*
X14370000Y-10935000D02*
X14370000Y-10965000D01*
X14355000Y-10950000D02*
X14385000Y-10950000D01*
X14370000Y-11025000D02*
X14370000Y-11055000D01*
X14355000Y-11040000D02*
X14385000Y-11040000D01*
X14370000Y-11115000D02*
X14370000Y-11145000D01*
X14355000Y-11130000D02*
X14385000Y-11130000D01*
X14370000Y-11205000D02*
X14370000Y-11235000D01*
X14355000Y-11220000D02*
X14385000Y-11220000D01*
X14380000Y-9745000D02*
X14380000Y-9775000D01*
X14365000Y-9760000D02*
X14395000Y-9760000D01*
X14380000Y-9845000D02*
X14380000Y-9875000D01*
X14365000Y-9860000D02*
X14395000Y-9860000D01*
X14390000Y-8095000D02*
X14390000Y-8125000D01*
X14375000Y-8110000D02*
X14405000Y-8110000D01*
X14390000Y-9445000D02*
X14390000Y-9475000D01*
X14375000Y-9460000D02*
X14405000Y-9460000D01*
X14390000Y-9545000D02*
X14390000Y-9575000D01*
X14375000Y-9560000D02*
X14405000Y-9560000D01*
X14390000Y-9645000D02*
X14390000Y-9675000D01*
X14375000Y-9660000D02*
X14405000Y-9660000D01*
X14400000Y-11675000D02*
X14400000Y-11705000D01*
X14385000Y-11690000D02*
X14415000Y-11690000D01*
X14410000Y-8535000D02*
X14410000Y-8565000D01*
X14395000Y-8550000D02*
X14425000Y-8550000D01*
X14410000Y-8625000D02*
X14410000Y-8655000D01*
X14395000Y-8640000D02*
X14425000Y-8640000D01*
X14410000Y-8715000D02*
X14410000Y-8745000D01*
X14395000Y-8730000D02*
X14425000Y-8730000D01*
X14410000Y-8805000D02*
X14410000Y-8835000D01*
X14395000Y-8820000D02*
X14425000Y-8820000D01*
X14410000Y-8885000D02*
X14410000Y-8915000D01*
X14395000Y-8900000D02*
X14425000Y-8900000D01*
X14410000Y-8975000D02*
X14410000Y-9005000D01*
X14395000Y-8990000D02*
X14425000Y-8990000D01*
X14410000Y-9075000D02*
X14410000Y-9105000D01*
X14395000Y-9090000D02*
X14425000Y-9090000D01*
X14410000Y-10345000D02*
X14410000Y-10375000D01*
X14395000Y-10360000D02*
X14425000Y-10360000D01*
X14430000Y-12175000D02*
X14430000Y-12205000D01*
X14415000Y-12190000D02*
X14445000Y-12190000D01*
X13872213Y-8419213D02*
X13872213Y-8376787D01*
X13829787Y-8376787D01*
X13829787Y-8419213D01*
X13872213Y-8419213D01*
X13795999Y-8428000D02*
X13906001Y-8428000D01*
X13906001Y-8368000D02*
G75*
G02*
X13906001Y-8428000I0J-30000D01*
G01*
X13906001Y-8368000D02*
X13795999Y-8368000D01*
X13795999Y-8368000D02*
G75*
G03*
X13795999Y-8428000I0J-30000D01*
G01*
X13872213Y-9283213D02*
X13872213Y-9240787D01*
X13829787Y-9240787D01*
X13829787Y-9283213D01*
X13872213Y-9283213D01*
X13795999Y-9292000D02*
X13906001Y-9292000D01*
X13906001Y-9232000D02*
G75*
G02*
X13906001Y-9292000I0J-30000D01*
G01*
X13906001Y-9232000D02*
X13795999Y-9232000D01*
X13795999Y-9232000D02*
G75*
G03*
X13795999Y-9292000I0J-30000D01*
G01*
X14287213Y-8419213D02*
X14287213Y-8376787D01*
X14244787Y-8376787D01*
X14244787Y-8419213D01*
X14287213Y-8419213D01*
X14226000Y-8428000D02*
X14306000Y-8428000D01*
X14306000Y-8368000D02*
G75*
G02*
X14306000Y-8428000I0J-30000D01*
G01*
X14306000Y-8368000D02*
X14226000Y-8368000D01*
X14226000Y-8368000D02*
G75*
G03*
X14226000Y-8428000I0J-30000D01*
G01*
X14287213Y-9283213D02*
X14287213Y-9240787D01*
X14244787Y-9240787D01*
X14244787Y-9283213D01*
X14287213Y-9283213D01*
X14226000Y-9292000D02*
X14306000Y-9292000D01*
X14306000Y-9232000D02*
G75*
G02*
X14306000Y-9292000I0J-30000D01*
G01*
X14306000Y-9232000D02*
X14226000Y-9232000D01*
X14226000Y-9232000D02*
G75*
G03*
X14226000Y-9292000I0J-30000D01*
G01*
X13901000Y-8573500D02*
X13933500Y-8541000D01*
X13901000Y-8508500D01*
X13868500Y-8541000D01*
X13901000Y-8573500D01*
X13901000Y-9151500D02*
X13933500Y-9119000D01*
X13901000Y-9086500D01*
X13868500Y-9119000D01*
X13901000Y-9151500D01*
D13*
X10180999Y-11380999D02*
X10311001Y-11511001D01*
X10311001Y-11380999D02*
X10180999Y-11511001D01*
X10311001Y-11446000D02*
G75*
G02*
X10180999Y-11446000I-65001J0D01*
G01*
X10180999Y-11446000D02*
G75*
G02*
X10311001Y-11446000I65001J0D01*
G01*
X10180999Y-11888999D02*
X10311001Y-12019001D01*
X10311001Y-11888999D02*
X10180999Y-12019001D01*
X10311001Y-11954000D02*
G75*
G02*
X10180999Y-11954000I-65001J0D01*
G01*
X10180999Y-11954000D02*
G75*
G02*
X10311001Y-11954000I65001J0D01*
G01*
X10190999Y-8260999D02*
X10321001Y-8391001D01*
X10321001Y-8260999D02*
X10190999Y-8391001D01*
X10321001Y-8326000D02*
G75*
G02*
X10190999Y-8326000I-65001J0D01*
G01*
X10190999Y-8326000D02*
G75*
G02*
X10321001Y-8326000I65001J0D01*
G01*
X10190999Y-8768999D02*
X10321001Y-8899001D01*
X10321001Y-8768999D02*
X10190999Y-8899001D01*
X10321001Y-8834000D02*
G75*
G02*
X10190999Y-8834000I-65001J0D01*
G01*
X10190999Y-8834000D02*
G75*
G02*
X10321001Y-8834000I65001J0D01*
G01*
X10190999Y-9300999D02*
X10321001Y-9431001D01*
X10321001Y-9300999D02*
X10190999Y-9431001D01*
X10321001Y-9366000D02*
G75*
G02*
X10190999Y-9366000I-65001J0D01*
G01*
X10190999Y-9366000D02*
G75*
G02*
X10321001Y-9366000I65001J0D01*
G01*
X10190999Y-9808999D02*
X10321001Y-9939001D01*
X10321001Y-9808999D02*
X10190999Y-9939001D01*
X10321001Y-9874000D02*
G75*
G02*
X10190999Y-9874000I-65001J0D01*
G01*
X10190999Y-9874000D02*
G75*
G02*
X10321001Y-9874000I65001J0D01*
G01*
X10190999Y-10340999D02*
X10321001Y-10471001D01*
X10321001Y-10340999D02*
X10190999Y-10471001D01*
X10321001Y-10406000D02*
G75*
G02*
X10190999Y-10406000I-65001J0D01*
G01*
X10190999Y-10406000D02*
G75*
G02*
X10321001Y-10406000I65001J0D01*
G01*
X10190999Y-10848999D02*
X10321001Y-10979001D01*
X10321001Y-10848999D02*
X10190999Y-10979001D01*
X10321001Y-10914000D02*
G75*
G02*
X10190999Y-10914000I-65001J0D01*
G01*
X10190999Y-10914000D02*
G75*
G02*
X10321001Y-10914000I65001J0D01*
G01*
X10434999Y-11634999D02*
X10565001Y-11765001D01*
X10565001Y-11634999D02*
X10434999Y-11765001D01*
X10565001Y-11700000D02*
G75*
G02*
X10434999Y-11700000I-65001J0D01*
G01*
X10434999Y-11700000D02*
G75*
G02*
X10565001Y-11700000I65001J0D01*
G01*
X10444999Y-8514999D02*
X10575001Y-8645001D01*
X10575001Y-8514999D02*
X10444999Y-8645001D01*
X10575001Y-8580000D02*
G75*
G02*
X10444999Y-8580000I-65001J0D01*
G01*
X10444999Y-8580000D02*
G75*
G02*
X10575001Y-8580000I65001J0D01*
G01*
X10444999Y-9554999D02*
X10575001Y-9685001D01*
X10575001Y-9554999D02*
X10444999Y-9685001D01*
X10575001Y-9620000D02*
G75*
G02*
X10444999Y-9620000I-65001J0D01*
G01*
X10444999Y-9620000D02*
G75*
G02*
X10575001Y-9620000I65001J0D01*
G01*
X10444999Y-10594999D02*
X10575001Y-10725001D01*
X10575001Y-10594999D02*
X10444999Y-10725001D01*
X10575001Y-10660000D02*
G75*
G02*
X10444999Y-10660000I-65001J0D01*
G01*
X10444999Y-10660000D02*
G75*
G02*
X10575001Y-10660000I65001J0D01*
G01*
X10688999Y-11380999D02*
X10819001Y-11511001D01*
X10819001Y-11380999D02*
X10688999Y-11511001D01*
X10819001Y-11446000D02*
G75*
G02*
X10688999Y-11446000I-65001J0D01*
G01*
X10688999Y-11446000D02*
G75*
G02*
X10819001Y-11446000I65001J0D01*
G01*
X10688999Y-11888999D02*
X10819001Y-12019001D01*
X10819001Y-11888999D02*
X10688999Y-12019001D01*
X10819001Y-11954000D02*
G75*
G02*
X10688999Y-11954000I-65001J0D01*
G01*
X10688999Y-11954000D02*
G75*
G02*
X10819001Y-11954000I65001J0D01*
G01*
X10698999Y-8260999D02*
X10829001Y-8391001D01*
X10829001Y-8260999D02*
X10698999Y-8391001D01*
X10829001Y-8326000D02*
G75*
G02*
X10698999Y-8326000I-65001J0D01*
G01*
X10698999Y-8326000D02*
G75*
G02*
X10829001Y-8326000I65001J0D01*
G01*
X10698999Y-8768999D02*
X10829001Y-8899001D01*
X10829001Y-8768999D02*
X10698999Y-8899001D01*
X10829001Y-8834000D02*
G75*
G02*
X10698999Y-8834000I-65001J0D01*
G01*
X10698999Y-8834000D02*
G75*
G02*
X10829001Y-8834000I65001J0D01*
G01*
X10698999Y-9300999D02*
X10829001Y-9431001D01*
X10829001Y-9300999D02*
X10698999Y-9431001D01*
X10829001Y-9366000D02*
G75*
G02*
X10698999Y-9366000I-65001J0D01*
G01*
X10698999Y-9366000D02*
G75*
G02*
X10829001Y-9366000I65001J0D01*
G01*
X10698999Y-9808999D02*
X10829001Y-9939001D01*
X10829001Y-9808999D02*
X10698999Y-9939001D01*
X10829001Y-9874000D02*
G75*
G02*
X10698999Y-9874000I-65001J0D01*
G01*
X10698999Y-9874000D02*
G75*
G02*
X10829001Y-9874000I65001J0D01*
G01*
X10698999Y-10340999D02*
X10829001Y-10471001D01*
X10829001Y-10340999D02*
X10698999Y-10471001D01*
X10829001Y-10406000D02*
G75*
G02*
X10698999Y-10406000I-65001J0D01*
G01*
X10698999Y-10406000D02*
G75*
G02*
X10829001Y-10406000I65001J0D01*
G01*
X10698999Y-10848999D02*
X10829001Y-10979001D01*
X10829001Y-10848999D02*
X10698999Y-10979001D01*
X10829001Y-10914000D02*
G75*
G02*
X10698999Y-10914000I-65001J0D01*
G01*
X10698999Y-10914000D02*
G75*
G02*
X10829001Y-10914000I65001J0D01*
G01*
X13750999Y-10040999D02*
X13881001Y-10171001D01*
X13881001Y-10040999D02*
X13750999Y-10171001D01*
X13881001Y-10106000D02*
G75*
G02*
X13750999Y-10106000I-65001J0D01*
G01*
X13750999Y-10106000D02*
G75*
G02*
X13881001Y-10106000I65001J0D01*
G01*
X13750999Y-10548999D02*
X13881001Y-10679001D01*
X13881001Y-10548999D02*
X13750999Y-10679001D01*
X13881001Y-10614000D02*
G75*
G02*
X13750999Y-10614000I-65001J0D01*
G01*
X13750999Y-10614000D02*
G75*
G02*
X13881001Y-10614000I65001J0D01*
G01*
X13750999Y-11380999D02*
X13881001Y-11511001D01*
X13881001Y-11380999D02*
X13750999Y-11511001D01*
X13881001Y-11446000D02*
G75*
G02*
X13750999Y-11446000I-65001J0D01*
G01*
X13750999Y-11446000D02*
G75*
G02*
X13881001Y-11446000I65001J0D01*
G01*
X13750999Y-11888999D02*
X13881001Y-12019001D01*
X13881001Y-11888999D02*
X13750999Y-12019001D01*
X13881001Y-11954000D02*
G75*
G02*
X13750999Y-11954000I-65001J0D01*
G01*
X13750999Y-11954000D02*
G75*
G02*
X13881001Y-11954000I65001J0D01*
G01*
X14004999Y-10294999D02*
X14135001Y-10425001D01*
X14135001Y-10294999D02*
X14004999Y-10425001D01*
X14135001Y-10360000D02*
G75*
G02*
X14004999Y-10360000I-65001J0D01*
G01*
X14004999Y-10360000D02*
G75*
G02*
X14135001Y-10360000I65001J0D01*
G01*
X14004999Y-11634999D02*
X14135001Y-11765001D01*
X14135001Y-11634999D02*
X14004999Y-11765001D01*
X14135001Y-11700000D02*
G75*
G02*
X14004999Y-11700000I-65001J0D01*
G01*
X14004999Y-11700000D02*
G75*
G02*
X14135001Y-11700000I65001J0D01*
G01*
X14258999Y-10040999D02*
X14389001Y-10171001D01*
X14389001Y-10040999D02*
X14258999Y-10171001D01*
X14389001Y-10106000D02*
G75*
G02*
X14258999Y-10106000I-65001J0D01*
G01*
X14258999Y-10106000D02*
G75*
G02*
X14389001Y-10106000I65001J0D01*
G01*
X14258999Y-10548999D02*
X14389001Y-10679001D01*
X14389001Y-10548999D02*
X14258999Y-10679001D01*
X14389001Y-10614000D02*
G75*
G02*
X14258999Y-10614000I-65001J0D01*
G01*
X14258999Y-10614000D02*
G75*
G02*
X14389001Y-10614000I65001J0D01*
G01*
X14258999Y-11380999D02*
X14389001Y-11511001D01*
X14389001Y-11380999D02*
X14258999Y-11511001D01*
X14389001Y-11446000D02*
G75*
G02*
X14258999Y-11446000I-65001J0D01*
G01*
X14258999Y-11446000D02*
G75*
G02*
X14389001Y-11446000I65001J0D01*
G01*
X14258999Y-11888999D02*
X14389001Y-12019001D01*
X14389001Y-11888999D02*
X14258999Y-12019001D01*
X14389001Y-11954000D02*
G75*
G02*
X14258999Y-11954000I-65001J0D01*
G01*
X14258999Y-11954000D02*
G75*
G02*
X14389001Y-11954000I65001J0D01*
G01*
D11*
X10298277Y-12593984D02*
X10298277Y-12393984D01*
X10298277Y-12393984D02*
X10345896Y-12393984D01*
X10345896Y-12393984D02*
X10374467Y-12403508D01*
X10374467Y-12403508D02*
X10393515Y-12422555D01*
X10393515Y-12422555D02*
X10403039Y-12441603D01*
X10403039Y-12441603D02*
X10412563Y-12479698D01*
X10412563Y-12479698D02*
X10412563Y-12508269D01*
X10412563Y-12508269D02*
X10403039Y-12546365D01*
X10403039Y-12546365D02*
X10393515Y-12565412D01*
X10393515Y-12565412D02*
X10374467Y-12584460D01*
X10374467Y-12584460D02*
X10345896Y-12593984D01*
X10345896Y-12593984D02*
X10298277Y-12593984D01*
X10498277Y-12593984D02*
X10498277Y-12460650D01*
X10498277Y-12498746D02*
X10507801Y-12479698D01*
X10507801Y-12479698D02*
X10517324Y-12470174D01*
X10517324Y-12470174D02*
X10536372Y-12460650D01*
X10536372Y-12460650D02*
X10555420Y-12460650D01*
X10622086Y-12593984D02*
X10622086Y-12460650D01*
X10622086Y-12393984D02*
X10612563Y-12403508D01*
X10612563Y-12403508D02*
X10622086Y-12413031D01*
X10622086Y-12413031D02*
X10631610Y-12403508D01*
X10631610Y-12403508D02*
X10622086Y-12393984D01*
X10622086Y-12393984D02*
X10622086Y-12413031D01*
X10745896Y-12593984D02*
X10726848Y-12584460D01*
X10726848Y-12584460D02*
X10717324Y-12565412D01*
X10717324Y-12565412D02*
X10717324Y-12393984D01*
X10850658Y-12593984D02*
X10831610Y-12584460D01*
X10831610Y-12584460D02*
X10822086Y-12565412D01*
X10822086Y-12565412D02*
X10822086Y-12393984D01*
X11079229Y-12593984D02*
X11079229Y-12393984D01*
X11079229Y-12393984D02*
X11145896Y-12536841D01*
X11145896Y-12536841D02*
X11212562Y-12393984D01*
X11212562Y-12393984D02*
X11212562Y-12593984D01*
X11393515Y-12593984D02*
X11393515Y-12489222D01*
X11393515Y-12489222D02*
X11383991Y-12470174D01*
X11383991Y-12470174D02*
X11364943Y-12460650D01*
X11364943Y-12460650D02*
X11326848Y-12460650D01*
X11326848Y-12460650D02*
X11307801Y-12470174D01*
X11393515Y-12584460D02*
X11374467Y-12593984D01*
X11374467Y-12593984D02*
X11326848Y-12593984D01*
X11326848Y-12593984D02*
X11307801Y-12584460D01*
X11307801Y-12584460D02*
X11298277Y-12565412D01*
X11298277Y-12565412D02*
X11298277Y-12546365D01*
X11298277Y-12546365D02*
X11307801Y-12527317D01*
X11307801Y-12527317D02*
X11326848Y-12517793D01*
X11326848Y-12517793D02*
X11374467Y-12517793D01*
X11374467Y-12517793D02*
X11393515Y-12508269D01*
X11488753Y-12460650D02*
X11488753Y-12660650D01*
X11488753Y-12470174D02*
X11507801Y-12460650D01*
X11507801Y-12460650D02*
X11545896Y-12460650D01*
X11545896Y-12460650D02*
X11564943Y-12470174D01*
X11564943Y-12470174D02*
X11574467Y-12479698D01*
X11574467Y-12479698D02*
X11583991Y-12498746D01*
X11583991Y-12498746D02*
X11583991Y-12555888D01*
X11583991Y-12555888D02*
X11574467Y-12574936D01*
X11574467Y-12574936D02*
X11564943Y-12584460D01*
X11564943Y-12584460D02*
X11545896Y-12593984D01*
X11545896Y-12593984D02*
X11507801Y-12593984D01*
X11507801Y-12593984D02*
X11488753Y-12584460D01*
X11669705Y-12574936D02*
X11679229Y-12584460D01*
X11679229Y-12584460D02*
X11669705Y-12593984D01*
X11669705Y-12593984D02*
X11660182Y-12584460D01*
X11660182Y-12584460D02*
X11669705Y-12574936D01*
X11669705Y-12574936D02*
X11669705Y-12593984D01*
X11669705Y-12470174D02*
X11679229Y-12479698D01*
X11679229Y-12479698D02*
X11669705Y-12489222D01*
X11669705Y-12489222D02*
X11660182Y-12479698D01*
X11660182Y-12479698D02*
X11669705Y-12470174D01*
X11669705Y-12470174D02*
X11669705Y-12489222D01*
D12*
X10017500Y-12912500D02*
X10037500Y-12932500D01*
X10037500Y-12912500D02*
X10017500Y-12932500D01*
D11*
X10336372Y-12813984D02*
X10355420Y-12813984D01*
X10355420Y-12813984D02*
X10374467Y-12823508D01*
X10374467Y-12823508D02*
X10383991Y-12833031D01*
X10383991Y-12833031D02*
X10393515Y-12852079D01*
X10393515Y-12852079D02*
X10403039Y-12890174D01*
X10403039Y-12890174D02*
X10403039Y-12937793D01*
X10403039Y-12937793D02*
X10393515Y-12975888D01*
X10393515Y-12975888D02*
X10383991Y-12994936D01*
X10383991Y-12994936D02*
X10374467Y-13004460D01*
X10374467Y-13004460D02*
X10355420Y-13013984D01*
X10355420Y-13013984D02*
X10336372Y-13013984D01*
X10336372Y-13013984D02*
X10317324Y-13004460D01*
X10317324Y-13004460D02*
X10307801Y-12994936D01*
X10307801Y-12994936D02*
X10298277Y-12975888D01*
X10298277Y-12975888D02*
X10288753Y-12937793D01*
X10288753Y-12937793D02*
X10288753Y-12890174D01*
X10288753Y-12890174D02*
X10298277Y-12852079D01*
X10298277Y-12852079D02*
X10307801Y-12833031D01*
X10307801Y-12833031D02*
X10317324Y-12823508D01*
X10317324Y-12823508D02*
X10336372Y-12813984D01*
X10488753Y-12994936D02*
X10498277Y-13004460D01*
X10498277Y-13004460D02*
X10488753Y-13013984D01*
X10488753Y-13013984D02*
X10479229Y-13004460D01*
X10479229Y-13004460D02*
X10488753Y-12994936D01*
X10488753Y-12994936D02*
X10488753Y-13013984D01*
X10574467Y-12833031D02*
X10583991Y-12823508D01*
X10583991Y-12823508D02*
X10603039Y-12813984D01*
X10603039Y-12813984D02*
X10650658Y-12813984D01*
X10650658Y-12813984D02*
X10669705Y-12823508D01*
X10669705Y-12823508D02*
X10679229Y-12833031D01*
X10679229Y-12833031D02*
X10688753Y-12852079D01*
X10688753Y-12852079D02*
X10688753Y-12871127D01*
X10688753Y-12871127D02*
X10679229Y-12899698D01*
X10679229Y-12899698D02*
X10564944Y-13013984D01*
X10564944Y-13013984D02*
X10688753Y-13013984D01*
X10812563Y-12813984D02*
X10831610Y-12813984D01*
X10831610Y-12813984D02*
X10850658Y-12823508D01*
X10850658Y-12823508D02*
X10860182Y-12833031D01*
X10860182Y-12833031D02*
X10869705Y-12852079D01*
X10869705Y-12852079D02*
X10879229Y-12890174D01*
X10879229Y-12890174D02*
X10879229Y-12937793D01*
X10879229Y-12937793D02*
X10869705Y-12975888D01*
X10869705Y-12975888D02*
X10860182Y-12994936D01*
X10860182Y-12994936D02*
X10850658Y-13004460D01*
X10850658Y-13004460D02*
X10831610Y-13013984D01*
X10831610Y-13013984D02*
X10812563Y-13013984D01*
X10812563Y-13013984D02*
X10793515Y-13004460D01*
X10793515Y-13004460D02*
X10783991Y-12994936D01*
X10783991Y-12994936D02*
X10774467Y-12975888D01*
X10774467Y-12975888D02*
X10764944Y-12937793D01*
X10764944Y-12937793D02*
X10764944Y-12890174D01*
X10764944Y-12890174D02*
X10774467Y-12852079D01*
X10774467Y-12852079D02*
X10783991Y-12833031D01*
X10783991Y-12833031D02*
X10793515Y-12823508D01*
X10793515Y-12823508D02*
X10812563Y-12813984D01*
X11003039Y-12813984D02*
X11022086Y-12813984D01*
X11022086Y-12813984D02*
X11041134Y-12823508D01*
X11041134Y-12823508D02*
X11050658Y-12833031D01*
X11050658Y-12833031D02*
X11060182Y-12852079D01*
X11060182Y-12852079D02*
X11069705Y-12890174D01*
X11069705Y-12890174D02*
X11069705Y-12937793D01*
X11069705Y-12937793D02*
X11060182Y-12975888D01*
X11060182Y-12975888D02*
X11050658Y-12994936D01*
X11050658Y-12994936D02*
X11041134Y-13004460D01*
X11041134Y-13004460D02*
X11022086Y-13013984D01*
X11022086Y-13013984D02*
X11003039Y-13013984D01*
X11003039Y-13013984D02*
X10983991Y-13004460D01*
X10983991Y-13004460D02*
X10974467Y-12994936D01*
X10974467Y-12994936D02*
X10964944Y-12975888D01*
X10964944Y-12975888D02*
X10955420Y-12937793D01*
X10955420Y-12937793D02*
X10955420Y-12890174D01*
X10955420Y-12890174D02*
X10964944Y-12852079D01*
X10964944Y-12852079D02*
X10974467Y-12833031D01*
X10974467Y-12833031D02*
X10983991Y-12823508D01*
X10983991Y-12823508D02*
X11003039Y-12813984D01*
X11155420Y-13013984D02*
X11155420Y-12880650D01*
X11155420Y-12899698D02*
X11164944Y-12890174D01*
X11164944Y-12890174D02*
X11183991Y-12880650D01*
X11183991Y-12880650D02*
X11212563Y-12880650D01*
X11212563Y-12880650D02*
X11231610Y-12890174D01*
X11231610Y-12890174D02*
X11241134Y-12909222D01*
X11241134Y-12909222D02*
X11241134Y-13013984D01*
X11241134Y-12909222D02*
X11250658Y-12890174D01*
X11250658Y-12890174D02*
X11269705Y-12880650D01*
X11269705Y-12880650D02*
X11298277Y-12880650D01*
X11298277Y-12880650D02*
X11317324Y-12890174D01*
X11317324Y-12890174D02*
X11326848Y-12909222D01*
X11326848Y-12909222D02*
X11326848Y-13013984D01*
X11422086Y-13013984D02*
X11422086Y-12880650D01*
X11422086Y-12899698D02*
X11431610Y-12890174D01*
X11431610Y-12890174D02*
X11450658Y-12880650D01*
X11450658Y-12880650D02*
X11479229Y-12880650D01*
X11479229Y-12880650D02*
X11498277Y-12890174D01*
X11498277Y-12890174D02*
X11507801Y-12909222D01*
X11507801Y-12909222D02*
X11507801Y-13013984D01*
X11507801Y-12909222D02*
X11517324Y-12890174D01*
X11517324Y-12890174D02*
X11536372Y-12880650D01*
X11536372Y-12880650D02*
X11564943Y-12880650D01*
X11564943Y-12880650D02*
X11583991Y-12890174D01*
X11583991Y-12890174D02*
X11593515Y-12909222D01*
X11593515Y-12909222D02*
X11593515Y-13013984D01*
X11983991Y-12804460D02*
X11812563Y-13061603D01*
X12241134Y-12813984D02*
X12260182Y-12813984D01*
X12260182Y-12813984D02*
X12279229Y-12823508D01*
X12279229Y-12823508D02*
X12288753Y-12833031D01*
X12288753Y-12833031D02*
X12298277Y-12852079D01*
X12298277Y-12852079D02*
X12307801Y-12890174D01*
X12307801Y-12890174D02*
X12307801Y-12937793D01*
X12307801Y-12937793D02*
X12298277Y-12975888D01*
X12298277Y-12975888D02*
X12288753Y-12994936D01*
X12288753Y-12994936D02*
X12279229Y-13004460D01*
X12279229Y-13004460D02*
X12260182Y-13013984D01*
X12260182Y-13013984D02*
X12241134Y-13013984D01*
X12241134Y-13013984D02*
X12222086Y-13004460D01*
X12222086Y-13004460D02*
X12212563Y-12994936D01*
X12212563Y-12994936D02*
X12203039Y-12975888D01*
X12203039Y-12975888D02*
X12193515Y-12937793D01*
X12193515Y-12937793D02*
X12193515Y-12890174D01*
X12193515Y-12890174D02*
X12203039Y-12852079D01*
X12203039Y-12852079D02*
X12212563Y-12833031D01*
X12212563Y-12833031D02*
X12222086Y-12823508D01*
X12222086Y-12823508D02*
X12241134Y-12813984D01*
X12393515Y-12994936D02*
X12403039Y-13004460D01*
X12403039Y-13004460D02*
X12393515Y-13013984D01*
X12393515Y-13013984D02*
X12383991Y-13004460D01*
X12383991Y-13004460D02*
X12393515Y-12994936D01*
X12393515Y-12994936D02*
X12393515Y-13013984D01*
X12526848Y-12813984D02*
X12545896Y-12813984D01*
X12545896Y-12813984D02*
X12564944Y-12823508D01*
X12564944Y-12823508D02*
X12574467Y-12833031D01*
X12574467Y-12833031D02*
X12583991Y-12852079D01*
X12583991Y-12852079D02*
X12593515Y-12890174D01*
X12593515Y-12890174D02*
X12593515Y-12937793D01*
X12593515Y-12937793D02*
X12583991Y-12975888D01*
X12583991Y-12975888D02*
X12574467Y-12994936D01*
X12574467Y-12994936D02*
X12564944Y-13004460D01*
X12564944Y-13004460D02*
X12545896Y-13013984D01*
X12545896Y-13013984D02*
X12526848Y-13013984D01*
X12526848Y-13013984D02*
X12507801Y-13004460D01*
X12507801Y-13004460D02*
X12498277Y-12994936D01*
X12498277Y-12994936D02*
X12488753Y-12975888D01*
X12488753Y-12975888D02*
X12479229Y-12937793D01*
X12479229Y-12937793D02*
X12479229Y-12890174D01*
X12479229Y-12890174D02*
X12488753Y-12852079D01*
X12488753Y-12852079D02*
X12498277Y-12833031D01*
X12498277Y-12833031D02*
X12507801Y-12823508D01*
X12507801Y-12823508D02*
X12526848Y-12813984D01*
X12717325Y-12813984D02*
X12736372Y-12813984D01*
X12736372Y-12813984D02*
X12755420Y-12823508D01*
X12755420Y-12823508D02*
X12764944Y-12833031D01*
X12764944Y-12833031D02*
X12774467Y-12852079D01*
X12774467Y-12852079D02*
X12783991Y-12890174D01*
X12783991Y-12890174D02*
X12783991Y-12937793D01*
X12783991Y-12937793D02*
X12774467Y-12975888D01*
X12774467Y-12975888D02*
X12764944Y-12994936D01*
X12764944Y-12994936D02*
X12755420Y-13004460D01*
X12755420Y-13004460D02*
X12736372Y-13013984D01*
X12736372Y-13013984D02*
X12717325Y-13013984D01*
X12717325Y-13013984D02*
X12698277Y-13004460D01*
X12698277Y-13004460D02*
X12688753Y-12994936D01*
X12688753Y-12994936D02*
X12679229Y-12975888D01*
X12679229Y-12975888D02*
X12669706Y-12937793D01*
X12669706Y-12937793D02*
X12669706Y-12890174D01*
X12669706Y-12890174D02*
X12679229Y-12852079D01*
X12679229Y-12852079D02*
X12688753Y-12833031D01*
X12688753Y-12833031D02*
X12698277Y-12823508D01*
X12698277Y-12823508D02*
X12717325Y-12813984D01*
X12850658Y-12813984D02*
X12983991Y-12813984D01*
X12983991Y-12813984D02*
X12898277Y-13013984D01*
X13069706Y-13013984D02*
X13107801Y-13013984D01*
X13107801Y-13013984D02*
X13126848Y-13004460D01*
X13126848Y-13004460D02*
X13136372Y-12994936D01*
X13136372Y-12994936D02*
X13155420Y-12966365D01*
X13155420Y-12966365D02*
X13164944Y-12928269D01*
X13164944Y-12928269D02*
X13164944Y-12852079D01*
X13164944Y-12852079D02*
X13155420Y-12833031D01*
X13155420Y-12833031D02*
X13145896Y-12823508D01*
X13145896Y-12823508D02*
X13126848Y-12813984D01*
X13126848Y-12813984D02*
X13088753Y-12813984D01*
X13088753Y-12813984D02*
X13069706Y-12823508D01*
X13069706Y-12823508D02*
X13060182Y-12833031D01*
X13060182Y-12833031D02*
X13050658Y-12852079D01*
X13050658Y-12852079D02*
X13050658Y-12899698D01*
X13050658Y-12899698D02*
X13060182Y-12918746D01*
X13060182Y-12918746D02*
X13069706Y-12928269D01*
X13069706Y-12928269D02*
X13088753Y-12937793D01*
X13088753Y-12937793D02*
X13126848Y-12937793D01*
X13126848Y-12937793D02*
X13145896Y-12928269D01*
X13145896Y-12928269D02*
X13155420Y-12918746D01*
X13155420Y-12918746D02*
X13164944Y-12899698D01*
X13241134Y-12813984D02*
X13241134Y-12852079D01*
X13317325Y-12813984D02*
X13317325Y-12852079D01*
X13612563Y-13090174D02*
X13603039Y-13080650D01*
X13603039Y-13080650D02*
X13583991Y-13052079D01*
X13583991Y-13052079D02*
X13574468Y-13033031D01*
X13574468Y-13033031D02*
X13564944Y-13004460D01*
X13564944Y-13004460D02*
X13555420Y-12956841D01*
X13555420Y-12956841D02*
X13555420Y-12918746D01*
X13555420Y-12918746D02*
X13564944Y-12871127D01*
X13564944Y-12871127D02*
X13574468Y-12842555D01*
X13574468Y-12842555D02*
X13583991Y-12823508D01*
X13583991Y-12823508D02*
X13603039Y-12794936D01*
X13603039Y-12794936D02*
X13612563Y-12785412D01*
X13783991Y-12813984D02*
X13688753Y-12813984D01*
X13688753Y-12813984D02*
X13679229Y-12909222D01*
X13679229Y-12909222D02*
X13688753Y-12899698D01*
X13688753Y-12899698D02*
X13707801Y-12890174D01*
X13707801Y-12890174D02*
X13755420Y-12890174D01*
X13755420Y-12890174D02*
X13774468Y-12899698D01*
X13774468Y-12899698D02*
X13783991Y-12909222D01*
X13783991Y-12909222D02*
X13793515Y-12928269D01*
X13793515Y-12928269D02*
X13793515Y-12975888D01*
X13793515Y-12975888D02*
X13783991Y-12994936D01*
X13783991Y-12994936D02*
X13774468Y-13004460D01*
X13774468Y-13004460D02*
X13755420Y-13013984D01*
X13755420Y-13013984D02*
X13707801Y-13013984D01*
X13707801Y-13013984D02*
X13688753Y-13004460D01*
X13688753Y-13004460D02*
X13679229Y-12994936D01*
X14031610Y-13013984D02*
X14031610Y-12813984D01*
X14117325Y-13013984D02*
X14117325Y-12909222D01*
X14117325Y-12909222D02*
X14107801Y-12890174D01*
X14107801Y-12890174D02*
X14088753Y-12880650D01*
X14088753Y-12880650D02*
X14060182Y-12880650D01*
X14060182Y-12880650D02*
X14041134Y-12890174D01*
X14041134Y-12890174D02*
X14031610Y-12899698D01*
X14241134Y-13013984D02*
X14222087Y-13004460D01*
X14222087Y-13004460D02*
X14212563Y-12994936D01*
X14212563Y-12994936D02*
X14203039Y-12975888D01*
X14203039Y-12975888D02*
X14203039Y-12918746D01*
X14203039Y-12918746D02*
X14212563Y-12899698D01*
X14212563Y-12899698D02*
X14222087Y-12890174D01*
X14222087Y-12890174D02*
X14241134Y-12880650D01*
X14241134Y-12880650D02*
X14269706Y-12880650D01*
X14269706Y-12880650D02*
X14288753Y-12890174D01*
X14288753Y-12890174D02*
X14298277Y-12899698D01*
X14298277Y-12899698D02*
X14307801Y-12918746D01*
X14307801Y-12918746D02*
X14307801Y-12975888D01*
X14307801Y-12975888D02*
X14298277Y-12994936D01*
X14298277Y-12994936D02*
X14288753Y-13004460D01*
X14288753Y-13004460D02*
X14269706Y-13013984D01*
X14269706Y-13013984D02*
X14241134Y-13013984D01*
X14422087Y-13013984D02*
X14403039Y-13004460D01*
X14403039Y-13004460D02*
X14393515Y-12985412D01*
X14393515Y-12985412D02*
X14393515Y-12813984D01*
X14574468Y-13004460D02*
X14555420Y-13013984D01*
X14555420Y-13013984D02*
X14517325Y-13013984D01*
X14517325Y-13013984D02*
X14498277Y-13004460D01*
X14498277Y-13004460D02*
X14488753Y-12985412D01*
X14488753Y-12985412D02*
X14488753Y-12909222D01*
X14488753Y-12909222D02*
X14498277Y-12890174D01*
X14498277Y-12890174D02*
X14517325Y-12880650D01*
X14517325Y-12880650D02*
X14555420Y-12880650D01*
X14555420Y-12880650D02*
X14574468Y-12890174D01*
X14574468Y-12890174D02*
X14583991Y-12909222D01*
X14583991Y-12909222D02*
X14583991Y-12928269D01*
X14583991Y-12928269D02*
X14488753Y-12947317D01*
X14660182Y-13004460D02*
X14679230Y-13013984D01*
X14679230Y-13013984D02*
X14717325Y-13013984D01*
X14717325Y-13013984D02*
X14736372Y-13004460D01*
X14736372Y-13004460D02*
X14745896Y-12985412D01*
X14745896Y-12985412D02*
X14745896Y-12975888D01*
X14745896Y-12975888D02*
X14736372Y-12956841D01*
X14736372Y-12956841D02*
X14717325Y-12947317D01*
X14717325Y-12947317D02*
X14688753Y-12947317D01*
X14688753Y-12947317D02*
X14669706Y-12937793D01*
X14669706Y-12937793D02*
X14660182Y-12918746D01*
X14660182Y-12918746D02*
X14660182Y-12909222D01*
X14660182Y-12909222D02*
X14669706Y-12890174D01*
X14669706Y-12890174D02*
X14688753Y-12880650D01*
X14688753Y-12880650D02*
X14717325Y-12880650D01*
X14717325Y-12880650D02*
X14736372Y-12890174D01*
X14812563Y-13090174D02*
X14822087Y-13080650D01*
X14822087Y-13080650D02*
X14841134Y-13052079D01*
X14841134Y-13052079D02*
X14850658Y-13033031D01*
X14850658Y-13033031D02*
X14860182Y-13004460D01*
X14860182Y-13004460D02*
X14869706Y-12956841D01*
X14869706Y-12956841D02*
X14869706Y-12918746D01*
X14869706Y-12918746D02*
X14860182Y-12871127D01*
X14860182Y-12871127D02*
X14850658Y-12842555D01*
X14850658Y-12842555D02*
X14841134Y-12823508D01*
X14841134Y-12823508D02*
X14822087Y-12794936D01*
X14822087Y-12794936D02*
X14812563Y-12785412D01*
D12*
X10037500Y-13186500D02*
G75*
G02*
X10012500Y-13186500I-12500J0D01*
G01*
X10012500Y-13186500D02*
G75*
G02*
X10037500Y-13186500I12500J0D01*
G01*
D11*
X10336372Y-13077984D02*
X10355420Y-13077984D01*
X10355420Y-13077984D02*
X10374467Y-13087508D01*
X10374467Y-13087508D02*
X10383991Y-13097031D01*
X10383991Y-13097031D02*
X10393515Y-13116079D01*
X10393515Y-13116079D02*
X10403039Y-13154174D01*
X10403039Y-13154174D02*
X10403039Y-13201793D01*
X10403039Y-13201793D02*
X10393515Y-13239888D01*
X10393515Y-13239888D02*
X10383991Y-13258936D01*
X10383991Y-13258936D02*
X10374467Y-13268460D01*
X10374467Y-13268460D02*
X10355420Y-13277984D01*
X10355420Y-13277984D02*
X10336372Y-13277984D01*
X10336372Y-13277984D02*
X10317324Y-13268460D01*
X10317324Y-13268460D02*
X10307801Y-13258936D01*
X10307801Y-13258936D02*
X10298277Y-13239888D01*
X10298277Y-13239888D02*
X10288753Y-13201793D01*
X10288753Y-13201793D02*
X10288753Y-13154174D01*
X10288753Y-13154174D02*
X10298277Y-13116079D01*
X10298277Y-13116079D02*
X10307801Y-13097031D01*
X10307801Y-13097031D02*
X10317324Y-13087508D01*
X10317324Y-13087508D02*
X10336372Y-13077984D01*
X10488753Y-13258936D02*
X10498277Y-13268460D01*
X10498277Y-13268460D02*
X10488753Y-13277984D01*
X10488753Y-13277984D02*
X10479229Y-13268460D01*
X10479229Y-13268460D02*
X10488753Y-13258936D01*
X10488753Y-13258936D02*
X10488753Y-13277984D01*
X10574467Y-13097031D02*
X10583991Y-13087508D01*
X10583991Y-13087508D02*
X10603039Y-13077984D01*
X10603039Y-13077984D02*
X10650658Y-13077984D01*
X10650658Y-13077984D02*
X10669705Y-13087508D01*
X10669705Y-13087508D02*
X10679229Y-13097031D01*
X10679229Y-13097031D02*
X10688753Y-13116079D01*
X10688753Y-13116079D02*
X10688753Y-13135127D01*
X10688753Y-13135127D02*
X10679229Y-13163698D01*
X10679229Y-13163698D02*
X10564944Y-13277984D01*
X10564944Y-13277984D02*
X10688753Y-13277984D01*
X10869705Y-13077984D02*
X10774467Y-13077984D01*
X10774467Y-13077984D02*
X10764944Y-13173222D01*
X10764944Y-13173222D02*
X10774467Y-13163698D01*
X10774467Y-13163698D02*
X10793515Y-13154174D01*
X10793515Y-13154174D02*
X10841134Y-13154174D01*
X10841134Y-13154174D02*
X10860182Y-13163698D01*
X10860182Y-13163698D02*
X10869705Y-13173222D01*
X10869705Y-13173222D02*
X10879229Y-13192269D01*
X10879229Y-13192269D02*
X10879229Y-13239888D01*
X10879229Y-13239888D02*
X10869705Y-13258936D01*
X10869705Y-13258936D02*
X10860182Y-13268460D01*
X10860182Y-13268460D02*
X10841134Y-13277984D01*
X10841134Y-13277984D02*
X10793515Y-13277984D01*
X10793515Y-13277984D02*
X10774467Y-13268460D01*
X10774467Y-13268460D02*
X10764944Y-13258936D01*
X11003039Y-13077984D02*
X11022086Y-13077984D01*
X11022086Y-13077984D02*
X11041134Y-13087508D01*
X11041134Y-13087508D02*
X11050658Y-13097031D01*
X11050658Y-13097031D02*
X11060182Y-13116079D01*
X11060182Y-13116079D02*
X11069705Y-13154174D01*
X11069705Y-13154174D02*
X11069705Y-13201793D01*
X11069705Y-13201793D02*
X11060182Y-13239888D01*
X11060182Y-13239888D02*
X11050658Y-13258936D01*
X11050658Y-13258936D02*
X11041134Y-13268460D01*
X11041134Y-13268460D02*
X11022086Y-13277984D01*
X11022086Y-13277984D02*
X11003039Y-13277984D01*
X11003039Y-13277984D02*
X10983991Y-13268460D01*
X10983991Y-13268460D02*
X10974467Y-13258936D01*
X10974467Y-13258936D02*
X10964944Y-13239888D01*
X10964944Y-13239888D02*
X10955420Y-13201793D01*
X10955420Y-13201793D02*
X10955420Y-13154174D01*
X10955420Y-13154174D02*
X10964944Y-13116079D01*
X10964944Y-13116079D02*
X10974467Y-13097031D01*
X10974467Y-13097031D02*
X10983991Y-13087508D01*
X10983991Y-13087508D02*
X11003039Y-13077984D01*
X11155420Y-13277984D02*
X11155420Y-13144650D01*
X11155420Y-13163698D02*
X11164944Y-13154174D01*
X11164944Y-13154174D02*
X11183991Y-13144650D01*
X11183991Y-13144650D02*
X11212563Y-13144650D01*
X11212563Y-13144650D02*
X11231610Y-13154174D01*
X11231610Y-13154174D02*
X11241134Y-13173222D01*
X11241134Y-13173222D02*
X11241134Y-13277984D01*
X11241134Y-13173222D02*
X11250658Y-13154174D01*
X11250658Y-13154174D02*
X11269705Y-13144650D01*
X11269705Y-13144650D02*
X11298277Y-13144650D01*
X11298277Y-13144650D02*
X11317324Y-13154174D01*
X11317324Y-13154174D02*
X11326848Y-13173222D01*
X11326848Y-13173222D02*
X11326848Y-13277984D01*
X11422086Y-13277984D02*
X11422086Y-13144650D01*
X11422086Y-13163698D02*
X11431610Y-13154174D01*
X11431610Y-13154174D02*
X11450658Y-13144650D01*
X11450658Y-13144650D02*
X11479229Y-13144650D01*
X11479229Y-13144650D02*
X11498277Y-13154174D01*
X11498277Y-13154174D02*
X11507801Y-13173222D01*
X11507801Y-13173222D02*
X11507801Y-13277984D01*
X11507801Y-13173222D02*
X11517324Y-13154174D01*
X11517324Y-13154174D02*
X11536372Y-13144650D01*
X11536372Y-13144650D02*
X11564943Y-13144650D01*
X11564943Y-13144650D02*
X11583991Y-13154174D01*
X11583991Y-13154174D02*
X11593515Y-13173222D01*
X11593515Y-13173222D02*
X11593515Y-13277984D01*
X11983991Y-13068460D02*
X11812563Y-13325603D01*
X12241134Y-13077984D02*
X12260182Y-13077984D01*
X12260182Y-13077984D02*
X12279229Y-13087508D01*
X12279229Y-13087508D02*
X12288753Y-13097031D01*
X12288753Y-13097031D02*
X12298277Y-13116079D01*
X12298277Y-13116079D02*
X12307801Y-13154174D01*
X12307801Y-13154174D02*
X12307801Y-13201793D01*
X12307801Y-13201793D02*
X12298277Y-13239888D01*
X12298277Y-13239888D02*
X12288753Y-13258936D01*
X12288753Y-13258936D02*
X12279229Y-13268460D01*
X12279229Y-13268460D02*
X12260182Y-13277984D01*
X12260182Y-13277984D02*
X12241134Y-13277984D01*
X12241134Y-13277984D02*
X12222086Y-13268460D01*
X12222086Y-13268460D02*
X12212563Y-13258936D01*
X12212563Y-13258936D02*
X12203039Y-13239888D01*
X12203039Y-13239888D02*
X12193515Y-13201793D01*
X12193515Y-13201793D02*
X12193515Y-13154174D01*
X12193515Y-13154174D02*
X12203039Y-13116079D01*
X12203039Y-13116079D02*
X12212563Y-13097031D01*
X12212563Y-13097031D02*
X12222086Y-13087508D01*
X12222086Y-13087508D02*
X12241134Y-13077984D01*
X12393515Y-13258936D02*
X12403039Y-13268460D01*
X12403039Y-13268460D02*
X12393515Y-13277984D01*
X12393515Y-13277984D02*
X12383991Y-13268460D01*
X12383991Y-13268460D02*
X12393515Y-13258936D01*
X12393515Y-13258936D02*
X12393515Y-13277984D01*
X12526848Y-13077984D02*
X12545896Y-13077984D01*
X12545896Y-13077984D02*
X12564944Y-13087508D01*
X12564944Y-13087508D02*
X12574467Y-13097031D01*
X12574467Y-13097031D02*
X12583991Y-13116079D01*
X12583991Y-13116079D02*
X12593515Y-13154174D01*
X12593515Y-13154174D02*
X12593515Y-13201793D01*
X12593515Y-13201793D02*
X12583991Y-13239888D01*
X12583991Y-13239888D02*
X12574467Y-13258936D01*
X12574467Y-13258936D02*
X12564944Y-13268460D01*
X12564944Y-13268460D02*
X12545896Y-13277984D01*
X12545896Y-13277984D02*
X12526848Y-13277984D01*
X12526848Y-13277984D02*
X12507801Y-13268460D01*
X12507801Y-13268460D02*
X12498277Y-13258936D01*
X12498277Y-13258936D02*
X12488753Y-13239888D01*
X12488753Y-13239888D02*
X12479229Y-13201793D01*
X12479229Y-13201793D02*
X12479229Y-13154174D01*
X12479229Y-13154174D02*
X12488753Y-13116079D01*
X12488753Y-13116079D02*
X12498277Y-13097031D01*
X12498277Y-13097031D02*
X12507801Y-13087508D01*
X12507801Y-13087508D02*
X12526848Y-13077984D01*
X12717325Y-13077984D02*
X12736372Y-13077984D01*
X12736372Y-13077984D02*
X12755420Y-13087508D01*
X12755420Y-13087508D02*
X12764944Y-13097031D01*
X12764944Y-13097031D02*
X12774467Y-13116079D01*
X12774467Y-13116079D02*
X12783991Y-13154174D01*
X12783991Y-13154174D02*
X12783991Y-13201793D01*
X12783991Y-13201793D02*
X12774467Y-13239888D01*
X12774467Y-13239888D02*
X12764944Y-13258936D01*
X12764944Y-13258936D02*
X12755420Y-13268460D01*
X12755420Y-13268460D02*
X12736372Y-13277984D01*
X12736372Y-13277984D02*
X12717325Y-13277984D01*
X12717325Y-13277984D02*
X12698277Y-13268460D01*
X12698277Y-13268460D02*
X12688753Y-13258936D01*
X12688753Y-13258936D02*
X12679229Y-13239888D01*
X12679229Y-13239888D02*
X12669706Y-13201793D01*
X12669706Y-13201793D02*
X12669706Y-13154174D01*
X12669706Y-13154174D02*
X12679229Y-13116079D01*
X12679229Y-13116079D02*
X12688753Y-13097031D01*
X12688753Y-13097031D02*
X12698277Y-13087508D01*
X12698277Y-13087508D02*
X12717325Y-13077984D01*
X12879229Y-13277984D02*
X12917325Y-13277984D01*
X12917325Y-13277984D02*
X12936372Y-13268460D01*
X12936372Y-13268460D02*
X12945896Y-13258936D01*
X12945896Y-13258936D02*
X12964944Y-13230365D01*
X12964944Y-13230365D02*
X12974467Y-13192269D01*
X12974467Y-13192269D02*
X12974467Y-13116079D01*
X12974467Y-13116079D02*
X12964944Y-13097031D01*
X12964944Y-13097031D02*
X12955420Y-13087508D01*
X12955420Y-13087508D02*
X12936372Y-13077984D01*
X12936372Y-13077984D02*
X12898277Y-13077984D01*
X12898277Y-13077984D02*
X12879229Y-13087508D01*
X12879229Y-13087508D02*
X12869706Y-13097031D01*
X12869706Y-13097031D02*
X12860182Y-13116079D01*
X12860182Y-13116079D02*
X12860182Y-13163698D01*
X12860182Y-13163698D02*
X12869706Y-13182746D01*
X12869706Y-13182746D02*
X12879229Y-13192269D01*
X12879229Y-13192269D02*
X12898277Y-13201793D01*
X12898277Y-13201793D02*
X12936372Y-13201793D01*
X12936372Y-13201793D02*
X12955420Y-13192269D01*
X12955420Y-13192269D02*
X12964944Y-13182746D01*
X12964944Y-13182746D02*
X12974467Y-13163698D01*
X13088753Y-13163698D02*
X13069706Y-13154174D01*
X13069706Y-13154174D02*
X13060182Y-13144650D01*
X13060182Y-13144650D02*
X13050658Y-13125603D01*
X13050658Y-13125603D02*
X13050658Y-13116079D01*
X13050658Y-13116079D02*
X13060182Y-13097031D01*
X13060182Y-13097031D02*
X13069706Y-13087508D01*
X13069706Y-13087508D02*
X13088753Y-13077984D01*
X13088753Y-13077984D02*
X13126848Y-13077984D01*
X13126848Y-13077984D02*
X13145896Y-13087508D01*
X13145896Y-13087508D02*
X13155420Y-13097031D01*
X13155420Y-13097031D02*
X13164944Y-13116079D01*
X13164944Y-13116079D02*
X13164944Y-13125603D01*
X13164944Y-13125603D02*
X13155420Y-13144650D01*
X13155420Y-13144650D02*
X13145896Y-13154174D01*
X13145896Y-13154174D02*
X13126848Y-13163698D01*
X13126848Y-13163698D02*
X13088753Y-13163698D01*
X13088753Y-13163698D02*
X13069706Y-13173222D01*
X13069706Y-13173222D02*
X13060182Y-13182746D01*
X13060182Y-13182746D02*
X13050658Y-13201793D01*
X13050658Y-13201793D02*
X13050658Y-13239888D01*
X13050658Y-13239888D02*
X13060182Y-13258936D01*
X13060182Y-13258936D02*
X13069706Y-13268460D01*
X13069706Y-13268460D02*
X13088753Y-13277984D01*
X13088753Y-13277984D02*
X13126848Y-13277984D01*
X13126848Y-13277984D02*
X13145896Y-13268460D01*
X13145896Y-13268460D02*
X13155420Y-13258936D01*
X13155420Y-13258936D02*
X13164944Y-13239888D01*
X13164944Y-13239888D02*
X13164944Y-13201793D01*
X13164944Y-13201793D02*
X13155420Y-13182746D01*
X13155420Y-13182746D02*
X13145896Y-13173222D01*
X13145896Y-13173222D02*
X13126848Y-13163698D01*
X13241134Y-13077984D02*
X13241134Y-13116079D01*
X13317325Y-13077984D02*
X13317325Y-13116079D01*
X13612563Y-13354174D02*
X13603039Y-13344650D01*
X13603039Y-13344650D02*
X13583991Y-13316079D01*
X13583991Y-13316079D02*
X13574468Y-13297031D01*
X13574468Y-13297031D02*
X13564944Y-13268460D01*
X13564944Y-13268460D02*
X13555420Y-13220841D01*
X13555420Y-13220841D02*
X13555420Y-13182746D01*
X13555420Y-13182746D02*
X13564944Y-13135127D01*
X13564944Y-13135127D02*
X13574468Y-13106555D01*
X13574468Y-13106555D02*
X13583991Y-13087508D01*
X13583991Y-13087508D02*
X13603039Y-13058936D01*
X13603039Y-13058936D02*
X13612563Y-13049412D01*
X13774468Y-13077984D02*
X13736372Y-13077984D01*
X13736372Y-13077984D02*
X13717325Y-13087508D01*
X13717325Y-13087508D02*
X13707801Y-13097031D01*
X13707801Y-13097031D02*
X13688753Y-13125603D01*
X13688753Y-13125603D02*
X13679229Y-13163698D01*
X13679229Y-13163698D02*
X13679229Y-13239888D01*
X13679229Y-13239888D02*
X13688753Y-13258936D01*
X13688753Y-13258936D02*
X13698277Y-13268460D01*
X13698277Y-13268460D02*
X13717325Y-13277984D01*
X13717325Y-13277984D02*
X13755420Y-13277984D01*
X13755420Y-13277984D02*
X13774468Y-13268460D01*
X13774468Y-13268460D02*
X13783991Y-13258936D01*
X13783991Y-13258936D02*
X13793515Y-13239888D01*
X13793515Y-13239888D02*
X13793515Y-13192269D01*
X13793515Y-13192269D02*
X13783991Y-13173222D01*
X13783991Y-13173222D02*
X13774468Y-13163698D01*
X13774468Y-13163698D02*
X13755420Y-13154174D01*
X13755420Y-13154174D02*
X13717325Y-13154174D01*
X13717325Y-13154174D02*
X13698277Y-13163698D01*
X13698277Y-13163698D02*
X13688753Y-13173222D01*
X13688753Y-13173222D02*
X13679229Y-13192269D01*
X14031610Y-13277984D02*
X14031610Y-13077984D01*
X14117325Y-13277984D02*
X14117325Y-13173222D01*
X14117325Y-13173222D02*
X14107801Y-13154174D01*
X14107801Y-13154174D02*
X14088753Y-13144650D01*
X14088753Y-13144650D02*
X14060182Y-13144650D01*
X14060182Y-13144650D02*
X14041134Y-13154174D01*
X14041134Y-13154174D02*
X14031610Y-13163698D01*
X14241134Y-13277984D02*
X14222087Y-13268460D01*
X14222087Y-13268460D02*
X14212563Y-13258936D01*
X14212563Y-13258936D02*
X14203039Y-13239888D01*
X14203039Y-13239888D02*
X14203039Y-13182746D01*
X14203039Y-13182746D02*
X14212563Y-13163698D01*
X14212563Y-13163698D02*
X14222087Y-13154174D01*
X14222087Y-13154174D02*
X14241134Y-13144650D01*
X14241134Y-13144650D02*
X14269706Y-13144650D01*
X14269706Y-13144650D02*
X14288753Y-13154174D01*
X14288753Y-13154174D02*
X14298277Y-13163698D01*
X14298277Y-13163698D02*
X14307801Y-13182746D01*
X14307801Y-13182746D02*
X14307801Y-13239888D01*
X14307801Y-13239888D02*
X14298277Y-13258936D01*
X14298277Y-13258936D02*
X14288753Y-13268460D01*
X14288753Y-13268460D02*
X14269706Y-13277984D01*
X14269706Y-13277984D02*
X14241134Y-13277984D01*
X14422087Y-13277984D02*
X14403039Y-13268460D01*
X14403039Y-13268460D02*
X14393515Y-13249412D01*
X14393515Y-13249412D02*
X14393515Y-13077984D01*
X14574468Y-13268460D02*
X14555420Y-13277984D01*
X14555420Y-13277984D02*
X14517325Y-13277984D01*
X14517325Y-13277984D02*
X14498277Y-13268460D01*
X14498277Y-13268460D02*
X14488753Y-13249412D01*
X14488753Y-13249412D02*
X14488753Y-13173222D01*
X14488753Y-13173222D02*
X14498277Y-13154174D01*
X14498277Y-13154174D02*
X14517325Y-13144650D01*
X14517325Y-13144650D02*
X14555420Y-13144650D01*
X14555420Y-13144650D02*
X14574468Y-13154174D01*
X14574468Y-13154174D02*
X14583991Y-13173222D01*
X14583991Y-13173222D02*
X14583991Y-13192269D01*
X14583991Y-13192269D02*
X14488753Y-13211317D01*
X14660182Y-13268460D02*
X14679230Y-13277984D01*
X14679230Y-13277984D02*
X14717325Y-13277984D01*
X14717325Y-13277984D02*
X14736372Y-13268460D01*
X14736372Y-13268460D02*
X14745896Y-13249412D01*
X14745896Y-13249412D02*
X14745896Y-13239888D01*
X14745896Y-13239888D02*
X14736372Y-13220841D01*
X14736372Y-13220841D02*
X14717325Y-13211317D01*
X14717325Y-13211317D02*
X14688753Y-13211317D01*
X14688753Y-13211317D02*
X14669706Y-13201793D01*
X14669706Y-13201793D02*
X14660182Y-13182746D01*
X14660182Y-13182746D02*
X14660182Y-13173222D01*
X14660182Y-13173222D02*
X14669706Y-13154174D01*
X14669706Y-13154174D02*
X14688753Y-13144650D01*
X14688753Y-13144650D02*
X14717325Y-13144650D01*
X14717325Y-13144650D02*
X14736372Y-13154174D01*
X14812563Y-13354174D02*
X14822087Y-13344650D01*
X14822087Y-13344650D02*
X14841134Y-13316079D01*
X14841134Y-13316079D02*
X14850658Y-13297031D01*
X14850658Y-13297031D02*
X14860182Y-13268460D01*
X14860182Y-13268460D02*
X14869706Y-13220841D01*
X14869706Y-13220841D02*
X14869706Y-13182746D01*
X14869706Y-13182746D02*
X14860182Y-13135127D01*
X14860182Y-13135127D02*
X14850658Y-13106555D01*
X14850658Y-13106555D02*
X14841134Y-13087508D01*
X14841134Y-13087508D02*
X14822087Y-13058936D01*
X14822087Y-13058936D02*
X14812563Y-13049412D01*
D12*
X10022500Y-13435500D02*
X10022500Y-13465500D01*
X10007500Y-13450500D02*
X10037500Y-13450500D01*
D11*
X10336372Y-13341984D02*
X10355420Y-13341984D01*
X10355420Y-13341984D02*
X10374467Y-13351508D01*
X10374467Y-13351508D02*
X10383991Y-13361031D01*
X10383991Y-13361031D02*
X10393515Y-13380079D01*
X10393515Y-13380079D02*
X10403039Y-13418174D01*
X10403039Y-13418174D02*
X10403039Y-13465793D01*
X10403039Y-13465793D02*
X10393515Y-13503888D01*
X10393515Y-13503888D02*
X10383991Y-13522936D01*
X10383991Y-13522936D02*
X10374467Y-13532460D01*
X10374467Y-13532460D02*
X10355420Y-13541984D01*
X10355420Y-13541984D02*
X10336372Y-13541984D01*
X10336372Y-13541984D02*
X10317324Y-13532460D01*
X10317324Y-13532460D02*
X10307801Y-13522936D01*
X10307801Y-13522936D02*
X10298277Y-13503888D01*
X10298277Y-13503888D02*
X10288753Y-13465793D01*
X10288753Y-13465793D02*
X10288753Y-13418174D01*
X10288753Y-13418174D02*
X10298277Y-13380079D01*
X10298277Y-13380079D02*
X10307801Y-13361031D01*
X10307801Y-13361031D02*
X10317324Y-13351508D01*
X10317324Y-13351508D02*
X10336372Y-13341984D01*
X10488753Y-13522936D02*
X10498277Y-13532460D01*
X10498277Y-13532460D02*
X10488753Y-13541984D01*
X10488753Y-13541984D02*
X10479229Y-13532460D01*
X10479229Y-13532460D02*
X10488753Y-13522936D01*
X10488753Y-13522936D02*
X10488753Y-13541984D01*
X10564944Y-13341984D02*
X10688753Y-13341984D01*
X10688753Y-13341984D02*
X10622086Y-13418174D01*
X10622086Y-13418174D02*
X10650658Y-13418174D01*
X10650658Y-13418174D02*
X10669705Y-13427698D01*
X10669705Y-13427698D02*
X10679229Y-13437222D01*
X10679229Y-13437222D02*
X10688753Y-13456269D01*
X10688753Y-13456269D02*
X10688753Y-13503888D01*
X10688753Y-13503888D02*
X10679229Y-13522936D01*
X10679229Y-13522936D02*
X10669705Y-13532460D01*
X10669705Y-13532460D02*
X10650658Y-13541984D01*
X10650658Y-13541984D02*
X10593515Y-13541984D01*
X10593515Y-13541984D02*
X10574467Y-13532460D01*
X10574467Y-13532460D02*
X10564944Y-13522936D01*
X10812563Y-13341984D02*
X10831610Y-13341984D01*
X10831610Y-13341984D02*
X10850658Y-13351508D01*
X10850658Y-13351508D02*
X10860182Y-13361031D01*
X10860182Y-13361031D02*
X10869705Y-13380079D01*
X10869705Y-13380079D02*
X10879229Y-13418174D01*
X10879229Y-13418174D02*
X10879229Y-13465793D01*
X10879229Y-13465793D02*
X10869705Y-13503888D01*
X10869705Y-13503888D02*
X10860182Y-13522936D01*
X10860182Y-13522936D02*
X10850658Y-13532460D01*
X10850658Y-13532460D02*
X10831610Y-13541984D01*
X10831610Y-13541984D02*
X10812563Y-13541984D01*
X10812563Y-13541984D02*
X10793515Y-13532460D01*
X10793515Y-13532460D02*
X10783991Y-13522936D01*
X10783991Y-13522936D02*
X10774467Y-13503888D01*
X10774467Y-13503888D02*
X10764944Y-13465793D01*
X10764944Y-13465793D02*
X10764944Y-13418174D01*
X10764944Y-13418174D02*
X10774467Y-13380079D01*
X10774467Y-13380079D02*
X10783991Y-13361031D01*
X10783991Y-13361031D02*
X10793515Y-13351508D01*
X10793515Y-13351508D02*
X10812563Y-13341984D01*
X11003039Y-13341984D02*
X11022086Y-13341984D01*
X11022086Y-13341984D02*
X11041134Y-13351508D01*
X11041134Y-13351508D02*
X11050658Y-13361031D01*
X11050658Y-13361031D02*
X11060182Y-13380079D01*
X11060182Y-13380079D02*
X11069705Y-13418174D01*
X11069705Y-13418174D02*
X11069705Y-13465793D01*
X11069705Y-13465793D02*
X11060182Y-13503888D01*
X11060182Y-13503888D02*
X11050658Y-13522936D01*
X11050658Y-13522936D02*
X11041134Y-13532460D01*
X11041134Y-13532460D02*
X11022086Y-13541984D01*
X11022086Y-13541984D02*
X11003039Y-13541984D01*
X11003039Y-13541984D02*
X10983991Y-13532460D01*
X10983991Y-13532460D02*
X10974467Y-13522936D01*
X10974467Y-13522936D02*
X10964944Y-13503888D01*
X10964944Y-13503888D02*
X10955420Y-13465793D01*
X10955420Y-13465793D02*
X10955420Y-13418174D01*
X10955420Y-13418174D02*
X10964944Y-13380079D01*
X10964944Y-13380079D02*
X10974467Y-13361031D01*
X10974467Y-13361031D02*
X10983991Y-13351508D01*
X10983991Y-13351508D02*
X11003039Y-13341984D01*
X11155420Y-13541984D02*
X11155420Y-13408650D01*
X11155420Y-13427698D02*
X11164944Y-13418174D01*
X11164944Y-13418174D02*
X11183991Y-13408650D01*
X11183991Y-13408650D02*
X11212563Y-13408650D01*
X11212563Y-13408650D02*
X11231610Y-13418174D01*
X11231610Y-13418174D02*
X11241134Y-13437222D01*
X11241134Y-13437222D02*
X11241134Y-13541984D01*
X11241134Y-13437222D02*
X11250658Y-13418174D01*
X11250658Y-13418174D02*
X11269705Y-13408650D01*
X11269705Y-13408650D02*
X11298277Y-13408650D01*
X11298277Y-13408650D02*
X11317324Y-13418174D01*
X11317324Y-13418174D02*
X11326848Y-13437222D01*
X11326848Y-13437222D02*
X11326848Y-13541984D01*
X11422086Y-13541984D02*
X11422086Y-13408650D01*
X11422086Y-13427698D02*
X11431610Y-13418174D01*
X11431610Y-13418174D02*
X11450658Y-13408650D01*
X11450658Y-13408650D02*
X11479229Y-13408650D01*
X11479229Y-13408650D02*
X11498277Y-13418174D01*
X11498277Y-13418174D02*
X11507801Y-13437222D01*
X11507801Y-13437222D02*
X11507801Y-13541984D01*
X11507801Y-13437222D02*
X11517324Y-13418174D01*
X11517324Y-13418174D02*
X11536372Y-13408650D01*
X11536372Y-13408650D02*
X11564943Y-13408650D01*
X11564943Y-13408650D02*
X11583991Y-13418174D01*
X11583991Y-13418174D02*
X11593515Y-13437222D01*
X11593515Y-13437222D02*
X11593515Y-13541984D01*
X11983991Y-13332460D02*
X11812563Y-13589603D01*
X12241134Y-13341984D02*
X12260182Y-13341984D01*
X12260182Y-13341984D02*
X12279229Y-13351508D01*
X12279229Y-13351508D02*
X12288753Y-13361031D01*
X12288753Y-13361031D02*
X12298277Y-13380079D01*
X12298277Y-13380079D02*
X12307801Y-13418174D01*
X12307801Y-13418174D02*
X12307801Y-13465793D01*
X12307801Y-13465793D02*
X12298277Y-13503888D01*
X12298277Y-13503888D02*
X12288753Y-13522936D01*
X12288753Y-13522936D02*
X12279229Y-13532460D01*
X12279229Y-13532460D02*
X12260182Y-13541984D01*
X12260182Y-13541984D02*
X12241134Y-13541984D01*
X12241134Y-13541984D02*
X12222086Y-13532460D01*
X12222086Y-13532460D02*
X12212563Y-13522936D01*
X12212563Y-13522936D02*
X12203039Y-13503888D01*
X12203039Y-13503888D02*
X12193515Y-13465793D01*
X12193515Y-13465793D02*
X12193515Y-13418174D01*
X12193515Y-13418174D02*
X12203039Y-13380079D01*
X12203039Y-13380079D02*
X12212563Y-13361031D01*
X12212563Y-13361031D02*
X12222086Y-13351508D01*
X12222086Y-13351508D02*
X12241134Y-13341984D01*
X12393515Y-13522936D02*
X12403039Y-13532460D01*
X12403039Y-13532460D02*
X12393515Y-13541984D01*
X12393515Y-13541984D02*
X12383991Y-13532460D01*
X12383991Y-13532460D02*
X12393515Y-13522936D01*
X12393515Y-13522936D02*
X12393515Y-13541984D01*
X12526848Y-13341984D02*
X12545896Y-13341984D01*
X12545896Y-13341984D02*
X12564944Y-13351508D01*
X12564944Y-13351508D02*
X12574467Y-13361031D01*
X12574467Y-13361031D02*
X12583991Y-13380079D01*
X12583991Y-13380079D02*
X12593515Y-13418174D01*
X12593515Y-13418174D02*
X12593515Y-13465793D01*
X12593515Y-13465793D02*
X12583991Y-13503888D01*
X12583991Y-13503888D02*
X12574467Y-13522936D01*
X12574467Y-13522936D02*
X12564944Y-13532460D01*
X12564944Y-13532460D02*
X12545896Y-13541984D01*
X12545896Y-13541984D02*
X12526848Y-13541984D01*
X12526848Y-13541984D02*
X12507801Y-13532460D01*
X12507801Y-13532460D02*
X12498277Y-13522936D01*
X12498277Y-13522936D02*
X12488753Y-13503888D01*
X12488753Y-13503888D02*
X12479229Y-13465793D01*
X12479229Y-13465793D02*
X12479229Y-13418174D01*
X12479229Y-13418174D02*
X12488753Y-13380079D01*
X12488753Y-13380079D02*
X12498277Y-13361031D01*
X12498277Y-13361031D02*
X12507801Y-13351508D01*
X12507801Y-13351508D02*
X12526848Y-13341984D01*
X12783991Y-13541984D02*
X12669706Y-13541984D01*
X12726848Y-13541984D02*
X12726848Y-13341984D01*
X12726848Y-13341984D02*
X12707801Y-13370555D01*
X12707801Y-13370555D02*
X12688753Y-13389603D01*
X12688753Y-13389603D02*
X12669706Y-13399127D01*
X12974467Y-13541984D02*
X12860182Y-13541984D01*
X12917325Y-13541984D02*
X12917325Y-13341984D01*
X12917325Y-13341984D02*
X12898277Y-13370555D01*
X12898277Y-13370555D02*
X12879229Y-13389603D01*
X12879229Y-13389603D02*
X12860182Y-13399127D01*
X13088753Y-13427698D02*
X13069706Y-13418174D01*
X13069706Y-13418174D02*
X13060182Y-13408650D01*
X13060182Y-13408650D02*
X13050658Y-13389603D01*
X13050658Y-13389603D02*
X13050658Y-13380079D01*
X13050658Y-13380079D02*
X13060182Y-13361031D01*
X13060182Y-13361031D02*
X13069706Y-13351508D01*
X13069706Y-13351508D02*
X13088753Y-13341984D01*
X13088753Y-13341984D02*
X13126848Y-13341984D01*
X13126848Y-13341984D02*
X13145896Y-13351508D01*
X13145896Y-13351508D02*
X13155420Y-13361031D01*
X13155420Y-13361031D02*
X13164944Y-13380079D01*
X13164944Y-13380079D02*
X13164944Y-13389603D01*
X13164944Y-13389603D02*
X13155420Y-13408650D01*
X13155420Y-13408650D02*
X13145896Y-13418174D01*
X13145896Y-13418174D02*
X13126848Y-13427698D01*
X13126848Y-13427698D02*
X13088753Y-13427698D01*
X13088753Y-13427698D02*
X13069706Y-13437222D01*
X13069706Y-13437222D02*
X13060182Y-13446746D01*
X13060182Y-13446746D02*
X13050658Y-13465793D01*
X13050658Y-13465793D02*
X13050658Y-13503888D01*
X13050658Y-13503888D02*
X13060182Y-13522936D01*
X13060182Y-13522936D02*
X13069706Y-13532460D01*
X13069706Y-13532460D02*
X13088753Y-13541984D01*
X13088753Y-13541984D02*
X13126848Y-13541984D01*
X13126848Y-13541984D02*
X13145896Y-13532460D01*
X13145896Y-13532460D02*
X13155420Y-13522936D01*
X13155420Y-13522936D02*
X13164944Y-13503888D01*
X13164944Y-13503888D02*
X13164944Y-13465793D01*
X13164944Y-13465793D02*
X13155420Y-13446746D01*
X13155420Y-13446746D02*
X13145896Y-13437222D01*
X13145896Y-13437222D02*
X13126848Y-13427698D01*
X13241134Y-13341984D02*
X13241134Y-13380079D01*
X13317325Y-13341984D02*
X13317325Y-13380079D01*
X13612563Y-13618174D02*
X13603039Y-13608650D01*
X13603039Y-13608650D02*
X13583991Y-13580079D01*
X13583991Y-13580079D02*
X13574468Y-13561031D01*
X13574468Y-13561031D02*
X13564944Y-13532460D01*
X13564944Y-13532460D02*
X13555420Y-13484841D01*
X13555420Y-13484841D02*
X13555420Y-13446746D01*
X13555420Y-13446746D02*
X13564944Y-13399127D01*
X13564944Y-13399127D02*
X13574468Y-13370555D01*
X13574468Y-13370555D02*
X13583991Y-13351508D01*
X13583991Y-13351508D02*
X13603039Y-13322936D01*
X13603039Y-13322936D02*
X13612563Y-13313412D01*
X13783991Y-13341984D02*
X13688753Y-13341984D01*
X13688753Y-13341984D02*
X13679229Y-13437222D01*
X13679229Y-13437222D02*
X13688753Y-13427698D01*
X13688753Y-13427698D02*
X13707801Y-13418174D01*
X13707801Y-13418174D02*
X13755420Y-13418174D01*
X13755420Y-13418174D02*
X13774468Y-13427698D01*
X13774468Y-13427698D02*
X13783991Y-13437222D01*
X13783991Y-13437222D02*
X13793515Y-13456269D01*
X13793515Y-13456269D02*
X13793515Y-13503888D01*
X13793515Y-13503888D02*
X13783991Y-13522936D01*
X13783991Y-13522936D02*
X13774468Y-13532460D01*
X13774468Y-13532460D02*
X13755420Y-13541984D01*
X13755420Y-13541984D02*
X13707801Y-13541984D01*
X13707801Y-13541984D02*
X13688753Y-13532460D01*
X13688753Y-13532460D02*
X13679229Y-13522936D01*
X13869706Y-13361031D02*
X13879229Y-13351508D01*
X13879229Y-13351508D02*
X13898277Y-13341984D01*
X13898277Y-13341984D02*
X13945896Y-13341984D01*
X13945896Y-13341984D02*
X13964944Y-13351508D01*
X13964944Y-13351508D02*
X13974468Y-13361031D01*
X13974468Y-13361031D02*
X13983991Y-13380079D01*
X13983991Y-13380079D02*
X13983991Y-13399127D01*
X13983991Y-13399127D02*
X13974468Y-13427698D01*
X13974468Y-13427698D02*
X13860182Y-13541984D01*
X13860182Y-13541984D02*
X13983991Y-13541984D01*
X14164944Y-13341984D02*
X14069706Y-13341984D01*
X14069706Y-13341984D02*
X14060182Y-13437222D01*
X14060182Y-13437222D02*
X14069706Y-13427698D01*
X14069706Y-13427698D02*
X14088753Y-13418174D01*
X14088753Y-13418174D02*
X14136372Y-13418174D01*
X14136372Y-13418174D02*
X14155420Y-13427698D01*
X14155420Y-13427698D02*
X14164944Y-13437222D01*
X14164944Y-13437222D02*
X14174468Y-13456269D01*
X14174468Y-13456269D02*
X14174468Y-13503888D01*
X14174468Y-13503888D02*
X14164944Y-13522936D01*
X14164944Y-13522936D02*
X14155420Y-13532460D01*
X14155420Y-13532460D02*
X14136372Y-13541984D01*
X14136372Y-13541984D02*
X14088753Y-13541984D01*
X14088753Y-13541984D02*
X14069706Y-13532460D01*
X14069706Y-13532460D02*
X14060182Y-13522936D01*
X14412563Y-13541984D02*
X14412563Y-13341984D01*
X14498277Y-13541984D02*
X14498277Y-13437222D01*
X14498277Y-13437222D02*
X14488753Y-13418174D01*
X14488753Y-13418174D02*
X14469706Y-13408650D01*
X14469706Y-13408650D02*
X14441134Y-13408650D01*
X14441134Y-13408650D02*
X14422087Y-13418174D01*
X14422087Y-13418174D02*
X14412563Y-13427698D01*
X14622087Y-13541984D02*
X14603039Y-13532460D01*
X14603039Y-13532460D02*
X14593515Y-13522936D01*
X14593515Y-13522936D02*
X14583991Y-13503888D01*
X14583991Y-13503888D02*
X14583991Y-13446746D01*
X14583991Y-13446746D02*
X14593515Y-13427698D01*
X14593515Y-13427698D02*
X14603039Y-13418174D01*
X14603039Y-13418174D02*
X14622087Y-13408650D01*
X14622087Y-13408650D02*
X14650658Y-13408650D01*
X14650658Y-13408650D02*
X14669706Y-13418174D01*
X14669706Y-13418174D02*
X14679230Y-13427698D01*
X14679230Y-13427698D02*
X14688753Y-13446746D01*
X14688753Y-13446746D02*
X14688753Y-13503888D01*
X14688753Y-13503888D02*
X14679230Y-13522936D01*
X14679230Y-13522936D02*
X14669706Y-13532460D01*
X14669706Y-13532460D02*
X14650658Y-13541984D01*
X14650658Y-13541984D02*
X14622087Y-13541984D01*
X14803039Y-13541984D02*
X14783991Y-13532460D01*
X14783991Y-13532460D02*
X14774468Y-13513412D01*
X14774468Y-13513412D02*
X14774468Y-13341984D01*
X14955420Y-13532460D02*
X14936372Y-13541984D01*
X14936372Y-13541984D02*
X14898277Y-13541984D01*
X14898277Y-13541984D02*
X14879230Y-13532460D01*
X14879230Y-13532460D02*
X14869706Y-13513412D01*
X14869706Y-13513412D02*
X14869706Y-13437222D01*
X14869706Y-13437222D02*
X14879230Y-13418174D01*
X14879230Y-13418174D02*
X14898277Y-13408650D01*
X14898277Y-13408650D02*
X14936372Y-13408650D01*
X14936372Y-13408650D02*
X14955420Y-13418174D01*
X14955420Y-13418174D02*
X14964944Y-13437222D01*
X14964944Y-13437222D02*
X14964944Y-13456269D01*
X14964944Y-13456269D02*
X14869706Y-13475317D01*
X15041134Y-13532460D02*
X15060182Y-13541984D01*
X15060182Y-13541984D02*
X15098277Y-13541984D01*
X15098277Y-13541984D02*
X15117325Y-13532460D01*
X15117325Y-13532460D02*
X15126849Y-13513412D01*
X15126849Y-13513412D02*
X15126849Y-13503888D01*
X15126849Y-13503888D02*
X15117325Y-13484841D01*
X15117325Y-13484841D02*
X15098277Y-13475317D01*
X15098277Y-13475317D02*
X15069706Y-13475317D01*
X15069706Y-13475317D02*
X15050658Y-13465793D01*
X15050658Y-13465793D02*
X15041134Y-13446746D01*
X15041134Y-13446746D02*
X15041134Y-13437222D01*
X15041134Y-13437222D02*
X15050658Y-13418174D01*
X15050658Y-13418174D02*
X15069706Y-13408650D01*
X15069706Y-13408650D02*
X15098277Y-13408650D01*
X15098277Y-13408650D02*
X15117325Y-13418174D01*
X15193515Y-13618174D02*
X15203039Y-13608650D01*
X15203039Y-13608650D02*
X15222087Y-13580079D01*
X15222087Y-13580079D02*
X15231611Y-13561031D01*
X15231611Y-13561031D02*
X15241134Y-13532460D01*
X15241134Y-13532460D02*
X15250658Y-13484841D01*
X15250658Y-13484841D02*
X15250658Y-13446746D01*
X15250658Y-13446746D02*
X15241134Y-13399127D01*
X15241134Y-13399127D02*
X15231611Y-13370555D01*
X15231611Y-13370555D02*
X15222087Y-13351508D01*
X15222087Y-13351508D02*
X15203039Y-13322936D01*
X15203039Y-13322936D02*
X15193515Y-13313412D01*
D12*
X10028713Y-13735713D02*
X10028713Y-13693287D01*
X9986287Y-13693287D01*
X9986287Y-13735713D01*
X10028713Y-13735713D01*
D11*
X10336372Y-13605984D02*
X10355420Y-13605984D01*
X10355420Y-13605984D02*
X10374467Y-13615508D01*
X10374467Y-13615508D02*
X10383991Y-13625031D01*
X10383991Y-13625031D02*
X10393515Y-13644079D01*
X10393515Y-13644079D02*
X10403039Y-13682174D01*
X10403039Y-13682174D02*
X10403039Y-13729793D01*
X10403039Y-13729793D02*
X10393515Y-13767888D01*
X10393515Y-13767888D02*
X10383991Y-13786936D01*
X10383991Y-13786936D02*
X10374467Y-13796460D01*
X10374467Y-13796460D02*
X10355420Y-13805984D01*
X10355420Y-13805984D02*
X10336372Y-13805984D01*
X10336372Y-13805984D02*
X10317324Y-13796460D01*
X10317324Y-13796460D02*
X10307801Y-13786936D01*
X10307801Y-13786936D02*
X10298277Y-13767888D01*
X10298277Y-13767888D02*
X10288753Y-13729793D01*
X10288753Y-13729793D02*
X10288753Y-13682174D01*
X10288753Y-13682174D02*
X10298277Y-13644079D01*
X10298277Y-13644079D02*
X10307801Y-13625031D01*
X10307801Y-13625031D02*
X10317324Y-13615508D01*
X10317324Y-13615508D02*
X10336372Y-13605984D01*
X10488753Y-13786936D02*
X10498277Y-13796460D01*
X10498277Y-13796460D02*
X10488753Y-13805984D01*
X10488753Y-13805984D02*
X10479229Y-13796460D01*
X10479229Y-13796460D02*
X10488753Y-13786936D01*
X10488753Y-13786936D02*
X10488753Y-13805984D01*
X10669705Y-13605984D02*
X10631610Y-13605984D01*
X10631610Y-13605984D02*
X10612563Y-13615508D01*
X10612563Y-13615508D02*
X10603039Y-13625031D01*
X10603039Y-13625031D02*
X10583991Y-13653603D01*
X10583991Y-13653603D02*
X10574467Y-13691698D01*
X10574467Y-13691698D02*
X10574467Y-13767888D01*
X10574467Y-13767888D02*
X10583991Y-13786936D01*
X10583991Y-13786936D02*
X10593515Y-13796460D01*
X10593515Y-13796460D02*
X10612563Y-13805984D01*
X10612563Y-13805984D02*
X10650658Y-13805984D01*
X10650658Y-13805984D02*
X10669705Y-13796460D01*
X10669705Y-13796460D02*
X10679229Y-13786936D01*
X10679229Y-13786936D02*
X10688753Y-13767888D01*
X10688753Y-13767888D02*
X10688753Y-13720269D01*
X10688753Y-13720269D02*
X10679229Y-13701222D01*
X10679229Y-13701222D02*
X10669705Y-13691698D01*
X10669705Y-13691698D02*
X10650658Y-13682174D01*
X10650658Y-13682174D02*
X10612563Y-13682174D01*
X10612563Y-13682174D02*
X10593515Y-13691698D01*
X10593515Y-13691698D02*
X10583991Y-13701222D01*
X10583991Y-13701222D02*
X10574467Y-13720269D01*
X10812563Y-13605984D02*
X10831610Y-13605984D01*
X10831610Y-13605984D02*
X10850658Y-13615508D01*
X10850658Y-13615508D02*
X10860182Y-13625031D01*
X10860182Y-13625031D02*
X10869705Y-13644079D01*
X10869705Y-13644079D02*
X10879229Y-13682174D01*
X10879229Y-13682174D02*
X10879229Y-13729793D01*
X10879229Y-13729793D02*
X10869705Y-13767888D01*
X10869705Y-13767888D02*
X10860182Y-13786936D01*
X10860182Y-13786936D02*
X10850658Y-13796460D01*
X10850658Y-13796460D02*
X10831610Y-13805984D01*
X10831610Y-13805984D02*
X10812563Y-13805984D01*
X10812563Y-13805984D02*
X10793515Y-13796460D01*
X10793515Y-13796460D02*
X10783991Y-13786936D01*
X10783991Y-13786936D02*
X10774467Y-13767888D01*
X10774467Y-13767888D02*
X10764944Y-13729793D01*
X10764944Y-13729793D02*
X10764944Y-13682174D01*
X10764944Y-13682174D02*
X10774467Y-13644079D01*
X10774467Y-13644079D02*
X10783991Y-13625031D01*
X10783991Y-13625031D02*
X10793515Y-13615508D01*
X10793515Y-13615508D02*
X10812563Y-13605984D01*
X11003039Y-13605984D02*
X11022086Y-13605984D01*
X11022086Y-13605984D02*
X11041134Y-13615508D01*
X11041134Y-13615508D02*
X11050658Y-13625031D01*
X11050658Y-13625031D02*
X11060182Y-13644079D01*
X11060182Y-13644079D02*
X11069705Y-13682174D01*
X11069705Y-13682174D02*
X11069705Y-13729793D01*
X11069705Y-13729793D02*
X11060182Y-13767888D01*
X11060182Y-13767888D02*
X11050658Y-13786936D01*
X11050658Y-13786936D02*
X11041134Y-13796460D01*
X11041134Y-13796460D02*
X11022086Y-13805984D01*
X11022086Y-13805984D02*
X11003039Y-13805984D01*
X11003039Y-13805984D02*
X10983991Y-13796460D01*
X10983991Y-13796460D02*
X10974467Y-13786936D01*
X10974467Y-13786936D02*
X10964944Y-13767888D01*
X10964944Y-13767888D02*
X10955420Y-13729793D01*
X10955420Y-13729793D02*
X10955420Y-13682174D01*
X10955420Y-13682174D02*
X10964944Y-13644079D01*
X10964944Y-13644079D02*
X10974467Y-13625031D01*
X10974467Y-13625031D02*
X10983991Y-13615508D01*
X10983991Y-13615508D02*
X11003039Y-13605984D01*
X11155420Y-13805984D02*
X11155420Y-13672650D01*
X11155420Y-13691698D02*
X11164944Y-13682174D01*
X11164944Y-13682174D02*
X11183991Y-13672650D01*
X11183991Y-13672650D02*
X11212563Y-13672650D01*
X11212563Y-13672650D02*
X11231610Y-13682174D01*
X11231610Y-13682174D02*
X11241134Y-13701222D01*
X11241134Y-13701222D02*
X11241134Y-13805984D01*
X11241134Y-13701222D02*
X11250658Y-13682174D01*
X11250658Y-13682174D02*
X11269705Y-13672650D01*
X11269705Y-13672650D02*
X11298277Y-13672650D01*
X11298277Y-13672650D02*
X11317324Y-13682174D01*
X11317324Y-13682174D02*
X11326848Y-13701222D01*
X11326848Y-13701222D02*
X11326848Y-13805984D01*
X11422086Y-13805984D02*
X11422086Y-13672650D01*
X11422086Y-13691698D02*
X11431610Y-13682174D01*
X11431610Y-13682174D02*
X11450658Y-13672650D01*
X11450658Y-13672650D02*
X11479229Y-13672650D01*
X11479229Y-13672650D02*
X11498277Y-13682174D01*
X11498277Y-13682174D02*
X11507801Y-13701222D01*
X11507801Y-13701222D02*
X11507801Y-13805984D01*
X11507801Y-13701222D02*
X11517324Y-13682174D01*
X11517324Y-13682174D02*
X11536372Y-13672650D01*
X11536372Y-13672650D02*
X11564943Y-13672650D01*
X11564943Y-13672650D02*
X11583991Y-13682174D01*
X11583991Y-13682174D02*
X11593515Y-13701222D01*
X11593515Y-13701222D02*
X11593515Y-13805984D01*
X11983991Y-13596460D02*
X11812563Y-13853603D01*
X12241134Y-13605984D02*
X12260182Y-13605984D01*
X12260182Y-13605984D02*
X12279229Y-13615508D01*
X12279229Y-13615508D02*
X12288753Y-13625031D01*
X12288753Y-13625031D02*
X12298277Y-13644079D01*
X12298277Y-13644079D02*
X12307801Y-13682174D01*
X12307801Y-13682174D02*
X12307801Y-13729793D01*
X12307801Y-13729793D02*
X12298277Y-13767888D01*
X12298277Y-13767888D02*
X12288753Y-13786936D01*
X12288753Y-13786936D02*
X12279229Y-13796460D01*
X12279229Y-13796460D02*
X12260182Y-13805984D01*
X12260182Y-13805984D02*
X12241134Y-13805984D01*
X12241134Y-13805984D02*
X12222086Y-13796460D01*
X12222086Y-13796460D02*
X12212563Y-13786936D01*
X12212563Y-13786936D02*
X12203039Y-13767888D01*
X12203039Y-13767888D02*
X12193515Y-13729793D01*
X12193515Y-13729793D02*
X12193515Y-13682174D01*
X12193515Y-13682174D02*
X12203039Y-13644079D01*
X12203039Y-13644079D02*
X12212563Y-13625031D01*
X12212563Y-13625031D02*
X12222086Y-13615508D01*
X12222086Y-13615508D02*
X12241134Y-13605984D01*
X12393515Y-13786936D02*
X12403039Y-13796460D01*
X12403039Y-13796460D02*
X12393515Y-13805984D01*
X12393515Y-13805984D02*
X12383991Y-13796460D01*
X12383991Y-13796460D02*
X12393515Y-13786936D01*
X12393515Y-13786936D02*
X12393515Y-13805984D01*
X12526848Y-13605984D02*
X12545896Y-13605984D01*
X12545896Y-13605984D02*
X12564944Y-13615508D01*
X12564944Y-13615508D02*
X12574467Y-13625031D01*
X12574467Y-13625031D02*
X12583991Y-13644079D01*
X12583991Y-13644079D02*
X12593515Y-13682174D01*
X12593515Y-13682174D02*
X12593515Y-13729793D01*
X12593515Y-13729793D02*
X12583991Y-13767888D01*
X12583991Y-13767888D02*
X12574467Y-13786936D01*
X12574467Y-13786936D02*
X12564944Y-13796460D01*
X12564944Y-13796460D02*
X12545896Y-13805984D01*
X12545896Y-13805984D02*
X12526848Y-13805984D01*
X12526848Y-13805984D02*
X12507801Y-13796460D01*
X12507801Y-13796460D02*
X12498277Y-13786936D01*
X12498277Y-13786936D02*
X12488753Y-13767888D01*
X12488753Y-13767888D02*
X12479229Y-13729793D01*
X12479229Y-13729793D02*
X12479229Y-13682174D01*
X12479229Y-13682174D02*
X12488753Y-13644079D01*
X12488753Y-13644079D02*
X12498277Y-13625031D01*
X12498277Y-13625031D02*
X12507801Y-13615508D01*
X12507801Y-13615508D02*
X12526848Y-13605984D01*
X12669706Y-13625031D02*
X12679229Y-13615508D01*
X12679229Y-13615508D02*
X12698277Y-13605984D01*
X12698277Y-13605984D02*
X12745896Y-13605984D01*
X12745896Y-13605984D02*
X12764944Y-13615508D01*
X12764944Y-13615508D02*
X12774467Y-13625031D01*
X12774467Y-13625031D02*
X12783991Y-13644079D01*
X12783991Y-13644079D02*
X12783991Y-13663127D01*
X12783991Y-13663127D02*
X12774467Y-13691698D01*
X12774467Y-13691698D02*
X12660182Y-13805984D01*
X12660182Y-13805984D02*
X12783991Y-13805984D01*
X12850658Y-13605984D02*
X12974467Y-13605984D01*
X12974467Y-13605984D02*
X12907801Y-13682174D01*
X12907801Y-13682174D02*
X12936372Y-13682174D01*
X12936372Y-13682174D02*
X12955420Y-13691698D01*
X12955420Y-13691698D02*
X12964944Y-13701222D01*
X12964944Y-13701222D02*
X12974467Y-13720269D01*
X12974467Y-13720269D02*
X12974467Y-13767888D01*
X12974467Y-13767888D02*
X12964944Y-13786936D01*
X12964944Y-13786936D02*
X12955420Y-13796460D01*
X12955420Y-13796460D02*
X12936372Y-13805984D01*
X12936372Y-13805984D02*
X12879229Y-13805984D01*
X12879229Y-13805984D02*
X12860182Y-13796460D01*
X12860182Y-13796460D02*
X12850658Y-13786936D01*
X13145896Y-13605984D02*
X13107801Y-13605984D01*
X13107801Y-13605984D02*
X13088753Y-13615508D01*
X13088753Y-13615508D02*
X13079229Y-13625031D01*
X13079229Y-13625031D02*
X13060182Y-13653603D01*
X13060182Y-13653603D02*
X13050658Y-13691698D01*
X13050658Y-13691698D02*
X13050658Y-13767888D01*
X13050658Y-13767888D02*
X13060182Y-13786936D01*
X13060182Y-13786936D02*
X13069706Y-13796460D01*
X13069706Y-13796460D02*
X13088753Y-13805984D01*
X13088753Y-13805984D02*
X13126848Y-13805984D01*
X13126848Y-13805984D02*
X13145896Y-13796460D01*
X13145896Y-13796460D02*
X13155420Y-13786936D01*
X13155420Y-13786936D02*
X13164944Y-13767888D01*
X13164944Y-13767888D02*
X13164944Y-13720269D01*
X13164944Y-13720269D02*
X13155420Y-13701222D01*
X13155420Y-13701222D02*
X13145896Y-13691698D01*
X13145896Y-13691698D02*
X13126848Y-13682174D01*
X13126848Y-13682174D02*
X13088753Y-13682174D01*
X13088753Y-13682174D02*
X13069706Y-13691698D01*
X13069706Y-13691698D02*
X13060182Y-13701222D01*
X13060182Y-13701222D02*
X13050658Y-13720269D01*
X13241134Y-13605984D02*
X13241134Y-13644079D01*
X13317325Y-13605984D02*
X13317325Y-13644079D01*
X13612563Y-13882174D02*
X13603039Y-13872650D01*
X13603039Y-13872650D02*
X13583991Y-13844079D01*
X13583991Y-13844079D02*
X13574468Y-13825031D01*
X13574468Y-13825031D02*
X13564944Y-13796460D01*
X13564944Y-13796460D02*
X13555420Y-13748841D01*
X13555420Y-13748841D02*
X13555420Y-13710746D01*
X13555420Y-13710746D02*
X13564944Y-13663127D01*
X13564944Y-13663127D02*
X13574468Y-13634555D01*
X13574468Y-13634555D02*
X13583991Y-13615508D01*
X13583991Y-13615508D02*
X13603039Y-13586936D01*
X13603039Y-13586936D02*
X13612563Y-13577412D01*
X13726848Y-13605984D02*
X13745896Y-13605984D01*
X13745896Y-13605984D02*
X13764944Y-13615508D01*
X13764944Y-13615508D02*
X13774468Y-13625031D01*
X13774468Y-13625031D02*
X13783991Y-13644079D01*
X13783991Y-13644079D02*
X13793515Y-13682174D01*
X13793515Y-13682174D02*
X13793515Y-13729793D01*
X13793515Y-13729793D02*
X13783991Y-13767888D01*
X13783991Y-13767888D02*
X13774468Y-13786936D01*
X13774468Y-13786936D02*
X13764944Y-13796460D01*
X13764944Y-13796460D02*
X13745896Y-13805984D01*
X13745896Y-13805984D02*
X13726848Y-13805984D01*
X13726848Y-13805984D02*
X13707801Y-13796460D01*
X13707801Y-13796460D02*
X13698277Y-13786936D01*
X13698277Y-13786936D02*
X13688753Y-13767888D01*
X13688753Y-13767888D02*
X13679229Y-13729793D01*
X13679229Y-13729793D02*
X13679229Y-13682174D01*
X13679229Y-13682174D02*
X13688753Y-13644079D01*
X13688753Y-13644079D02*
X13698277Y-13625031D01*
X13698277Y-13625031D02*
X13707801Y-13615508D01*
X13707801Y-13615508D02*
X13726848Y-13605984D01*
X14031610Y-13805984D02*
X14031610Y-13605984D01*
X14117325Y-13805984D02*
X14117325Y-13701222D01*
X14117325Y-13701222D02*
X14107801Y-13682174D01*
X14107801Y-13682174D02*
X14088753Y-13672650D01*
X14088753Y-13672650D02*
X14060182Y-13672650D01*
X14060182Y-13672650D02*
X14041134Y-13682174D01*
X14041134Y-13682174D02*
X14031610Y-13691698D01*
X14241134Y-13805984D02*
X14222087Y-13796460D01*
X14222087Y-13796460D02*
X14212563Y-13786936D01*
X14212563Y-13786936D02*
X14203039Y-13767888D01*
X14203039Y-13767888D02*
X14203039Y-13710746D01*
X14203039Y-13710746D02*
X14212563Y-13691698D01*
X14212563Y-13691698D02*
X14222087Y-13682174D01*
X14222087Y-13682174D02*
X14241134Y-13672650D01*
X14241134Y-13672650D02*
X14269706Y-13672650D01*
X14269706Y-13672650D02*
X14288753Y-13682174D01*
X14288753Y-13682174D02*
X14298277Y-13691698D01*
X14298277Y-13691698D02*
X14307801Y-13710746D01*
X14307801Y-13710746D02*
X14307801Y-13767888D01*
X14307801Y-13767888D02*
X14298277Y-13786936D01*
X14298277Y-13786936D02*
X14288753Y-13796460D01*
X14288753Y-13796460D02*
X14269706Y-13805984D01*
X14269706Y-13805984D02*
X14241134Y-13805984D01*
X14422087Y-13805984D02*
X14403039Y-13796460D01*
X14403039Y-13796460D02*
X14393515Y-13777412D01*
X14393515Y-13777412D02*
X14393515Y-13605984D01*
X14574468Y-13796460D02*
X14555420Y-13805984D01*
X14555420Y-13805984D02*
X14517325Y-13805984D01*
X14517325Y-13805984D02*
X14498277Y-13796460D01*
X14498277Y-13796460D02*
X14488753Y-13777412D01*
X14488753Y-13777412D02*
X14488753Y-13701222D01*
X14488753Y-13701222D02*
X14498277Y-13682174D01*
X14498277Y-13682174D02*
X14517325Y-13672650D01*
X14517325Y-13672650D02*
X14555420Y-13672650D01*
X14555420Y-13672650D02*
X14574468Y-13682174D01*
X14574468Y-13682174D02*
X14583991Y-13701222D01*
X14583991Y-13701222D02*
X14583991Y-13720269D01*
X14583991Y-13720269D02*
X14488753Y-13739317D01*
X14660182Y-13796460D02*
X14679230Y-13805984D01*
X14679230Y-13805984D02*
X14717325Y-13805984D01*
X14717325Y-13805984D02*
X14736372Y-13796460D01*
X14736372Y-13796460D02*
X14745896Y-13777412D01*
X14745896Y-13777412D02*
X14745896Y-13767888D01*
X14745896Y-13767888D02*
X14736372Y-13748841D01*
X14736372Y-13748841D02*
X14717325Y-13739317D01*
X14717325Y-13739317D02*
X14688753Y-13739317D01*
X14688753Y-13739317D02*
X14669706Y-13729793D01*
X14669706Y-13729793D02*
X14660182Y-13710746D01*
X14660182Y-13710746D02*
X14660182Y-13701222D01*
X14660182Y-13701222D02*
X14669706Y-13682174D01*
X14669706Y-13682174D02*
X14688753Y-13672650D01*
X14688753Y-13672650D02*
X14717325Y-13672650D01*
X14717325Y-13672650D02*
X14736372Y-13682174D01*
X14983992Y-13729793D02*
X15136373Y-13729793D01*
X15060182Y-13805984D02*
X15060182Y-13653603D01*
X15469706Y-13672650D02*
X15469706Y-13805984D01*
X15422087Y-13596460D02*
X15374468Y-13739317D01*
X15374468Y-13739317D02*
X15498277Y-13739317D01*
X15717325Y-13796460D02*
X15736373Y-13805984D01*
X15736373Y-13805984D02*
X15774468Y-13805984D01*
X15774468Y-13805984D02*
X15793515Y-13796460D01*
X15793515Y-13796460D02*
X15803039Y-13777412D01*
X15803039Y-13777412D02*
X15803039Y-13767888D01*
X15803039Y-13767888D02*
X15793515Y-13748841D01*
X15793515Y-13748841D02*
X15774468Y-13739317D01*
X15774468Y-13739317D02*
X15745896Y-13739317D01*
X15745896Y-13739317D02*
X15726849Y-13729793D01*
X15726849Y-13729793D02*
X15717325Y-13710746D01*
X15717325Y-13710746D02*
X15717325Y-13701222D01*
X15717325Y-13701222D02*
X15726849Y-13682174D01*
X15726849Y-13682174D02*
X15745896Y-13672650D01*
X15745896Y-13672650D02*
X15774468Y-13672650D01*
X15774468Y-13672650D02*
X15793515Y-13682174D01*
X15917325Y-13805984D02*
X15898277Y-13796460D01*
X15898277Y-13796460D02*
X15888754Y-13777412D01*
X15888754Y-13777412D02*
X15888754Y-13605984D01*
X16022087Y-13805984D02*
X16003039Y-13796460D01*
X16003039Y-13796460D02*
X15993515Y-13786936D01*
X15993515Y-13786936D02*
X15983992Y-13767888D01*
X15983992Y-13767888D02*
X15983992Y-13710746D01*
X15983992Y-13710746D02*
X15993515Y-13691698D01*
X15993515Y-13691698D02*
X16003039Y-13682174D01*
X16003039Y-13682174D02*
X16022087Y-13672650D01*
X16022087Y-13672650D02*
X16050658Y-13672650D01*
X16050658Y-13672650D02*
X16069706Y-13682174D01*
X16069706Y-13682174D02*
X16079230Y-13691698D01*
X16079230Y-13691698D02*
X16088754Y-13710746D01*
X16088754Y-13710746D02*
X16088754Y-13767888D01*
X16088754Y-13767888D02*
X16079230Y-13786936D01*
X16079230Y-13786936D02*
X16069706Y-13796460D01*
X16069706Y-13796460D02*
X16050658Y-13805984D01*
X16050658Y-13805984D02*
X16022087Y-13805984D01*
X16145896Y-13672650D02*
X16222087Y-13672650D01*
X16174468Y-13605984D02*
X16174468Y-13777412D01*
X16174468Y-13777412D02*
X16183992Y-13796460D01*
X16183992Y-13796460D02*
X16203039Y-13805984D01*
X16203039Y-13805984D02*
X16222087Y-13805984D01*
X16279230Y-13796460D02*
X16298277Y-13805984D01*
X16298277Y-13805984D02*
X16336373Y-13805984D01*
X16336373Y-13805984D02*
X16355420Y-13796460D01*
X16355420Y-13796460D02*
X16364944Y-13777412D01*
X16364944Y-13777412D02*
X16364944Y-13767888D01*
X16364944Y-13767888D02*
X16355420Y-13748841D01*
X16355420Y-13748841D02*
X16336373Y-13739317D01*
X16336373Y-13739317D02*
X16307801Y-13739317D01*
X16307801Y-13739317D02*
X16288754Y-13729793D01*
X16288754Y-13729793D02*
X16279230Y-13710746D01*
X16279230Y-13710746D02*
X16279230Y-13701222D01*
X16279230Y-13701222D02*
X16288754Y-13682174D01*
X16288754Y-13682174D02*
X16307801Y-13672650D01*
X16307801Y-13672650D02*
X16336373Y-13672650D01*
X16336373Y-13672650D02*
X16355420Y-13682174D01*
X16431611Y-13882174D02*
X16441135Y-13872650D01*
X16441135Y-13872650D02*
X16460182Y-13844079D01*
X16460182Y-13844079D02*
X16469706Y-13825031D01*
X16469706Y-13825031D02*
X16479230Y-13796460D01*
X16479230Y-13796460D02*
X16488754Y-13748841D01*
X16488754Y-13748841D02*
X16488754Y-13710746D01*
X16488754Y-13710746D02*
X16479230Y-13663127D01*
X16479230Y-13663127D02*
X16469706Y-13634555D01*
X16469706Y-13634555D02*
X16460182Y-13615508D01*
X16460182Y-13615508D02*
X16441135Y-13586936D01*
X16441135Y-13586936D02*
X16431611Y-13577412D01*
D12*
X10005000Y-14011000D02*
X10037500Y-13978500D01*
X10005000Y-13946000D01*
X9972500Y-13978500D01*
X10005000Y-14011000D01*
D11*
X10336372Y-13869984D02*
X10355420Y-13869984D01*
X10355420Y-13869984D02*
X10374467Y-13879508D01*
X10374467Y-13879508D02*
X10383991Y-13889031D01*
X10383991Y-13889031D02*
X10393515Y-13908079D01*
X10393515Y-13908079D02*
X10403039Y-13946174D01*
X10403039Y-13946174D02*
X10403039Y-13993793D01*
X10403039Y-13993793D02*
X10393515Y-14031888D01*
X10393515Y-14031888D02*
X10383991Y-14050936D01*
X10383991Y-14050936D02*
X10374467Y-14060460D01*
X10374467Y-14060460D02*
X10355420Y-14069984D01*
X10355420Y-14069984D02*
X10336372Y-14069984D01*
X10336372Y-14069984D02*
X10317324Y-14060460D01*
X10317324Y-14060460D02*
X10307801Y-14050936D01*
X10307801Y-14050936D02*
X10298277Y-14031888D01*
X10298277Y-14031888D02*
X10288753Y-13993793D01*
X10288753Y-13993793D02*
X10288753Y-13946174D01*
X10288753Y-13946174D02*
X10298277Y-13908079D01*
X10298277Y-13908079D02*
X10307801Y-13889031D01*
X10307801Y-13889031D02*
X10317324Y-13879508D01*
X10317324Y-13879508D02*
X10336372Y-13869984D01*
X10488753Y-14050936D02*
X10498277Y-14060460D01*
X10498277Y-14060460D02*
X10488753Y-14069984D01*
X10488753Y-14069984D02*
X10479229Y-14060460D01*
X10479229Y-14060460D02*
X10488753Y-14050936D01*
X10488753Y-14050936D02*
X10488753Y-14069984D01*
X10669705Y-13869984D02*
X10631610Y-13869984D01*
X10631610Y-13869984D02*
X10612563Y-13879508D01*
X10612563Y-13879508D02*
X10603039Y-13889031D01*
X10603039Y-13889031D02*
X10583991Y-13917603D01*
X10583991Y-13917603D02*
X10574467Y-13955698D01*
X10574467Y-13955698D02*
X10574467Y-14031888D01*
X10574467Y-14031888D02*
X10583991Y-14050936D01*
X10583991Y-14050936D02*
X10593515Y-14060460D01*
X10593515Y-14060460D02*
X10612563Y-14069984D01*
X10612563Y-14069984D02*
X10650658Y-14069984D01*
X10650658Y-14069984D02*
X10669705Y-14060460D01*
X10669705Y-14060460D02*
X10679229Y-14050936D01*
X10679229Y-14050936D02*
X10688753Y-14031888D01*
X10688753Y-14031888D02*
X10688753Y-13984269D01*
X10688753Y-13984269D02*
X10679229Y-13965222D01*
X10679229Y-13965222D02*
X10669705Y-13955698D01*
X10669705Y-13955698D02*
X10650658Y-13946174D01*
X10650658Y-13946174D02*
X10612563Y-13946174D01*
X10612563Y-13946174D02*
X10593515Y-13955698D01*
X10593515Y-13955698D02*
X10583991Y-13965222D01*
X10583991Y-13965222D02*
X10574467Y-13984269D01*
X10869705Y-13869984D02*
X10774467Y-13869984D01*
X10774467Y-13869984D02*
X10764944Y-13965222D01*
X10764944Y-13965222D02*
X10774467Y-13955698D01*
X10774467Y-13955698D02*
X10793515Y-13946174D01*
X10793515Y-13946174D02*
X10841134Y-13946174D01*
X10841134Y-13946174D02*
X10860182Y-13955698D01*
X10860182Y-13955698D02*
X10869705Y-13965222D01*
X10869705Y-13965222D02*
X10879229Y-13984269D01*
X10879229Y-13984269D02*
X10879229Y-14031888D01*
X10879229Y-14031888D02*
X10869705Y-14050936D01*
X10869705Y-14050936D02*
X10860182Y-14060460D01*
X10860182Y-14060460D02*
X10841134Y-14069984D01*
X10841134Y-14069984D02*
X10793515Y-14069984D01*
X10793515Y-14069984D02*
X10774467Y-14060460D01*
X10774467Y-14060460D02*
X10764944Y-14050936D01*
X11003039Y-13869984D02*
X11022086Y-13869984D01*
X11022086Y-13869984D02*
X11041134Y-13879508D01*
X11041134Y-13879508D02*
X11050658Y-13889031D01*
X11050658Y-13889031D02*
X11060182Y-13908079D01*
X11060182Y-13908079D02*
X11069705Y-13946174D01*
X11069705Y-13946174D02*
X11069705Y-13993793D01*
X11069705Y-13993793D02*
X11060182Y-14031888D01*
X11060182Y-14031888D02*
X11050658Y-14050936D01*
X11050658Y-14050936D02*
X11041134Y-14060460D01*
X11041134Y-14060460D02*
X11022086Y-14069984D01*
X11022086Y-14069984D02*
X11003039Y-14069984D01*
X11003039Y-14069984D02*
X10983991Y-14060460D01*
X10983991Y-14060460D02*
X10974467Y-14050936D01*
X10974467Y-14050936D02*
X10964944Y-14031888D01*
X10964944Y-14031888D02*
X10955420Y-13993793D01*
X10955420Y-13993793D02*
X10955420Y-13946174D01*
X10955420Y-13946174D02*
X10964944Y-13908079D01*
X10964944Y-13908079D02*
X10974467Y-13889031D01*
X10974467Y-13889031D02*
X10983991Y-13879508D01*
X10983991Y-13879508D02*
X11003039Y-13869984D01*
X11155420Y-14069984D02*
X11155420Y-13936650D01*
X11155420Y-13955698D02*
X11164944Y-13946174D01*
X11164944Y-13946174D02*
X11183991Y-13936650D01*
X11183991Y-13936650D02*
X11212563Y-13936650D01*
X11212563Y-13936650D02*
X11231610Y-13946174D01*
X11231610Y-13946174D02*
X11241134Y-13965222D01*
X11241134Y-13965222D02*
X11241134Y-14069984D01*
X11241134Y-13965222D02*
X11250658Y-13946174D01*
X11250658Y-13946174D02*
X11269705Y-13936650D01*
X11269705Y-13936650D02*
X11298277Y-13936650D01*
X11298277Y-13936650D02*
X11317324Y-13946174D01*
X11317324Y-13946174D02*
X11326848Y-13965222D01*
X11326848Y-13965222D02*
X11326848Y-14069984D01*
X11422086Y-14069984D02*
X11422086Y-13936650D01*
X11422086Y-13955698D02*
X11431610Y-13946174D01*
X11431610Y-13946174D02*
X11450658Y-13936650D01*
X11450658Y-13936650D02*
X11479229Y-13936650D01*
X11479229Y-13936650D02*
X11498277Y-13946174D01*
X11498277Y-13946174D02*
X11507801Y-13965222D01*
X11507801Y-13965222D02*
X11507801Y-14069984D01*
X11507801Y-13965222D02*
X11517324Y-13946174D01*
X11517324Y-13946174D02*
X11536372Y-13936650D01*
X11536372Y-13936650D02*
X11564943Y-13936650D01*
X11564943Y-13936650D02*
X11583991Y-13946174D01*
X11583991Y-13946174D02*
X11593515Y-13965222D01*
X11593515Y-13965222D02*
X11593515Y-14069984D01*
X11983991Y-13860460D02*
X11812563Y-14117603D01*
X12241134Y-13869984D02*
X12260182Y-13869984D01*
X12260182Y-13869984D02*
X12279229Y-13879508D01*
X12279229Y-13879508D02*
X12288753Y-13889031D01*
X12288753Y-13889031D02*
X12298277Y-13908079D01*
X12298277Y-13908079D02*
X12307801Y-13946174D01*
X12307801Y-13946174D02*
X12307801Y-13993793D01*
X12307801Y-13993793D02*
X12298277Y-14031888D01*
X12298277Y-14031888D02*
X12288753Y-14050936D01*
X12288753Y-14050936D02*
X12279229Y-14060460D01*
X12279229Y-14060460D02*
X12260182Y-14069984D01*
X12260182Y-14069984D02*
X12241134Y-14069984D01*
X12241134Y-14069984D02*
X12222086Y-14060460D01*
X12222086Y-14060460D02*
X12212563Y-14050936D01*
X12212563Y-14050936D02*
X12203039Y-14031888D01*
X12203039Y-14031888D02*
X12193515Y-13993793D01*
X12193515Y-13993793D02*
X12193515Y-13946174D01*
X12193515Y-13946174D02*
X12203039Y-13908079D01*
X12203039Y-13908079D02*
X12212563Y-13889031D01*
X12212563Y-13889031D02*
X12222086Y-13879508D01*
X12222086Y-13879508D02*
X12241134Y-13869984D01*
X12393515Y-14050936D02*
X12403039Y-14060460D01*
X12403039Y-14060460D02*
X12393515Y-14069984D01*
X12393515Y-14069984D02*
X12383991Y-14060460D01*
X12383991Y-14060460D02*
X12393515Y-14050936D01*
X12393515Y-14050936D02*
X12393515Y-14069984D01*
X12526848Y-13869984D02*
X12545896Y-13869984D01*
X12545896Y-13869984D02*
X12564944Y-13879508D01*
X12564944Y-13879508D02*
X12574467Y-13889031D01*
X12574467Y-13889031D02*
X12583991Y-13908079D01*
X12583991Y-13908079D02*
X12593515Y-13946174D01*
X12593515Y-13946174D02*
X12593515Y-13993793D01*
X12593515Y-13993793D02*
X12583991Y-14031888D01*
X12583991Y-14031888D02*
X12574467Y-14050936D01*
X12574467Y-14050936D02*
X12564944Y-14060460D01*
X12564944Y-14060460D02*
X12545896Y-14069984D01*
X12545896Y-14069984D02*
X12526848Y-14069984D01*
X12526848Y-14069984D02*
X12507801Y-14060460D01*
X12507801Y-14060460D02*
X12498277Y-14050936D01*
X12498277Y-14050936D02*
X12488753Y-14031888D01*
X12488753Y-14031888D02*
X12479229Y-13993793D01*
X12479229Y-13993793D02*
X12479229Y-13946174D01*
X12479229Y-13946174D02*
X12488753Y-13908079D01*
X12488753Y-13908079D02*
X12498277Y-13889031D01*
X12498277Y-13889031D02*
X12507801Y-13879508D01*
X12507801Y-13879508D02*
X12526848Y-13869984D01*
X12669706Y-13889031D02*
X12679229Y-13879508D01*
X12679229Y-13879508D02*
X12698277Y-13869984D01*
X12698277Y-13869984D02*
X12745896Y-13869984D01*
X12745896Y-13869984D02*
X12764944Y-13879508D01*
X12764944Y-13879508D02*
X12774467Y-13889031D01*
X12774467Y-13889031D02*
X12783991Y-13908079D01*
X12783991Y-13908079D02*
X12783991Y-13927127D01*
X12783991Y-13927127D02*
X12774467Y-13955698D01*
X12774467Y-13955698D02*
X12660182Y-14069984D01*
X12660182Y-14069984D02*
X12783991Y-14069984D01*
X12964944Y-13869984D02*
X12869706Y-13869984D01*
X12869706Y-13869984D02*
X12860182Y-13965222D01*
X12860182Y-13965222D02*
X12869706Y-13955698D01*
X12869706Y-13955698D02*
X12888753Y-13946174D01*
X12888753Y-13946174D02*
X12936372Y-13946174D01*
X12936372Y-13946174D02*
X12955420Y-13955698D01*
X12955420Y-13955698D02*
X12964944Y-13965222D01*
X12964944Y-13965222D02*
X12974467Y-13984269D01*
X12974467Y-13984269D02*
X12974467Y-14031888D01*
X12974467Y-14031888D02*
X12964944Y-14050936D01*
X12964944Y-14050936D02*
X12955420Y-14060460D01*
X12955420Y-14060460D02*
X12936372Y-14069984D01*
X12936372Y-14069984D02*
X12888753Y-14069984D01*
X12888753Y-14069984D02*
X12869706Y-14060460D01*
X12869706Y-14060460D02*
X12860182Y-14050936D01*
X13145896Y-13869984D02*
X13107801Y-13869984D01*
X13107801Y-13869984D02*
X13088753Y-13879508D01*
X13088753Y-13879508D02*
X13079229Y-13889031D01*
X13079229Y-13889031D02*
X13060182Y-13917603D01*
X13060182Y-13917603D02*
X13050658Y-13955698D01*
X13050658Y-13955698D02*
X13050658Y-14031888D01*
X13050658Y-14031888D02*
X13060182Y-14050936D01*
X13060182Y-14050936D02*
X13069706Y-14060460D01*
X13069706Y-14060460D02*
X13088753Y-14069984D01*
X13088753Y-14069984D02*
X13126848Y-14069984D01*
X13126848Y-14069984D02*
X13145896Y-14060460D01*
X13145896Y-14060460D02*
X13155420Y-14050936D01*
X13155420Y-14050936D02*
X13164944Y-14031888D01*
X13164944Y-14031888D02*
X13164944Y-13984269D01*
X13164944Y-13984269D02*
X13155420Y-13965222D01*
X13155420Y-13965222D02*
X13145896Y-13955698D01*
X13145896Y-13955698D02*
X13126848Y-13946174D01*
X13126848Y-13946174D02*
X13088753Y-13946174D01*
X13088753Y-13946174D02*
X13069706Y-13955698D01*
X13069706Y-13955698D02*
X13060182Y-13965222D01*
X13060182Y-13965222D02*
X13050658Y-13984269D01*
X13241134Y-13869984D02*
X13241134Y-13908079D01*
X13317325Y-13869984D02*
X13317325Y-13908079D01*
X13612563Y-14146174D02*
X13603039Y-14136650D01*
X13603039Y-14136650D02*
X13583991Y-14108079D01*
X13583991Y-14108079D02*
X13574468Y-14089031D01*
X13574468Y-14089031D02*
X13564944Y-14060460D01*
X13564944Y-14060460D02*
X13555420Y-14012841D01*
X13555420Y-14012841D02*
X13555420Y-13974746D01*
X13555420Y-13974746D02*
X13564944Y-13927127D01*
X13564944Y-13927127D02*
X13574468Y-13898555D01*
X13574468Y-13898555D02*
X13583991Y-13879508D01*
X13583991Y-13879508D02*
X13603039Y-13850936D01*
X13603039Y-13850936D02*
X13612563Y-13841412D01*
X13679229Y-13889031D02*
X13688753Y-13879508D01*
X13688753Y-13879508D02*
X13707801Y-13869984D01*
X13707801Y-13869984D02*
X13755420Y-13869984D01*
X13755420Y-13869984D02*
X13774468Y-13879508D01*
X13774468Y-13879508D02*
X13783991Y-13889031D01*
X13783991Y-13889031D02*
X13793515Y-13908079D01*
X13793515Y-13908079D02*
X13793515Y-13927127D01*
X13793515Y-13927127D02*
X13783991Y-13955698D01*
X13783991Y-13955698D02*
X13669706Y-14069984D01*
X13669706Y-14069984D02*
X13793515Y-14069984D01*
X14031610Y-14069984D02*
X14031610Y-13869984D01*
X14117325Y-14069984D02*
X14117325Y-13965222D01*
X14117325Y-13965222D02*
X14107801Y-13946174D01*
X14107801Y-13946174D02*
X14088753Y-13936650D01*
X14088753Y-13936650D02*
X14060182Y-13936650D01*
X14060182Y-13936650D02*
X14041134Y-13946174D01*
X14041134Y-13946174D02*
X14031610Y-13955698D01*
X14241134Y-14069984D02*
X14222087Y-14060460D01*
X14222087Y-14060460D02*
X14212563Y-14050936D01*
X14212563Y-14050936D02*
X14203039Y-14031888D01*
X14203039Y-14031888D02*
X14203039Y-13974746D01*
X14203039Y-13974746D02*
X14212563Y-13955698D01*
X14212563Y-13955698D02*
X14222087Y-13946174D01*
X14222087Y-13946174D02*
X14241134Y-13936650D01*
X14241134Y-13936650D02*
X14269706Y-13936650D01*
X14269706Y-13936650D02*
X14288753Y-13946174D01*
X14288753Y-13946174D02*
X14298277Y-13955698D01*
X14298277Y-13955698D02*
X14307801Y-13974746D01*
X14307801Y-13974746D02*
X14307801Y-14031888D01*
X14307801Y-14031888D02*
X14298277Y-14050936D01*
X14298277Y-14050936D02*
X14288753Y-14060460D01*
X14288753Y-14060460D02*
X14269706Y-14069984D01*
X14269706Y-14069984D02*
X14241134Y-14069984D01*
X14422087Y-14069984D02*
X14403039Y-14060460D01*
X14403039Y-14060460D02*
X14393515Y-14041412D01*
X14393515Y-14041412D02*
X14393515Y-13869984D01*
X14574468Y-14060460D02*
X14555420Y-14069984D01*
X14555420Y-14069984D02*
X14517325Y-14069984D01*
X14517325Y-14069984D02*
X14498277Y-14060460D01*
X14498277Y-14060460D02*
X14488753Y-14041412D01*
X14488753Y-14041412D02*
X14488753Y-13965222D01*
X14488753Y-13965222D02*
X14498277Y-13946174D01*
X14498277Y-13946174D02*
X14517325Y-13936650D01*
X14517325Y-13936650D02*
X14555420Y-13936650D01*
X14555420Y-13936650D02*
X14574468Y-13946174D01*
X14574468Y-13946174D02*
X14583991Y-13965222D01*
X14583991Y-13965222D02*
X14583991Y-13984269D01*
X14583991Y-13984269D02*
X14488753Y-14003317D01*
X14660182Y-14060460D02*
X14679230Y-14069984D01*
X14679230Y-14069984D02*
X14717325Y-14069984D01*
X14717325Y-14069984D02*
X14736372Y-14060460D01*
X14736372Y-14060460D02*
X14745896Y-14041412D01*
X14745896Y-14041412D02*
X14745896Y-14031888D01*
X14745896Y-14031888D02*
X14736372Y-14012841D01*
X14736372Y-14012841D02*
X14717325Y-14003317D01*
X14717325Y-14003317D02*
X14688753Y-14003317D01*
X14688753Y-14003317D02*
X14669706Y-13993793D01*
X14669706Y-13993793D02*
X14660182Y-13974746D01*
X14660182Y-13974746D02*
X14660182Y-13965222D01*
X14660182Y-13965222D02*
X14669706Y-13946174D01*
X14669706Y-13946174D02*
X14688753Y-13936650D01*
X14688753Y-13936650D02*
X14717325Y-13936650D01*
X14717325Y-13936650D02*
X14736372Y-13946174D01*
X14812563Y-14146174D02*
X14822087Y-14136650D01*
X14822087Y-14136650D02*
X14841134Y-14108079D01*
X14841134Y-14108079D02*
X14850658Y-14089031D01*
X14850658Y-14089031D02*
X14860182Y-14060460D01*
X14860182Y-14060460D02*
X14869706Y-14012841D01*
X14869706Y-14012841D02*
X14869706Y-13974746D01*
X14869706Y-13974746D02*
X14860182Y-13927127D01*
X14860182Y-13927127D02*
X14850658Y-13898555D01*
X14850658Y-13898555D02*
X14841134Y-13879508D01*
X14841134Y-13879508D02*
X14822087Y-13850936D01*
X14822087Y-13850936D02*
X14812563Y-13841412D01*
D13*
X9907498Y-14177499D02*
X10037500Y-14307501D01*
X10037500Y-14177499D02*
X9907498Y-14307501D01*
X10037500Y-14242500D02*
G75*
G02*
X9907498Y-14242500I-65001J0D01*
G01*
X9907498Y-14242500D02*
G75*
G02*
X10037500Y-14242500I65001J0D01*
G01*
D11*
X10403039Y-14333984D02*
X10288753Y-14333984D01*
X10345896Y-14333984D02*
X10345896Y-14133984D01*
X10345896Y-14133984D02*
X10326848Y-14162555D01*
X10326848Y-14162555D02*
X10307801Y-14181603D01*
X10307801Y-14181603D02*
X10288753Y-14191127D01*
X10488753Y-14314936D02*
X10498277Y-14324460D01*
X10498277Y-14324460D02*
X10488753Y-14333984D01*
X10488753Y-14333984D02*
X10479229Y-14324460D01*
X10479229Y-14324460D02*
X10488753Y-14314936D01*
X10488753Y-14314936D02*
X10488753Y-14333984D01*
X10564944Y-14133984D02*
X10688753Y-14133984D01*
X10688753Y-14133984D02*
X10622086Y-14210174D01*
X10622086Y-14210174D02*
X10650658Y-14210174D01*
X10650658Y-14210174D02*
X10669705Y-14219698D01*
X10669705Y-14219698D02*
X10679229Y-14229222D01*
X10679229Y-14229222D02*
X10688753Y-14248269D01*
X10688753Y-14248269D02*
X10688753Y-14295888D01*
X10688753Y-14295888D02*
X10679229Y-14314936D01*
X10679229Y-14314936D02*
X10669705Y-14324460D01*
X10669705Y-14324460D02*
X10650658Y-14333984D01*
X10650658Y-14333984D02*
X10593515Y-14333984D01*
X10593515Y-14333984D02*
X10574467Y-14324460D01*
X10574467Y-14324460D02*
X10564944Y-14314936D01*
X10812563Y-14133984D02*
X10831610Y-14133984D01*
X10831610Y-14133984D02*
X10850658Y-14143508D01*
X10850658Y-14143508D02*
X10860182Y-14153031D01*
X10860182Y-14153031D02*
X10869705Y-14172079D01*
X10869705Y-14172079D02*
X10879229Y-14210174D01*
X10879229Y-14210174D02*
X10879229Y-14257793D01*
X10879229Y-14257793D02*
X10869705Y-14295888D01*
X10869705Y-14295888D02*
X10860182Y-14314936D01*
X10860182Y-14314936D02*
X10850658Y-14324460D01*
X10850658Y-14324460D02*
X10831610Y-14333984D01*
X10831610Y-14333984D02*
X10812563Y-14333984D01*
X10812563Y-14333984D02*
X10793515Y-14324460D01*
X10793515Y-14324460D02*
X10783991Y-14314936D01*
X10783991Y-14314936D02*
X10774467Y-14295888D01*
X10774467Y-14295888D02*
X10764944Y-14257793D01*
X10764944Y-14257793D02*
X10764944Y-14210174D01*
X10764944Y-14210174D02*
X10774467Y-14172079D01*
X10774467Y-14172079D02*
X10783991Y-14153031D01*
X10783991Y-14153031D02*
X10793515Y-14143508D01*
X10793515Y-14143508D02*
X10812563Y-14133984D01*
X11003039Y-14133984D02*
X11022086Y-14133984D01*
X11022086Y-14133984D02*
X11041134Y-14143508D01*
X11041134Y-14143508D02*
X11050658Y-14153031D01*
X11050658Y-14153031D02*
X11060182Y-14172079D01*
X11060182Y-14172079D02*
X11069705Y-14210174D01*
X11069705Y-14210174D02*
X11069705Y-14257793D01*
X11069705Y-14257793D02*
X11060182Y-14295888D01*
X11060182Y-14295888D02*
X11050658Y-14314936D01*
X11050658Y-14314936D02*
X11041134Y-14324460D01*
X11041134Y-14324460D02*
X11022086Y-14333984D01*
X11022086Y-14333984D02*
X11003039Y-14333984D01*
X11003039Y-14333984D02*
X10983991Y-14324460D01*
X10983991Y-14324460D02*
X10974467Y-14314936D01*
X10974467Y-14314936D02*
X10964944Y-14295888D01*
X10964944Y-14295888D02*
X10955420Y-14257793D01*
X10955420Y-14257793D02*
X10955420Y-14210174D01*
X10955420Y-14210174D02*
X10964944Y-14172079D01*
X10964944Y-14172079D02*
X10974467Y-14153031D01*
X10974467Y-14153031D02*
X10983991Y-14143508D01*
X10983991Y-14143508D02*
X11003039Y-14133984D01*
X11155420Y-14333984D02*
X11155420Y-14200650D01*
X11155420Y-14219698D02*
X11164944Y-14210174D01*
X11164944Y-14210174D02*
X11183991Y-14200650D01*
X11183991Y-14200650D02*
X11212563Y-14200650D01*
X11212563Y-14200650D02*
X11231610Y-14210174D01*
X11231610Y-14210174D02*
X11241134Y-14229222D01*
X11241134Y-14229222D02*
X11241134Y-14333984D01*
X11241134Y-14229222D02*
X11250658Y-14210174D01*
X11250658Y-14210174D02*
X11269705Y-14200650D01*
X11269705Y-14200650D02*
X11298277Y-14200650D01*
X11298277Y-14200650D02*
X11317324Y-14210174D01*
X11317324Y-14210174D02*
X11326848Y-14229222D01*
X11326848Y-14229222D02*
X11326848Y-14333984D01*
X11422086Y-14333984D02*
X11422086Y-14200650D01*
X11422086Y-14219698D02*
X11431610Y-14210174D01*
X11431610Y-14210174D02*
X11450658Y-14200650D01*
X11450658Y-14200650D02*
X11479229Y-14200650D01*
X11479229Y-14200650D02*
X11498277Y-14210174D01*
X11498277Y-14210174D02*
X11507801Y-14229222D01*
X11507801Y-14229222D02*
X11507801Y-14333984D01*
X11507801Y-14229222D02*
X11517324Y-14210174D01*
X11517324Y-14210174D02*
X11536372Y-14200650D01*
X11536372Y-14200650D02*
X11564943Y-14200650D01*
X11564943Y-14200650D02*
X11583991Y-14210174D01*
X11583991Y-14210174D02*
X11593515Y-14229222D01*
X11593515Y-14229222D02*
X11593515Y-14333984D01*
X11983991Y-14124460D02*
X11812563Y-14381603D01*
X12241134Y-14133984D02*
X12260182Y-14133984D01*
X12260182Y-14133984D02*
X12279229Y-14143508D01*
X12279229Y-14143508D02*
X12288753Y-14153031D01*
X12288753Y-14153031D02*
X12298277Y-14172079D01*
X12298277Y-14172079D02*
X12307801Y-14210174D01*
X12307801Y-14210174D02*
X12307801Y-14257793D01*
X12307801Y-14257793D02*
X12298277Y-14295888D01*
X12298277Y-14295888D02*
X12288753Y-14314936D01*
X12288753Y-14314936D02*
X12279229Y-14324460D01*
X12279229Y-14324460D02*
X12260182Y-14333984D01*
X12260182Y-14333984D02*
X12241134Y-14333984D01*
X12241134Y-14333984D02*
X12222086Y-14324460D01*
X12222086Y-14324460D02*
X12212563Y-14314936D01*
X12212563Y-14314936D02*
X12203039Y-14295888D01*
X12203039Y-14295888D02*
X12193515Y-14257793D01*
X12193515Y-14257793D02*
X12193515Y-14210174D01*
X12193515Y-14210174D02*
X12203039Y-14172079D01*
X12203039Y-14172079D02*
X12212563Y-14153031D01*
X12212563Y-14153031D02*
X12222086Y-14143508D01*
X12222086Y-14143508D02*
X12241134Y-14133984D01*
X12393515Y-14314936D02*
X12403039Y-14324460D01*
X12403039Y-14324460D02*
X12393515Y-14333984D01*
X12393515Y-14333984D02*
X12383991Y-14324460D01*
X12383991Y-14324460D02*
X12393515Y-14314936D01*
X12393515Y-14314936D02*
X12393515Y-14333984D01*
X12526848Y-14133984D02*
X12545896Y-14133984D01*
X12545896Y-14133984D02*
X12564944Y-14143508D01*
X12564944Y-14143508D02*
X12574467Y-14153031D01*
X12574467Y-14153031D02*
X12583991Y-14172079D01*
X12583991Y-14172079D02*
X12593515Y-14210174D01*
X12593515Y-14210174D02*
X12593515Y-14257793D01*
X12593515Y-14257793D02*
X12583991Y-14295888D01*
X12583991Y-14295888D02*
X12574467Y-14314936D01*
X12574467Y-14314936D02*
X12564944Y-14324460D01*
X12564944Y-14324460D02*
X12545896Y-14333984D01*
X12545896Y-14333984D02*
X12526848Y-14333984D01*
X12526848Y-14333984D02*
X12507801Y-14324460D01*
X12507801Y-14324460D02*
X12498277Y-14314936D01*
X12498277Y-14314936D02*
X12488753Y-14295888D01*
X12488753Y-14295888D02*
X12479229Y-14257793D01*
X12479229Y-14257793D02*
X12479229Y-14210174D01*
X12479229Y-14210174D02*
X12488753Y-14172079D01*
X12488753Y-14172079D02*
X12498277Y-14153031D01*
X12498277Y-14153031D02*
X12507801Y-14143508D01*
X12507801Y-14143508D02*
X12526848Y-14133984D01*
X12774467Y-14133984D02*
X12679229Y-14133984D01*
X12679229Y-14133984D02*
X12669706Y-14229222D01*
X12669706Y-14229222D02*
X12679229Y-14219698D01*
X12679229Y-14219698D02*
X12698277Y-14210174D01*
X12698277Y-14210174D02*
X12745896Y-14210174D01*
X12745896Y-14210174D02*
X12764944Y-14219698D01*
X12764944Y-14219698D02*
X12774467Y-14229222D01*
X12774467Y-14229222D02*
X12783991Y-14248269D01*
X12783991Y-14248269D02*
X12783991Y-14295888D01*
X12783991Y-14295888D02*
X12774467Y-14314936D01*
X12774467Y-14314936D02*
X12764944Y-14324460D01*
X12764944Y-14324460D02*
X12745896Y-14333984D01*
X12745896Y-14333984D02*
X12698277Y-14333984D01*
X12698277Y-14333984D02*
X12679229Y-14324460D01*
X12679229Y-14324460D02*
X12669706Y-14314936D01*
X12974467Y-14333984D02*
X12860182Y-14333984D01*
X12917325Y-14333984D02*
X12917325Y-14133984D01*
X12917325Y-14133984D02*
X12898277Y-14162555D01*
X12898277Y-14162555D02*
X12879229Y-14181603D01*
X12879229Y-14181603D02*
X12860182Y-14191127D01*
X13050658Y-14153031D02*
X13060182Y-14143508D01*
X13060182Y-14143508D02*
X13079229Y-14133984D01*
X13079229Y-14133984D02*
X13126848Y-14133984D01*
X13126848Y-14133984D02*
X13145896Y-14143508D01*
X13145896Y-14143508D02*
X13155420Y-14153031D01*
X13155420Y-14153031D02*
X13164944Y-14172079D01*
X13164944Y-14172079D02*
X13164944Y-14191127D01*
X13164944Y-14191127D02*
X13155420Y-14219698D01*
X13155420Y-14219698D02*
X13041134Y-14333984D01*
X13041134Y-14333984D02*
X13164944Y-14333984D01*
X13241134Y-14133984D02*
X13241134Y-14172079D01*
X13317325Y-14133984D02*
X13317325Y-14172079D01*
X13612563Y-14410174D02*
X13603039Y-14400650D01*
X13603039Y-14400650D02*
X13583991Y-14372079D01*
X13583991Y-14372079D02*
X13574468Y-14353031D01*
X13574468Y-14353031D02*
X13564944Y-14324460D01*
X13564944Y-14324460D02*
X13555420Y-14276841D01*
X13555420Y-14276841D02*
X13555420Y-14238746D01*
X13555420Y-14238746D02*
X13564944Y-14191127D01*
X13564944Y-14191127D02*
X13574468Y-14162555D01*
X13574468Y-14162555D02*
X13583991Y-14143508D01*
X13583991Y-14143508D02*
X13603039Y-14114936D01*
X13603039Y-14114936D02*
X13612563Y-14105412D01*
X13669706Y-14133984D02*
X13793515Y-14133984D01*
X13793515Y-14133984D02*
X13726848Y-14210174D01*
X13726848Y-14210174D02*
X13755420Y-14210174D01*
X13755420Y-14210174D02*
X13774468Y-14219698D01*
X13774468Y-14219698D02*
X13783991Y-14229222D01*
X13783991Y-14229222D02*
X13793515Y-14248269D01*
X13793515Y-14248269D02*
X13793515Y-14295888D01*
X13793515Y-14295888D02*
X13783991Y-14314936D01*
X13783991Y-14314936D02*
X13774468Y-14324460D01*
X13774468Y-14324460D02*
X13755420Y-14333984D01*
X13755420Y-14333984D02*
X13698277Y-14333984D01*
X13698277Y-14333984D02*
X13679229Y-14324460D01*
X13679229Y-14324460D02*
X13669706Y-14314936D01*
X13917325Y-14133984D02*
X13936372Y-14133984D01*
X13936372Y-14133984D02*
X13955420Y-14143508D01*
X13955420Y-14143508D02*
X13964944Y-14153031D01*
X13964944Y-14153031D02*
X13974468Y-14172079D01*
X13974468Y-14172079D02*
X13983991Y-14210174D01*
X13983991Y-14210174D02*
X13983991Y-14257793D01*
X13983991Y-14257793D02*
X13974468Y-14295888D01*
X13974468Y-14295888D02*
X13964944Y-14314936D01*
X13964944Y-14314936D02*
X13955420Y-14324460D01*
X13955420Y-14324460D02*
X13936372Y-14333984D01*
X13936372Y-14333984D02*
X13917325Y-14333984D01*
X13917325Y-14333984D02*
X13898277Y-14324460D01*
X13898277Y-14324460D02*
X13888753Y-14314936D01*
X13888753Y-14314936D02*
X13879229Y-14295888D01*
X13879229Y-14295888D02*
X13869706Y-14257793D01*
X13869706Y-14257793D02*
X13869706Y-14210174D01*
X13869706Y-14210174D02*
X13879229Y-14172079D01*
X13879229Y-14172079D02*
X13888753Y-14153031D01*
X13888753Y-14153031D02*
X13898277Y-14143508D01*
X13898277Y-14143508D02*
X13917325Y-14133984D01*
X14222087Y-14333984D02*
X14222087Y-14133984D01*
X14307801Y-14333984D02*
X14307801Y-14229222D01*
X14307801Y-14229222D02*
X14298277Y-14210174D01*
X14298277Y-14210174D02*
X14279230Y-14200650D01*
X14279230Y-14200650D02*
X14250658Y-14200650D01*
X14250658Y-14200650D02*
X14231610Y-14210174D01*
X14231610Y-14210174D02*
X14222087Y-14219698D01*
X14431610Y-14333984D02*
X14412563Y-14324460D01*
X14412563Y-14324460D02*
X14403039Y-14314936D01*
X14403039Y-14314936D02*
X14393515Y-14295888D01*
X14393515Y-14295888D02*
X14393515Y-14238746D01*
X14393515Y-14238746D02*
X14403039Y-14219698D01*
X14403039Y-14219698D02*
X14412563Y-14210174D01*
X14412563Y-14210174D02*
X14431610Y-14200650D01*
X14431610Y-14200650D02*
X14460182Y-14200650D01*
X14460182Y-14200650D02*
X14479230Y-14210174D01*
X14479230Y-14210174D02*
X14488753Y-14219698D01*
X14488753Y-14219698D02*
X14498277Y-14238746D01*
X14498277Y-14238746D02*
X14498277Y-14295888D01*
X14498277Y-14295888D02*
X14488753Y-14314936D01*
X14488753Y-14314936D02*
X14479230Y-14324460D01*
X14479230Y-14324460D02*
X14460182Y-14333984D01*
X14460182Y-14333984D02*
X14431610Y-14333984D01*
X14612563Y-14333984D02*
X14593515Y-14324460D01*
X14593515Y-14324460D02*
X14583991Y-14305412D01*
X14583991Y-14305412D02*
X14583991Y-14133984D01*
X14764944Y-14324460D02*
X14745896Y-14333984D01*
X14745896Y-14333984D02*
X14707801Y-14333984D01*
X14707801Y-14333984D02*
X14688753Y-14324460D01*
X14688753Y-14324460D02*
X14679230Y-14305412D01*
X14679230Y-14305412D02*
X14679230Y-14229222D01*
X14679230Y-14229222D02*
X14688753Y-14210174D01*
X14688753Y-14210174D02*
X14707801Y-14200650D01*
X14707801Y-14200650D02*
X14745896Y-14200650D01*
X14745896Y-14200650D02*
X14764944Y-14210174D01*
X14764944Y-14210174D02*
X14774468Y-14229222D01*
X14774468Y-14229222D02*
X14774468Y-14248269D01*
X14774468Y-14248269D02*
X14679230Y-14267317D01*
X14850658Y-14324460D02*
X14869706Y-14333984D01*
X14869706Y-14333984D02*
X14907801Y-14333984D01*
X14907801Y-14333984D02*
X14926849Y-14324460D01*
X14926849Y-14324460D02*
X14936372Y-14305412D01*
X14936372Y-14305412D02*
X14936372Y-14295888D01*
X14936372Y-14295888D02*
X14926849Y-14276841D01*
X14926849Y-14276841D02*
X14907801Y-14267317D01*
X14907801Y-14267317D02*
X14879230Y-14267317D01*
X14879230Y-14267317D02*
X14860182Y-14257793D01*
X14860182Y-14257793D02*
X14850658Y-14238746D01*
X14850658Y-14238746D02*
X14850658Y-14229222D01*
X14850658Y-14229222D02*
X14860182Y-14210174D01*
X14860182Y-14210174D02*
X14879230Y-14200650D01*
X14879230Y-14200650D02*
X14907801Y-14200650D01*
X14907801Y-14200650D02*
X14926849Y-14210174D01*
X15003039Y-14410174D02*
X15012563Y-14400650D01*
X15012563Y-14400650D02*
X15031611Y-14372079D01*
X15031611Y-14372079D02*
X15041134Y-14353031D01*
X15041134Y-14353031D02*
X15050658Y-14324460D01*
X15050658Y-14324460D02*
X15060182Y-14276841D01*
X15060182Y-14276841D02*
X15060182Y-14238746D01*
X15060182Y-14238746D02*
X15050658Y-14191127D01*
X15050658Y-14191127D02*
X15041134Y-14162555D01*
X15041134Y-14162555D02*
X15031611Y-14143508D01*
X15031611Y-14143508D02*
X15012563Y-14114936D01*
X15012563Y-14114936D02*
X15003039Y-14105412D01*
M02*
