%TF.GenerationSoftware,KiCad,Pcbnew,8.0.2*%
%TF.CreationDate,2024-10-06T11:27:00+02:00*%
%TF.ProjectId,distribution_amp_for_singapore_dude,64697374-7269-4627-9574-696f6e5f616d,rev?*%
%TF.SameCoordinates,Original*%
%TF.FileFunction,Legend,Top*%
%TF.FilePolarity,Positive*%
%FSLAX46Y46*%
G04 Gerber Fmt 4.6, Leading zero omitted, Abs format (unit mm)*
G04 Created by KiCad (PCBNEW 8.0.2) date 2024-10-06 11:27:00*
%MOMM*%
%LPD*%
G01*
G04 APERTURE LIST*
G04 Aperture macros list*
%AMRoundRect*
0 Rectangle with rounded corners*
0 $1 Rounding radius*
0 $2 $3 $4 $5 $6 $7 $8 $9 X,Y pos of 4 corners*
0 Add a 4 corners polygon primitive as box body*
4,1,4,$2,$3,$4,$5,$6,$7,$8,$9,$2,$3,0*
0 Add four circle primitives for the rounded corners*
1,1,$1+$1,$2,$3*
1,1,$1+$1,$4,$5*
1,1,$1+$1,$6,$7*
1,1,$1+$1,$8,$9*
0 Add four rect primitives between the rounded corners*
20,1,$1+$1,$2,$3,$4,$5,0*
20,1,$1+$1,$4,$5,$6,$7,0*
20,1,$1+$1,$6,$7,$8,$9,0*
20,1,$1+$1,$8,$9,$2,$3,0*%
G04 Aperture macros list end*
%ADD10C,0.100000*%
%ADD11C,0.150000*%
%ADD12C,0.125000*%
%ADD13C,0.250000*%
%ADD14C,0.300000*%
%ADD15C,0.120000*%
%ADD16R,1.410000X1.350000*%
%ADD17R,1.350000X1.410000*%
%ADD18R,1.400000X0.760000*%
%ADD19R,1.490000X1.730000*%
%ADD20R,1.380000X1.130000*%
%ADD21R,1.130000X1.380000*%
%ADD22C,0.650000*%
%ADD23O,2.100000X1.000000*%
%ADD24O,1.800000X1.000000*%
%ADD25R,1.150000X0.600000*%
%ADD26R,1.150000X0.300000*%
%ADD27R,2.000000X4.500000*%
%ADD28R,1.730000X1.490000*%
%ADD29C,2.300000*%
%ADD30R,1.600000X3.500000*%
%ADD31O,0.630000X1.860000*%
%ADD32R,0.760000X1.400000*%
%ADD33RoundRect,0.100000X-0.637500X-0.100000X0.637500X-0.100000X0.637500X0.100000X-0.637500X0.100000X0*%
G04 APERTURE END LIST*
D10*
X114400000Y-118300000D02*
X114400000Y-121000000D01*
X109480000Y-105360000D02*
X108100000Y-106600000D01*
X108100000Y-111000000D02*
X108100000Y-112600000D01*
X109600000Y-118300000D02*
X109600000Y-121000000D01*
X109600000Y-118300000D02*
X108000000Y-117000000D01*
X117800000Y-105900000D02*
X117300000Y-106700000D01*
X109600000Y-118300000D02*
X114400000Y-118300000D01*
X130200000Y-97500000D02*
X129600000Y-99900000D01*
X115303884Y-119362475D02*
X115303884Y-118362475D01*
X115303884Y-118362475D02*
X115541979Y-118362475D01*
X115541979Y-118362475D02*
X115684836Y-118410094D01*
X115684836Y-118410094D02*
X115780074Y-118505332D01*
X115780074Y-118505332D02*
X115827693Y-118600570D01*
X115827693Y-118600570D02*
X115875312Y-118791046D01*
X115875312Y-118791046D02*
X115875312Y-118933903D01*
X115875312Y-118933903D02*
X115827693Y-119124379D01*
X115827693Y-119124379D02*
X115780074Y-119219617D01*
X115780074Y-119219617D02*
X115684836Y-119314856D01*
X115684836Y-119314856D02*
X115541979Y-119362475D01*
X115541979Y-119362475D02*
X115303884Y-119362475D01*
X116684836Y-119314856D02*
X116589598Y-119362475D01*
X116589598Y-119362475D02*
X116399122Y-119362475D01*
X116399122Y-119362475D02*
X116303884Y-119314856D01*
X116303884Y-119314856D02*
X116256265Y-119219617D01*
X116256265Y-119219617D02*
X116256265Y-118838665D01*
X116256265Y-118838665D02*
X116303884Y-118743427D01*
X116303884Y-118743427D02*
X116399122Y-118695808D01*
X116399122Y-118695808D02*
X116589598Y-118695808D01*
X116589598Y-118695808D02*
X116684836Y-118743427D01*
X116684836Y-118743427D02*
X116732455Y-118838665D01*
X116732455Y-118838665D02*
X116732455Y-118933903D01*
X116732455Y-118933903D02*
X116256265Y-119029141D01*
X117113408Y-119314856D02*
X117208646Y-119362475D01*
X117208646Y-119362475D02*
X117399122Y-119362475D01*
X117399122Y-119362475D02*
X117494360Y-119314856D01*
X117494360Y-119314856D02*
X117541979Y-119219617D01*
X117541979Y-119219617D02*
X117541979Y-119171998D01*
X117541979Y-119171998D02*
X117494360Y-119076760D01*
X117494360Y-119076760D02*
X117399122Y-119029141D01*
X117399122Y-119029141D02*
X117256265Y-119029141D01*
X117256265Y-119029141D02*
X117161027Y-118981522D01*
X117161027Y-118981522D02*
X117113408Y-118886284D01*
X117113408Y-118886284D02*
X117113408Y-118838665D01*
X117113408Y-118838665D02*
X117161027Y-118743427D01*
X117161027Y-118743427D02*
X117256265Y-118695808D01*
X117256265Y-118695808D02*
X117399122Y-118695808D01*
X117399122Y-118695808D02*
X117494360Y-118743427D01*
X117970551Y-119362475D02*
X117970551Y-118695808D01*
X117970551Y-118362475D02*
X117922932Y-118410094D01*
X117922932Y-118410094D02*
X117970551Y-118457713D01*
X117970551Y-118457713D02*
X118018170Y-118410094D01*
X118018170Y-118410094D02*
X117970551Y-118362475D01*
X117970551Y-118362475D02*
X117970551Y-118457713D01*
X118875312Y-118695808D02*
X118875312Y-119505332D01*
X118875312Y-119505332D02*
X118827693Y-119600570D01*
X118827693Y-119600570D02*
X118780074Y-119648189D01*
X118780074Y-119648189D02*
X118684836Y-119695808D01*
X118684836Y-119695808D02*
X118541979Y-119695808D01*
X118541979Y-119695808D02*
X118446741Y-119648189D01*
X118875312Y-119314856D02*
X118780074Y-119362475D01*
X118780074Y-119362475D02*
X118589598Y-119362475D01*
X118589598Y-119362475D02*
X118494360Y-119314856D01*
X118494360Y-119314856D02*
X118446741Y-119267236D01*
X118446741Y-119267236D02*
X118399122Y-119171998D01*
X118399122Y-119171998D02*
X118399122Y-118886284D01*
X118399122Y-118886284D02*
X118446741Y-118791046D01*
X118446741Y-118791046D02*
X118494360Y-118743427D01*
X118494360Y-118743427D02*
X118589598Y-118695808D01*
X118589598Y-118695808D02*
X118780074Y-118695808D01*
X118780074Y-118695808D02*
X118875312Y-118743427D01*
X119351503Y-118695808D02*
X119351503Y-119362475D01*
X119351503Y-118791046D02*
X119399122Y-118743427D01*
X119399122Y-118743427D02*
X119494360Y-118695808D01*
X119494360Y-118695808D02*
X119637217Y-118695808D01*
X119637217Y-118695808D02*
X119732455Y-118743427D01*
X119732455Y-118743427D02*
X119780074Y-118838665D01*
X119780074Y-118838665D02*
X119780074Y-119362475D01*
X120637217Y-119314856D02*
X120541979Y-119362475D01*
X120541979Y-119362475D02*
X120351503Y-119362475D01*
X120351503Y-119362475D02*
X120256265Y-119314856D01*
X120256265Y-119314856D02*
X120208646Y-119219617D01*
X120208646Y-119219617D02*
X120208646Y-118838665D01*
X120208646Y-118838665D02*
X120256265Y-118743427D01*
X120256265Y-118743427D02*
X120351503Y-118695808D01*
X120351503Y-118695808D02*
X120541979Y-118695808D01*
X120541979Y-118695808D02*
X120637217Y-118743427D01*
X120637217Y-118743427D02*
X120684836Y-118838665D01*
X120684836Y-118838665D02*
X120684836Y-118933903D01*
X120684836Y-118933903D02*
X120208646Y-119029141D01*
X121541979Y-119362475D02*
X121541979Y-118362475D01*
X121541979Y-119314856D02*
X121446741Y-119362475D01*
X121446741Y-119362475D02*
X121256265Y-119362475D01*
X121256265Y-119362475D02*
X121161027Y-119314856D01*
X121161027Y-119314856D02*
X121113408Y-119267236D01*
X121113408Y-119267236D02*
X121065789Y-119171998D01*
X121065789Y-119171998D02*
X121065789Y-118886284D01*
X121065789Y-118886284D02*
X121113408Y-118791046D01*
X121113408Y-118791046D02*
X121161027Y-118743427D01*
X121161027Y-118743427D02*
X121256265Y-118695808D01*
X121256265Y-118695808D02*
X121446741Y-118695808D01*
X121446741Y-118695808D02*
X121541979Y-118743427D01*
X122780075Y-119362475D02*
X122780075Y-118362475D01*
X122780075Y-118743427D02*
X122875313Y-118695808D01*
X122875313Y-118695808D02*
X123065789Y-118695808D01*
X123065789Y-118695808D02*
X123161027Y-118743427D01*
X123161027Y-118743427D02*
X123208646Y-118791046D01*
X123208646Y-118791046D02*
X123256265Y-118886284D01*
X123256265Y-118886284D02*
X123256265Y-119171998D01*
X123256265Y-119171998D02*
X123208646Y-119267236D01*
X123208646Y-119267236D02*
X123161027Y-119314856D01*
X123161027Y-119314856D02*
X123065789Y-119362475D01*
X123065789Y-119362475D02*
X122875313Y-119362475D01*
X122875313Y-119362475D02*
X122780075Y-119314856D01*
X123589599Y-118695808D02*
X123827694Y-119362475D01*
X124065789Y-118695808D02*
X123827694Y-119362475D01*
X123827694Y-119362475D02*
X123732456Y-119600570D01*
X123732456Y-119600570D02*
X123684837Y-119648189D01*
X123684837Y-119648189D02*
X123589599Y-119695808D01*
X115256265Y-120924800D02*
X115399122Y-120972419D01*
X115399122Y-120972419D02*
X115637217Y-120972419D01*
X115637217Y-120972419D02*
X115732455Y-120924800D01*
X115732455Y-120924800D02*
X115780074Y-120877180D01*
X115780074Y-120877180D02*
X115827693Y-120781942D01*
X115827693Y-120781942D02*
X115827693Y-120686704D01*
X115827693Y-120686704D02*
X115780074Y-120591466D01*
X115780074Y-120591466D02*
X115732455Y-120543847D01*
X115732455Y-120543847D02*
X115637217Y-120496228D01*
X115637217Y-120496228D02*
X115446741Y-120448609D01*
X115446741Y-120448609D02*
X115351503Y-120400990D01*
X115351503Y-120400990D02*
X115303884Y-120353371D01*
X115303884Y-120353371D02*
X115256265Y-120258133D01*
X115256265Y-120258133D02*
X115256265Y-120162895D01*
X115256265Y-120162895D02*
X115303884Y-120067657D01*
X115303884Y-120067657D02*
X115351503Y-120020038D01*
X115351503Y-120020038D02*
X115446741Y-119972419D01*
X115446741Y-119972419D02*
X115684836Y-119972419D01*
X115684836Y-119972419D02*
X115827693Y-120020038D01*
X116256265Y-120972419D02*
X116256265Y-119972419D01*
X116256265Y-119972419D02*
X116637217Y-119972419D01*
X116637217Y-119972419D02*
X116732455Y-120020038D01*
X116732455Y-120020038D02*
X116780074Y-120067657D01*
X116780074Y-120067657D02*
X116827693Y-120162895D01*
X116827693Y-120162895D02*
X116827693Y-120305752D01*
X116827693Y-120305752D02*
X116780074Y-120400990D01*
X116780074Y-120400990D02*
X116732455Y-120448609D01*
X116732455Y-120448609D02*
X116637217Y-120496228D01*
X116637217Y-120496228D02*
X116256265Y-120496228D01*
X117303884Y-120972419D02*
X117494360Y-120972419D01*
X117494360Y-120972419D02*
X117589598Y-120924800D01*
X117589598Y-120924800D02*
X117637217Y-120877180D01*
X117637217Y-120877180D02*
X117732455Y-120734323D01*
X117732455Y-120734323D02*
X117780074Y-120543847D01*
X117780074Y-120543847D02*
X117780074Y-120162895D01*
X117780074Y-120162895D02*
X117732455Y-120067657D01*
X117732455Y-120067657D02*
X117684836Y-120020038D01*
X117684836Y-120020038D02*
X117589598Y-119972419D01*
X117589598Y-119972419D02*
X117399122Y-119972419D01*
X117399122Y-119972419D02*
X117303884Y-120020038D01*
X117303884Y-120020038D02*
X117256265Y-120067657D01*
X117256265Y-120067657D02*
X117208646Y-120162895D01*
X117208646Y-120162895D02*
X117208646Y-120400990D01*
X117208646Y-120400990D02*
X117256265Y-120496228D01*
X117256265Y-120496228D02*
X117303884Y-120543847D01*
X117303884Y-120543847D02*
X117399122Y-120591466D01*
X117399122Y-120591466D02*
X117589598Y-120591466D01*
X117589598Y-120591466D02*
X117684836Y-120543847D01*
X117684836Y-120543847D02*
X117732455Y-120496228D01*
X117732455Y-120496228D02*
X117780074Y-120400990D01*
X118732455Y-120020038D02*
X118637217Y-119972419D01*
X118637217Y-119972419D02*
X118494360Y-119972419D01*
X118494360Y-119972419D02*
X118351503Y-120020038D01*
X118351503Y-120020038D02*
X118256265Y-120115276D01*
X118256265Y-120115276D02*
X118208646Y-120210514D01*
X118208646Y-120210514D02*
X118161027Y-120400990D01*
X118161027Y-120400990D02*
X118161027Y-120543847D01*
X118161027Y-120543847D02*
X118208646Y-120734323D01*
X118208646Y-120734323D02*
X118256265Y-120829561D01*
X118256265Y-120829561D02*
X118351503Y-120924800D01*
X118351503Y-120924800D02*
X118494360Y-120972419D01*
X118494360Y-120972419D02*
X118589598Y-120972419D01*
X118589598Y-120972419D02*
X118732455Y-120924800D01*
X118732455Y-120924800D02*
X118780074Y-120877180D01*
X118780074Y-120877180D02*
X118780074Y-120543847D01*
X118780074Y-120543847D02*
X118589598Y-120543847D01*
X119208646Y-120972419D02*
X119208646Y-119972419D01*
X119208646Y-119972419D02*
X119541979Y-120686704D01*
X119541979Y-120686704D02*
X119875312Y-119972419D01*
X119875312Y-119972419D02*
X119875312Y-120972419D01*
X120351503Y-120972419D02*
X120351503Y-119972419D01*
X120351503Y-119972419D02*
X120589598Y-119972419D01*
X120589598Y-119972419D02*
X120732455Y-120020038D01*
X120732455Y-120020038D02*
X120827693Y-120115276D01*
X120827693Y-120115276D02*
X120875312Y-120210514D01*
X120875312Y-120210514D02*
X120922931Y-120400990D01*
X120922931Y-120400990D02*
X120922931Y-120543847D01*
X120922931Y-120543847D02*
X120875312Y-120734323D01*
X120875312Y-120734323D02*
X120827693Y-120829561D01*
X120827693Y-120829561D02*
X120732455Y-120924800D01*
X120732455Y-120924800D02*
X120589598Y-120972419D01*
X120589598Y-120972419D02*
X120351503Y-120972419D01*
D11*
X114357142Y-83159580D02*
X114309523Y-83207200D01*
X114309523Y-83207200D02*
X114166666Y-83254819D01*
X114166666Y-83254819D02*
X114071428Y-83254819D01*
X114071428Y-83254819D02*
X113928571Y-83207200D01*
X113928571Y-83207200D02*
X113833333Y-83111961D01*
X113833333Y-83111961D02*
X113785714Y-83016723D01*
X113785714Y-83016723D02*
X113738095Y-82826247D01*
X113738095Y-82826247D02*
X113738095Y-82683390D01*
X113738095Y-82683390D02*
X113785714Y-82492914D01*
X113785714Y-82492914D02*
X113833333Y-82397676D01*
X113833333Y-82397676D02*
X113928571Y-82302438D01*
X113928571Y-82302438D02*
X114071428Y-82254819D01*
X114071428Y-82254819D02*
X114166666Y-82254819D01*
X114166666Y-82254819D02*
X114309523Y-82302438D01*
X114309523Y-82302438D02*
X114357142Y-82350057D01*
X114738095Y-82350057D02*
X114785714Y-82302438D01*
X114785714Y-82302438D02*
X114880952Y-82254819D01*
X114880952Y-82254819D02*
X115119047Y-82254819D01*
X115119047Y-82254819D02*
X115214285Y-82302438D01*
X115214285Y-82302438D02*
X115261904Y-82350057D01*
X115261904Y-82350057D02*
X115309523Y-82445295D01*
X115309523Y-82445295D02*
X115309523Y-82540533D01*
X115309523Y-82540533D02*
X115261904Y-82683390D01*
X115261904Y-82683390D02*
X114690476Y-83254819D01*
X114690476Y-83254819D02*
X115309523Y-83254819D01*
X116261904Y-83254819D02*
X115690476Y-83254819D01*
X115976190Y-83254819D02*
X115976190Y-82254819D01*
X115976190Y-82254819D02*
X115880952Y-82397676D01*
X115880952Y-82397676D02*
X115785714Y-82492914D01*
X115785714Y-82492914D02*
X115690476Y-82540533D01*
D12*
X109078571Y-110577190D02*
X109054762Y-110601000D01*
X109054762Y-110601000D02*
X108983333Y-110624809D01*
X108983333Y-110624809D02*
X108935714Y-110624809D01*
X108935714Y-110624809D02*
X108864286Y-110601000D01*
X108864286Y-110601000D02*
X108816667Y-110553380D01*
X108816667Y-110553380D02*
X108792857Y-110505761D01*
X108792857Y-110505761D02*
X108769048Y-110410523D01*
X108769048Y-110410523D02*
X108769048Y-110339095D01*
X108769048Y-110339095D02*
X108792857Y-110243857D01*
X108792857Y-110243857D02*
X108816667Y-110196238D01*
X108816667Y-110196238D02*
X108864286Y-110148619D01*
X108864286Y-110148619D02*
X108935714Y-110124809D01*
X108935714Y-110124809D02*
X108983333Y-110124809D01*
X108983333Y-110124809D02*
X109054762Y-110148619D01*
X109054762Y-110148619D02*
X109078571Y-110172428D01*
X109269048Y-110172428D02*
X109292857Y-110148619D01*
X109292857Y-110148619D02*
X109340476Y-110124809D01*
X109340476Y-110124809D02*
X109459524Y-110124809D01*
X109459524Y-110124809D02*
X109507143Y-110148619D01*
X109507143Y-110148619D02*
X109530952Y-110172428D01*
X109530952Y-110172428D02*
X109554762Y-110220047D01*
X109554762Y-110220047D02*
X109554762Y-110267666D01*
X109554762Y-110267666D02*
X109530952Y-110339095D01*
X109530952Y-110339095D02*
X109245238Y-110624809D01*
X109245238Y-110624809D02*
X109554762Y-110624809D01*
X109864285Y-110124809D02*
X109911904Y-110124809D01*
X109911904Y-110124809D02*
X109959523Y-110148619D01*
X109959523Y-110148619D02*
X109983333Y-110172428D01*
X109983333Y-110172428D02*
X110007142Y-110220047D01*
X110007142Y-110220047D02*
X110030952Y-110315285D01*
X110030952Y-110315285D02*
X110030952Y-110434333D01*
X110030952Y-110434333D02*
X110007142Y-110529571D01*
X110007142Y-110529571D02*
X109983333Y-110577190D01*
X109983333Y-110577190D02*
X109959523Y-110601000D01*
X109959523Y-110601000D02*
X109911904Y-110624809D01*
X109911904Y-110624809D02*
X109864285Y-110624809D01*
X109864285Y-110624809D02*
X109816666Y-110601000D01*
X109816666Y-110601000D02*
X109792857Y-110577190D01*
X109792857Y-110577190D02*
X109769047Y-110529571D01*
X109769047Y-110529571D02*
X109745238Y-110434333D01*
X109745238Y-110434333D02*
X109745238Y-110315285D01*
X109745238Y-110315285D02*
X109769047Y-110220047D01*
X109769047Y-110220047D02*
X109792857Y-110172428D01*
X109792857Y-110172428D02*
X109816666Y-110148619D01*
X109816666Y-110148619D02*
X109864285Y-110124809D01*
D11*
X102059580Y-112442857D02*
X102107200Y-112490476D01*
X102107200Y-112490476D02*
X102154819Y-112633333D01*
X102154819Y-112633333D02*
X102154819Y-112728571D01*
X102154819Y-112728571D02*
X102107200Y-112871428D01*
X102107200Y-112871428D02*
X102011961Y-112966666D01*
X102011961Y-112966666D02*
X101916723Y-113014285D01*
X101916723Y-113014285D02*
X101726247Y-113061904D01*
X101726247Y-113061904D02*
X101583390Y-113061904D01*
X101583390Y-113061904D02*
X101392914Y-113014285D01*
X101392914Y-113014285D02*
X101297676Y-112966666D01*
X101297676Y-112966666D02*
X101202438Y-112871428D01*
X101202438Y-112871428D02*
X101154819Y-112728571D01*
X101154819Y-112728571D02*
X101154819Y-112633333D01*
X101154819Y-112633333D02*
X101202438Y-112490476D01*
X101202438Y-112490476D02*
X101250057Y-112442857D01*
X102154819Y-111490476D02*
X102154819Y-112061904D01*
X102154819Y-111776190D02*
X101154819Y-111776190D01*
X101154819Y-111776190D02*
X101297676Y-111871428D01*
X101297676Y-111871428D02*
X101392914Y-111966666D01*
X101392914Y-111966666D02*
X101440533Y-112061904D01*
X102154819Y-111014285D02*
X102154819Y-110823809D01*
X102154819Y-110823809D02*
X102107200Y-110728571D01*
X102107200Y-110728571D02*
X102059580Y-110680952D01*
X102059580Y-110680952D02*
X101916723Y-110585714D01*
X101916723Y-110585714D02*
X101726247Y-110538095D01*
X101726247Y-110538095D02*
X101345295Y-110538095D01*
X101345295Y-110538095D02*
X101250057Y-110585714D01*
X101250057Y-110585714D02*
X101202438Y-110633333D01*
X101202438Y-110633333D02*
X101154819Y-110728571D01*
X101154819Y-110728571D02*
X101154819Y-110919047D01*
X101154819Y-110919047D02*
X101202438Y-111014285D01*
X101202438Y-111014285D02*
X101250057Y-111061904D01*
X101250057Y-111061904D02*
X101345295Y-111109523D01*
X101345295Y-111109523D02*
X101583390Y-111109523D01*
X101583390Y-111109523D02*
X101678628Y-111061904D01*
X101678628Y-111061904D02*
X101726247Y-111014285D01*
X101726247Y-111014285D02*
X101773866Y-110919047D01*
X101773866Y-110919047D02*
X101773866Y-110728571D01*
X101773866Y-110728571D02*
X101726247Y-110633333D01*
X101726247Y-110633333D02*
X101678628Y-110585714D01*
X101678628Y-110585714D02*
X101583390Y-110538095D01*
X102059580Y-91642857D02*
X102107200Y-91690476D01*
X102107200Y-91690476D02*
X102154819Y-91833333D01*
X102154819Y-91833333D02*
X102154819Y-91928571D01*
X102154819Y-91928571D02*
X102107200Y-92071428D01*
X102107200Y-92071428D02*
X102011961Y-92166666D01*
X102011961Y-92166666D02*
X101916723Y-92214285D01*
X101916723Y-92214285D02*
X101726247Y-92261904D01*
X101726247Y-92261904D02*
X101583390Y-92261904D01*
X101583390Y-92261904D02*
X101392914Y-92214285D01*
X101392914Y-92214285D02*
X101297676Y-92166666D01*
X101297676Y-92166666D02*
X101202438Y-92071428D01*
X101202438Y-92071428D02*
X101154819Y-91928571D01*
X101154819Y-91928571D02*
X101154819Y-91833333D01*
X101154819Y-91833333D02*
X101202438Y-91690476D01*
X101202438Y-91690476D02*
X101250057Y-91642857D01*
X102154819Y-90690476D02*
X102154819Y-91261904D01*
X102154819Y-90976190D02*
X101154819Y-90976190D01*
X101154819Y-90976190D02*
X101297676Y-91071428D01*
X101297676Y-91071428D02*
X101392914Y-91166666D01*
X101392914Y-91166666D02*
X101440533Y-91261904D01*
X101583390Y-90119047D02*
X101535771Y-90214285D01*
X101535771Y-90214285D02*
X101488152Y-90261904D01*
X101488152Y-90261904D02*
X101392914Y-90309523D01*
X101392914Y-90309523D02*
X101345295Y-90309523D01*
X101345295Y-90309523D02*
X101250057Y-90261904D01*
X101250057Y-90261904D02*
X101202438Y-90214285D01*
X101202438Y-90214285D02*
X101154819Y-90119047D01*
X101154819Y-90119047D02*
X101154819Y-89928571D01*
X101154819Y-89928571D02*
X101202438Y-89833333D01*
X101202438Y-89833333D02*
X101250057Y-89785714D01*
X101250057Y-89785714D02*
X101345295Y-89738095D01*
X101345295Y-89738095D02*
X101392914Y-89738095D01*
X101392914Y-89738095D02*
X101488152Y-89785714D01*
X101488152Y-89785714D02*
X101535771Y-89833333D01*
X101535771Y-89833333D02*
X101583390Y-89928571D01*
X101583390Y-89928571D02*
X101583390Y-90119047D01*
X101583390Y-90119047D02*
X101631009Y-90214285D01*
X101631009Y-90214285D02*
X101678628Y-90261904D01*
X101678628Y-90261904D02*
X101773866Y-90309523D01*
X101773866Y-90309523D02*
X101964342Y-90309523D01*
X101964342Y-90309523D02*
X102059580Y-90261904D01*
X102059580Y-90261904D02*
X102107200Y-90214285D01*
X102107200Y-90214285D02*
X102154819Y-90119047D01*
X102154819Y-90119047D02*
X102154819Y-89928571D01*
X102154819Y-89928571D02*
X102107200Y-89833333D01*
X102107200Y-89833333D02*
X102059580Y-89785714D01*
X102059580Y-89785714D02*
X101964342Y-89738095D01*
X101964342Y-89738095D02*
X101773866Y-89738095D01*
X101773866Y-89738095D02*
X101678628Y-89785714D01*
X101678628Y-89785714D02*
X101631009Y-89833333D01*
X101631009Y-89833333D02*
X101583390Y-89928571D01*
X135959580Y-109066666D02*
X136007200Y-109114285D01*
X136007200Y-109114285D02*
X136054819Y-109257142D01*
X136054819Y-109257142D02*
X136054819Y-109352380D01*
X136054819Y-109352380D02*
X136007200Y-109495237D01*
X136007200Y-109495237D02*
X135911961Y-109590475D01*
X135911961Y-109590475D02*
X135816723Y-109638094D01*
X135816723Y-109638094D02*
X135626247Y-109685713D01*
X135626247Y-109685713D02*
X135483390Y-109685713D01*
X135483390Y-109685713D02*
X135292914Y-109638094D01*
X135292914Y-109638094D02*
X135197676Y-109590475D01*
X135197676Y-109590475D02*
X135102438Y-109495237D01*
X135102438Y-109495237D02*
X135054819Y-109352380D01*
X135054819Y-109352380D02*
X135054819Y-109257142D01*
X135054819Y-109257142D02*
X135102438Y-109114285D01*
X135102438Y-109114285D02*
X135150057Y-109066666D01*
X135483390Y-108495237D02*
X135435771Y-108590475D01*
X135435771Y-108590475D02*
X135388152Y-108638094D01*
X135388152Y-108638094D02*
X135292914Y-108685713D01*
X135292914Y-108685713D02*
X135245295Y-108685713D01*
X135245295Y-108685713D02*
X135150057Y-108638094D01*
X135150057Y-108638094D02*
X135102438Y-108590475D01*
X135102438Y-108590475D02*
X135054819Y-108495237D01*
X135054819Y-108495237D02*
X135054819Y-108304761D01*
X135054819Y-108304761D02*
X135102438Y-108209523D01*
X135102438Y-108209523D02*
X135150057Y-108161904D01*
X135150057Y-108161904D02*
X135245295Y-108114285D01*
X135245295Y-108114285D02*
X135292914Y-108114285D01*
X135292914Y-108114285D02*
X135388152Y-108161904D01*
X135388152Y-108161904D02*
X135435771Y-108209523D01*
X135435771Y-108209523D02*
X135483390Y-108304761D01*
X135483390Y-108304761D02*
X135483390Y-108495237D01*
X135483390Y-108495237D02*
X135531009Y-108590475D01*
X135531009Y-108590475D02*
X135578628Y-108638094D01*
X135578628Y-108638094D02*
X135673866Y-108685713D01*
X135673866Y-108685713D02*
X135864342Y-108685713D01*
X135864342Y-108685713D02*
X135959580Y-108638094D01*
X135959580Y-108638094D02*
X136007200Y-108590475D01*
X136007200Y-108590475D02*
X136054819Y-108495237D01*
X136054819Y-108495237D02*
X136054819Y-108304761D01*
X136054819Y-108304761D02*
X136007200Y-108209523D01*
X136007200Y-108209523D02*
X135959580Y-108161904D01*
X135959580Y-108161904D02*
X135864342Y-108114285D01*
X135864342Y-108114285D02*
X135673866Y-108114285D01*
X135673866Y-108114285D02*
X135578628Y-108161904D01*
X135578628Y-108161904D02*
X135531009Y-108209523D01*
X135531009Y-108209523D02*
X135483390Y-108304761D01*
X112061905Y-110254819D02*
X112728571Y-111254819D01*
X112728571Y-110254819D02*
X112061905Y-111254819D01*
X113442857Y-110731009D02*
X113109524Y-110731009D01*
X113109524Y-111254819D02*
X113109524Y-110254819D01*
X113109524Y-110254819D02*
X113585714Y-110254819D01*
X114490476Y-111254819D02*
X113919048Y-111254819D01*
X114204762Y-111254819D02*
X114204762Y-110254819D01*
X114204762Y-110254819D02*
X114109524Y-110397676D01*
X114109524Y-110397676D02*
X114014286Y-110492914D01*
X114014286Y-110492914D02*
X113919048Y-110540533D01*
X133633333Y-83159580D02*
X133585714Y-83207200D01*
X133585714Y-83207200D02*
X133442857Y-83254819D01*
X133442857Y-83254819D02*
X133347619Y-83254819D01*
X133347619Y-83254819D02*
X133204762Y-83207200D01*
X133204762Y-83207200D02*
X133109524Y-83111961D01*
X133109524Y-83111961D02*
X133061905Y-83016723D01*
X133061905Y-83016723D02*
X133014286Y-82826247D01*
X133014286Y-82826247D02*
X133014286Y-82683390D01*
X133014286Y-82683390D02*
X133061905Y-82492914D01*
X133061905Y-82492914D02*
X133109524Y-82397676D01*
X133109524Y-82397676D02*
X133204762Y-82302438D01*
X133204762Y-82302438D02*
X133347619Y-82254819D01*
X133347619Y-82254819D02*
X133442857Y-82254819D01*
X133442857Y-82254819D02*
X133585714Y-82302438D01*
X133585714Y-82302438D02*
X133633333Y-82350057D01*
X133966667Y-82254819D02*
X134633333Y-82254819D01*
X134633333Y-82254819D02*
X134204762Y-83254819D01*
X110833333Y-119554819D02*
X110500000Y-119078628D01*
X110261905Y-119554819D02*
X110261905Y-118554819D01*
X110261905Y-118554819D02*
X110642857Y-118554819D01*
X110642857Y-118554819D02*
X110738095Y-118602438D01*
X110738095Y-118602438D02*
X110785714Y-118650057D01*
X110785714Y-118650057D02*
X110833333Y-118745295D01*
X110833333Y-118745295D02*
X110833333Y-118888152D01*
X110833333Y-118888152D02*
X110785714Y-118983390D01*
X110785714Y-118983390D02*
X110738095Y-119031009D01*
X110738095Y-119031009D02*
X110642857Y-119078628D01*
X110642857Y-119078628D02*
X110261905Y-119078628D01*
X111309524Y-119554819D02*
X111500000Y-119554819D01*
X111500000Y-119554819D02*
X111595238Y-119507200D01*
X111595238Y-119507200D02*
X111642857Y-119459580D01*
X111642857Y-119459580D02*
X111738095Y-119316723D01*
X111738095Y-119316723D02*
X111785714Y-119126247D01*
X111785714Y-119126247D02*
X111785714Y-118745295D01*
X111785714Y-118745295D02*
X111738095Y-118650057D01*
X111738095Y-118650057D02*
X111690476Y-118602438D01*
X111690476Y-118602438D02*
X111595238Y-118554819D01*
X111595238Y-118554819D02*
X111404762Y-118554819D01*
X111404762Y-118554819D02*
X111309524Y-118602438D01*
X111309524Y-118602438D02*
X111261905Y-118650057D01*
X111261905Y-118650057D02*
X111214286Y-118745295D01*
X111214286Y-118745295D02*
X111214286Y-118983390D01*
X111214286Y-118983390D02*
X111261905Y-119078628D01*
X111261905Y-119078628D02*
X111309524Y-119126247D01*
X111309524Y-119126247D02*
X111404762Y-119173866D01*
X111404762Y-119173866D02*
X111595238Y-119173866D01*
X111595238Y-119173866D02*
X111690476Y-119126247D01*
X111690476Y-119126247D02*
X111738095Y-119078628D01*
X111738095Y-119078628D02*
X111785714Y-118983390D01*
X111761905Y-112354819D02*
X112428571Y-113354819D01*
X112428571Y-112354819D02*
X111761905Y-113354819D01*
X113142857Y-112831009D02*
X112809524Y-112831009D01*
X112809524Y-113354819D02*
X112809524Y-112354819D01*
X112809524Y-112354819D02*
X113285714Y-112354819D01*
X113571429Y-112354819D02*
X114190476Y-112354819D01*
X114190476Y-112354819D02*
X113857143Y-112735771D01*
X113857143Y-112735771D02*
X114000000Y-112735771D01*
X114000000Y-112735771D02*
X114095238Y-112783390D01*
X114095238Y-112783390D02*
X114142857Y-112831009D01*
X114142857Y-112831009D02*
X114190476Y-112926247D01*
X114190476Y-112926247D02*
X114190476Y-113164342D01*
X114190476Y-113164342D02*
X114142857Y-113259580D01*
X114142857Y-113259580D02*
X114095238Y-113307200D01*
X114095238Y-113307200D02*
X114000000Y-113354819D01*
X114000000Y-113354819D02*
X113714286Y-113354819D01*
X113714286Y-113354819D02*
X113619048Y-113307200D01*
X113619048Y-113307200D02*
X113571429Y-113259580D01*
X126633333Y-114954819D02*
X126157143Y-114954819D01*
X126157143Y-114954819D02*
X126157143Y-113954819D01*
X126871429Y-113954819D02*
X127490476Y-113954819D01*
X127490476Y-113954819D02*
X127157143Y-114335771D01*
X127157143Y-114335771D02*
X127300000Y-114335771D01*
X127300000Y-114335771D02*
X127395238Y-114383390D01*
X127395238Y-114383390D02*
X127442857Y-114431009D01*
X127442857Y-114431009D02*
X127490476Y-114526247D01*
X127490476Y-114526247D02*
X127490476Y-114764342D01*
X127490476Y-114764342D02*
X127442857Y-114859580D01*
X127442857Y-114859580D02*
X127395238Y-114907200D01*
X127395238Y-114907200D02*
X127300000Y-114954819D01*
X127300000Y-114954819D02*
X127014286Y-114954819D01*
X127014286Y-114954819D02*
X126919048Y-114907200D01*
X126919048Y-114907200D02*
X126871429Y-114859580D01*
X140154819Y-98866666D02*
X139678628Y-99199999D01*
X140154819Y-99438094D02*
X139154819Y-99438094D01*
X139154819Y-99438094D02*
X139154819Y-99057142D01*
X139154819Y-99057142D02*
X139202438Y-98961904D01*
X139202438Y-98961904D02*
X139250057Y-98914285D01*
X139250057Y-98914285D02*
X139345295Y-98866666D01*
X139345295Y-98866666D02*
X139488152Y-98866666D01*
X139488152Y-98866666D02*
X139583390Y-98914285D01*
X139583390Y-98914285D02*
X139631009Y-98961904D01*
X139631009Y-98961904D02*
X139678628Y-99057142D01*
X139678628Y-99057142D02*
X139678628Y-99438094D01*
X140154819Y-97914285D02*
X140154819Y-98485713D01*
X140154819Y-98199999D02*
X139154819Y-98199999D01*
X139154819Y-98199999D02*
X139297676Y-98295237D01*
X139297676Y-98295237D02*
X139392914Y-98390475D01*
X139392914Y-98390475D02*
X139440533Y-98485713D01*
X126633333Y-112359580D02*
X126585714Y-112407200D01*
X126585714Y-112407200D02*
X126442857Y-112454819D01*
X126442857Y-112454819D02*
X126347619Y-112454819D01*
X126347619Y-112454819D02*
X126204762Y-112407200D01*
X126204762Y-112407200D02*
X126109524Y-112311961D01*
X126109524Y-112311961D02*
X126061905Y-112216723D01*
X126061905Y-112216723D02*
X126014286Y-112026247D01*
X126014286Y-112026247D02*
X126014286Y-111883390D01*
X126014286Y-111883390D02*
X126061905Y-111692914D01*
X126061905Y-111692914D02*
X126109524Y-111597676D01*
X126109524Y-111597676D02*
X126204762Y-111502438D01*
X126204762Y-111502438D02*
X126347619Y-111454819D01*
X126347619Y-111454819D02*
X126442857Y-111454819D01*
X126442857Y-111454819D02*
X126585714Y-111502438D01*
X126585714Y-111502438D02*
X126633333Y-111550057D01*
X127490476Y-111454819D02*
X127300000Y-111454819D01*
X127300000Y-111454819D02*
X127204762Y-111502438D01*
X127204762Y-111502438D02*
X127157143Y-111550057D01*
X127157143Y-111550057D02*
X127061905Y-111692914D01*
X127061905Y-111692914D02*
X127014286Y-111883390D01*
X127014286Y-111883390D02*
X127014286Y-112264342D01*
X127014286Y-112264342D02*
X127061905Y-112359580D01*
X127061905Y-112359580D02*
X127109524Y-112407200D01*
X127109524Y-112407200D02*
X127204762Y-112454819D01*
X127204762Y-112454819D02*
X127395238Y-112454819D01*
X127395238Y-112454819D02*
X127490476Y-112407200D01*
X127490476Y-112407200D02*
X127538095Y-112359580D01*
X127538095Y-112359580D02*
X127585714Y-112264342D01*
X127585714Y-112264342D02*
X127585714Y-112026247D01*
X127585714Y-112026247D02*
X127538095Y-111931009D01*
X127538095Y-111931009D02*
X127490476Y-111883390D01*
X127490476Y-111883390D02*
X127395238Y-111835771D01*
X127395238Y-111835771D02*
X127204762Y-111835771D01*
X127204762Y-111835771D02*
X127109524Y-111883390D01*
X127109524Y-111883390D02*
X127061905Y-111931009D01*
X127061905Y-111931009D02*
X127014286Y-112026247D01*
X128954819Y-104742857D02*
X128478628Y-105076190D01*
X128954819Y-105314285D02*
X127954819Y-105314285D01*
X127954819Y-105314285D02*
X127954819Y-104933333D01*
X127954819Y-104933333D02*
X128002438Y-104838095D01*
X128002438Y-104838095D02*
X128050057Y-104790476D01*
X128050057Y-104790476D02*
X128145295Y-104742857D01*
X128145295Y-104742857D02*
X128288152Y-104742857D01*
X128288152Y-104742857D02*
X128383390Y-104790476D01*
X128383390Y-104790476D02*
X128431009Y-104838095D01*
X128431009Y-104838095D02*
X128478628Y-104933333D01*
X128478628Y-104933333D02*
X128478628Y-105314285D01*
X128954819Y-103790476D02*
X128954819Y-104361904D01*
X128954819Y-104076190D02*
X127954819Y-104076190D01*
X127954819Y-104076190D02*
X128097676Y-104171428D01*
X128097676Y-104171428D02*
X128192914Y-104266666D01*
X128192914Y-104266666D02*
X128240533Y-104361904D01*
X127954819Y-103171428D02*
X127954819Y-103076190D01*
X127954819Y-103076190D02*
X128002438Y-102980952D01*
X128002438Y-102980952D02*
X128050057Y-102933333D01*
X128050057Y-102933333D02*
X128145295Y-102885714D01*
X128145295Y-102885714D02*
X128335771Y-102838095D01*
X128335771Y-102838095D02*
X128573866Y-102838095D01*
X128573866Y-102838095D02*
X128764342Y-102885714D01*
X128764342Y-102885714D02*
X128859580Y-102933333D01*
X128859580Y-102933333D02*
X128907200Y-102980952D01*
X128907200Y-102980952D02*
X128954819Y-103076190D01*
X128954819Y-103076190D02*
X128954819Y-103171428D01*
X128954819Y-103171428D02*
X128907200Y-103266666D01*
X128907200Y-103266666D02*
X128859580Y-103314285D01*
X128859580Y-103314285D02*
X128764342Y-103361904D01*
X128764342Y-103361904D02*
X128573866Y-103409523D01*
X128573866Y-103409523D02*
X128335771Y-103409523D01*
X128335771Y-103409523D02*
X128145295Y-103361904D01*
X128145295Y-103361904D02*
X128050057Y-103314285D01*
X128050057Y-103314285D02*
X128002438Y-103266666D01*
X128002438Y-103266666D02*
X127954819Y-103171428D01*
X138761905Y-81854819D02*
X138761905Y-82664342D01*
X138761905Y-82664342D02*
X138809524Y-82759580D01*
X138809524Y-82759580D02*
X138857143Y-82807200D01*
X138857143Y-82807200D02*
X138952381Y-82854819D01*
X138952381Y-82854819D02*
X139142857Y-82854819D01*
X139142857Y-82854819D02*
X139238095Y-82807200D01*
X139238095Y-82807200D02*
X139285714Y-82759580D01*
X139285714Y-82759580D02*
X139333333Y-82664342D01*
X139333333Y-82664342D02*
X139333333Y-81854819D01*
X139761905Y-82807200D02*
X139904762Y-82854819D01*
X139904762Y-82854819D02*
X140142857Y-82854819D01*
X140142857Y-82854819D02*
X140238095Y-82807200D01*
X140238095Y-82807200D02*
X140285714Y-82759580D01*
X140285714Y-82759580D02*
X140333333Y-82664342D01*
X140333333Y-82664342D02*
X140333333Y-82569104D01*
X140333333Y-82569104D02*
X140285714Y-82473866D01*
X140285714Y-82473866D02*
X140238095Y-82426247D01*
X140238095Y-82426247D02*
X140142857Y-82378628D01*
X140142857Y-82378628D02*
X139952381Y-82331009D01*
X139952381Y-82331009D02*
X139857143Y-82283390D01*
X139857143Y-82283390D02*
X139809524Y-82235771D01*
X139809524Y-82235771D02*
X139761905Y-82140533D01*
X139761905Y-82140533D02*
X139761905Y-82045295D01*
X139761905Y-82045295D02*
X139809524Y-81950057D01*
X139809524Y-81950057D02*
X139857143Y-81902438D01*
X139857143Y-81902438D02*
X139952381Y-81854819D01*
X139952381Y-81854819D02*
X140190476Y-81854819D01*
X140190476Y-81854819D02*
X140333333Y-81902438D01*
X141095238Y-82331009D02*
X141238095Y-82378628D01*
X141238095Y-82378628D02*
X141285714Y-82426247D01*
X141285714Y-82426247D02*
X141333333Y-82521485D01*
X141333333Y-82521485D02*
X141333333Y-82664342D01*
X141333333Y-82664342D02*
X141285714Y-82759580D01*
X141285714Y-82759580D02*
X141238095Y-82807200D01*
X141238095Y-82807200D02*
X141142857Y-82854819D01*
X141142857Y-82854819D02*
X140761905Y-82854819D01*
X140761905Y-82854819D02*
X140761905Y-81854819D01*
X140761905Y-81854819D02*
X141095238Y-81854819D01*
X141095238Y-81854819D02*
X141190476Y-81902438D01*
X141190476Y-81902438D02*
X141238095Y-81950057D01*
X141238095Y-81950057D02*
X141285714Y-82045295D01*
X141285714Y-82045295D02*
X141285714Y-82140533D01*
X141285714Y-82140533D02*
X141238095Y-82235771D01*
X141238095Y-82235771D02*
X141190476Y-82283390D01*
X141190476Y-82283390D02*
X141095238Y-82331009D01*
X141095238Y-82331009D02*
X140761905Y-82331009D01*
X142285714Y-82854819D02*
X141714286Y-82854819D01*
X142000000Y-82854819D02*
X142000000Y-81854819D01*
X142000000Y-81854819D02*
X141904762Y-81997676D01*
X141904762Y-81997676D02*
X141809524Y-82092914D01*
X141809524Y-82092914D02*
X141714286Y-82140533D01*
X136554819Y-92466666D02*
X136554819Y-92942856D01*
X136554819Y-92942856D02*
X135554819Y-92942856D01*
X136554819Y-91609523D02*
X136554819Y-92180951D01*
X136554819Y-91895237D02*
X135554819Y-91895237D01*
X135554819Y-91895237D02*
X135697676Y-91990475D01*
X135697676Y-91990475D02*
X135792914Y-92085713D01*
X135792914Y-92085713D02*
X135840533Y-92180951D01*
X129457142Y-96959580D02*
X129409523Y-97007200D01*
X129409523Y-97007200D02*
X129266666Y-97054819D01*
X129266666Y-97054819D02*
X129171428Y-97054819D01*
X129171428Y-97054819D02*
X129028571Y-97007200D01*
X129028571Y-97007200D02*
X128933333Y-96911961D01*
X128933333Y-96911961D02*
X128885714Y-96816723D01*
X128885714Y-96816723D02*
X128838095Y-96626247D01*
X128838095Y-96626247D02*
X128838095Y-96483390D01*
X128838095Y-96483390D02*
X128885714Y-96292914D01*
X128885714Y-96292914D02*
X128933333Y-96197676D01*
X128933333Y-96197676D02*
X129028571Y-96102438D01*
X129028571Y-96102438D02*
X129171428Y-96054819D01*
X129171428Y-96054819D02*
X129266666Y-96054819D01*
X129266666Y-96054819D02*
X129409523Y-96102438D01*
X129409523Y-96102438D02*
X129457142Y-96150057D01*
X129838095Y-96150057D02*
X129885714Y-96102438D01*
X129885714Y-96102438D02*
X129980952Y-96054819D01*
X129980952Y-96054819D02*
X130219047Y-96054819D01*
X130219047Y-96054819D02*
X130314285Y-96102438D01*
X130314285Y-96102438D02*
X130361904Y-96150057D01*
X130361904Y-96150057D02*
X130409523Y-96245295D01*
X130409523Y-96245295D02*
X130409523Y-96340533D01*
X130409523Y-96340533D02*
X130361904Y-96483390D01*
X130361904Y-96483390D02*
X129790476Y-97054819D01*
X129790476Y-97054819D02*
X130409523Y-97054819D01*
X130742857Y-96054819D02*
X131361904Y-96054819D01*
X131361904Y-96054819D02*
X131028571Y-96435771D01*
X131028571Y-96435771D02*
X131171428Y-96435771D01*
X131171428Y-96435771D02*
X131266666Y-96483390D01*
X131266666Y-96483390D02*
X131314285Y-96531009D01*
X131314285Y-96531009D02*
X131361904Y-96626247D01*
X131361904Y-96626247D02*
X131361904Y-96864342D01*
X131361904Y-96864342D02*
X131314285Y-96959580D01*
X131314285Y-96959580D02*
X131266666Y-97007200D01*
X131266666Y-97007200D02*
X131171428Y-97054819D01*
X131171428Y-97054819D02*
X130885714Y-97054819D01*
X130885714Y-97054819D02*
X130790476Y-97007200D01*
X130790476Y-97007200D02*
X130742857Y-96959580D01*
X118157142Y-105459580D02*
X118109523Y-105507200D01*
X118109523Y-105507200D02*
X117966666Y-105554819D01*
X117966666Y-105554819D02*
X117871428Y-105554819D01*
X117871428Y-105554819D02*
X117728571Y-105507200D01*
X117728571Y-105507200D02*
X117633333Y-105411961D01*
X117633333Y-105411961D02*
X117585714Y-105316723D01*
X117585714Y-105316723D02*
X117538095Y-105126247D01*
X117538095Y-105126247D02*
X117538095Y-104983390D01*
X117538095Y-104983390D02*
X117585714Y-104792914D01*
X117585714Y-104792914D02*
X117633333Y-104697676D01*
X117633333Y-104697676D02*
X117728571Y-104602438D01*
X117728571Y-104602438D02*
X117871428Y-104554819D01*
X117871428Y-104554819D02*
X117966666Y-104554819D01*
X117966666Y-104554819D02*
X118109523Y-104602438D01*
X118109523Y-104602438D02*
X118157142Y-104650057D01*
X119109523Y-105554819D02*
X118538095Y-105554819D01*
X118823809Y-105554819D02*
X118823809Y-104554819D01*
X118823809Y-104554819D02*
X118728571Y-104697676D01*
X118728571Y-104697676D02*
X118633333Y-104792914D01*
X118633333Y-104792914D02*
X118538095Y-104840533D01*
X119966666Y-104554819D02*
X119776190Y-104554819D01*
X119776190Y-104554819D02*
X119680952Y-104602438D01*
X119680952Y-104602438D02*
X119633333Y-104650057D01*
X119633333Y-104650057D02*
X119538095Y-104792914D01*
X119538095Y-104792914D02*
X119490476Y-104983390D01*
X119490476Y-104983390D02*
X119490476Y-105364342D01*
X119490476Y-105364342D02*
X119538095Y-105459580D01*
X119538095Y-105459580D02*
X119585714Y-105507200D01*
X119585714Y-105507200D02*
X119680952Y-105554819D01*
X119680952Y-105554819D02*
X119871428Y-105554819D01*
X119871428Y-105554819D02*
X119966666Y-105507200D01*
X119966666Y-105507200D02*
X120014285Y-105459580D01*
X120014285Y-105459580D02*
X120061904Y-105364342D01*
X120061904Y-105364342D02*
X120061904Y-105126247D01*
X120061904Y-105126247D02*
X120014285Y-105031009D01*
X120014285Y-105031009D02*
X119966666Y-104983390D01*
X119966666Y-104983390D02*
X119871428Y-104935771D01*
X119871428Y-104935771D02*
X119680952Y-104935771D01*
X119680952Y-104935771D02*
X119585714Y-104983390D01*
X119585714Y-104983390D02*
X119538095Y-105031009D01*
X119538095Y-105031009D02*
X119490476Y-105126247D01*
X116357142Y-115654819D02*
X116023809Y-115178628D01*
X115785714Y-115654819D02*
X115785714Y-114654819D01*
X115785714Y-114654819D02*
X116166666Y-114654819D01*
X116166666Y-114654819D02*
X116261904Y-114702438D01*
X116261904Y-114702438D02*
X116309523Y-114750057D01*
X116309523Y-114750057D02*
X116357142Y-114845295D01*
X116357142Y-114845295D02*
X116357142Y-114988152D01*
X116357142Y-114988152D02*
X116309523Y-115083390D01*
X116309523Y-115083390D02*
X116261904Y-115131009D01*
X116261904Y-115131009D02*
X116166666Y-115178628D01*
X116166666Y-115178628D02*
X115785714Y-115178628D01*
X117309523Y-115654819D02*
X116738095Y-115654819D01*
X117023809Y-115654819D02*
X117023809Y-114654819D01*
X117023809Y-114654819D02*
X116928571Y-114797676D01*
X116928571Y-114797676D02*
X116833333Y-114892914D01*
X116833333Y-114892914D02*
X116738095Y-114940533D01*
X117690476Y-114750057D02*
X117738095Y-114702438D01*
X117738095Y-114702438D02*
X117833333Y-114654819D01*
X117833333Y-114654819D02*
X118071428Y-114654819D01*
X118071428Y-114654819D02*
X118166666Y-114702438D01*
X118166666Y-114702438D02*
X118214285Y-114750057D01*
X118214285Y-114750057D02*
X118261904Y-114845295D01*
X118261904Y-114845295D02*
X118261904Y-114940533D01*
X118261904Y-114940533D02*
X118214285Y-115083390D01*
X118214285Y-115083390D02*
X117642857Y-115654819D01*
X117642857Y-115654819D02*
X118261904Y-115654819D01*
X135759580Y-105966666D02*
X135807200Y-106014285D01*
X135807200Y-106014285D02*
X135854819Y-106157142D01*
X135854819Y-106157142D02*
X135854819Y-106252380D01*
X135854819Y-106252380D02*
X135807200Y-106395237D01*
X135807200Y-106395237D02*
X135711961Y-106490475D01*
X135711961Y-106490475D02*
X135616723Y-106538094D01*
X135616723Y-106538094D02*
X135426247Y-106585713D01*
X135426247Y-106585713D02*
X135283390Y-106585713D01*
X135283390Y-106585713D02*
X135092914Y-106538094D01*
X135092914Y-106538094D02*
X134997676Y-106490475D01*
X134997676Y-106490475D02*
X134902438Y-106395237D01*
X134902438Y-106395237D02*
X134854819Y-106252380D01*
X134854819Y-106252380D02*
X134854819Y-106157142D01*
X134854819Y-106157142D02*
X134902438Y-106014285D01*
X134902438Y-106014285D02*
X134950057Y-105966666D01*
X134950057Y-105585713D02*
X134902438Y-105538094D01*
X134902438Y-105538094D02*
X134854819Y-105442856D01*
X134854819Y-105442856D02*
X134854819Y-105204761D01*
X134854819Y-105204761D02*
X134902438Y-105109523D01*
X134902438Y-105109523D02*
X134950057Y-105061904D01*
X134950057Y-105061904D02*
X135045295Y-105014285D01*
X135045295Y-105014285D02*
X135140533Y-105014285D01*
X135140533Y-105014285D02*
X135283390Y-105061904D01*
X135283390Y-105061904D02*
X135854819Y-105633332D01*
X135854819Y-105633332D02*
X135854819Y-105014285D01*
X121959580Y-91042857D02*
X122007200Y-91090476D01*
X122007200Y-91090476D02*
X122054819Y-91233333D01*
X122054819Y-91233333D02*
X122054819Y-91328571D01*
X122054819Y-91328571D02*
X122007200Y-91471428D01*
X122007200Y-91471428D02*
X121911961Y-91566666D01*
X121911961Y-91566666D02*
X121816723Y-91614285D01*
X121816723Y-91614285D02*
X121626247Y-91661904D01*
X121626247Y-91661904D02*
X121483390Y-91661904D01*
X121483390Y-91661904D02*
X121292914Y-91614285D01*
X121292914Y-91614285D02*
X121197676Y-91566666D01*
X121197676Y-91566666D02*
X121102438Y-91471428D01*
X121102438Y-91471428D02*
X121054819Y-91328571D01*
X121054819Y-91328571D02*
X121054819Y-91233333D01*
X121054819Y-91233333D02*
X121102438Y-91090476D01*
X121102438Y-91090476D02*
X121150057Y-91042857D01*
X122054819Y-90090476D02*
X122054819Y-90661904D01*
X122054819Y-90376190D02*
X121054819Y-90376190D01*
X121054819Y-90376190D02*
X121197676Y-90471428D01*
X121197676Y-90471428D02*
X121292914Y-90566666D01*
X121292914Y-90566666D02*
X121340533Y-90661904D01*
X121388152Y-89233333D02*
X122054819Y-89233333D01*
X121007200Y-89471428D02*
X121721485Y-89709523D01*
X121721485Y-89709523D02*
X121721485Y-89090476D01*
X123059580Y-116542857D02*
X123107200Y-116590476D01*
X123107200Y-116590476D02*
X123154819Y-116733333D01*
X123154819Y-116733333D02*
X123154819Y-116828571D01*
X123154819Y-116828571D02*
X123107200Y-116971428D01*
X123107200Y-116971428D02*
X123011961Y-117066666D01*
X123011961Y-117066666D02*
X122916723Y-117114285D01*
X122916723Y-117114285D02*
X122726247Y-117161904D01*
X122726247Y-117161904D02*
X122583390Y-117161904D01*
X122583390Y-117161904D02*
X122392914Y-117114285D01*
X122392914Y-117114285D02*
X122297676Y-117066666D01*
X122297676Y-117066666D02*
X122202438Y-116971428D01*
X122202438Y-116971428D02*
X122154819Y-116828571D01*
X122154819Y-116828571D02*
X122154819Y-116733333D01*
X122154819Y-116733333D02*
X122202438Y-116590476D01*
X122202438Y-116590476D02*
X122250057Y-116542857D01*
X123154819Y-115590476D02*
X123154819Y-116161904D01*
X123154819Y-115876190D02*
X122154819Y-115876190D01*
X122154819Y-115876190D02*
X122297676Y-115971428D01*
X122297676Y-115971428D02*
X122392914Y-116066666D01*
X122392914Y-116066666D02*
X122440533Y-116161904D01*
X122154819Y-115257142D02*
X122154819Y-114590476D01*
X122154819Y-114590476D02*
X123154819Y-115019047D01*
X127457142Y-83159580D02*
X127409523Y-83207200D01*
X127409523Y-83207200D02*
X127266666Y-83254819D01*
X127266666Y-83254819D02*
X127171428Y-83254819D01*
X127171428Y-83254819D02*
X127028571Y-83207200D01*
X127028571Y-83207200D02*
X126933333Y-83111961D01*
X126933333Y-83111961D02*
X126885714Y-83016723D01*
X126885714Y-83016723D02*
X126838095Y-82826247D01*
X126838095Y-82826247D02*
X126838095Y-82683390D01*
X126838095Y-82683390D02*
X126885714Y-82492914D01*
X126885714Y-82492914D02*
X126933333Y-82397676D01*
X126933333Y-82397676D02*
X127028571Y-82302438D01*
X127028571Y-82302438D02*
X127171428Y-82254819D01*
X127171428Y-82254819D02*
X127266666Y-82254819D01*
X127266666Y-82254819D02*
X127409523Y-82302438D01*
X127409523Y-82302438D02*
X127457142Y-82350057D01*
X128409523Y-83254819D02*
X127838095Y-83254819D01*
X128123809Y-83254819D02*
X128123809Y-82254819D01*
X128123809Y-82254819D02*
X128028571Y-82397676D01*
X128028571Y-82397676D02*
X127933333Y-82492914D01*
X127933333Y-82492914D02*
X127838095Y-82540533D01*
X128742857Y-82254819D02*
X129361904Y-82254819D01*
X129361904Y-82254819D02*
X129028571Y-82635771D01*
X129028571Y-82635771D02*
X129171428Y-82635771D01*
X129171428Y-82635771D02*
X129266666Y-82683390D01*
X129266666Y-82683390D02*
X129314285Y-82731009D01*
X129314285Y-82731009D02*
X129361904Y-82826247D01*
X129361904Y-82826247D02*
X129361904Y-83064342D01*
X129361904Y-83064342D02*
X129314285Y-83159580D01*
X129314285Y-83159580D02*
X129266666Y-83207200D01*
X129266666Y-83207200D02*
X129171428Y-83254819D01*
X129171428Y-83254819D02*
X128885714Y-83254819D01*
X128885714Y-83254819D02*
X128790476Y-83207200D01*
X128790476Y-83207200D02*
X128742857Y-83159580D01*
X135959580Y-113666666D02*
X136007200Y-113714285D01*
X136007200Y-113714285D02*
X136054819Y-113857142D01*
X136054819Y-113857142D02*
X136054819Y-113952380D01*
X136054819Y-113952380D02*
X136007200Y-114095237D01*
X136007200Y-114095237D02*
X135911961Y-114190475D01*
X135911961Y-114190475D02*
X135816723Y-114238094D01*
X135816723Y-114238094D02*
X135626247Y-114285713D01*
X135626247Y-114285713D02*
X135483390Y-114285713D01*
X135483390Y-114285713D02*
X135292914Y-114238094D01*
X135292914Y-114238094D02*
X135197676Y-114190475D01*
X135197676Y-114190475D02*
X135102438Y-114095237D01*
X135102438Y-114095237D02*
X135054819Y-113952380D01*
X135054819Y-113952380D02*
X135054819Y-113857142D01*
X135054819Y-113857142D02*
X135102438Y-113714285D01*
X135102438Y-113714285D02*
X135150057Y-113666666D01*
X135388152Y-112809523D02*
X136054819Y-112809523D01*
X135007200Y-113047618D02*
X135721485Y-113285713D01*
X135721485Y-113285713D02*
X135721485Y-112666666D01*
X126633333Y-119954819D02*
X126157143Y-119954819D01*
X126157143Y-119954819D02*
X126157143Y-118954819D01*
X126919048Y-119050057D02*
X126966667Y-119002438D01*
X126966667Y-119002438D02*
X127061905Y-118954819D01*
X127061905Y-118954819D02*
X127300000Y-118954819D01*
X127300000Y-118954819D02*
X127395238Y-119002438D01*
X127395238Y-119002438D02*
X127442857Y-119050057D01*
X127442857Y-119050057D02*
X127490476Y-119145295D01*
X127490476Y-119145295D02*
X127490476Y-119240533D01*
X127490476Y-119240533D02*
X127442857Y-119383390D01*
X127442857Y-119383390D02*
X126871429Y-119954819D01*
X126871429Y-119954819D02*
X127490476Y-119954819D01*
X117161905Y-82854819D02*
X117828571Y-83854819D01*
X117828571Y-82854819D02*
X117161905Y-83854819D01*
X118542857Y-83331009D02*
X118209524Y-83331009D01*
X118209524Y-83854819D02*
X118209524Y-82854819D01*
X118209524Y-82854819D02*
X118685714Y-82854819D01*
X119495238Y-83188152D02*
X119495238Y-83854819D01*
X119257143Y-82807200D02*
X119019048Y-83521485D01*
X119019048Y-83521485D02*
X119638095Y-83521485D01*
X127454819Y-104742857D02*
X126978628Y-105076190D01*
X127454819Y-105314285D02*
X126454819Y-105314285D01*
X126454819Y-105314285D02*
X126454819Y-104933333D01*
X126454819Y-104933333D02*
X126502438Y-104838095D01*
X126502438Y-104838095D02*
X126550057Y-104790476D01*
X126550057Y-104790476D02*
X126645295Y-104742857D01*
X126645295Y-104742857D02*
X126788152Y-104742857D01*
X126788152Y-104742857D02*
X126883390Y-104790476D01*
X126883390Y-104790476D02*
X126931009Y-104838095D01*
X126931009Y-104838095D02*
X126978628Y-104933333D01*
X126978628Y-104933333D02*
X126978628Y-105314285D01*
X127454819Y-103790476D02*
X127454819Y-104361904D01*
X127454819Y-104076190D02*
X126454819Y-104076190D01*
X126454819Y-104076190D02*
X126597676Y-104171428D01*
X126597676Y-104171428D02*
X126692914Y-104266666D01*
X126692914Y-104266666D02*
X126740533Y-104361904D01*
X127454819Y-102838095D02*
X127454819Y-103409523D01*
X127454819Y-103123809D02*
X126454819Y-103123809D01*
X126454819Y-103123809D02*
X126597676Y-103219047D01*
X126597676Y-103219047D02*
X126692914Y-103314285D01*
X126692914Y-103314285D02*
X126740533Y-103409523D01*
X117657142Y-85454819D02*
X117323809Y-84978628D01*
X117085714Y-85454819D02*
X117085714Y-84454819D01*
X117085714Y-84454819D02*
X117466666Y-84454819D01*
X117466666Y-84454819D02*
X117561904Y-84502438D01*
X117561904Y-84502438D02*
X117609523Y-84550057D01*
X117609523Y-84550057D02*
X117657142Y-84645295D01*
X117657142Y-84645295D02*
X117657142Y-84788152D01*
X117657142Y-84788152D02*
X117609523Y-84883390D01*
X117609523Y-84883390D02*
X117561904Y-84931009D01*
X117561904Y-84931009D02*
X117466666Y-84978628D01*
X117466666Y-84978628D02*
X117085714Y-84978628D01*
X118609523Y-85454819D02*
X118038095Y-85454819D01*
X118323809Y-85454819D02*
X118323809Y-84454819D01*
X118323809Y-84454819D02*
X118228571Y-84597676D01*
X118228571Y-84597676D02*
X118133333Y-84692914D01*
X118133333Y-84692914D02*
X118038095Y-84740533D01*
X119514285Y-84454819D02*
X119038095Y-84454819D01*
X119038095Y-84454819D02*
X118990476Y-84931009D01*
X118990476Y-84931009D02*
X119038095Y-84883390D01*
X119038095Y-84883390D02*
X119133333Y-84835771D01*
X119133333Y-84835771D02*
X119371428Y-84835771D01*
X119371428Y-84835771D02*
X119466666Y-84883390D01*
X119466666Y-84883390D02*
X119514285Y-84931009D01*
X119514285Y-84931009D02*
X119561904Y-85026247D01*
X119561904Y-85026247D02*
X119561904Y-85264342D01*
X119561904Y-85264342D02*
X119514285Y-85359580D01*
X119514285Y-85359580D02*
X119466666Y-85407200D01*
X119466666Y-85407200D02*
X119371428Y-85454819D01*
X119371428Y-85454819D02*
X119133333Y-85454819D01*
X119133333Y-85454819D02*
X119038095Y-85407200D01*
X119038095Y-85407200D02*
X118990476Y-85359580D01*
X134433333Y-119259580D02*
X134385714Y-119307200D01*
X134385714Y-119307200D02*
X134242857Y-119354819D01*
X134242857Y-119354819D02*
X134147619Y-119354819D01*
X134147619Y-119354819D02*
X134004762Y-119307200D01*
X134004762Y-119307200D02*
X133909524Y-119211961D01*
X133909524Y-119211961D02*
X133861905Y-119116723D01*
X133861905Y-119116723D02*
X133814286Y-118926247D01*
X133814286Y-118926247D02*
X133814286Y-118783390D01*
X133814286Y-118783390D02*
X133861905Y-118592914D01*
X133861905Y-118592914D02*
X133909524Y-118497676D01*
X133909524Y-118497676D02*
X134004762Y-118402438D01*
X134004762Y-118402438D02*
X134147619Y-118354819D01*
X134147619Y-118354819D02*
X134242857Y-118354819D01*
X134242857Y-118354819D02*
X134385714Y-118402438D01*
X134385714Y-118402438D02*
X134433333Y-118450057D01*
X135385714Y-119354819D02*
X134814286Y-119354819D01*
X135100000Y-119354819D02*
X135100000Y-118354819D01*
X135100000Y-118354819D02*
X135004762Y-118497676D01*
X135004762Y-118497676D02*
X134909524Y-118592914D01*
X134909524Y-118592914D02*
X134814286Y-118640533D01*
X128854819Y-99242857D02*
X128378628Y-99576190D01*
X128854819Y-99814285D02*
X127854819Y-99814285D01*
X127854819Y-99814285D02*
X127854819Y-99433333D01*
X127854819Y-99433333D02*
X127902438Y-99338095D01*
X127902438Y-99338095D02*
X127950057Y-99290476D01*
X127950057Y-99290476D02*
X128045295Y-99242857D01*
X128045295Y-99242857D02*
X128188152Y-99242857D01*
X128188152Y-99242857D02*
X128283390Y-99290476D01*
X128283390Y-99290476D02*
X128331009Y-99338095D01*
X128331009Y-99338095D02*
X128378628Y-99433333D01*
X128378628Y-99433333D02*
X128378628Y-99814285D01*
X128854819Y-98290476D02*
X128854819Y-98861904D01*
X128854819Y-98576190D02*
X127854819Y-98576190D01*
X127854819Y-98576190D02*
X127997676Y-98671428D01*
X127997676Y-98671428D02*
X128092914Y-98766666D01*
X128092914Y-98766666D02*
X128140533Y-98861904D01*
X128188152Y-97433333D02*
X128854819Y-97433333D01*
X127807200Y-97671428D02*
X128521485Y-97909523D01*
X128521485Y-97909523D02*
X128521485Y-97290476D01*
X104642857Y-121069771D02*
X104442857Y-120784057D01*
X104300000Y-121069771D02*
X104300000Y-120469771D01*
X104300000Y-120469771D02*
X104528571Y-120469771D01*
X104528571Y-120469771D02*
X104585714Y-120498342D01*
X104585714Y-120498342D02*
X104614285Y-120526914D01*
X104614285Y-120526914D02*
X104642857Y-120584057D01*
X104642857Y-120584057D02*
X104642857Y-120669771D01*
X104642857Y-120669771D02*
X104614285Y-120726914D01*
X104614285Y-120726914D02*
X104585714Y-120755485D01*
X104585714Y-120755485D02*
X104528571Y-120784057D01*
X104528571Y-120784057D02*
X104300000Y-120784057D01*
X105100000Y-120755485D02*
X104900000Y-120755485D01*
X104900000Y-121069771D02*
X104900000Y-120469771D01*
X104900000Y-120469771D02*
X105185714Y-120469771D01*
X105700000Y-120469771D02*
X105414286Y-120469771D01*
X105414286Y-120469771D02*
X105385714Y-120755485D01*
X105385714Y-120755485D02*
X105414286Y-120726914D01*
X105414286Y-120726914D02*
X105471429Y-120698342D01*
X105471429Y-120698342D02*
X105614286Y-120698342D01*
X105614286Y-120698342D02*
X105671429Y-120726914D01*
X105671429Y-120726914D02*
X105700000Y-120755485D01*
X105700000Y-120755485D02*
X105728571Y-120812628D01*
X105728571Y-120812628D02*
X105728571Y-120955485D01*
X105728571Y-120955485D02*
X105700000Y-121012628D01*
X105700000Y-121012628D02*
X105671429Y-121041200D01*
X105671429Y-121041200D02*
X105614286Y-121069771D01*
X105614286Y-121069771D02*
X105471429Y-121069771D01*
X105471429Y-121069771D02*
X105414286Y-121041200D01*
X105414286Y-121041200D02*
X105385714Y-121012628D01*
X126633333Y-110059580D02*
X126585714Y-110107200D01*
X126585714Y-110107200D02*
X126442857Y-110154819D01*
X126442857Y-110154819D02*
X126347619Y-110154819D01*
X126347619Y-110154819D02*
X126204762Y-110107200D01*
X126204762Y-110107200D02*
X126109524Y-110011961D01*
X126109524Y-110011961D02*
X126061905Y-109916723D01*
X126061905Y-109916723D02*
X126014286Y-109726247D01*
X126014286Y-109726247D02*
X126014286Y-109583390D01*
X126014286Y-109583390D02*
X126061905Y-109392914D01*
X126061905Y-109392914D02*
X126109524Y-109297676D01*
X126109524Y-109297676D02*
X126204762Y-109202438D01*
X126204762Y-109202438D02*
X126347619Y-109154819D01*
X126347619Y-109154819D02*
X126442857Y-109154819D01*
X126442857Y-109154819D02*
X126585714Y-109202438D01*
X126585714Y-109202438D02*
X126633333Y-109250057D01*
X127109524Y-110154819D02*
X127300000Y-110154819D01*
X127300000Y-110154819D02*
X127395238Y-110107200D01*
X127395238Y-110107200D02*
X127442857Y-110059580D01*
X127442857Y-110059580D02*
X127538095Y-109916723D01*
X127538095Y-109916723D02*
X127585714Y-109726247D01*
X127585714Y-109726247D02*
X127585714Y-109345295D01*
X127585714Y-109345295D02*
X127538095Y-109250057D01*
X127538095Y-109250057D02*
X127490476Y-109202438D01*
X127490476Y-109202438D02*
X127395238Y-109154819D01*
X127395238Y-109154819D02*
X127204762Y-109154819D01*
X127204762Y-109154819D02*
X127109524Y-109202438D01*
X127109524Y-109202438D02*
X127061905Y-109250057D01*
X127061905Y-109250057D02*
X127014286Y-109345295D01*
X127014286Y-109345295D02*
X127014286Y-109583390D01*
X127014286Y-109583390D02*
X127061905Y-109678628D01*
X127061905Y-109678628D02*
X127109524Y-109726247D01*
X127109524Y-109726247D02*
X127204762Y-109773866D01*
X127204762Y-109773866D02*
X127395238Y-109773866D01*
X127395238Y-109773866D02*
X127490476Y-109726247D01*
X127490476Y-109726247D02*
X127538095Y-109678628D01*
X127538095Y-109678628D02*
X127585714Y-109583390D01*
X102004761Y-102454819D02*
X101671428Y-101978628D01*
X101433333Y-102454819D02*
X101433333Y-101454819D01*
X101433333Y-101454819D02*
X101814285Y-101454819D01*
X101814285Y-101454819D02*
X101909523Y-101502438D01*
X101909523Y-101502438D02*
X101957142Y-101550057D01*
X101957142Y-101550057D02*
X102004761Y-101645295D01*
X102004761Y-101645295D02*
X102004761Y-101788152D01*
X102004761Y-101788152D02*
X101957142Y-101883390D01*
X101957142Y-101883390D02*
X101909523Y-101931009D01*
X101909523Y-101931009D02*
X101814285Y-101978628D01*
X101814285Y-101978628D02*
X101433333Y-101978628D01*
X102766666Y-101931009D02*
X102433333Y-101931009D01*
X102433333Y-102454819D02*
X102433333Y-101454819D01*
X102433333Y-101454819D02*
X102909523Y-101454819D01*
X103195238Y-101454819D02*
X103814285Y-101454819D01*
X103814285Y-101454819D02*
X103480952Y-101835771D01*
X103480952Y-101835771D02*
X103623809Y-101835771D01*
X103623809Y-101835771D02*
X103719047Y-101883390D01*
X103719047Y-101883390D02*
X103766666Y-101931009D01*
X103766666Y-101931009D02*
X103814285Y-102026247D01*
X103814285Y-102026247D02*
X103814285Y-102264342D01*
X103814285Y-102264342D02*
X103766666Y-102359580D01*
X103766666Y-102359580D02*
X103719047Y-102407200D01*
X103719047Y-102407200D02*
X103623809Y-102454819D01*
X103623809Y-102454819D02*
X103338095Y-102454819D01*
X103338095Y-102454819D02*
X103242857Y-102407200D01*
X103242857Y-102407200D02*
X103195238Y-102359580D01*
X113133333Y-119554819D02*
X112800000Y-119078628D01*
X112561905Y-119554819D02*
X112561905Y-118554819D01*
X112561905Y-118554819D02*
X112942857Y-118554819D01*
X112942857Y-118554819D02*
X113038095Y-118602438D01*
X113038095Y-118602438D02*
X113085714Y-118650057D01*
X113085714Y-118650057D02*
X113133333Y-118745295D01*
X113133333Y-118745295D02*
X113133333Y-118888152D01*
X113133333Y-118888152D02*
X113085714Y-118983390D01*
X113085714Y-118983390D02*
X113038095Y-119031009D01*
X113038095Y-119031009D02*
X112942857Y-119078628D01*
X112942857Y-119078628D02*
X112561905Y-119078628D01*
X113704762Y-118983390D02*
X113609524Y-118935771D01*
X113609524Y-118935771D02*
X113561905Y-118888152D01*
X113561905Y-118888152D02*
X113514286Y-118792914D01*
X113514286Y-118792914D02*
X113514286Y-118745295D01*
X113514286Y-118745295D02*
X113561905Y-118650057D01*
X113561905Y-118650057D02*
X113609524Y-118602438D01*
X113609524Y-118602438D02*
X113704762Y-118554819D01*
X113704762Y-118554819D02*
X113895238Y-118554819D01*
X113895238Y-118554819D02*
X113990476Y-118602438D01*
X113990476Y-118602438D02*
X114038095Y-118650057D01*
X114038095Y-118650057D02*
X114085714Y-118745295D01*
X114085714Y-118745295D02*
X114085714Y-118792914D01*
X114085714Y-118792914D02*
X114038095Y-118888152D01*
X114038095Y-118888152D02*
X113990476Y-118935771D01*
X113990476Y-118935771D02*
X113895238Y-118983390D01*
X113895238Y-118983390D02*
X113704762Y-118983390D01*
X113704762Y-118983390D02*
X113609524Y-119031009D01*
X113609524Y-119031009D02*
X113561905Y-119078628D01*
X113561905Y-119078628D02*
X113514286Y-119173866D01*
X113514286Y-119173866D02*
X113514286Y-119364342D01*
X113514286Y-119364342D02*
X113561905Y-119459580D01*
X113561905Y-119459580D02*
X113609524Y-119507200D01*
X113609524Y-119507200D02*
X113704762Y-119554819D01*
X113704762Y-119554819D02*
X113895238Y-119554819D01*
X113895238Y-119554819D02*
X113990476Y-119507200D01*
X113990476Y-119507200D02*
X114038095Y-119459580D01*
X114038095Y-119459580D02*
X114085714Y-119364342D01*
X114085714Y-119364342D02*
X114085714Y-119173866D01*
X114085714Y-119173866D02*
X114038095Y-119078628D01*
X114038095Y-119078628D02*
X113990476Y-119031009D01*
X113990476Y-119031009D02*
X113895238Y-118983390D01*
X116059580Y-89342857D02*
X116107200Y-89390476D01*
X116107200Y-89390476D02*
X116154819Y-89533333D01*
X116154819Y-89533333D02*
X116154819Y-89628571D01*
X116154819Y-89628571D02*
X116107200Y-89771428D01*
X116107200Y-89771428D02*
X116011961Y-89866666D01*
X116011961Y-89866666D02*
X115916723Y-89914285D01*
X115916723Y-89914285D02*
X115726247Y-89961904D01*
X115726247Y-89961904D02*
X115583390Y-89961904D01*
X115583390Y-89961904D02*
X115392914Y-89914285D01*
X115392914Y-89914285D02*
X115297676Y-89866666D01*
X115297676Y-89866666D02*
X115202438Y-89771428D01*
X115202438Y-89771428D02*
X115154819Y-89628571D01*
X115154819Y-89628571D02*
X115154819Y-89533333D01*
X115154819Y-89533333D02*
X115202438Y-89390476D01*
X115202438Y-89390476D02*
X115250057Y-89342857D01*
X116154819Y-88390476D02*
X116154819Y-88961904D01*
X116154819Y-88676190D02*
X115154819Y-88676190D01*
X115154819Y-88676190D02*
X115297676Y-88771428D01*
X115297676Y-88771428D02*
X115392914Y-88866666D01*
X115392914Y-88866666D02*
X115440533Y-88961904D01*
X115154819Y-87771428D02*
X115154819Y-87676190D01*
X115154819Y-87676190D02*
X115202438Y-87580952D01*
X115202438Y-87580952D02*
X115250057Y-87533333D01*
X115250057Y-87533333D02*
X115345295Y-87485714D01*
X115345295Y-87485714D02*
X115535771Y-87438095D01*
X115535771Y-87438095D02*
X115773866Y-87438095D01*
X115773866Y-87438095D02*
X115964342Y-87485714D01*
X115964342Y-87485714D02*
X116059580Y-87533333D01*
X116059580Y-87533333D02*
X116107200Y-87580952D01*
X116107200Y-87580952D02*
X116154819Y-87676190D01*
X116154819Y-87676190D02*
X116154819Y-87771428D01*
X116154819Y-87771428D02*
X116107200Y-87866666D01*
X116107200Y-87866666D02*
X116059580Y-87914285D01*
X116059580Y-87914285D02*
X115964342Y-87961904D01*
X115964342Y-87961904D02*
X115773866Y-88009523D01*
X115773866Y-88009523D02*
X115535771Y-88009523D01*
X115535771Y-88009523D02*
X115345295Y-87961904D01*
X115345295Y-87961904D02*
X115250057Y-87914285D01*
X115250057Y-87914285D02*
X115202438Y-87866666D01*
X115202438Y-87866666D02*
X115154819Y-87771428D01*
X116154819Y-86166666D02*
X115678628Y-86499999D01*
X116154819Y-86738094D02*
X115154819Y-86738094D01*
X115154819Y-86738094D02*
X115154819Y-86357142D01*
X115154819Y-86357142D02*
X115202438Y-86261904D01*
X115202438Y-86261904D02*
X115250057Y-86214285D01*
X115250057Y-86214285D02*
X115345295Y-86166666D01*
X115345295Y-86166666D02*
X115488152Y-86166666D01*
X115488152Y-86166666D02*
X115583390Y-86214285D01*
X115583390Y-86214285D02*
X115631009Y-86261904D01*
X115631009Y-86261904D02*
X115678628Y-86357142D01*
X115678628Y-86357142D02*
X115678628Y-86738094D01*
X115154819Y-85261904D02*
X115154819Y-85738094D01*
X115154819Y-85738094D02*
X115631009Y-85785713D01*
X115631009Y-85785713D02*
X115583390Y-85738094D01*
X115583390Y-85738094D02*
X115535771Y-85642856D01*
X115535771Y-85642856D02*
X115535771Y-85404761D01*
X115535771Y-85404761D02*
X115583390Y-85309523D01*
X115583390Y-85309523D02*
X115631009Y-85261904D01*
X115631009Y-85261904D02*
X115726247Y-85214285D01*
X115726247Y-85214285D02*
X115964342Y-85214285D01*
X115964342Y-85214285D02*
X116059580Y-85261904D01*
X116059580Y-85261904D02*
X116107200Y-85309523D01*
X116107200Y-85309523D02*
X116154819Y-85404761D01*
X116154819Y-85404761D02*
X116154819Y-85642856D01*
X116154819Y-85642856D02*
X116107200Y-85738094D01*
X116107200Y-85738094D02*
X116059580Y-85785713D01*
X120633333Y-111554819D02*
X120157143Y-111554819D01*
X120157143Y-111554819D02*
X120157143Y-110554819D01*
X121442857Y-110554819D02*
X120966667Y-110554819D01*
X120966667Y-110554819D02*
X120919048Y-111031009D01*
X120919048Y-111031009D02*
X120966667Y-110983390D01*
X120966667Y-110983390D02*
X121061905Y-110935771D01*
X121061905Y-110935771D02*
X121300000Y-110935771D01*
X121300000Y-110935771D02*
X121395238Y-110983390D01*
X121395238Y-110983390D02*
X121442857Y-111031009D01*
X121442857Y-111031009D02*
X121490476Y-111126247D01*
X121490476Y-111126247D02*
X121490476Y-111364342D01*
X121490476Y-111364342D02*
X121442857Y-111459580D01*
X121442857Y-111459580D02*
X121395238Y-111507200D01*
X121395238Y-111507200D02*
X121300000Y-111554819D01*
X121300000Y-111554819D02*
X121061905Y-111554819D01*
X121061905Y-111554819D02*
X120966667Y-111507200D01*
X120966667Y-111507200D02*
X120919048Y-111459580D01*
X102114285Y-100912628D02*
X102085713Y-100941200D01*
X102085713Y-100941200D02*
X101999999Y-100969771D01*
X101999999Y-100969771D02*
X101942856Y-100969771D01*
X101942856Y-100969771D02*
X101857142Y-100941200D01*
X101857142Y-100941200D02*
X101799999Y-100884057D01*
X101799999Y-100884057D02*
X101771428Y-100826914D01*
X101771428Y-100826914D02*
X101742856Y-100712628D01*
X101742856Y-100712628D02*
X101742856Y-100626914D01*
X101742856Y-100626914D02*
X101771428Y-100512628D01*
X101771428Y-100512628D02*
X101799999Y-100455485D01*
X101799999Y-100455485D02*
X101857142Y-100398342D01*
X101857142Y-100398342D02*
X101942856Y-100369771D01*
X101942856Y-100369771D02*
X101999999Y-100369771D01*
X101999999Y-100369771D02*
X102085713Y-100398342D01*
X102085713Y-100398342D02*
X102114285Y-100426914D01*
X102342856Y-100426914D02*
X102371428Y-100398342D01*
X102371428Y-100398342D02*
X102428571Y-100369771D01*
X102428571Y-100369771D02*
X102571428Y-100369771D01*
X102571428Y-100369771D02*
X102628571Y-100398342D01*
X102628571Y-100398342D02*
X102657142Y-100426914D01*
X102657142Y-100426914D02*
X102685713Y-100484057D01*
X102685713Y-100484057D02*
X102685713Y-100541200D01*
X102685713Y-100541200D02*
X102657142Y-100626914D01*
X102657142Y-100626914D02*
X102314285Y-100969771D01*
X102314285Y-100969771D02*
X102685713Y-100969771D01*
X102914285Y-100426914D02*
X102942857Y-100398342D01*
X102942857Y-100398342D02*
X103000000Y-100369771D01*
X103000000Y-100369771D02*
X103142857Y-100369771D01*
X103142857Y-100369771D02*
X103200000Y-100398342D01*
X103200000Y-100398342D02*
X103228571Y-100426914D01*
X103228571Y-100426914D02*
X103257142Y-100484057D01*
X103257142Y-100484057D02*
X103257142Y-100541200D01*
X103257142Y-100541200D02*
X103228571Y-100626914D01*
X103228571Y-100626914D02*
X102885714Y-100969771D01*
X102885714Y-100969771D02*
X103257142Y-100969771D01*
X127738095Y-89654819D02*
X127738095Y-90464342D01*
X127738095Y-90464342D02*
X127785714Y-90559580D01*
X127785714Y-90559580D02*
X127833333Y-90607200D01*
X127833333Y-90607200D02*
X127928571Y-90654819D01*
X127928571Y-90654819D02*
X128119047Y-90654819D01*
X128119047Y-90654819D02*
X128214285Y-90607200D01*
X128214285Y-90607200D02*
X128261904Y-90559580D01*
X128261904Y-90559580D02*
X128309523Y-90464342D01*
X128309523Y-90464342D02*
X128309523Y-89654819D01*
X129309523Y-90654819D02*
X128738095Y-90654819D01*
X129023809Y-90654819D02*
X129023809Y-89654819D01*
X129023809Y-89654819D02*
X128928571Y-89797676D01*
X128928571Y-89797676D02*
X128833333Y-89892914D01*
X128833333Y-89892914D02*
X128738095Y-89940533D01*
X126633333Y-117359580D02*
X126585714Y-117407200D01*
X126585714Y-117407200D02*
X126442857Y-117454819D01*
X126442857Y-117454819D02*
X126347619Y-117454819D01*
X126347619Y-117454819D02*
X126204762Y-117407200D01*
X126204762Y-117407200D02*
X126109524Y-117311961D01*
X126109524Y-117311961D02*
X126061905Y-117216723D01*
X126061905Y-117216723D02*
X126014286Y-117026247D01*
X126014286Y-117026247D02*
X126014286Y-116883390D01*
X126014286Y-116883390D02*
X126061905Y-116692914D01*
X126061905Y-116692914D02*
X126109524Y-116597676D01*
X126109524Y-116597676D02*
X126204762Y-116502438D01*
X126204762Y-116502438D02*
X126347619Y-116454819D01*
X126347619Y-116454819D02*
X126442857Y-116454819D01*
X126442857Y-116454819D02*
X126585714Y-116502438D01*
X126585714Y-116502438D02*
X126633333Y-116550057D01*
X126966667Y-116454819D02*
X127585714Y-116454819D01*
X127585714Y-116454819D02*
X127252381Y-116835771D01*
X127252381Y-116835771D02*
X127395238Y-116835771D01*
X127395238Y-116835771D02*
X127490476Y-116883390D01*
X127490476Y-116883390D02*
X127538095Y-116931009D01*
X127538095Y-116931009D02*
X127585714Y-117026247D01*
X127585714Y-117026247D02*
X127585714Y-117264342D01*
X127585714Y-117264342D02*
X127538095Y-117359580D01*
X127538095Y-117359580D02*
X127490476Y-117407200D01*
X127490476Y-117407200D02*
X127395238Y-117454819D01*
X127395238Y-117454819D02*
X127109524Y-117454819D01*
X127109524Y-117454819D02*
X127014286Y-117407200D01*
X127014286Y-117407200D02*
X126966667Y-117359580D01*
X110521905Y-89774819D02*
X111188571Y-90774819D01*
X111188571Y-89774819D02*
X110521905Y-90774819D01*
X111902857Y-90251009D02*
X111569524Y-90251009D01*
X111569524Y-90774819D02*
X111569524Y-89774819D01*
X111569524Y-89774819D02*
X112045714Y-89774819D01*
X112379048Y-89870057D02*
X112426667Y-89822438D01*
X112426667Y-89822438D02*
X112521905Y-89774819D01*
X112521905Y-89774819D02*
X112760000Y-89774819D01*
X112760000Y-89774819D02*
X112855238Y-89822438D01*
X112855238Y-89822438D02*
X112902857Y-89870057D01*
X112902857Y-89870057D02*
X112950476Y-89965295D01*
X112950476Y-89965295D02*
X112950476Y-90060533D01*
X112950476Y-90060533D02*
X112902857Y-90203390D01*
X112902857Y-90203390D02*
X112331429Y-90774819D01*
X112331429Y-90774819D02*
X112950476Y-90774819D01*
X121959580Y-86442857D02*
X122007200Y-86490476D01*
X122007200Y-86490476D02*
X122054819Y-86633333D01*
X122054819Y-86633333D02*
X122054819Y-86728571D01*
X122054819Y-86728571D02*
X122007200Y-86871428D01*
X122007200Y-86871428D02*
X121911961Y-86966666D01*
X121911961Y-86966666D02*
X121816723Y-87014285D01*
X121816723Y-87014285D02*
X121626247Y-87061904D01*
X121626247Y-87061904D02*
X121483390Y-87061904D01*
X121483390Y-87061904D02*
X121292914Y-87014285D01*
X121292914Y-87014285D02*
X121197676Y-86966666D01*
X121197676Y-86966666D02*
X121102438Y-86871428D01*
X121102438Y-86871428D02*
X121054819Y-86728571D01*
X121054819Y-86728571D02*
X121054819Y-86633333D01*
X121054819Y-86633333D02*
X121102438Y-86490476D01*
X121102438Y-86490476D02*
X121150057Y-86442857D01*
X122054819Y-85490476D02*
X122054819Y-86061904D01*
X122054819Y-85776190D02*
X121054819Y-85776190D01*
X121054819Y-85776190D02*
X121197676Y-85871428D01*
X121197676Y-85871428D02*
X121292914Y-85966666D01*
X121292914Y-85966666D02*
X121340533Y-86061904D01*
X121150057Y-85109523D02*
X121102438Y-85061904D01*
X121102438Y-85061904D02*
X121054819Y-84966666D01*
X121054819Y-84966666D02*
X121054819Y-84728571D01*
X121054819Y-84728571D02*
X121102438Y-84633333D01*
X121102438Y-84633333D02*
X121150057Y-84585714D01*
X121150057Y-84585714D02*
X121245295Y-84538095D01*
X121245295Y-84538095D02*
X121340533Y-84538095D01*
X121340533Y-84538095D02*
X121483390Y-84585714D01*
X121483390Y-84585714D02*
X122054819Y-85157142D01*
X122054819Y-85157142D02*
X122054819Y-84538095D01*
X120433333Y-97954819D02*
X119957143Y-97954819D01*
X119957143Y-97954819D02*
X119957143Y-96954819D01*
X121195238Y-96954819D02*
X121004762Y-96954819D01*
X121004762Y-96954819D02*
X120909524Y-97002438D01*
X120909524Y-97002438D02*
X120861905Y-97050057D01*
X120861905Y-97050057D02*
X120766667Y-97192914D01*
X120766667Y-97192914D02*
X120719048Y-97383390D01*
X120719048Y-97383390D02*
X120719048Y-97764342D01*
X120719048Y-97764342D02*
X120766667Y-97859580D01*
X120766667Y-97859580D02*
X120814286Y-97907200D01*
X120814286Y-97907200D02*
X120909524Y-97954819D01*
X120909524Y-97954819D02*
X121100000Y-97954819D01*
X121100000Y-97954819D02*
X121195238Y-97907200D01*
X121195238Y-97907200D02*
X121242857Y-97859580D01*
X121242857Y-97859580D02*
X121290476Y-97764342D01*
X121290476Y-97764342D02*
X121290476Y-97526247D01*
X121290476Y-97526247D02*
X121242857Y-97431009D01*
X121242857Y-97431009D02*
X121195238Y-97383390D01*
X121195238Y-97383390D02*
X121100000Y-97335771D01*
X121100000Y-97335771D02*
X120909524Y-97335771D01*
X120909524Y-97335771D02*
X120814286Y-97383390D01*
X120814286Y-97383390D02*
X120766667Y-97431009D01*
X120766667Y-97431009D02*
X120719048Y-97526247D01*
X118059580Y-90542857D02*
X118107200Y-90590476D01*
X118107200Y-90590476D02*
X118154819Y-90733333D01*
X118154819Y-90733333D02*
X118154819Y-90828571D01*
X118154819Y-90828571D02*
X118107200Y-90971428D01*
X118107200Y-90971428D02*
X118011961Y-91066666D01*
X118011961Y-91066666D02*
X117916723Y-91114285D01*
X117916723Y-91114285D02*
X117726247Y-91161904D01*
X117726247Y-91161904D02*
X117583390Y-91161904D01*
X117583390Y-91161904D02*
X117392914Y-91114285D01*
X117392914Y-91114285D02*
X117297676Y-91066666D01*
X117297676Y-91066666D02*
X117202438Y-90971428D01*
X117202438Y-90971428D02*
X117154819Y-90828571D01*
X117154819Y-90828571D02*
X117154819Y-90733333D01*
X117154819Y-90733333D02*
X117202438Y-90590476D01*
X117202438Y-90590476D02*
X117250057Y-90542857D01*
X117250057Y-90161904D02*
X117202438Y-90114285D01*
X117202438Y-90114285D02*
X117154819Y-90019047D01*
X117154819Y-90019047D02*
X117154819Y-89780952D01*
X117154819Y-89780952D02*
X117202438Y-89685714D01*
X117202438Y-89685714D02*
X117250057Y-89638095D01*
X117250057Y-89638095D02*
X117345295Y-89590476D01*
X117345295Y-89590476D02*
X117440533Y-89590476D01*
X117440533Y-89590476D02*
X117583390Y-89638095D01*
X117583390Y-89638095D02*
X118154819Y-90209523D01*
X118154819Y-90209523D02*
X118154819Y-89590476D01*
X117488152Y-88733333D02*
X118154819Y-88733333D01*
X117107200Y-88971428D02*
X117821485Y-89209523D01*
X117821485Y-89209523D02*
X117821485Y-88590476D01*
X133033333Y-95359580D02*
X132985714Y-95407200D01*
X132985714Y-95407200D02*
X132842857Y-95454819D01*
X132842857Y-95454819D02*
X132747619Y-95454819D01*
X132747619Y-95454819D02*
X132604762Y-95407200D01*
X132604762Y-95407200D02*
X132509524Y-95311961D01*
X132509524Y-95311961D02*
X132461905Y-95216723D01*
X132461905Y-95216723D02*
X132414286Y-95026247D01*
X132414286Y-95026247D02*
X132414286Y-94883390D01*
X132414286Y-94883390D02*
X132461905Y-94692914D01*
X132461905Y-94692914D02*
X132509524Y-94597676D01*
X132509524Y-94597676D02*
X132604762Y-94502438D01*
X132604762Y-94502438D02*
X132747619Y-94454819D01*
X132747619Y-94454819D02*
X132842857Y-94454819D01*
X132842857Y-94454819D02*
X132985714Y-94502438D01*
X132985714Y-94502438D02*
X133033333Y-94550057D01*
X133938095Y-94454819D02*
X133461905Y-94454819D01*
X133461905Y-94454819D02*
X133414286Y-94931009D01*
X133414286Y-94931009D02*
X133461905Y-94883390D01*
X133461905Y-94883390D02*
X133557143Y-94835771D01*
X133557143Y-94835771D02*
X133795238Y-94835771D01*
X133795238Y-94835771D02*
X133890476Y-94883390D01*
X133890476Y-94883390D02*
X133938095Y-94931009D01*
X133938095Y-94931009D02*
X133985714Y-95026247D01*
X133985714Y-95026247D02*
X133985714Y-95264342D01*
X133985714Y-95264342D02*
X133938095Y-95359580D01*
X133938095Y-95359580D02*
X133890476Y-95407200D01*
X133890476Y-95407200D02*
X133795238Y-95454819D01*
X133795238Y-95454819D02*
X133557143Y-95454819D01*
X133557143Y-95454819D02*
X133461905Y-95407200D01*
X133461905Y-95407200D02*
X133414286Y-95359580D01*
X140104761Y-108454819D02*
X139771428Y-107978628D01*
X139533333Y-108454819D02*
X139533333Y-107454819D01*
X139533333Y-107454819D02*
X139914285Y-107454819D01*
X139914285Y-107454819D02*
X140009523Y-107502438D01*
X140009523Y-107502438D02*
X140057142Y-107550057D01*
X140057142Y-107550057D02*
X140104761Y-107645295D01*
X140104761Y-107645295D02*
X140104761Y-107788152D01*
X140104761Y-107788152D02*
X140057142Y-107883390D01*
X140057142Y-107883390D02*
X140009523Y-107931009D01*
X140009523Y-107931009D02*
X139914285Y-107978628D01*
X139914285Y-107978628D02*
X139533333Y-107978628D01*
X140866666Y-107931009D02*
X140533333Y-107931009D01*
X140533333Y-108454819D02*
X140533333Y-107454819D01*
X140533333Y-107454819D02*
X141009523Y-107454819D01*
X141342857Y-107550057D02*
X141390476Y-107502438D01*
X141390476Y-107502438D02*
X141485714Y-107454819D01*
X141485714Y-107454819D02*
X141723809Y-107454819D01*
X141723809Y-107454819D02*
X141819047Y-107502438D01*
X141819047Y-107502438D02*
X141866666Y-107550057D01*
X141866666Y-107550057D02*
X141914285Y-107645295D01*
X141914285Y-107645295D02*
X141914285Y-107740533D01*
X141914285Y-107740533D02*
X141866666Y-107883390D01*
X141866666Y-107883390D02*
X141295238Y-108454819D01*
X141295238Y-108454819D02*
X141914285Y-108454819D01*
X140004761Y-112954819D02*
X139671428Y-112478628D01*
X139433333Y-112954819D02*
X139433333Y-111954819D01*
X139433333Y-111954819D02*
X139814285Y-111954819D01*
X139814285Y-111954819D02*
X139909523Y-112002438D01*
X139909523Y-112002438D02*
X139957142Y-112050057D01*
X139957142Y-112050057D02*
X140004761Y-112145295D01*
X140004761Y-112145295D02*
X140004761Y-112288152D01*
X140004761Y-112288152D02*
X139957142Y-112383390D01*
X139957142Y-112383390D02*
X139909523Y-112431009D01*
X139909523Y-112431009D02*
X139814285Y-112478628D01*
X139814285Y-112478628D02*
X139433333Y-112478628D01*
X140766666Y-112431009D02*
X140433333Y-112431009D01*
X140433333Y-112954819D02*
X140433333Y-111954819D01*
X140433333Y-111954819D02*
X140909523Y-111954819D01*
X141814285Y-112954819D02*
X141242857Y-112954819D01*
X141528571Y-112954819D02*
X141528571Y-111954819D01*
X141528571Y-111954819D02*
X141433333Y-112097676D01*
X141433333Y-112097676D02*
X141338095Y-112192914D01*
X141338095Y-112192914D02*
X141242857Y-112240533D01*
X118454819Y-111066666D02*
X117978628Y-111399999D01*
X118454819Y-111638094D02*
X117454819Y-111638094D01*
X117454819Y-111638094D02*
X117454819Y-111257142D01*
X117454819Y-111257142D02*
X117502438Y-111161904D01*
X117502438Y-111161904D02*
X117550057Y-111114285D01*
X117550057Y-111114285D02*
X117645295Y-111066666D01*
X117645295Y-111066666D02*
X117788152Y-111066666D01*
X117788152Y-111066666D02*
X117883390Y-111114285D01*
X117883390Y-111114285D02*
X117931009Y-111161904D01*
X117931009Y-111161904D02*
X117978628Y-111257142D01*
X117978628Y-111257142D02*
X117978628Y-111638094D01*
X117454819Y-110733332D02*
X117454819Y-110066666D01*
X117454819Y-110066666D02*
X118454819Y-110495237D01*
X126633333Y-107654819D02*
X126157143Y-107654819D01*
X126157143Y-107654819D02*
X126157143Y-106654819D01*
X127395238Y-106988152D02*
X127395238Y-107654819D01*
X127157143Y-106607200D02*
X126919048Y-107321485D01*
X126919048Y-107321485D02*
X127538095Y-107321485D01*
X127454819Y-99242857D02*
X126978628Y-99576190D01*
X127454819Y-99814285D02*
X126454819Y-99814285D01*
X126454819Y-99814285D02*
X126454819Y-99433333D01*
X126454819Y-99433333D02*
X126502438Y-99338095D01*
X126502438Y-99338095D02*
X126550057Y-99290476D01*
X126550057Y-99290476D02*
X126645295Y-99242857D01*
X126645295Y-99242857D02*
X126788152Y-99242857D01*
X126788152Y-99242857D02*
X126883390Y-99290476D01*
X126883390Y-99290476D02*
X126931009Y-99338095D01*
X126931009Y-99338095D02*
X126978628Y-99433333D01*
X126978628Y-99433333D02*
X126978628Y-99814285D01*
X127454819Y-98290476D02*
X127454819Y-98861904D01*
X127454819Y-98576190D02*
X126454819Y-98576190D01*
X126454819Y-98576190D02*
X126597676Y-98671428D01*
X126597676Y-98671428D02*
X126692914Y-98766666D01*
X126692914Y-98766666D02*
X126740533Y-98861904D01*
X126454819Y-97957142D02*
X126454819Y-97338095D01*
X126454819Y-97338095D02*
X126835771Y-97671428D01*
X126835771Y-97671428D02*
X126835771Y-97528571D01*
X126835771Y-97528571D02*
X126883390Y-97433333D01*
X126883390Y-97433333D02*
X126931009Y-97385714D01*
X126931009Y-97385714D02*
X127026247Y-97338095D01*
X127026247Y-97338095D02*
X127264342Y-97338095D01*
X127264342Y-97338095D02*
X127359580Y-97385714D01*
X127359580Y-97385714D02*
X127407200Y-97433333D01*
X127407200Y-97433333D02*
X127454819Y-97528571D01*
X127454819Y-97528571D02*
X127454819Y-97814285D01*
X127454819Y-97814285D02*
X127407200Y-97909523D01*
X127407200Y-97909523D02*
X127359580Y-97957142D01*
X114404761Y-84654819D02*
X114071428Y-84178628D01*
X113833333Y-84654819D02*
X113833333Y-83654819D01*
X113833333Y-83654819D02*
X114214285Y-83654819D01*
X114214285Y-83654819D02*
X114309523Y-83702438D01*
X114309523Y-83702438D02*
X114357142Y-83750057D01*
X114357142Y-83750057D02*
X114404761Y-83845295D01*
X114404761Y-83845295D02*
X114404761Y-83988152D01*
X114404761Y-83988152D02*
X114357142Y-84083390D01*
X114357142Y-84083390D02*
X114309523Y-84131009D01*
X114309523Y-84131009D02*
X114214285Y-84178628D01*
X114214285Y-84178628D02*
X113833333Y-84178628D01*
X115166666Y-84131009D02*
X114833333Y-84131009D01*
X114833333Y-84654819D02*
X114833333Y-83654819D01*
X114833333Y-83654819D02*
X115309523Y-83654819D01*
X116119047Y-83654819D02*
X115928571Y-83654819D01*
X115928571Y-83654819D02*
X115833333Y-83702438D01*
X115833333Y-83702438D02*
X115785714Y-83750057D01*
X115785714Y-83750057D02*
X115690476Y-83892914D01*
X115690476Y-83892914D02*
X115642857Y-84083390D01*
X115642857Y-84083390D02*
X115642857Y-84464342D01*
X115642857Y-84464342D02*
X115690476Y-84559580D01*
X115690476Y-84559580D02*
X115738095Y-84607200D01*
X115738095Y-84607200D02*
X115833333Y-84654819D01*
X115833333Y-84654819D02*
X116023809Y-84654819D01*
X116023809Y-84654819D02*
X116119047Y-84607200D01*
X116119047Y-84607200D02*
X116166666Y-84559580D01*
X116166666Y-84559580D02*
X116214285Y-84464342D01*
X116214285Y-84464342D02*
X116214285Y-84226247D01*
X116214285Y-84226247D02*
X116166666Y-84131009D01*
X116166666Y-84131009D02*
X116119047Y-84083390D01*
X116119047Y-84083390D02*
X116023809Y-84035771D01*
X116023809Y-84035771D02*
X115833333Y-84035771D01*
X115833333Y-84035771D02*
X115738095Y-84083390D01*
X115738095Y-84083390D02*
X115690476Y-84131009D01*
X115690476Y-84131009D02*
X115642857Y-84226247D01*
X113133333Y-120954819D02*
X112800000Y-120478628D01*
X112561905Y-120954819D02*
X112561905Y-119954819D01*
X112561905Y-119954819D02*
X112942857Y-119954819D01*
X112942857Y-119954819D02*
X113038095Y-120002438D01*
X113038095Y-120002438D02*
X113085714Y-120050057D01*
X113085714Y-120050057D02*
X113133333Y-120145295D01*
X113133333Y-120145295D02*
X113133333Y-120288152D01*
X113133333Y-120288152D02*
X113085714Y-120383390D01*
X113085714Y-120383390D02*
X113038095Y-120431009D01*
X113038095Y-120431009D02*
X112942857Y-120478628D01*
X112942857Y-120478628D02*
X112561905Y-120478628D01*
X113990476Y-120288152D02*
X113990476Y-120954819D01*
X113752381Y-119907200D02*
X113514286Y-120621485D01*
X113514286Y-120621485D02*
X114133333Y-120621485D01*
X137754819Y-98466666D02*
X137278628Y-98799999D01*
X137754819Y-99038094D02*
X136754819Y-99038094D01*
X136754819Y-99038094D02*
X136754819Y-98657142D01*
X136754819Y-98657142D02*
X136802438Y-98561904D01*
X136802438Y-98561904D02*
X136850057Y-98514285D01*
X136850057Y-98514285D02*
X136945295Y-98466666D01*
X136945295Y-98466666D02*
X137088152Y-98466666D01*
X137088152Y-98466666D02*
X137183390Y-98514285D01*
X137183390Y-98514285D02*
X137231009Y-98561904D01*
X137231009Y-98561904D02*
X137278628Y-98657142D01*
X137278628Y-98657142D02*
X137278628Y-99038094D01*
X136754819Y-98133332D02*
X136754819Y-97514285D01*
X136754819Y-97514285D02*
X137135771Y-97847618D01*
X137135771Y-97847618D02*
X137135771Y-97704761D01*
X137135771Y-97704761D02*
X137183390Y-97609523D01*
X137183390Y-97609523D02*
X137231009Y-97561904D01*
X137231009Y-97561904D02*
X137326247Y-97514285D01*
X137326247Y-97514285D02*
X137564342Y-97514285D01*
X137564342Y-97514285D02*
X137659580Y-97561904D01*
X137659580Y-97561904D02*
X137707200Y-97609523D01*
X137707200Y-97609523D02*
X137754819Y-97704761D01*
X137754819Y-97704761D02*
X137754819Y-97990475D01*
X137754819Y-97990475D02*
X137707200Y-98085713D01*
X137707200Y-98085713D02*
X137659580Y-98133332D01*
X117038095Y-97404819D02*
X117038095Y-98214342D01*
X117038095Y-98214342D02*
X117085714Y-98309580D01*
X117085714Y-98309580D02*
X117133333Y-98357200D01*
X117133333Y-98357200D02*
X117228571Y-98404819D01*
X117228571Y-98404819D02*
X117419047Y-98404819D01*
X117419047Y-98404819D02*
X117514285Y-98357200D01*
X117514285Y-98357200D02*
X117561904Y-98309580D01*
X117561904Y-98309580D02*
X117609523Y-98214342D01*
X117609523Y-98214342D02*
X117609523Y-97404819D01*
X118038095Y-97500057D02*
X118085714Y-97452438D01*
X118085714Y-97452438D02*
X118180952Y-97404819D01*
X118180952Y-97404819D02*
X118419047Y-97404819D01*
X118419047Y-97404819D02*
X118514285Y-97452438D01*
X118514285Y-97452438D02*
X118561904Y-97500057D01*
X118561904Y-97500057D02*
X118609523Y-97595295D01*
X118609523Y-97595295D02*
X118609523Y-97690533D01*
X118609523Y-97690533D02*
X118561904Y-97833390D01*
X118561904Y-97833390D02*
X117990476Y-98404819D01*
X117990476Y-98404819D02*
X118609523Y-98404819D01*
X142554819Y-98866666D02*
X142078628Y-99199999D01*
X142554819Y-99438094D02*
X141554819Y-99438094D01*
X141554819Y-99438094D02*
X141554819Y-99057142D01*
X141554819Y-99057142D02*
X141602438Y-98961904D01*
X141602438Y-98961904D02*
X141650057Y-98914285D01*
X141650057Y-98914285D02*
X141745295Y-98866666D01*
X141745295Y-98866666D02*
X141888152Y-98866666D01*
X141888152Y-98866666D02*
X141983390Y-98914285D01*
X141983390Y-98914285D02*
X142031009Y-98961904D01*
X142031009Y-98961904D02*
X142078628Y-99057142D01*
X142078628Y-99057142D02*
X142078628Y-99438094D01*
X141650057Y-98485713D02*
X141602438Y-98438094D01*
X141602438Y-98438094D02*
X141554819Y-98342856D01*
X141554819Y-98342856D02*
X141554819Y-98104761D01*
X141554819Y-98104761D02*
X141602438Y-98009523D01*
X141602438Y-98009523D02*
X141650057Y-97961904D01*
X141650057Y-97961904D02*
X141745295Y-97914285D01*
X141745295Y-97914285D02*
X141840533Y-97914285D01*
X141840533Y-97914285D02*
X141983390Y-97961904D01*
X141983390Y-97961904D02*
X142554819Y-98533332D01*
X142554819Y-98533332D02*
X142554819Y-97914285D01*
X108004761Y-91254819D02*
X107671428Y-90778628D01*
X107433333Y-91254819D02*
X107433333Y-90254819D01*
X107433333Y-90254819D02*
X107814285Y-90254819D01*
X107814285Y-90254819D02*
X107909523Y-90302438D01*
X107909523Y-90302438D02*
X107957142Y-90350057D01*
X107957142Y-90350057D02*
X108004761Y-90445295D01*
X108004761Y-90445295D02*
X108004761Y-90588152D01*
X108004761Y-90588152D02*
X107957142Y-90683390D01*
X107957142Y-90683390D02*
X107909523Y-90731009D01*
X107909523Y-90731009D02*
X107814285Y-90778628D01*
X107814285Y-90778628D02*
X107433333Y-90778628D01*
X108766666Y-90731009D02*
X108433333Y-90731009D01*
X108433333Y-91254819D02*
X108433333Y-90254819D01*
X108433333Y-90254819D02*
X108909523Y-90254819D01*
X109719047Y-90588152D02*
X109719047Y-91254819D01*
X109480952Y-90207200D02*
X109242857Y-90921485D01*
X109242857Y-90921485D02*
X109861904Y-90921485D01*
X110833333Y-120954819D02*
X110500000Y-120478628D01*
X110261905Y-120954819D02*
X110261905Y-119954819D01*
X110261905Y-119954819D02*
X110642857Y-119954819D01*
X110642857Y-119954819D02*
X110738095Y-120002438D01*
X110738095Y-120002438D02*
X110785714Y-120050057D01*
X110785714Y-120050057D02*
X110833333Y-120145295D01*
X110833333Y-120145295D02*
X110833333Y-120288152D01*
X110833333Y-120288152D02*
X110785714Y-120383390D01*
X110785714Y-120383390D02*
X110738095Y-120431009D01*
X110738095Y-120431009D02*
X110642857Y-120478628D01*
X110642857Y-120478628D02*
X110261905Y-120478628D01*
X111690476Y-119954819D02*
X111500000Y-119954819D01*
X111500000Y-119954819D02*
X111404762Y-120002438D01*
X111404762Y-120002438D02*
X111357143Y-120050057D01*
X111357143Y-120050057D02*
X111261905Y-120192914D01*
X111261905Y-120192914D02*
X111214286Y-120383390D01*
X111214286Y-120383390D02*
X111214286Y-120764342D01*
X111214286Y-120764342D02*
X111261905Y-120859580D01*
X111261905Y-120859580D02*
X111309524Y-120907200D01*
X111309524Y-120907200D02*
X111404762Y-120954819D01*
X111404762Y-120954819D02*
X111595238Y-120954819D01*
X111595238Y-120954819D02*
X111690476Y-120907200D01*
X111690476Y-120907200D02*
X111738095Y-120859580D01*
X111738095Y-120859580D02*
X111785714Y-120764342D01*
X111785714Y-120764342D02*
X111785714Y-120526247D01*
X111785714Y-120526247D02*
X111738095Y-120431009D01*
X111738095Y-120431009D02*
X111690476Y-120383390D01*
X111690476Y-120383390D02*
X111595238Y-120335771D01*
X111595238Y-120335771D02*
X111404762Y-120335771D01*
X111404762Y-120335771D02*
X111309524Y-120383390D01*
X111309524Y-120383390D02*
X111261905Y-120431009D01*
X111261905Y-120431009D02*
X111214286Y-120526247D01*
X132759580Y-99442857D02*
X132807200Y-99490476D01*
X132807200Y-99490476D02*
X132854819Y-99633333D01*
X132854819Y-99633333D02*
X132854819Y-99728571D01*
X132854819Y-99728571D02*
X132807200Y-99871428D01*
X132807200Y-99871428D02*
X132711961Y-99966666D01*
X132711961Y-99966666D02*
X132616723Y-100014285D01*
X132616723Y-100014285D02*
X132426247Y-100061904D01*
X132426247Y-100061904D02*
X132283390Y-100061904D01*
X132283390Y-100061904D02*
X132092914Y-100014285D01*
X132092914Y-100014285D02*
X131997676Y-99966666D01*
X131997676Y-99966666D02*
X131902438Y-99871428D01*
X131902438Y-99871428D02*
X131854819Y-99728571D01*
X131854819Y-99728571D02*
X131854819Y-99633333D01*
X131854819Y-99633333D02*
X131902438Y-99490476D01*
X131902438Y-99490476D02*
X131950057Y-99442857D01*
X132854819Y-98490476D02*
X132854819Y-99061904D01*
X132854819Y-98776190D02*
X131854819Y-98776190D01*
X131854819Y-98776190D02*
X131997676Y-98871428D01*
X131997676Y-98871428D02*
X132092914Y-98966666D01*
X132092914Y-98966666D02*
X132140533Y-99061904D01*
X132854819Y-97538095D02*
X132854819Y-98109523D01*
X132854819Y-97823809D02*
X131854819Y-97823809D01*
X131854819Y-97823809D02*
X131997676Y-97919047D01*
X131997676Y-97919047D02*
X132092914Y-98014285D01*
X132092914Y-98014285D02*
X132140533Y-98109523D01*
X129457142Y-95359580D02*
X129409523Y-95407200D01*
X129409523Y-95407200D02*
X129266666Y-95454819D01*
X129266666Y-95454819D02*
X129171428Y-95454819D01*
X129171428Y-95454819D02*
X129028571Y-95407200D01*
X129028571Y-95407200D02*
X128933333Y-95311961D01*
X128933333Y-95311961D02*
X128885714Y-95216723D01*
X128885714Y-95216723D02*
X128838095Y-95026247D01*
X128838095Y-95026247D02*
X128838095Y-94883390D01*
X128838095Y-94883390D02*
X128885714Y-94692914D01*
X128885714Y-94692914D02*
X128933333Y-94597676D01*
X128933333Y-94597676D02*
X129028571Y-94502438D01*
X129028571Y-94502438D02*
X129171428Y-94454819D01*
X129171428Y-94454819D02*
X129266666Y-94454819D01*
X129266666Y-94454819D02*
X129409523Y-94502438D01*
X129409523Y-94502438D02*
X129457142Y-94550057D01*
X130409523Y-95454819D02*
X129838095Y-95454819D01*
X130123809Y-95454819D02*
X130123809Y-94454819D01*
X130123809Y-94454819D02*
X130028571Y-94597676D01*
X130028571Y-94597676D02*
X129933333Y-94692914D01*
X129933333Y-94692914D02*
X129838095Y-94740533D01*
X131314285Y-94454819D02*
X130838095Y-94454819D01*
X130838095Y-94454819D02*
X130790476Y-94931009D01*
X130790476Y-94931009D02*
X130838095Y-94883390D01*
X130838095Y-94883390D02*
X130933333Y-94835771D01*
X130933333Y-94835771D02*
X131171428Y-94835771D01*
X131171428Y-94835771D02*
X131266666Y-94883390D01*
X131266666Y-94883390D02*
X131314285Y-94931009D01*
X131314285Y-94931009D02*
X131361904Y-95026247D01*
X131361904Y-95026247D02*
X131361904Y-95264342D01*
X131361904Y-95264342D02*
X131314285Y-95359580D01*
X131314285Y-95359580D02*
X131266666Y-95407200D01*
X131266666Y-95407200D02*
X131171428Y-95454819D01*
X131171428Y-95454819D02*
X130933333Y-95454819D01*
X130933333Y-95454819D02*
X130838095Y-95407200D01*
X130838095Y-95407200D02*
X130790476Y-95359580D01*
X113460000Y-84050000D02*
G75*
G02*
X113310000Y-84200000I-150000J0D01*
G01*
X113310000Y-82400000D02*
G75*
G02*
X113460000Y-82550000I0J-150000D01*
G01*
X109690000Y-84200000D02*
G75*
G02*
X109540000Y-84050000I0J150000D01*
G01*
X109540000Y-82550000D02*
G75*
G02*
X109690000Y-82400000I150000J0D01*
G01*
X113460000Y-82550000D02*
X113460000Y-84050000D01*
X111900000Y-82400000D02*
X113310000Y-82400000D01*
X113310000Y-84200000D02*
X111900000Y-84200000D01*
X109540000Y-82550000D02*
X109540000Y-84050000D01*
X111100000Y-82400000D02*
X109690000Y-82400000D01*
X109690000Y-84200000D02*
X111100000Y-84200000D01*
X111310000Y-110900000D02*
X109900000Y-110900000D01*
X109900000Y-112700000D02*
X111310000Y-112700000D01*
X111460000Y-112550000D02*
X111460000Y-111050000D01*
X107690000Y-110900000D02*
X109100000Y-110900000D01*
X109100000Y-112700000D02*
X107690000Y-112700000D01*
X107540000Y-112550000D02*
X107540000Y-111050000D01*
X111460000Y-112550000D02*
G75*
G02*
X111310000Y-112700000I-150000J0D01*
G01*
X111310000Y-110900000D02*
G75*
G02*
X111460000Y-111050000I0J-150000D01*
G01*
X107690000Y-112700000D02*
G75*
G02*
X107540000Y-112550000I0J150000D01*
G01*
X107540000Y-111050000D02*
G75*
G02*
X107690000Y-110900000I150000J0D01*
G01*
X103190000Y-112700000D02*
X104600000Y-112700000D01*
X104600000Y-110900000D02*
X103190000Y-110900000D01*
X103040000Y-111050000D02*
X103040000Y-112550000D01*
X106810000Y-112700000D02*
X105400000Y-112700000D01*
X105400000Y-110900000D02*
X106810000Y-110900000D01*
X106960000Y-111050000D02*
X106960000Y-112550000D01*
X103040000Y-111050000D02*
G75*
G02*
X103190000Y-110900000I150000J0D01*
G01*
X103190000Y-112700000D02*
G75*
G02*
X103040000Y-112550000I0J150000D01*
G01*
X106810000Y-110900000D02*
G75*
G02*
X106960000Y-111050000I0J-150000D01*
G01*
X106960000Y-112550000D02*
G75*
G02*
X106810000Y-112700000I-150000J0D01*
G01*
X103290000Y-91900000D02*
X104700000Y-91900000D01*
X104700000Y-90100000D02*
X103290000Y-90100000D01*
X103140000Y-90250000D02*
X103140000Y-91750000D01*
X106910000Y-91900000D02*
X105500000Y-91900000D01*
X105500000Y-90100000D02*
X106910000Y-90100000D01*
X107060000Y-90250000D02*
X107060000Y-91750000D01*
X103140000Y-90250000D02*
G75*
G02*
X103290000Y-90100000I150000J0D01*
G01*
X103290000Y-91900000D02*
G75*
G02*
X103140000Y-91750000I0J150000D01*
G01*
X106910000Y-90100000D02*
G75*
G02*
X107060000Y-90250000I0J-150000D01*
G01*
X107060000Y-91750000D02*
G75*
G02*
X106910000Y-91900000I-150000J0D01*
G01*
X132700000Y-107090000D02*
X132700000Y-108500000D01*
X132700000Y-110710000D02*
X132700000Y-109300000D01*
X134350000Y-106940000D02*
X132850000Y-106940000D01*
X134350000Y-110860000D02*
X132850000Y-110860000D01*
X134500000Y-108500000D02*
X134500000Y-107090000D01*
X134500000Y-109300000D02*
X134500000Y-110710000D01*
X132700000Y-107090000D02*
G75*
G02*
X132850000Y-106940000I150000J0D01*
G01*
X132850000Y-110860000D02*
G75*
G02*
X132700000Y-110710000I0J150000D01*
G01*
X134350000Y-106940000D02*
G75*
G02*
X134500000Y-107090000I0J-150000D01*
G01*
X134500000Y-110710000D02*
G75*
G02*
X134350000Y-110860000I-150000J0D01*
G01*
D13*
X110120000Y-106000000D02*
X114320000Y-106000000D01*
X110120000Y-109800000D02*
X114320000Y-109800000D01*
D11*
X131230000Y-83760000D02*
X131230000Y-85640000D01*
X131380000Y-85790000D02*
X132860000Y-85790000D01*
X132860000Y-83610000D02*
X131380000Y-83610000D01*
X134720000Y-83610000D02*
X136200000Y-83610000D01*
X136200000Y-85790000D02*
X134720000Y-85790000D01*
X136350000Y-83760000D02*
X136350000Y-85640000D01*
X131230000Y-83760000D02*
G75*
G02*
X131380000Y-83610000I150000J0D01*
G01*
X131380000Y-85790000D02*
G75*
G02*
X131230000Y-85640000I0J150000D01*
G01*
X136200000Y-83610000D02*
G75*
G02*
X136350000Y-83760000I0J-150000D01*
G01*
X136350000Y-85640000D02*
G75*
G02*
X136200000Y-85790000I-150000J0D01*
G01*
X109480000Y-97390000D02*
X111320000Y-97390000D01*
X109480000Y-98670000D02*
X109480000Y-97390000D01*
X109480000Y-99630000D02*
X109480000Y-100910000D01*
X109480000Y-100910000D02*
X111320000Y-100910000D01*
X111320000Y-97390000D02*
X111320000Y-98670000D01*
X111320000Y-100910000D02*
X111320000Y-99630000D01*
D13*
X110120000Y-113800000D02*
X114320000Y-113800000D01*
X110120000Y-117600000D02*
X114320000Y-117600000D01*
X128130000Y-113740000D02*
X128130000Y-115130000D01*
X128130000Y-115130000D02*
X128130000Y-115260000D01*
X128130000Y-115260000D02*
X128390000Y-115520000D01*
X128390000Y-113480000D02*
X128130000Y-113740000D01*
X128390000Y-115520000D02*
X129660000Y-115520000D01*
X128520000Y-113480000D02*
X128390000Y-113480000D01*
X129660000Y-113480000D02*
X128520000Y-113480000D01*
X130420000Y-115520000D02*
X131560000Y-115520000D01*
X131560000Y-115520000D02*
X131690000Y-115520000D01*
X131690000Y-113480000D02*
X130420000Y-113480000D01*
X131690000Y-115520000D02*
X131940000Y-115260000D01*
X131940000Y-113740000D02*
X131690000Y-113480000D01*
X131940000Y-113860000D02*
X131940000Y-113740000D01*
X131940000Y-115260000D02*
X131940000Y-113860000D01*
D11*
X138780000Y-94040000D02*
X138780000Y-95320000D01*
X138780000Y-97560000D02*
X138780000Y-96280000D01*
X140620000Y-94040000D02*
X138780000Y-94040000D01*
X140620000Y-95320000D02*
X140620000Y-94040000D01*
X140620000Y-96280000D02*
X140620000Y-97560000D01*
X140620000Y-97560000D02*
X138780000Y-97560000D01*
X128040000Y-112750000D02*
X128040000Y-111250000D01*
X128190000Y-111100000D02*
X129600000Y-111100000D01*
X129600000Y-112900000D02*
X128190000Y-112900000D01*
X130400000Y-112900000D02*
X131810000Y-112900000D01*
X131810000Y-111100000D02*
X130400000Y-111100000D01*
X131960000Y-112750000D02*
X131960000Y-111250000D01*
X128040000Y-111250000D02*
G75*
G02*
X128190000Y-111100000I150000J0D01*
G01*
X128190000Y-112900000D02*
G75*
G02*
X128040000Y-112750000I0J150000D01*
G01*
X131810000Y-111100000D02*
G75*
G02*
X131960000Y-111250000I0J-150000D01*
G01*
X131960000Y-112750000D02*
G75*
G02*
X131810000Y-112900000I-150000J0D01*
G01*
X121880000Y-102090000D02*
X123720000Y-102090000D01*
X121880000Y-103370000D02*
X121880000Y-102090000D01*
X121880000Y-104330000D02*
X121880000Y-105610000D01*
X121880000Y-105610000D02*
X123720000Y-105610000D01*
X123720000Y-102090000D02*
X123720000Y-103370000D01*
X123720000Y-105610000D02*
X123720000Y-104330000D01*
D13*
X139790000Y-92750000D02*
X141550000Y-92750000D01*
X141550000Y-83850000D02*
X139790000Y-83850000D01*
X143790000Y-92750000D02*
X145300000Y-92750000D01*
X145300000Y-83850000D02*
X143790000Y-83850000D01*
X145300000Y-92750000D02*
X145300000Y-83850000D01*
X134100000Y-86800000D02*
X133600000Y-86800000D01*
X134100000Y-90800000D02*
X133600000Y-90800000D01*
D11*
X126440000Y-100750000D02*
X126440000Y-102250000D01*
X126590000Y-102400000D02*
X128000000Y-102400000D01*
X128000000Y-100600000D02*
X126590000Y-100600000D01*
X128800000Y-100600000D02*
X130210000Y-100600000D01*
X130210000Y-102400000D02*
X128800000Y-102400000D01*
X130360000Y-100750000D02*
X130360000Y-102250000D01*
X126440000Y-100750000D02*
G75*
G02*
X126590000Y-100600000I150000J0D01*
G01*
X126590000Y-102400000D02*
G75*
G02*
X126440000Y-102250000I0J150000D01*
G01*
X130210000Y-100600000D02*
G75*
G02*
X130360000Y-100750000I0J-150000D01*
G01*
X130360000Y-102250000D02*
G75*
G02*
X130210000Y-102400000I-150000J0D01*
G01*
X115200000Y-106300000D02*
X115200000Y-104890000D01*
X115200000Y-107100000D02*
X115200000Y-108510000D01*
X115350000Y-104740000D02*
X116850000Y-104740000D01*
X115350000Y-108660000D02*
X116850000Y-108660000D01*
X117000000Y-104890000D02*
X117000000Y-106300000D01*
X117000000Y-108510000D02*
X117000000Y-107100000D01*
X115200000Y-104890000D02*
G75*
G02*
X115350000Y-104740000I150000J0D01*
G01*
X115350000Y-108660000D02*
G75*
G02*
X115200000Y-108510000I0J150000D01*
G01*
X116850000Y-104740000D02*
G75*
G02*
X117000000Y-104890000I0J-150000D01*
G01*
X117000000Y-108510000D02*
G75*
G02*
X116850000Y-108660000I-150000J0D01*
G01*
X115240000Y-116080000D02*
X115240000Y-117920000D01*
X115240000Y-117920000D02*
X116520000Y-117920000D01*
X116520000Y-116080000D02*
X115240000Y-116080000D01*
X117480000Y-116080000D02*
X118760000Y-116080000D01*
X118760000Y-116080000D02*
X118760000Y-117920000D01*
X118760000Y-117920000D02*
X117480000Y-117920000D01*
X134500000Y-102200000D02*
X134500000Y-100790000D01*
X134500000Y-103000000D02*
X134500000Y-104410000D01*
X134650000Y-100640000D02*
X136150000Y-100640000D01*
X134650000Y-104560000D02*
X136150000Y-104560000D01*
X136300000Y-100790000D02*
X136300000Y-102200000D01*
X136300000Y-104410000D02*
X136300000Y-103000000D01*
X134500000Y-100790000D02*
G75*
G02*
X134650000Y-100640000I150000J0D01*
G01*
X134650000Y-104560000D02*
G75*
G02*
X134500000Y-104410000I0J150000D01*
G01*
X136150000Y-100640000D02*
G75*
G02*
X136300000Y-100790000I0J-150000D01*
G01*
X136300000Y-104410000D02*
G75*
G02*
X136150000Y-104560000I-150000J0D01*
G01*
X122510000Y-88880000D02*
X122510000Y-90360000D01*
X122510000Y-93700000D02*
X122510000Y-92220000D01*
X124540000Y-88730000D02*
X122660000Y-88730000D01*
X124540000Y-93850000D02*
X122660000Y-93850000D01*
X124690000Y-90360000D02*
X124690000Y-88880000D01*
X124690000Y-92220000D02*
X124690000Y-93700000D01*
X122510000Y-88880000D02*
G75*
G02*
X122660000Y-88730000I150000J0D01*
G01*
X122660000Y-93850000D02*
G75*
G02*
X122510000Y-93700000I0J150000D01*
G01*
X124540000Y-88730000D02*
G75*
G02*
X124690000Y-88880000I0J-150000D01*
G01*
X124690000Y-93700000D02*
G75*
G02*
X124540000Y-93850000I-150000J0D01*
G01*
X119900000Y-115600000D02*
X119900000Y-114190000D01*
X119900000Y-116400000D02*
X119900000Y-117810000D01*
X120050000Y-114040000D02*
X121550000Y-114040000D01*
X120050000Y-117960000D02*
X121550000Y-117960000D01*
X121700000Y-114190000D02*
X121700000Y-115600000D01*
X121700000Y-117810000D02*
X121700000Y-116400000D01*
X119900000Y-114190000D02*
G75*
G02*
X120050000Y-114040000I150000J0D01*
G01*
X120050000Y-117960000D02*
G75*
G02*
X119900000Y-117810000I0J150000D01*
G01*
X121550000Y-114040000D02*
G75*
G02*
X121700000Y-114190000I0J-150000D01*
G01*
X121700000Y-117810000D02*
G75*
G02*
X121550000Y-117960000I-150000J0D01*
G01*
X125530000Y-85640000D02*
X125530000Y-83760000D01*
X125680000Y-83610000D02*
X127160000Y-83610000D01*
X127160000Y-85790000D02*
X125680000Y-85790000D01*
X129020000Y-85790000D02*
X130500000Y-85790000D01*
X130500000Y-83610000D02*
X129020000Y-83610000D01*
X130650000Y-85640000D02*
X130650000Y-83760000D01*
X125530000Y-83760000D02*
G75*
G02*
X125680000Y-83610000I150000J0D01*
G01*
X125680000Y-85790000D02*
G75*
G02*
X125530000Y-85640000I0J150000D01*
G01*
X130500000Y-83610000D02*
G75*
G02*
X130650000Y-83760000I0J-150000D01*
G01*
X130650000Y-85640000D02*
G75*
G02*
X130500000Y-85790000I-150000J0D01*
G01*
X132700000Y-111690000D02*
X132700000Y-113100000D01*
X132700000Y-115310000D02*
X132700000Y-113900000D01*
X134350000Y-111540000D02*
X132850000Y-111540000D01*
X134350000Y-115460000D02*
X132850000Y-115460000D01*
X134500000Y-113100000D02*
X134500000Y-111690000D01*
X134500000Y-113900000D02*
X134500000Y-115310000D01*
X132700000Y-111690000D02*
G75*
G02*
X132850000Y-111540000I150000J0D01*
G01*
X132850000Y-115460000D02*
G75*
G02*
X132700000Y-115310000I0J150000D01*
G01*
X134350000Y-111540000D02*
G75*
G02*
X134500000Y-111690000I0J-150000D01*
G01*
X134500000Y-115310000D02*
G75*
G02*
X134350000Y-115460000I-150000J0D01*
G01*
D13*
X128060000Y-118740000D02*
X128060000Y-120130000D01*
X128060000Y-120130000D02*
X128060000Y-120260000D01*
X128060000Y-120260000D02*
X128320000Y-120520000D01*
X128320000Y-118480000D02*
X128060000Y-118740000D01*
X128320000Y-120520000D02*
X129590000Y-120520000D01*
X128450000Y-118480000D02*
X128320000Y-118480000D01*
X129590000Y-118480000D02*
X128450000Y-118480000D01*
X130350000Y-120520000D02*
X131490000Y-120520000D01*
X131490000Y-120520000D02*
X131620000Y-120520000D01*
X131620000Y-118480000D02*
X130350000Y-118480000D01*
X131620000Y-120520000D02*
X131870000Y-120260000D01*
X131870000Y-118740000D02*
X131620000Y-118480000D01*
X131870000Y-118860000D02*
X131870000Y-118740000D01*
X131870000Y-120260000D02*
X131870000Y-118860000D01*
X110120000Y-85170000D02*
X114320000Y-85170000D01*
X110120000Y-88970000D02*
X114320000Y-88970000D01*
D11*
X124180000Y-102090000D02*
X124180000Y-103370000D01*
X124180000Y-105610000D02*
X124180000Y-104330000D01*
X126020000Y-102090000D02*
X124180000Y-102090000D01*
X126020000Y-103370000D02*
X126020000Y-102090000D01*
X126020000Y-104330000D02*
X126020000Y-105610000D01*
X126020000Y-105610000D02*
X124180000Y-105610000D01*
X116540000Y-85780000D02*
X116540000Y-87620000D01*
X116540000Y-87620000D02*
X117820000Y-87620000D01*
X117820000Y-85780000D02*
X116540000Y-85780000D01*
X118780000Y-85780000D02*
X120060000Y-85780000D01*
X120060000Y-85780000D02*
X120060000Y-87620000D01*
X120060000Y-87620000D02*
X118780000Y-87620000D01*
X132640000Y-116250000D02*
X132640000Y-117750000D01*
X132790000Y-117900000D02*
X134200000Y-117900000D01*
X134200000Y-116100000D02*
X132790000Y-116100000D01*
X135000000Y-116100000D02*
X136410000Y-116100000D01*
X136410000Y-117900000D02*
X135000000Y-117900000D01*
X136560000Y-116250000D02*
X136560000Y-117750000D01*
X132640000Y-116250000D02*
G75*
G02*
X132790000Y-116100000I150000J0D01*
G01*
X132790000Y-117900000D02*
G75*
G02*
X132640000Y-117750000I0J150000D01*
G01*
X136410000Y-116100000D02*
G75*
G02*
X136560000Y-116250000I0J-150000D01*
G01*
X136560000Y-117750000D02*
G75*
G02*
X136410000Y-117900000I-150000J0D01*
G01*
X124180000Y-97390000D02*
X126020000Y-97390000D01*
X124180000Y-98670000D02*
X124180000Y-97390000D01*
X124180000Y-99630000D02*
X124180000Y-100910000D01*
X124180000Y-100910000D02*
X126020000Y-100910000D01*
X126020000Y-97390000D02*
X126020000Y-98670000D01*
X126020000Y-100910000D02*
X126020000Y-99630000D01*
D13*
X93300000Y-120000000D02*
X93300000Y-119830000D01*
X93310000Y-114020000D02*
X93300000Y-119830000D01*
X93500000Y-114000000D02*
X101050000Y-114000000D01*
X93500000Y-120000000D02*
X93300000Y-120000000D01*
X93500000Y-120000000D02*
X101050000Y-120000000D01*
X93640000Y-114000000D02*
X93310000Y-114000000D01*
X94330000Y-114000000D02*
X94330000Y-120000000D01*
X95030000Y-114000000D02*
X95430000Y-114000000D01*
X95170000Y-114000000D02*
X95170000Y-120000000D01*
X95910000Y-114000000D02*
X95910000Y-120000000D01*
X96410000Y-114000000D02*
X96820000Y-114000000D01*
X96550000Y-114000000D02*
X96550000Y-120000000D01*
X102000000Y-118130000D02*
X102000000Y-115870000D01*
X103870000Y-114000000D02*
X106130000Y-114000000D01*
X106130000Y-120000000D02*
X103870000Y-120000000D01*
X108000000Y-115870000D02*
X108000000Y-118130000D01*
D11*
X128040000Y-110450000D02*
X128040000Y-108950000D01*
X128190000Y-108800000D02*
X129600000Y-108800000D01*
X129600000Y-110600000D02*
X128190000Y-110600000D01*
X130400000Y-110600000D02*
X131810000Y-110600000D01*
X131810000Y-108800000D02*
X130400000Y-108800000D01*
X131960000Y-110450000D02*
X131960000Y-108950000D01*
X128040000Y-108950000D02*
G75*
G02*
X128190000Y-108800000I150000J0D01*
G01*
X128190000Y-110600000D02*
G75*
G02*
X128040000Y-110450000I0J150000D01*
G01*
X131810000Y-108800000D02*
G75*
G02*
X131960000Y-108950000I0J-150000D01*
G01*
X131960000Y-110450000D02*
G75*
G02*
X131810000Y-110600000I-150000J0D01*
G01*
D13*
X93400000Y-109600000D02*
X93400000Y-109430000D01*
X93410000Y-103620000D02*
X93400000Y-109430000D01*
X93600000Y-103600000D02*
X101150000Y-103600000D01*
X93600000Y-109600000D02*
X93400000Y-109600000D01*
X93600000Y-109600000D02*
X101150000Y-109600000D01*
X93740000Y-103600000D02*
X93410000Y-103600000D01*
X94430000Y-103600000D02*
X94430000Y-109600000D01*
X95130000Y-103600000D02*
X95530000Y-103600000D01*
X95270000Y-103600000D02*
X95270000Y-109600000D01*
X96010000Y-103600000D02*
X96010000Y-109600000D01*
X96510000Y-103600000D02*
X96920000Y-103600000D01*
X96650000Y-103600000D02*
X96650000Y-109600000D01*
X102100000Y-107730000D02*
X102100000Y-105470000D01*
X103970000Y-103600000D02*
X106230000Y-103600000D01*
X106230000Y-109600000D02*
X103970000Y-109600000D01*
X108100000Y-105470000D02*
X108100000Y-107730000D01*
D11*
X111780000Y-97390000D02*
X111780000Y-98670000D01*
X111780000Y-100910000D02*
X111780000Y-99630000D01*
X113620000Y-97390000D02*
X111780000Y-97390000D01*
X113620000Y-98670000D02*
X113620000Y-97390000D01*
X113620000Y-99630000D02*
X113620000Y-100910000D01*
X113620000Y-100910000D02*
X111780000Y-100910000D01*
X114500000Y-94390000D02*
X114500000Y-95800000D01*
X114500000Y-98010000D02*
X114500000Y-96600000D01*
X116150000Y-94240000D02*
X114650000Y-94240000D01*
X116150000Y-98160000D02*
X114650000Y-98160000D01*
X116300000Y-95800000D02*
X116300000Y-94390000D01*
X116300000Y-96600000D02*
X116300000Y-98010000D01*
X114500000Y-94390000D02*
G75*
G02*
X114650000Y-94240000I150000J0D01*
G01*
X114650000Y-98160000D02*
G75*
G02*
X114500000Y-98010000I0J150000D01*
G01*
X116150000Y-94240000D02*
G75*
G02*
X116300000Y-94390000I0J-150000D01*
G01*
X116300000Y-98010000D02*
G75*
G02*
X116150000Y-98160000I-150000J0D01*
G01*
X114480000Y-90340000D02*
X114480000Y-91620000D01*
X114480000Y-93860000D02*
X114480000Y-92580000D01*
X116320000Y-90340000D02*
X114480000Y-90340000D01*
X116320000Y-91620000D02*
X116320000Y-90340000D01*
X116320000Y-92580000D02*
X116320000Y-93860000D01*
X116320000Y-93860000D02*
X114480000Y-93860000D01*
X118710000Y-106000000D02*
X118710000Y-106200000D01*
X118720000Y-110200000D02*
X122890000Y-110200000D01*
X118730000Y-110000000D02*
X118720000Y-110200000D01*
X122860000Y-106000000D02*
X118710000Y-106000000D01*
X122860000Y-106210000D02*
X122860000Y-106000000D01*
X122890000Y-110200000D02*
X122890000Y-109980000D01*
X105040000Y-102150000D02*
X105040000Y-100650000D01*
X105190000Y-100500000D02*
X106600000Y-100500000D01*
X106600000Y-102300000D02*
X105190000Y-102300000D01*
X107400000Y-102300000D02*
X108810000Y-102300000D01*
X108810000Y-100500000D02*
X107400000Y-100500000D01*
X108960000Y-102150000D02*
X108960000Y-100650000D01*
X105040000Y-100650000D02*
G75*
G02*
X105190000Y-100500000I150000J0D01*
G01*
X105190000Y-102300000D02*
G75*
G02*
X105040000Y-102150000I0J150000D01*
G01*
X108810000Y-100500000D02*
G75*
G02*
X108960000Y-100650000I0J-150000D01*
G01*
X108960000Y-102150000D02*
G75*
G02*
X108810000Y-102300000I-150000J0D01*
G01*
D13*
X125327500Y-88150000D02*
X125377500Y-88100000D01*
X125327500Y-92100000D02*
X125327500Y-88150000D01*
X125377500Y-88100000D02*
X125327500Y-88100000D01*
X125377500Y-92100000D02*
X125327500Y-92100000D01*
X126647500Y-88100000D02*
X126467500Y-88100000D01*
X126647500Y-92100000D02*
X126467500Y-92100000D01*
X127917500Y-88100000D02*
X127737500Y-88100000D01*
X127917500Y-92100000D02*
X127737500Y-92100000D01*
X129187500Y-88100000D02*
X129007500Y-88100000D01*
X129187500Y-92100000D02*
X129007500Y-92100000D01*
X130327500Y-88100000D02*
X130277500Y-88100000D01*
X130327500Y-88100000D02*
X130327500Y-89470000D01*
X130327500Y-92100000D02*
X130277500Y-92100000D01*
X130327500Y-92100000D02*
X130327500Y-90730000D01*
X130327500Y-90730000D02*
G75*
G02*
X130322318Y-89470927I109999J630000D01*
G01*
D14*
X129887500Y-88830000D02*
G75*
G02*
X129587500Y-88830000I-150000J0D01*
G01*
X129587500Y-88830000D02*
G75*
G02*
X129887500Y-88830000I150000J0D01*
G01*
X130647500Y-87420000D02*
G75*
G02*
X130347500Y-87420000I-150000J0D01*
G01*
X130347500Y-87420000D02*
G75*
G02*
X130647500Y-87420000I150000J0D01*
G01*
D11*
X127940000Y-117750000D02*
X127940000Y-116250000D01*
X128090000Y-116100000D02*
X129500000Y-116100000D01*
X129500000Y-117900000D02*
X128090000Y-117900000D01*
X130300000Y-117900000D02*
X131710000Y-117900000D01*
X131710000Y-116100000D02*
X130300000Y-116100000D01*
X131860000Y-117750000D02*
X131860000Y-116250000D01*
X127940000Y-116250000D02*
G75*
G02*
X128090000Y-116100000I150000J0D01*
G01*
X128090000Y-117900000D02*
G75*
G02*
X127940000Y-117750000I0J150000D01*
G01*
X131710000Y-116100000D02*
G75*
G02*
X131860000Y-116250000I0J-150000D01*
G01*
X131860000Y-117750000D02*
G75*
G02*
X131710000Y-117900000I-150000J0D01*
G01*
D13*
X109830000Y-95800000D02*
X109830000Y-91600000D01*
X113630000Y-95800000D02*
X113630000Y-91600000D01*
D11*
X122510000Y-83380000D02*
X122510000Y-84860000D01*
X122510000Y-88200000D02*
X122510000Y-86720000D01*
X124540000Y-83230000D02*
X122660000Y-83230000D01*
X124540000Y-88350000D02*
X122660000Y-88350000D01*
X124690000Y-84860000D02*
X124690000Y-83380000D01*
X124690000Y-86720000D02*
X124690000Y-88200000D01*
X122510000Y-83380000D02*
G75*
G02*
X122660000Y-83230000I150000J0D01*
G01*
X122660000Y-88350000D02*
G75*
G02*
X122510000Y-88200000I0J150000D01*
G01*
X124540000Y-83230000D02*
G75*
G02*
X124690000Y-83380000I0J-150000D01*
G01*
X124690000Y-88200000D02*
G75*
G02*
X124540000Y-88350000I-150000J0D01*
G01*
X117310000Y-92400000D02*
X117310000Y-92600000D01*
X117320000Y-96600000D02*
X121490000Y-96600000D01*
X117330000Y-96400000D02*
X117320000Y-96600000D01*
X121460000Y-92400000D02*
X117310000Y-92400000D01*
X121460000Y-92610000D02*
X121460000Y-92400000D01*
X121490000Y-96600000D02*
X121490000Y-96380000D01*
X118500000Y-88090000D02*
X118500000Y-89500000D01*
X118500000Y-91710000D02*
X118500000Y-90300000D01*
X120150000Y-87940000D02*
X118650000Y-87940000D01*
X120150000Y-91860000D02*
X118650000Y-91860000D01*
X120300000Y-89500000D02*
X120300000Y-88090000D01*
X120300000Y-90300000D02*
X120300000Y-91710000D01*
X118500000Y-88090000D02*
G75*
G02*
X118650000Y-87940000I150000J0D01*
G01*
X118650000Y-91860000D02*
G75*
G02*
X118500000Y-91710000I0J150000D01*
G01*
X120150000Y-87940000D02*
G75*
G02*
X120300000Y-88090000I0J-150000D01*
G01*
X120300000Y-91710000D02*
G75*
G02*
X120150000Y-91860000I-150000J0D01*
G01*
X131240000Y-92050000D02*
X131240000Y-93550000D01*
X131390000Y-93700000D02*
X132800000Y-93700000D01*
X132800000Y-91900000D02*
X131390000Y-91900000D01*
X133600000Y-91900000D02*
X135010000Y-91900000D01*
X135010000Y-93700000D02*
X133600000Y-93700000D01*
X135160000Y-92050000D02*
X135160000Y-93550000D01*
X131240000Y-92050000D02*
G75*
G02*
X131390000Y-91900000I150000J0D01*
G01*
X131390000Y-93700000D02*
G75*
G02*
X131240000Y-93550000I0J150000D01*
G01*
X135010000Y-91900000D02*
G75*
G02*
X135160000Y-92050000I0J-150000D01*
G01*
X135160000Y-93550000D02*
G75*
G02*
X135010000Y-93700000I-150000J0D01*
G01*
D13*
X137700000Y-104730000D02*
X137700000Y-102470000D01*
X139570000Y-100600000D02*
X141830000Y-100600000D01*
X141830000Y-106600000D02*
X139570000Y-106600000D01*
X143700000Y-102470000D02*
X143700000Y-104730000D01*
X149150000Y-106600000D02*
X149150000Y-100600000D01*
X149290000Y-106600000D02*
X148880000Y-106600000D01*
X149790000Y-106600000D02*
X149790000Y-100600000D01*
X150530000Y-106600000D02*
X150530000Y-100600000D01*
X150670000Y-106600000D02*
X150270000Y-106600000D01*
X151370000Y-106600000D02*
X151370000Y-100600000D01*
X152060000Y-106600000D02*
X152390000Y-106600000D01*
X152200000Y-100600000D02*
X144650000Y-100600000D01*
X152200000Y-100600000D02*
X152400000Y-100600000D01*
X152200000Y-106600000D02*
X144650000Y-106600000D01*
X152390000Y-106580000D02*
X152400000Y-100770000D01*
X152400000Y-100600000D02*
X152400000Y-100770000D01*
X137700000Y-118130000D02*
X137700000Y-115870000D01*
X139570000Y-114000000D02*
X141830000Y-114000000D01*
X141830000Y-120000000D02*
X139570000Y-120000000D01*
X143700000Y-115870000D02*
X143700000Y-118130000D01*
X149150000Y-120000000D02*
X149150000Y-114000000D01*
X149290000Y-120000000D02*
X148880000Y-120000000D01*
X149790000Y-120000000D02*
X149790000Y-114000000D01*
X150530000Y-120000000D02*
X150530000Y-114000000D01*
X150670000Y-120000000D02*
X150270000Y-120000000D01*
X151370000Y-120000000D02*
X151370000Y-114000000D01*
X152060000Y-120000000D02*
X152390000Y-120000000D01*
X152200000Y-114000000D02*
X144650000Y-114000000D01*
X152200000Y-114000000D02*
X152400000Y-114000000D01*
X152200000Y-120000000D02*
X144650000Y-120000000D01*
X152390000Y-119980000D02*
X152400000Y-114170000D01*
X152400000Y-114000000D02*
X152400000Y-114170000D01*
D11*
X115180000Y-109140000D02*
X117020000Y-109140000D01*
X115180000Y-110420000D02*
X115180000Y-109140000D01*
X115180000Y-111380000D02*
X115180000Y-112660000D01*
X115180000Y-112660000D02*
X117020000Y-112660000D01*
X117020000Y-109140000D02*
X117020000Y-110420000D01*
X117020000Y-112660000D02*
X117020000Y-111380000D01*
D13*
X128130000Y-106440000D02*
X128130000Y-107830000D01*
X128130000Y-107830000D02*
X128130000Y-107960000D01*
X128130000Y-107960000D02*
X128390000Y-108220000D01*
X128390000Y-106180000D02*
X128130000Y-106440000D01*
X128390000Y-108220000D02*
X129660000Y-108220000D01*
X128520000Y-106180000D02*
X128390000Y-106180000D01*
X129660000Y-106180000D02*
X128520000Y-106180000D01*
X130420000Y-108220000D02*
X131560000Y-108220000D01*
X131560000Y-108220000D02*
X131690000Y-108220000D01*
X131690000Y-106180000D02*
X130420000Y-106180000D01*
X131690000Y-108220000D02*
X131940000Y-107960000D01*
X131940000Y-106440000D02*
X131690000Y-106180000D01*
X131940000Y-106560000D02*
X131940000Y-106440000D01*
X131940000Y-107960000D02*
X131940000Y-106560000D01*
D11*
X121880000Y-97390000D02*
X121880000Y-98670000D01*
X121880000Y-100910000D02*
X121880000Y-99630000D01*
X123720000Y-97390000D02*
X121880000Y-97390000D01*
X123720000Y-98670000D02*
X123720000Y-97390000D01*
X123720000Y-99630000D02*
X123720000Y-100910000D01*
X123720000Y-100910000D02*
X121880000Y-100910000D01*
D13*
X93400000Y-88800000D02*
X93400000Y-88630000D01*
X93410000Y-82820000D02*
X93400000Y-88630000D01*
X93600000Y-82800000D02*
X101150000Y-82800000D01*
X93600000Y-88800000D02*
X93400000Y-88800000D01*
X93600000Y-88800000D02*
X101150000Y-88800000D01*
X93740000Y-82800000D02*
X93410000Y-82800000D01*
X94430000Y-82800000D02*
X94430000Y-88800000D01*
X95130000Y-82800000D02*
X95530000Y-82800000D01*
X95270000Y-82800000D02*
X95270000Y-88800000D01*
X96010000Y-82800000D02*
X96010000Y-88800000D01*
X96510000Y-82800000D02*
X96920000Y-82800000D01*
X96650000Y-82800000D02*
X96650000Y-88800000D01*
X102100000Y-86930000D02*
X102100000Y-84670000D01*
X103970000Y-82800000D02*
X106230000Y-82800000D01*
X106230000Y-88800000D02*
X103970000Y-88800000D01*
X108100000Y-84670000D02*
X108100000Y-86930000D01*
D11*
X111780000Y-101840000D02*
X113620000Y-101840000D01*
X111780000Y-103120000D02*
X111780000Y-101840000D01*
X111780000Y-104080000D02*
X111780000Y-105360000D01*
X111780000Y-105360000D02*
X113620000Y-105360000D01*
X113620000Y-101840000D02*
X113620000Y-103120000D01*
X113620000Y-105360000D02*
X113620000Y-104080000D01*
X134480000Y-96540000D02*
X136320000Y-96540000D01*
X134480000Y-97820000D02*
X134480000Y-96540000D01*
X134480000Y-98780000D02*
X134480000Y-100060000D01*
X134480000Y-100060000D02*
X136320000Y-100060000D01*
X136320000Y-96540000D02*
X136320000Y-97820000D01*
X136320000Y-100060000D02*
X136320000Y-98780000D01*
D15*
X117800000Y-98790000D02*
X115600000Y-98790000D01*
X117800000Y-98790000D02*
X120000000Y-98790000D01*
X117800000Y-104010000D02*
X115600000Y-104010000D01*
X117800000Y-104010000D02*
X120000000Y-104010000D01*
X114900000Y-98990000D02*
X114660000Y-98660000D01*
X115140000Y-98660000D01*
X114900000Y-98990000D01*
G36*
X114900000Y-98990000D02*
G01*
X114660000Y-98660000D01*
X115140000Y-98660000D01*
X114900000Y-98990000D01*
G37*
D11*
X141080000Y-94040000D02*
X141080000Y-95320000D01*
X141080000Y-97560000D02*
X141080000Y-96280000D01*
X142920000Y-94040000D02*
X141080000Y-94040000D01*
X142920000Y-95320000D02*
X142920000Y-94040000D01*
X142920000Y-96280000D02*
X142920000Y-97560000D01*
X142920000Y-97560000D02*
X141080000Y-97560000D01*
D13*
X93400000Y-99200000D02*
X93400000Y-99030000D01*
X93410000Y-93220000D02*
X93400000Y-99030000D01*
X93600000Y-93200000D02*
X101150000Y-93200000D01*
X93600000Y-99200000D02*
X93400000Y-99200000D01*
X93600000Y-99200000D02*
X101150000Y-99200000D01*
X93740000Y-93200000D02*
X93410000Y-93200000D01*
X94430000Y-93200000D02*
X94430000Y-99200000D01*
X95130000Y-93200000D02*
X95530000Y-93200000D01*
X95270000Y-93200000D02*
X95270000Y-99200000D01*
X96010000Y-93200000D02*
X96010000Y-99200000D01*
X96510000Y-93200000D02*
X96920000Y-93200000D01*
X96650000Y-93200000D02*
X96650000Y-99200000D01*
X102100000Y-97330000D02*
X102100000Y-95070000D01*
X103970000Y-93200000D02*
X106230000Y-93200000D01*
X106230000Y-99200000D02*
X103970000Y-99200000D01*
X108100000Y-95070000D02*
X108100000Y-97330000D01*
D11*
X109480000Y-101840000D02*
X109480000Y-103120000D01*
X109480000Y-105360000D02*
X109480000Y-104080000D01*
X111320000Y-101840000D02*
X109480000Y-101840000D01*
X111320000Y-103120000D02*
X111320000Y-101840000D01*
X111320000Y-104080000D02*
X111320000Y-105360000D01*
X111320000Y-105360000D02*
X109480000Y-105360000D01*
X131500000Y-100790000D02*
X131500000Y-102200000D01*
X131500000Y-104410000D02*
X131500000Y-103000000D01*
X133150000Y-100640000D02*
X131650000Y-100640000D01*
X133150000Y-104560000D02*
X131650000Y-104560000D01*
X133300000Y-102200000D02*
X133300000Y-100790000D01*
X133300000Y-103000000D02*
X133300000Y-104410000D01*
X131500000Y-100790000D02*
G75*
G02*
X131650000Y-100640000I150000J0D01*
G01*
X131650000Y-104560000D02*
G75*
G02*
X131500000Y-104410000I0J150000D01*
G01*
X133150000Y-100640000D02*
G75*
G02*
X133300000Y-100790000I0J-150000D01*
G01*
X133300000Y-104410000D02*
G75*
G02*
X133150000Y-104560000I-150000J0D01*
G01*
X122730000Y-96440000D02*
X122730000Y-94560000D01*
X122880000Y-94410000D02*
X124360000Y-94410000D01*
X124360000Y-96590000D02*
X122880000Y-96590000D01*
X126220000Y-96590000D02*
X127700000Y-96590000D01*
X127700000Y-94410000D02*
X126220000Y-94410000D01*
X127850000Y-96440000D02*
X127850000Y-94560000D01*
X122730000Y-94560000D02*
G75*
G02*
X122880000Y-94410000I150000J0D01*
G01*
X122880000Y-96590000D02*
G75*
G02*
X122730000Y-96440000I0J150000D01*
G01*
X127700000Y-94410000D02*
G75*
G02*
X127850000Y-94560000I0J-150000D01*
G01*
X127850000Y-96440000D02*
G75*
G02*
X127700000Y-96590000I-150000J0D01*
G01*
%LPC*%
D16*
X112500000Y-83300000D03*
X110500000Y-83300000D03*
X110500000Y-111800000D03*
X108500000Y-111800000D03*
X104000000Y-111800000D03*
X106000000Y-111800000D03*
X104100000Y-91000000D03*
X106100000Y-91000000D03*
D17*
X133600000Y-109900000D03*
X133600000Y-107900000D03*
D18*
X110500000Y-109170000D03*
X110500000Y-107900000D03*
X110500000Y-106630000D03*
X113940000Y-106630000D03*
X113940000Y-107900000D03*
X113940000Y-109170000D03*
D19*
X135380000Y-84700000D03*
X132200000Y-84700000D03*
D20*
X110400000Y-98150000D03*
X110400000Y-100150000D03*
D18*
X110500000Y-116970000D03*
X110500000Y-115700000D03*
X110500000Y-114430000D03*
X113940000Y-114430000D03*
X113940000Y-115700000D03*
X113940000Y-116970000D03*
D21*
X130970000Y-114500000D03*
X129030000Y-114500000D03*
D20*
X139700000Y-96800000D03*
X139700000Y-94800000D03*
D16*
X129000000Y-112000000D03*
X131000000Y-112000000D03*
D20*
X122800000Y-102850000D03*
X122800000Y-104850000D03*
D22*
X139010000Y-91190000D03*
X139010000Y-85410000D03*
D23*
X138510000Y-92620000D03*
X138510000Y-83980000D03*
D24*
X142660000Y-92620000D03*
X142660000Y-83980000D03*
D25*
X137940000Y-91500000D03*
X137940000Y-90700000D03*
D26*
X137940000Y-89550000D03*
X137940000Y-88550000D03*
X137940000Y-88050000D03*
X137940000Y-90050000D03*
D25*
X137940000Y-85100000D03*
X137940000Y-85900000D03*
D26*
X137940000Y-86550000D03*
X137940000Y-87550000D03*
X137940000Y-89050000D03*
X137940000Y-87050000D03*
D27*
X135500000Y-88800000D03*
X132200000Y-88800000D03*
D16*
X129400000Y-101500000D03*
X127400000Y-101500000D03*
D17*
X116100000Y-105700000D03*
X116100000Y-107700000D03*
D21*
X118000000Y-117000000D03*
X116000000Y-117000000D03*
D17*
X135400000Y-101600000D03*
X135400000Y-103600000D03*
D28*
X123600000Y-92880000D03*
X123600000Y-89700000D03*
D17*
X120800000Y-115000000D03*
X120800000Y-117000000D03*
D19*
X126500000Y-84700000D03*
X129680000Y-84700000D03*
D17*
X133600000Y-114500000D03*
X133600000Y-112500000D03*
D21*
X130900000Y-119500000D03*
X128960000Y-119500000D03*
D18*
X110500000Y-88340000D03*
X110500000Y-87070000D03*
X110500000Y-85800000D03*
X113940000Y-85800000D03*
X113940000Y-87070000D03*
X113940000Y-88340000D03*
D20*
X125100000Y-104850000D03*
X125100000Y-102850000D03*
D21*
X119300000Y-86700000D03*
X117300000Y-86700000D03*
D16*
X135600000Y-117000000D03*
X133600000Y-117000000D03*
D20*
X125100000Y-98150000D03*
X125100000Y-100150000D03*
D29*
X102460000Y-119540000D03*
X102460000Y-114460000D03*
X107540000Y-114460000D03*
X107540000Y-119540000D03*
X105000000Y-117000000D03*
D16*
X129000000Y-109700000D03*
X131000000Y-109700000D03*
D29*
X102560000Y-109140000D03*
X102560000Y-104060000D03*
X107640000Y-104060000D03*
X107640000Y-109140000D03*
X105100000Y-106600000D03*
D20*
X112700000Y-100150000D03*
X112700000Y-98150000D03*
D17*
X115400000Y-97200000D03*
X115400000Y-95200000D03*
D20*
X115400000Y-93100000D03*
X115400000Y-91100000D03*
D30*
X122400000Y-108100000D03*
X119200000Y-108100000D03*
D16*
X106000000Y-101400000D03*
X108000000Y-101400000D03*
D31*
X129737500Y-87420000D03*
X128457500Y-87420000D03*
X127197500Y-87420000D03*
X125927500Y-87420000D03*
X125927500Y-92780000D03*
X127197500Y-92780000D03*
X128457500Y-92780000D03*
X129737500Y-92780000D03*
D16*
X128900000Y-117000000D03*
X130900000Y-117000000D03*
D32*
X113000000Y-95420000D03*
X111730000Y-95420000D03*
X110460000Y-95420000D03*
X110460000Y-91980000D03*
X111730000Y-91980000D03*
X113000000Y-91980000D03*
D28*
X123600000Y-87380000D03*
X123600000Y-84200000D03*
D30*
X121000000Y-94500000D03*
X117800000Y-94500000D03*
D17*
X119400000Y-90900000D03*
X119400000Y-88900000D03*
D16*
X134200000Y-92800000D03*
X132200000Y-92800000D03*
D29*
X143240000Y-101060000D03*
X143240000Y-106140000D03*
X138160000Y-106140000D03*
X138160000Y-101060000D03*
X140700000Y-103600000D03*
X143240000Y-114460000D03*
X143240000Y-119540000D03*
X138160000Y-119540000D03*
X138160000Y-114460000D03*
X140700000Y-117000000D03*
D20*
X116100000Y-109900000D03*
X116100000Y-111900000D03*
D21*
X130970000Y-107200000D03*
X129030000Y-107200000D03*
D20*
X122800000Y-100150000D03*
X122800000Y-98150000D03*
D29*
X102560000Y-88340000D03*
X102560000Y-83260000D03*
X107640000Y-83260000D03*
X107640000Y-88340000D03*
X105100000Y-85800000D03*
D20*
X112700000Y-102600000D03*
X112700000Y-104600000D03*
X135400000Y-97300000D03*
X135400000Y-99300000D03*
D33*
X114937500Y-99450000D03*
X114937500Y-100100000D03*
X114937500Y-100750000D03*
X114937500Y-101400000D03*
X114937500Y-102050000D03*
X114937500Y-102700000D03*
X114937500Y-103350000D03*
X120662500Y-103350000D03*
X120662500Y-102700000D03*
X120662500Y-102050000D03*
X120662500Y-101400000D03*
X120662500Y-100750000D03*
X120662500Y-100100000D03*
X120662500Y-99450000D03*
D20*
X142000000Y-96800000D03*
X142000000Y-94800000D03*
D29*
X102560000Y-98740000D03*
X102560000Y-93660000D03*
X107640000Y-93660000D03*
X107640000Y-98740000D03*
X105100000Y-96200000D03*
D20*
X110400000Y-104600000D03*
X110400000Y-102600000D03*
D17*
X132400000Y-103600000D03*
X132400000Y-101600000D03*
D19*
X123700000Y-95500000D03*
X126880000Y-95500000D03*
G36*
X145343039Y-121319685D02*
G01*
X145388794Y-121372489D01*
X145400000Y-121424000D01*
X145400000Y-122676000D01*
X145380315Y-122743039D01*
X145327511Y-122788794D01*
X145276000Y-122800000D01*
X100532542Y-122800000D01*
X100465503Y-122780315D01*
X100419748Y-122727511D01*
X100408817Y-122667752D01*
X100492283Y-121415752D01*
X100516383Y-121350170D01*
X100572114Y-121308029D01*
X100616008Y-121300000D01*
X145276000Y-121300000D01*
X145343039Y-121319685D01*
G37*
G36*
X145343039Y-80019685D02*
G01*
X145388794Y-80072489D01*
X145400000Y-80124000D01*
X145400000Y-81376000D01*
X145380315Y-81443039D01*
X145327511Y-81488794D01*
X145276000Y-81500000D01*
X100524000Y-81500000D01*
X100456961Y-81480315D01*
X100411206Y-81427511D01*
X100400000Y-81376000D01*
X100400000Y-80124000D01*
X100419685Y-80056961D01*
X100472489Y-80011206D01*
X100524000Y-80000000D01*
X145276000Y-80000000D01*
X145343039Y-80019685D01*
G37*
%LPD*%
M02*
