%TF.GenerationSoftware,KiCad,Pcbnew,8.0.2*%
%TF.CreationDate,2024-10-06T11:27:00+02:00*%
%TF.ProjectId,distribution_amp_for_singapore_dude,64697374-7269-4627-9574-696f6e5f616d,rev?*%
%TF.SameCoordinates,Original*%
%TF.FileFunction,Copper,L4,Bot*%
%TF.FilePolarity,Positive*%
%FSLAX46Y46*%
G04 Gerber Fmt 4.6, Leading zero omitted, Abs format (unit mm)*
G04 Created by KiCad (PCBNEW 8.0.2) date 2024-10-06 11:27:00*
%MOMM*%
%LPD*%
G01*
G04 APERTURE LIST*
%TA.AperFunction,ComponentPad*%
%ADD10C,0.650000*%
%TD*%
%TA.AperFunction,ComponentPad*%
%ADD11O,2.100000X1.000000*%
%TD*%
%TA.AperFunction,ComponentPad*%
%ADD12O,1.800000X1.000000*%
%TD*%
%TA.AperFunction,ComponentPad*%
%ADD13C,2.300000*%
%TD*%
%TA.AperFunction,ViaPad*%
%ADD14C,0.600000*%
%TD*%
%TA.AperFunction,ViaPad*%
%ADD15C,0.500000*%
%TD*%
%TA.AperFunction,Conductor*%
%ADD16C,0.300000*%
%TD*%
G04 APERTURE END LIST*
D10*
X139010000Y-91190000D03*
X139010000Y-85410000D03*
D11*
X138510000Y-92620000D03*
X138510000Y-83980000D03*
D12*
X142660000Y-92620000D03*
X142660000Y-83980000D03*
D13*
X102460000Y-119540000D03*
X102460000Y-114460000D03*
X107540000Y-114460000D03*
X107540000Y-119540000D03*
X105000000Y-117000000D03*
X102560000Y-109140000D03*
X102560000Y-104060000D03*
X107640000Y-104060000D03*
X107640000Y-109140000D03*
X105100000Y-106600000D03*
X143240000Y-101060000D03*
X143240000Y-106140000D03*
X138160000Y-106140000D03*
X138160000Y-101060000D03*
X140700000Y-103600000D03*
X143240000Y-114460000D03*
X143240000Y-119540000D03*
X138160000Y-119540000D03*
X138160000Y-114460000D03*
X140700000Y-117000000D03*
X102560000Y-88340000D03*
X102560000Y-83260000D03*
X107640000Y-83260000D03*
X107640000Y-88340000D03*
X105100000Y-85800000D03*
X102560000Y-98740000D03*
X102560000Y-93660000D03*
X107640000Y-93660000D03*
X107640000Y-98740000D03*
X105100000Y-96200000D03*
D14*
X115700000Y-87000000D03*
X115700000Y-86100000D03*
X115700000Y-85300000D03*
D15*
X110400000Y-96900000D03*
X111500000Y-96900000D03*
X104200000Y-110300000D03*
X105800000Y-110300000D03*
X105800000Y-113300000D03*
D14*
X105000000Y-110300000D03*
X101500000Y-102000000D03*
X101500000Y-100700000D03*
X102600000Y-101300000D03*
X104100000Y-102500000D03*
X104100000Y-100700000D03*
X128800000Y-95000000D03*
X135900000Y-81100000D03*
X135500000Y-95600000D03*
X114800000Y-84400000D03*
X121400000Y-91600000D03*
X134900000Y-81100000D03*
X126900000Y-116000000D03*
X127100000Y-103600000D03*
X122900000Y-116000000D03*
X121800000Y-85300000D03*
X131300000Y-121900000D03*
X117300000Y-90400000D03*
X143100000Y-85500000D03*
X121400000Y-118700000D03*
X115900000Y-119500000D03*
X137900000Y-81100000D03*
X111400000Y-121900000D03*
X119900000Y-82800000D03*
X143800000Y-97600000D03*
X117900000Y-105700000D03*
X124900000Y-116000000D03*
X121400000Y-83600000D03*
X116200000Y-89600000D03*
X143000000Y-103600000D03*
X107500000Y-91000000D03*
X119400000Y-121900000D03*
X110900000Y-81100000D03*
X113600000Y-90000000D03*
X130900000Y-99700000D03*
X128100000Y-103600000D03*
X133800000Y-99700000D03*
X142200000Y-121900000D03*
X115400000Y-121900000D03*
X127500000Y-90500000D03*
X137800000Y-111300000D03*
X124400000Y-110700000D03*
X116900000Y-121100000D03*
X117300000Y-89600000D03*
X103400000Y-121900000D03*
X126400000Y-110700000D03*
X118500000Y-82000000D03*
X127300000Y-120300000D03*
X130300000Y-121900000D03*
X123300000Y-121900000D03*
X112200000Y-107900000D03*
X122900000Y-113300000D03*
X133300000Y-99000000D03*
X135000000Y-82700000D03*
X112800000Y-90000000D03*
X138700000Y-110400000D03*
X141700000Y-111300000D03*
X140700000Y-106800000D03*
X108400000Y-91000000D03*
X120400000Y-118700000D03*
X124800000Y-121100000D03*
X124900000Y-111500000D03*
X137600000Y-94700000D03*
X134300000Y-121900000D03*
X109200000Y-91000000D03*
X115700000Y-113500000D03*
X141700000Y-109500000D03*
X138000000Y-96600000D03*
X142700000Y-111300000D03*
X112400000Y-121900000D03*
X115900000Y-121100000D03*
X111900000Y-121100000D03*
X121900000Y-81100000D03*
X122900000Y-114200000D03*
X126600000Y-90500000D03*
X112900000Y-81100000D03*
X124900000Y-117800000D03*
X112200000Y-114400000D03*
X131400000Y-81900000D03*
X119900000Y-81100000D03*
X117900000Y-104400000D03*
X101500000Y-90300000D03*
X102400000Y-121900000D03*
X119400000Y-112600000D03*
X110400000Y-120300000D03*
X129800000Y-95000000D03*
X138700000Y-109500000D03*
X124900000Y-81100000D03*
X126600000Y-105900000D03*
X127600000Y-105900000D03*
X135800000Y-108600000D03*
X129000000Y-103600000D03*
X125900000Y-114200000D03*
X132800000Y-120200000D03*
X138700000Y-108600000D03*
X101800000Y-81100000D03*
X125000000Y-109900000D03*
X141900000Y-98600000D03*
X118800000Y-84400000D03*
X138000000Y-97600000D03*
X125700000Y-90500000D03*
X126300000Y-121900000D03*
X137200000Y-97600000D03*
X140700000Y-112200000D03*
X112200000Y-88400000D03*
X122900000Y-112400000D03*
X137400000Y-81900000D03*
X127900000Y-81100000D03*
X121900000Y-82800000D03*
X118900000Y-82800000D03*
X138000000Y-82700000D03*
X103800000Y-81100000D03*
X126900000Y-113300000D03*
X140700000Y-101000000D03*
X135800000Y-119300000D03*
X106800000Y-81100000D03*
X135800000Y-112200000D03*
X122900000Y-116900000D03*
X136900000Y-81100000D03*
X129300000Y-96000000D03*
X129300000Y-97500000D03*
X128300000Y-121900000D03*
X129800000Y-99700000D03*
X120800000Y-121100000D03*
X128000000Y-98200000D03*
X125900000Y-115100000D03*
X134800000Y-119300000D03*
X130300000Y-97500000D03*
X123800000Y-121100000D03*
X140700000Y-114500000D03*
X127600000Y-104400000D03*
X133800000Y-98200000D03*
X116400000Y-120300000D03*
X127900000Y-99700000D03*
X112900000Y-121100000D03*
X112200000Y-117000000D03*
X119400000Y-120300000D03*
X139700000Y-109500000D03*
X122300000Y-120300000D03*
X143900000Y-95600000D03*
X118200000Y-111700000D03*
X112300000Y-112700000D03*
X114400000Y-121900000D03*
X117900000Y-82800000D03*
X125900000Y-116900000D03*
X134000000Y-82700000D03*
X115900000Y-82800000D03*
X124900000Y-115100000D03*
X137800000Y-108600000D03*
X123900000Y-111500000D03*
X130900000Y-98200000D03*
X141200000Y-121900000D03*
X114900000Y-119500000D03*
X122900000Y-117800000D03*
X137200000Y-96600000D03*
X125900000Y-117800000D03*
X138200000Y-98600000D03*
X139000000Y-82700000D03*
X109900000Y-119500000D03*
X134800000Y-121100000D03*
X129400000Y-81900000D03*
X112500000Y-118700000D03*
X144100000Y-87300000D03*
X111400000Y-120300000D03*
X132400000Y-81900000D03*
X122800000Y-119500000D03*
X132700000Y-96800000D03*
X112500000Y-81900000D03*
X101500000Y-91500000D03*
X114500000Y-89600000D03*
X133800000Y-120200000D03*
X123900000Y-116000000D03*
X117900000Y-119500000D03*
X136400000Y-81900000D03*
X136800000Y-112200000D03*
X117700000Y-113500000D03*
X131900000Y-99700000D03*
X144100000Y-88200000D03*
X116900000Y-119500000D03*
X123900000Y-117800000D03*
X141400000Y-81900000D03*
X116500000Y-82000000D03*
X118700000Y-115300000D03*
X125300000Y-121900000D03*
X119800000Y-121100000D03*
X118200000Y-112600000D03*
X144000000Y-116900000D03*
X119400000Y-110900000D03*
X144100000Y-86400000D03*
X119500000Y-118700000D03*
X112200000Y-115700000D03*
X114900000Y-82800000D03*
X116800000Y-84400000D03*
X125800000Y-121100000D03*
X138200000Y-121900000D03*
X132200000Y-97500000D03*
X132000000Y-82700000D03*
X135500000Y-94700000D03*
X117900000Y-121100000D03*
X107400000Y-121900000D03*
X129000000Y-82700000D03*
X128100000Y-105100000D03*
X136800000Y-111300000D03*
X142900000Y-81100000D03*
X124900000Y-114200000D03*
X123400000Y-118700000D03*
X136300000Y-121900000D03*
X113900000Y-96900000D03*
X113900000Y-81100000D03*
X136800000Y-109500000D03*
X140700000Y-107700000D03*
X121800000Y-87100000D03*
X140700000Y-120800000D03*
X132800000Y-121100000D03*
X140700000Y-111300000D03*
X134500000Y-94700000D03*
X117500000Y-118700000D03*
X138400000Y-81900000D03*
X144100000Y-89000000D03*
X112900000Y-119500000D03*
X136800000Y-108600000D03*
X111000000Y-90000000D03*
X129800000Y-98200000D03*
X130000000Y-105100000D03*
X111500000Y-118700000D03*
X118400000Y-83600000D03*
X142200000Y-86400000D03*
X129800000Y-96800000D03*
X115900000Y-81100000D03*
X121500000Y-82000000D03*
X128900000Y-81100000D03*
X110900000Y-119500000D03*
X118900000Y-121100000D03*
X105800000Y-81100000D03*
X128400000Y-89600000D03*
X126900000Y-98200000D03*
X127400000Y-99000000D03*
X133800000Y-119300000D03*
X131700000Y-96800000D03*
X118900000Y-119500000D03*
X142200000Y-85500000D03*
X117700000Y-115300000D03*
X109400000Y-121900000D03*
X117900000Y-99700000D03*
X143100000Y-87300000D03*
X141900000Y-81100000D03*
X117300000Y-91300000D03*
X112400000Y-120300000D03*
X135800000Y-113100000D03*
X142900000Y-116900000D03*
X125900000Y-111500000D03*
X115500000Y-118700000D03*
X121800000Y-84400000D03*
X101700000Y-111800000D03*
X121800000Y-121100000D03*
X130100000Y-89600000D03*
X143700000Y-111300000D03*
X144100000Y-90900000D03*
X102500000Y-91000000D03*
X115400000Y-83600000D03*
X129300000Y-90500000D03*
X132800000Y-119300000D03*
X136600000Y-94700000D03*
X115500000Y-82000000D03*
X106400000Y-121900000D03*
X143900000Y-96600000D03*
X142700000Y-110400000D03*
X124800000Y-119500000D03*
X123300000Y-120300000D03*
X138700000Y-112200000D03*
X139400000Y-81900000D03*
X137800000Y-112200000D03*
X129300000Y-89600000D03*
X127100000Y-106700000D03*
X135800000Y-107600000D03*
X123900000Y-81100000D03*
X129900000Y-81100000D03*
X143400000Y-81900000D03*
X109300000Y-90000000D03*
X119500000Y-82000000D03*
X116100000Y-114400000D03*
X121800000Y-86200000D03*
X116700000Y-115300000D03*
X113500000Y-118700000D03*
X110200000Y-90000000D03*
X113900000Y-119500000D03*
X135800000Y-114900000D03*
X118500000Y-118700000D03*
X118200000Y-110900000D03*
X117200000Y-114400000D03*
X121400000Y-90700000D03*
X125400000Y-110700000D03*
X135300000Y-121900000D03*
X144100000Y-89900000D03*
X136000000Y-82700000D03*
X132300000Y-121900000D03*
X112800000Y-111800000D03*
X132200000Y-96000000D03*
X126900000Y-116900000D03*
X128400000Y-99000000D03*
X111900000Y-119500000D03*
X120800000Y-87100000D03*
X121400000Y-88000000D03*
X105400000Y-121900000D03*
X120300000Y-121900000D03*
X118400000Y-121900000D03*
X125300000Y-120300000D03*
X140700000Y-109500000D03*
X117900000Y-103000000D03*
X143100000Y-90900000D03*
X114900000Y-81100000D03*
X123900000Y-113300000D03*
X116700000Y-113500000D03*
X136600000Y-95600000D03*
X124900000Y-116900000D03*
X116500000Y-118700000D03*
X120900000Y-81100000D03*
X140000000Y-82700000D03*
X143800000Y-98600000D03*
X117400000Y-120300000D03*
X118700000Y-113500000D03*
X143900000Y-94600000D03*
X128300000Y-97200000D03*
X130300000Y-99000000D03*
X143700000Y-109500000D03*
X127800000Y-121100000D03*
X113900000Y-121100000D03*
X139700000Y-108600000D03*
X116900000Y-82800000D03*
X128400000Y-90500000D03*
X115400000Y-120300000D03*
X128600000Y-104400000D03*
X117400000Y-121900000D03*
X141000000Y-82700000D03*
X137600000Y-95600000D03*
X118200000Y-114400000D03*
X140700000Y-100000000D03*
X129500000Y-104400000D03*
X115800000Y-84400000D03*
X142800000Y-98600000D03*
X136100000Y-93700000D03*
X122900000Y-81100000D03*
X116400000Y-121900000D03*
X109900000Y-121100000D03*
X121400000Y-88900000D03*
X139700000Y-112200000D03*
X130100000Y-90500000D03*
X130000000Y-82700000D03*
X135800000Y-121100000D03*
X138900000Y-81100000D03*
X102800000Y-81100000D03*
X139000000Y-98600000D03*
X123900000Y-116900000D03*
X137200000Y-98600000D03*
X129000000Y-105100000D03*
X125900000Y-112400000D03*
X135800000Y-110400000D03*
X112200000Y-109200000D03*
X139200000Y-121900000D03*
X120500000Y-82000000D03*
X112200000Y-87100000D03*
X126100000Y-106700000D03*
X133400000Y-81900000D03*
X121300000Y-121900000D03*
X136800000Y-110400000D03*
X131400000Y-99000000D03*
X114500000Y-82000000D03*
X117400000Y-83600000D03*
X131200000Y-96000000D03*
X113400000Y-120300000D03*
X123900000Y-115100000D03*
X137800000Y-110400000D03*
X139900000Y-81100000D03*
X140900000Y-98600000D03*
X126300000Y-120300000D03*
X127500000Y-89600000D03*
X139700000Y-110400000D03*
X122900000Y-115100000D03*
X134400000Y-81900000D03*
X126900000Y-111500000D03*
X107800000Y-81100000D03*
X131000000Y-82700000D03*
X124300000Y-121900000D03*
X137000000Y-82700000D03*
X114400000Y-83600000D03*
X130800000Y-95000000D03*
X130800000Y-96800000D03*
X125400000Y-118700000D03*
X126900000Y-115100000D03*
X120800000Y-119500000D03*
X140000000Y-98600000D03*
X121300000Y-120300000D03*
X139600000Y-88400000D03*
X122800000Y-121100000D03*
X124900000Y-112400000D03*
X129300000Y-121900000D03*
X126800000Y-121100000D03*
X133000000Y-82700000D03*
X143700000Y-110400000D03*
X131200000Y-97500000D03*
X140700000Y-113400000D03*
X127000000Y-109900000D03*
X135800000Y-111300000D03*
X126400000Y-118700000D03*
X141700000Y-108600000D03*
X125800000Y-119500000D03*
X119400000Y-111700000D03*
X132800000Y-98200000D03*
X111900000Y-90000000D03*
X140700000Y-119700000D03*
X130400000Y-81900000D03*
X121800000Y-119500000D03*
X143100000Y-89900000D03*
X135800000Y-120200000D03*
X137300000Y-121900000D03*
X115400000Y-89600000D03*
X123800000Y-119500000D03*
X143700000Y-112200000D03*
X143100000Y-86400000D03*
X126900000Y-81100000D03*
X104400000Y-121900000D03*
X120800000Y-86200000D03*
X112300000Y-85800000D03*
X108400000Y-121900000D03*
X130900000Y-81100000D03*
X118900000Y-81100000D03*
X127400000Y-118700000D03*
X120900000Y-82800000D03*
X144100000Y-85500000D03*
X125700000Y-89600000D03*
X142700000Y-108600000D03*
X141700000Y-110400000D03*
X118400000Y-120300000D03*
X119800000Y-84400000D03*
X123900000Y-114200000D03*
X113400000Y-121900000D03*
X140900000Y-81100000D03*
X116900000Y-81100000D03*
X116500000Y-99700000D03*
X110400000Y-121900000D03*
X142700000Y-109500000D03*
X135400000Y-81900000D03*
X109800000Y-81100000D03*
X126900000Y-112400000D03*
X112200000Y-106600000D03*
X139700000Y-111300000D03*
X130300000Y-96000000D03*
X114500000Y-118700000D03*
X129300000Y-99000000D03*
X143700000Y-108600000D03*
X115700000Y-115300000D03*
X114400000Y-120300000D03*
X117500000Y-82000000D03*
X111900000Y-81100000D03*
X124400000Y-118700000D03*
X125900000Y-81100000D03*
X138700000Y-111300000D03*
X132800000Y-99700000D03*
X126900000Y-99700000D03*
X116400000Y-83600000D03*
X123900000Y-112400000D03*
X143100000Y-89000000D03*
X120300000Y-120300000D03*
X108800000Y-81100000D03*
X119200000Y-104400000D03*
X143900000Y-81100000D03*
X127300000Y-121900000D03*
X144300000Y-121900000D03*
X125900000Y-116000000D03*
X142400000Y-81900000D03*
X119400000Y-83600000D03*
X114900000Y-121100000D03*
X110900000Y-121100000D03*
X127100000Y-105100000D03*
X132900000Y-81100000D03*
X126900000Y-117800000D03*
X126800000Y-119500000D03*
X121400000Y-89800000D03*
X126000000Y-109900000D03*
X122400000Y-118700000D03*
X104800000Y-81100000D03*
X143200000Y-121900000D03*
X128800000Y-99700000D03*
X130500000Y-104400000D03*
X133900000Y-81100000D03*
X133800000Y-121100000D03*
X141700000Y-112200000D03*
X124900000Y-113300000D03*
X135800000Y-109500000D03*
X131800000Y-98200000D03*
X117800000Y-84400000D03*
X140700000Y-108600000D03*
X128800000Y-98200000D03*
X131900000Y-81100000D03*
X112300000Y-110900000D03*
X142700000Y-112200000D03*
X140700000Y-110400000D03*
X125900000Y-113300000D03*
X140400000Y-81900000D03*
X126900000Y-114200000D03*
X122300000Y-121900000D03*
X137800000Y-109500000D03*
X122900000Y-111500000D03*
X140200000Y-121900000D03*
X143100000Y-88200000D03*
X120800000Y-85300000D03*
X130000000Y-103600000D03*
X120400000Y-83600000D03*
X110500000Y-118700000D03*
X120800000Y-84400000D03*
X144100000Y-103600000D03*
X122500000Y-82000000D03*
X117900000Y-81100000D03*
X135800000Y-114000000D03*
X124300000Y-120300000D03*
X119800000Y-119500000D03*
X134800000Y-120200000D03*
X132400000Y-99000000D03*
X133300000Y-121900000D03*
X126600000Y-89600000D03*
X133900000Y-101600000D03*
X117900000Y-101400000D03*
X123900000Y-108100000D03*
X132200000Y-94400000D03*
X117800000Y-108100000D03*
X111500000Y-101400000D03*
X117800000Y-96900000D03*
X124000000Y-101400000D03*
D16*
X117900000Y-101400000D02*
X119200000Y-102700000D01*
X132800000Y-102700000D02*
X133900000Y-101600000D01*
X119200000Y-102700000D02*
X132800000Y-102700000D01*
%TA.AperFunction,Conductor*%
G36*
X144842539Y-80520185D02*
G01*
X144888294Y-80572989D01*
X144899500Y-80624500D01*
X144899500Y-100170482D01*
X144879815Y-100237521D01*
X144827011Y-100283276D01*
X144757853Y-100293220D01*
X144694297Y-100264195D01*
X144669773Y-100235272D01*
X144579007Y-100087157D01*
X144573197Y-100080354D01*
X143841050Y-100812501D01*
X143816033Y-100752104D01*
X143744897Y-100645642D01*
X143654358Y-100555103D01*
X143547896Y-100483967D01*
X143487497Y-100458949D01*
X144219645Y-99726801D01*
X144212843Y-99720993D01*
X144212842Y-99720992D01*
X143991400Y-99585292D01*
X143991397Y-99585290D01*
X143751462Y-99485906D01*
X143751445Y-99485901D01*
X143498911Y-99425274D01*
X143498912Y-99425274D01*
X143240000Y-99404898D01*
X142981087Y-99425274D01*
X142728554Y-99485901D01*
X142728537Y-99485906D01*
X142488602Y-99585290D01*
X142488599Y-99585292D01*
X142267155Y-99720993D01*
X142260353Y-99726800D01*
X142992502Y-100458949D01*
X142932104Y-100483967D01*
X142825642Y-100555103D01*
X142735103Y-100645642D01*
X142663967Y-100752104D01*
X142638949Y-100812502D01*
X141906800Y-100080353D01*
X141900993Y-100087155D01*
X141765292Y-100308599D01*
X141765290Y-100308602D01*
X141665906Y-100548537D01*
X141665901Y-100548554D01*
X141605274Y-100801087D01*
X141584898Y-101060000D01*
X141605274Y-101318912D01*
X141665901Y-101571445D01*
X141665906Y-101571462D01*
X141765290Y-101811397D01*
X141765292Y-101811400D01*
X141900992Y-102032842D01*
X141900993Y-102032843D01*
X141906801Y-102039644D01*
X142638949Y-101307497D01*
X142663967Y-101367896D01*
X142735103Y-101474358D01*
X142825642Y-101564897D01*
X142932104Y-101636033D01*
X142992502Y-101661050D01*
X142260354Y-102393197D01*
X142267157Y-102399007D01*
X142488599Y-102534707D01*
X142488602Y-102534709D01*
X142728537Y-102634093D01*
X142728554Y-102634098D01*
X142981088Y-102694725D01*
X142981087Y-102694725D01*
X143240000Y-102715101D01*
X143498912Y-102694725D01*
X143751445Y-102634098D01*
X143751462Y-102634093D01*
X143991397Y-102534709D01*
X143991400Y-102534707D01*
X144212844Y-102399005D01*
X144219644Y-102393197D01*
X143487497Y-101661050D01*
X143547896Y-101636033D01*
X143654358Y-101564897D01*
X143744897Y-101474358D01*
X143816033Y-101367896D01*
X143841050Y-101307497D01*
X144573197Y-102039644D01*
X144579005Y-102032844D01*
X144669773Y-101884726D01*
X144721584Y-101837851D01*
X144790514Y-101826428D01*
X144854677Y-101854085D01*
X144893702Y-101912041D01*
X144899500Y-101949516D01*
X144899500Y-105250482D01*
X144879815Y-105317521D01*
X144827011Y-105363276D01*
X144757853Y-105373220D01*
X144694297Y-105344195D01*
X144669773Y-105315272D01*
X144579007Y-105167157D01*
X144573197Y-105160354D01*
X143841050Y-105892501D01*
X143816033Y-105832104D01*
X143744897Y-105725642D01*
X143654358Y-105635103D01*
X143547896Y-105563967D01*
X143487497Y-105538949D01*
X144219645Y-104806801D01*
X144212843Y-104800993D01*
X144212842Y-104800992D01*
X143991400Y-104665292D01*
X143991397Y-104665290D01*
X143751462Y-104565906D01*
X143751445Y-104565901D01*
X143498911Y-104505274D01*
X143498912Y-104505274D01*
X143240000Y-104484898D01*
X142981087Y-104505274D01*
X142728554Y-104565901D01*
X142728537Y-104565906D01*
X142488602Y-104665290D01*
X142488599Y-104665292D01*
X142267155Y-104800993D01*
X142260353Y-104806800D01*
X142992502Y-105538949D01*
X142932104Y-105563967D01*
X142825642Y-105635103D01*
X142735103Y-105725642D01*
X142663967Y-105832104D01*
X142638949Y-105892502D01*
X141906800Y-105160353D01*
X141900993Y-105167155D01*
X141765292Y-105388599D01*
X141765290Y-105388602D01*
X141665906Y-105628537D01*
X141665901Y-105628554D01*
X141605274Y-105881087D01*
X141584898Y-106140000D01*
X141605274Y-106398912D01*
X141665901Y-106651445D01*
X141665906Y-106651462D01*
X141765290Y-106891397D01*
X141765292Y-106891400D01*
X141900992Y-107112842D01*
X141900993Y-107112843D01*
X141906801Y-107119644D01*
X142638949Y-106387497D01*
X142663967Y-106447896D01*
X142735103Y-106554358D01*
X142825642Y-106644897D01*
X142932104Y-106716033D01*
X142992502Y-106741050D01*
X142260354Y-107473197D01*
X142267157Y-107479007D01*
X142488599Y-107614707D01*
X142488602Y-107614709D01*
X142728537Y-107714093D01*
X142728554Y-107714098D01*
X142981088Y-107774725D01*
X142981087Y-107774725D01*
X143240000Y-107795101D01*
X143498912Y-107774725D01*
X143751445Y-107714098D01*
X143751462Y-107714093D01*
X143991397Y-107614709D01*
X143991400Y-107614707D01*
X144212844Y-107479005D01*
X144219644Y-107473197D01*
X143487497Y-106741050D01*
X143547896Y-106716033D01*
X143654358Y-106644897D01*
X143744897Y-106554358D01*
X143816033Y-106447896D01*
X143841050Y-106387497D01*
X144573197Y-107119644D01*
X144579005Y-107112844D01*
X144669773Y-106964726D01*
X144721584Y-106917851D01*
X144790514Y-106906428D01*
X144854677Y-106934085D01*
X144893702Y-106992041D01*
X144899500Y-107029516D01*
X144899500Y-113570482D01*
X144879815Y-113637521D01*
X144827011Y-113683276D01*
X144757853Y-113693220D01*
X144694297Y-113664195D01*
X144669773Y-113635272D01*
X144579007Y-113487157D01*
X144573197Y-113480354D01*
X143841050Y-114212501D01*
X143816033Y-114152104D01*
X143744897Y-114045642D01*
X143654358Y-113955103D01*
X143547896Y-113883967D01*
X143487497Y-113858949D01*
X144219645Y-113126801D01*
X144212843Y-113120993D01*
X144212842Y-113120992D01*
X143991400Y-112985292D01*
X143991397Y-112985290D01*
X143751462Y-112885906D01*
X143751445Y-112885901D01*
X143498911Y-112825274D01*
X143498912Y-112825274D01*
X143240000Y-112804898D01*
X142981087Y-112825274D01*
X142728554Y-112885901D01*
X142728537Y-112885906D01*
X142488602Y-112985290D01*
X142488599Y-112985292D01*
X142267155Y-113120993D01*
X142260353Y-113126800D01*
X142992502Y-113858949D01*
X142932104Y-113883967D01*
X142825642Y-113955103D01*
X142735103Y-114045642D01*
X142663967Y-114152104D01*
X142638949Y-114212502D01*
X141906800Y-113480353D01*
X141900993Y-113487155D01*
X141765292Y-113708599D01*
X141765290Y-113708602D01*
X141665906Y-113948537D01*
X141665901Y-113948554D01*
X141605274Y-114201087D01*
X141584898Y-114460000D01*
X141605274Y-114718912D01*
X141665901Y-114971445D01*
X141665906Y-114971462D01*
X141765290Y-115211397D01*
X141765292Y-115211400D01*
X141900992Y-115432842D01*
X141900993Y-115432843D01*
X141906801Y-115439644D01*
X142638949Y-114707497D01*
X142663967Y-114767896D01*
X142735103Y-114874358D01*
X142825642Y-114964897D01*
X142932104Y-115036033D01*
X142992502Y-115061050D01*
X142260354Y-115793197D01*
X142267157Y-115799007D01*
X142488599Y-115934707D01*
X142488602Y-115934709D01*
X142728537Y-116034093D01*
X142728554Y-116034098D01*
X142981088Y-116094725D01*
X142981087Y-116094725D01*
X143240000Y-116115101D01*
X143498912Y-116094725D01*
X143751445Y-116034098D01*
X143751462Y-116034093D01*
X143991397Y-115934709D01*
X143991400Y-115934707D01*
X144212844Y-115799005D01*
X144219644Y-115793197D01*
X143487497Y-115061050D01*
X143547896Y-115036033D01*
X143654358Y-114964897D01*
X143744897Y-114874358D01*
X143816033Y-114767896D01*
X143841050Y-114707497D01*
X144573197Y-115439644D01*
X144579005Y-115432844D01*
X144669773Y-115284726D01*
X144721584Y-115237851D01*
X144790514Y-115226428D01*
X144854677Y-115254085D01*
X144893702Y-115312041D01*
X144899500Y-115349516D01*
X144899500Y-118650482D01*
X144879815Y-118717521D01*
X144827011Y-118763276D01*
X144757853Y-118773220D01*
X144694297Y-118744195D01*
X144669773Y-118715272D01*
X144579007Y-118567157D01*
X144573197Y-118560354D01*
X143841050Y-119292501D01*
X143816033Y-119232104D01*
X143744897Y-119125642D01*
X143654358Y-119035103D01*
X143547896Y-118963967D01*
X143487497Y-118938949D01*
X144219645Y-118206801D01*
X144212843Y-118200993D01*
X144212842Y-118200992D01*
X143991400Y-118065292D01*
X143991397Y-118065290D01*
X143751462Y-117965906D01*
X143751445Y-117965901D01*
X143498911Y-117905274D01*
X143498912Y-117905274D01*
X143240000Y-117884898D01*
X142981087Y-117905274D01*
X142728554Y-117965901D01*
X142728537Y-117965906D01*
X142488602Y-118065290D01*
X142488599Y-118065292D01*
X142267155Y-118200993D01*
X142260353Y-118206800D01*
X142992502Y-118938949D01*
X142932104Y-118963967D01*
X142825642Y-119035103D01*
X142735103Y-119125642D01*
X142663967Y-119232104D01*
X142638949Y-119292502D01*
X141906800Y-118560353D01*
X141900993Y-118567155D01*
X141765292Y-118788599D01*
X141765290Y-118788602D01*
X141665906Y-119028537D01*
X141665901Y-119028554D01*
X141605274Y-119281087D01*
X141584898Y-119540000D01*
X141605274Y-119798912D01*
X141665901Y-120051445D01*
X141665906Y-120051462D01*
X141765290Y-120291397D01*
X141765292Y-120291400D01*
X141900992Y-120512842D01*
X141900993Y-120512843D01*
X141906801Y-120519644D01*
X142638949Y-119787497D01*
X142663967Y-119847896D01*
X142735103Y-119954358D01*
X142825642Y-120044897D01*
X142932104Y-120116033D01*
X142992502Y-120141050D01*
X142260354Y-120873197D01*
X142267157Y-120879007D01*
X142488599Y-121014707D01*
X142488602Y-121014709D01*
X142728537Y-121114093D01*
X142728554Y-121114098D01*
X142981088Y-121174725D01*
X142981087Y-121174725D01*
X143240000Y-121195101D01*
X143498912Y-121174725D01*
X143751445Y-121114098D01*
X143751462Y-121114093D01*
X143991397Y-121014709D01*
X143991400Y-121014707D01*
X144212844Y-120879005D01*
X144219644Y-120873197D01*
X143487497Y-120141050D01*
X143547896Y-120116033D01*
X143654358Y-120044897D01*
X143744897Y-119954358D01*
X143816033Y-119847896D01*
X143841050Y-119787497D01*
X144573197Y-120519644D01*
X144579005Y-120512844D01*
X144669773Y-120364726D01*
X144721584Y-120317851D01*
X144790514Y-120306428D01*
X144854677Y-120334085D01*
X144893702Y-120392041D01*
X144899500Y-120429516D01*
X144899500Y-122175500D01*
X144879815Y-122242539D01*
X144827011Y-122288294D01*
X144775500Y-122299500D01*
X101024500Y-122299500D01*
X100957461Y-122279815D01*
X100911706Y-122227011D01*
X100900500Y-122175500D01*
X100900500Y-120591566D01*
X100920185Y-120524527D01*
X100972989Y-120478772D01*
X101042147Y-120468828D01*
X101105703Y-120497853D01*
X101118790Y-120511034D01*
X101120586Y-120513137D01*
X101120588Y-120513140D01*
X101289311Y-120710689D01*
X101486860Y-120879412D01*
X101708372Y-121015154D01*
X101708374Y-121015154D01*
X101708376Y-121015156D01*
X101769693Y-121040554D01*
X101948390Y-121114573D01*
X102201006Y-121175221D01*
X102460000Y-121195604D01*
X102718994Y-121175221D01*
X102971610Y-121114573D01*
X103211628Y-121015154D01*
X103433140Y-120879412D01*
X103630689Y-120710689D01*
X103799412Y-120513140D01*
X103935154Y-120291628D01*
X104034573Y-120051610D01*
X104095221Y-119798994D01*
X104115604Y-119540000D01*
X105884396Y-119540000D01*
X105904778Y-119798990D01*
X105965427Y-120051610D01*
X106064843Y-120291623D01*
X106064845Y-120291627D01*
X106064846Y-120291628D01*
X106200588Y-120513140D01*
X106369311Y-120710689D01*
X106566860Y-120879412D01*
X106788372Y-121015154D01*
X106788374Y-121015154D01*
X106788376Y-121015156D01*
X106849693Y-121040554D01*
X107028390Y-121114573D01*
X107281006Y-121175221D01*
X107540000Y-121195604D01*
X107798994Y-121175221D01*
X108051610Y-121114573D01*
X108291628Y-121015154D01*
X108513140Y-120879412D01*
X108710689Y-120710689D01*
X108879412Y-120513140D01*
X109015154Y-120291628D01*
X109114573Y-120051610D01*
X109175221Y-119798994D01*
X109195604Y-119540000D01*
X136504898Y-119540000D01*
X136525274Y-119798912D01*
X136585901Y-120051445D01*
X136585906Y-120051462D01*
X136685290Y-120291397D01*
X136685292Y-120291400D01*
X136820992Y-120512842D01*
X136820993Y-120512843D01*
X136826801Y-120519644D01*
X137558949Y-119787497D01*
X137583967Y-119847896D01*
X137655103Y-119954358D01*
X137745642Y-120044897D01*
X137852104Y-120116033D01*
X137912502Y-120141050D01*
X137180354Y-120873197D01*
X137187157Y-120879007D01*
X137408599Y-121014707D01*
X137408602Y-121014709D01*
X137648537Y-121114093D01*
X137648554Y-121114098D01*
X137901088Y-121174725D01*
X137901087Y-121174725D01*
X138160000Y-121195101D01*
X138418912Y-121174725D01*
X138671445Y-121114098D01*
X138671462Y-121114093D01*
X138911397Y-121014709D01*
X138911400Y-121014707D01*
X139132844Y-120879005D01*
X139139644Y-120873197D01*
X138407497Y-120141050D01*
X138467896Y-120116033D01*
X138574358Y-120044897D01*
X138664897Y-119954358D01*
X138736033Y-119847896D01*
X138761050Y-119787497D01*
X139493197Y-120519644D01*
X139499005Y-120512844D01*
X139634707Y-120291400D01*
X139634709Y-120291397D01*
X139734093Y-120051462D01*
X139734098Y-120051445D01*
X139794725Y-119798912D01*
X139815101Y-119540000D01*
X139794725Y-119281087D01*
X139734098Y-119028554D01*
X139734093Y-119028537D01*
X139634709Y-118788602D01*
X139634707Y-118788599D01*
X139499007Y-118567157D01*
X139493197Y-118560354D01*
X138761050Y-119292501D01*
X138736033Y-119232104D01*
X138664897Y-119125642D01*
X138574358Y-119035103D01*
X138467896Y-118963967D01*
X138407497Y-118938949D01*
X139139645Y-118206801D01*
X139132843Y-118200993D01*
X139132842Y-118200992D01*
X138911400Y-118065292D01*
X138911397Y-118065290D01*
X138671462Y-117965906D01*
X138671445Y-117965901D01*
X138418911Y-117905274D01*
X138418912Y-117905274D01*
X138160000Y-117884898D01*
X137901087Y-117905274D01*
X137648554Y-117965901D01*
X137648537Y-117965906D01*
X137408602Y-118065290D01*
X137408599Y-118065292D01*
X137187155Y-118200993D01*
X137180353Y-118206800D01*
X137912502Y-118938949D01*
X137852104Y-118963967D01*
X137745642Y-119035103D01*
X137655103Y-119125642D01*
X137583967Y-119232104D01*
X137558949Y-119292502D01*
X136826800Y-118560353D01*
X136820993Y-118567155D01*
X136685292Y-118788599D01*
X136685290Y-118788602D01*
X136585906Y-119028537D01*
X136585901Y-119028554D01*
X136525274Y-119281087D01*
X136504898Y-119540000D01*
X109195604Y-119540000D01*
X109175221Y-119281006D01*
X109114573Y-119028390D01*
X109051879Y-118877035D01*
X109015156Y-118788376D01*
X109005868Y-118773220D01*
X108879412Y-118566860D01*
X108710689Y-118369311D01*
X108513140Y-118200588D01*
X108291628Y-118064846D01*
X108291627Y-118064845D01*
X108291623Y-118064843D01*
X108125627Y-117996086D01*
X108051610Y-117965427D01*
X108051611Y-117965427D01*
X107913921Y-117932370D01*
X107798994Y-117904779D01*
X107798992Y-117904778D01*
X107798991Y-117904778D01*
X107540000Y-117884396D01*
X107281009Y-117904778D01*
X107028389Y-117965427D01*
X106788376Y-118064843D01*
X106566859Y-118200588D01*
X106369311Y-118369311D01*
X106200588Y-118566859D01*
X106064843Y-118788376D01*
X105965427Y-119028389D01*
X105904778Y-119281009D01*
X105884396Y-119540000D01*
X104115604Y-119540000D01*
X104095221Y-119281006D01*
X104034573Y-119028390D01*
X103971879Y-118877035D01*
X103935156Y-118788376D01*
X103925868Y-118773220D01*
X103799412Y-118566860D01*
X103630689Y-118369311D01*
X103433140Y-118200588D01*
X103211628Y-118064846D01*
X103211627Y-118064845D01*
X103211623Y-118064843D01*
X103045627Y-117996086D01*
X102971610Y-117965427D01*
X102971611Y-117965427D01*
X102833921Y-117932370D01*
X102718994Y-117904779D01*
X102718992Y-117904778D01*
X102718991Y-117904778D01*
X102460000Y-117884396D01*
X102201009Y-117904778D01*
X101948389Y-117965427D01*
X101708376Y-118064843D01*
X101486859Y-118200588D01*
X101289311Y-118369311D01*
X101118790Y-118568965D01*
X101060283Y-118607158D01*
X100990415Y-118607656D01*
X100931369Y-118570303D01*
X100901891Y-118506956D01*
X100900500Y-118488433D01*
X100900500Y-117000000D01*
X103344396Y-117000000D01*
X103364778Y-117258990D01*
X103425427Y-117511610D01*
X103524843Y-117751623D01*
X103524845Y-117751627D01*
X103524846Y-117751628D01*
X103660588Y-117973140D01*
X103829311Y-118170689D01*
X104026860Y-118339412D01*
X104248372Y-118475154D01*
X104248374Y-118475154D01*
X104248376Y-118475156D01*
X104280430Y-118488433D01*
X104488390Y-118574573D01*
X104741006Y-118635221D01*
X105000000Y-118655604D01*
X105258994Y-118635221D01*
X105511610Y-118574573D01*
X105751628Y-118475154D01*
X105973140Y-118339412D01*
X106170689Y-118170689D01*
X106339412Y-117973140D01*
X106475154Y-117751628D01*
X106574573Y-117511610D01*
X106635221Y-117258994D01*
X106655604Y-117000000D01*
X139044396Y-117000000D01*
X139064778Y-117258990D01*
X139125427Y-117511610D01*
X139224843Y-117751623D01*
X139224845Y-117751627D01*
X139224846Y-117751628D01*
X139360588Y-117973140D01*
X139529311Y-118170689D01*
X139726860Y-118339412D01*
X139948372Y-118475154D01*
X139948374Y-118475154D01*
X139948376Y-118475156D01*
X139980430Y-118488433D01*
X140188390Y-118574573D01*
X140441006Y-118635221D01*
X140700000Y-118655604D01*
X140958994Y-118635221D01*
X141211610Y-118574573D01*
X141451628Y-118475154D01*
X141673140Y-118339412D01*
X141870689Y-118170689D01*
X142039412Y-117973140D01*
X142175154Y-117751628D01*
X142274573Y-117511610D01*
X142335221Y-117258994D01*
X142355604Y-117000000D01*
X142335221Y-116741006D01*
X142274573Y-116488390D01*
X142175154Y-116248372D01*
X142039412Y-116026860D01*
X141870689Y-115829311D01*
X141673140Y-115660588D01*
X141451628Y-115524846D01*
X141451627Y-115524845D01*
X141451623Y-115524843D01*
X141257721Y-115444527D01*
X141211610Y-115425427D01*
X141211611Y-115425427D01*
X141059165Y-115388828D01*
X140958994Y-115364779D01*
X140958992Y-115364778D01*
X140958991Y-115364778D01*
X140700000Y-115344396D01*
X140441009Y-115364778D01*
X140188389Y-115425427D01*
X139948376Y-115524843D01*
X139726859Y-115660588D01*
X139529311Y-115829311D01*
X139360588Y-116026859D01*
X139224843Y-116248376D01*
X139125427Y-116488389D01*
X139064778Y-116741009D01*
X139044396Y-117000000D01*
X106655604Y-117000000D01*
X106635221Y-116741006D01*
X106574573Y-116488390D01*
X106475154Y-116248372D01*
X106339412Y-116026860D01*
X106170689Y-115829311D01*
X105973140Y-115660588D01*
X105751628Y-115524846D01*
X105751627Y-115524845D01*
X105751623Y-115524843D01*
X105557721Y-115444527D01*
X105511610Y-115425427D01*
X105511611Y-115425427D01*
X105359165Y-115388828D01*
X105258994Y-115364779D01*
X105258992Y-115364778D01*
X105258991Y-115364778D01*
X105000000Y-115344396D01*
X104741009Y-115364778D01*
X104488389Y-115425427D01*
X104248376Y-115524843D01*
X104026859Y-115660588D01*
X103829311Y-115829311D01*
X103660588Y-116026859D01*
X103524843Y-116248376D01*
X103425427Y-116488389D01*
X103364778Y-116741009D01*
X103344396Y-117000000D01*
X100900500Y-117000000D01*
X100900500Y-115511566D01*
X100920185Y-115444527D01*
X100972989Y-115398772D01*
X101042147Y-115388828D01*
X101105703Y-115417853D01*
X101118790Y-115431034D01*
X101120586Y-115433137D01*
X101120588Y-115433140D01*
X101289311Y-115630689D01*
X101486860Y-115799412D01*
X101708372Y-115935154D01*
X101708374Y-115935154D01*
X101708376Y-115935156D01*
X101769693Y-115960554D01*
X101948390Y-116034573D01*
X102201006Y-116095221D01*
X102460000Y-116115604D01*
X102718994Y-116095221D01*
X102971610Y-116034573D01*
X103211628Y-115935154D01*
X103433140Y-115799412D01*
X103630689Y-115630689D01*
X103799412Y-115433140D01*
X103935154Y-115211628D01*
X104034573Y-114971610D01*
X104095221Y-114718994D01*
X104115604Y-114460000D01*
X105884396Y-114460000D01*
X105904778Y-114718990D01*
X105965427Y-114971610D01*
X106064843Y-115211623D01*
X106064845Y-115211627D01*
X106064846Y-115211628D01*
X106200588Y-115433140D01*
X106369311Y-115630689D01*
X106566860Y-115799412D01*
X106788372Y-115935154D01*
X106788374Y-115935154D01*
X106788376Y-115935156D01*
X106849693Y-115960554D01*
X107028390Y-116034573D01*
X107281006Y-116095221D01*
X107540000Y-116115604D01*
X107798994Y-116095221D01*
X108051610Y-116034573D01*
X108291628Y-115935154D01*
X108513140Y-115799412D01*
X108710689Y-115630689D01*
X108879412Y-115433140D01*
X109015154Y-115211628D01*
X109114573Y-114971610D01*
X109175221Y-114718994D01*
X109195604Y-114460000D01*
X136504898Y-114460000D01*
X136525274Y-114718912D01*
X136585901Y-114971445D01*
X136585906Y-114971462D01*
X136685290Y-115211397D01*
X136685292Y-115211400D01*
X136820992Y-115432842D01*
X136820993Y-115432843D01*
X136826801Y-115439644D01*
X137558949Y-114707497D01*
X137583967Y-114767896D01*
X137655103Y-114874358D01*
X137745642Y-114964897D01*
X137852104Y-115036033D01*
X137912502Y-115061050D01*
X137180354Y-115793197D01*
X137187157Y-115799007D01*
X137408599Y-115934707D01*
X137408602Y-115934709D01*
X137648537Y-116034093D01*
X137648554Y-116034098D01*
X137901088Y-116094725D01*
X137901087Y-116094725D01*
X138160000Y-116115101D01*
X138418912Y-116094725D01*
X138671445Y-116034098D01*
X138671462Y-116034093D01*
X138911397Y-115934709D01*
X138911400Y-115934707D01*
X139132844Y-115799005D01*
X139139644Y-115793197D01*
X138407497Y-115061050D01*
X138467896Y-115036033D01*
X138574358Y-114964897D01*
X138664897Y-114874358D01*
X138736033Y-114767896D01*
X138761050Y-114707497D01*
X139493197Y-115439644D01*
X139499005Y-115432844D01*
X139634707Y-115211400D01*
X139634709Y-115211397D01*
X139734093Y-114971462D01*
X139734098Y-114971445D01*
X139794725Y-114718912D01*
X139815101Y-114460000D01*
X139794725Y-114201087D01*
X139734098Y-113948554D01*
X139734093Y-113948537D01*
X139634709Y-113708602D01*
X139634707Y-113708599D01*
X139499007Y-113487157D01*
X139493197Y-113480354D01*
X138761050Y-114212501D01*
X138736033Y-114152104D01*
X138664897Y-114045642D01*
X138574358Y-113955103D01*
X138467896Y-113883967D01*
X138407497Y-113858949D01*
X139139645Y-113126801D01*
X139132843Y-113120993D01*
X139132842Y-113120992D01*
X138911400Y-112985292D01*
X138911397Y-112985290D01*
X138671462Y-112885906D01*
X138671445Y-112885901D01*
X138418911Y-112825274D01*
X138418912Y-112825274D01*
X138160000Y-112804898D01*
X137901087Y-112825274D01*
X137648554Y-112885901D01*
X137648537Y-112885906D01*
X137408602Y-112985290D01*
X137408599Y-112985292D01*
X137187155Y-113120993D01*
X137180353Y-113126800D01*
X137912502Y-113858949D01*
X137852104Y-113883967D01*
X137745642Y-113955103D01*
X137655103Y-114045642D01*
X137583967Y-114152104D01*
X137558949Y-114212502D01*
X136826800Y-113480353D01*
X136820993Y-113487155D01*
X136685292Y-113708599D01*
X136685290Y-113708602D01*
X136585906Y-113948537D01*
X136585901Y-113948554D01*
X136525274Y-114201087D01*
X136504898Y-114460000D01*
X109195604Y-114460000D01*
X109175221Y-114201006D01*
X109114573Y-113948390D01*
X109051879Y-113797035D01*
X109015156Y-113708376D01*
X109005868Y-113693220D01*
X108879412Y-113486860D01*
X108710689Y-113289311D01*
X108513140Y-113120588D01*
X108291628Y-112984846D01*
X108291627Y-112984845D01*
X108291623Y-112984843D01*
X108125627Y-112916086D01*
X108051610Y-112885427D01*
X108051611Y-112885427D01*
X107913921Y-112852370D01*
X107798994Y-112824779D01*
X107798992Y-112824778D01*
X107798991Y-112824778D01*
X107540000Y-112804396D01*
X107281009Y-112824778D01*
X107028389Y-112885427D01*
X106788376Y-112984843D01*
X106566859Y-113120588D01*
X106369311Y-113289311D01*
X106200588Y-113486859D01*
X106064843Y-113708376D01*
X105965427Y-113948389D01*
X105904778Y-114201009D01*
X105884396Y-114460000D01*
X104115604Y-114460000D01*
X104095221Y-114201006D01*
X104034573Y-113948390D01*
X103971879Y-113797035D01*
X103935156Y-113708376D01*
X103925868Y-113693220D01*
X103799412Y-113486860D01*
X103630689Y-113289311D01*
X103433140Y-113120588D01*
X103211628Y-112984846D01*
X103211627Y-112984845D01*
X103211623Y-112984843D01*
X103045627Y-112916086D01*
X102971610Y-112885427D01*
X102971611Y-112885427D01*
X102833921Y-112852370D01*
X102718994Y-112824779D01*
X102718992Y-112824778D01*
X102718991Y-112824778D01*
X102460000Y-112804396D01*
X102201009Y-112824778D01*
X101948389Y-112885427D01*
X101708376Y-112984843D01*
X101486859Y-113120588D01*
X101289311Y-113289311D01*
X101118790Y-113488965D01*
X101060283Y-113527158D01*
X100990415Y-113527656D01*
X100931369Y-113490303D01*
X100901891Y-113426956D01*
X100900500Y-113408433D01*
X100900500Y-110030474D01*
X100920185Y-109963435D01*
X100972989Y-109917680D01*
X101042147Y-109907736D01*
X101105703Y-109936761D01*
X101130227Y-109965684D01*
X101220588Y-110113140D01*
X101389311Y-110310689D01*
X101586860Y-110479412D01*
X101808372Y-110615154D01*
X101808374Y-110615154D01*
X101808376Y-110615156D01*
X101869693Y-110640554D01*
X102048390Y-110714573D01*
X102301006Y-110775221D01*
X102560000Y-110795604D01*
X102818994Y-110775221D01*
X103071610Y-110714573D01*
X103311628Y-110615154D01*
X103533140Y-110479412D01*
X103730689Y-110310689D01*
X103899412Y-110113140D01*
X104035154Y-109891628D01*
X104134573Y-109651610D01*
X104195221Y-109398994D01*
X104215604Y-109140000D01*
X105984396Y-109140000D01*
X106004778Y-109398990D01*
X106065427Y-109651610D01*
X106164843Y-109891623D01*
X106164845Y-109891627D01*
X106164846Y-109891628D01*
X106300588Y-110113140D01*
X106469311Y-110310689D01*
X106666860Y-110479412D01*
X106888372Y-110615154D01*
X106888374Y-110615154D01*
X106888376Y-110615156D01*
X106949693Y-110640554D01*
X107128390Y-110714573D01*
X107381006Y-110775221D01*
X107640000Y-110795604D01*
X107898994Y-110775221D01*
X108151610Y-110714573D01*
X108391628Y-110615154D01*
X108613140Y-110479412D01*
X108810689Y-110310689D01*
X108979412Y-110113140D01*
X109115154Y-109891628D01*
X109214573Y-109651610D01*
X109275221Y-109398994D01*
X109295604Y-109140000D01*
X109275221Y-108881006D01*
X109214573Y-108628390D01*
X109115154Y-108388372D01*
X108979412Y-108166860D01*
X108922305Y-108099996D01*
X116994435Y-108099996D01*
X116994435Y-108100003D01*
X117014630Y-108279249D01*
X117014631Y-108279254D01*
X117074211Y-108449523D01*
X117170184Y-108602262D01*
X117297738Y-108729816D01*
X117450478Y-108825789D01*
X117608279Y-108881006D01*
X117620745Y-108885368D01*
X117620750Y-108885369D01*
X117799996Y-108905565D01*
X117800000Y-108905565D01*
X117800004Y-108905565D01*
X117979249Y-108885369D01*
X117979252Y-108885368D01*
X117979255Y-108885368D01*
X118149522Y-108825789D01*
X118302262Y-108729816D01*
X118429816Y-108602262D01*
X118525789Y-108449522D01*
X118585368Y-108279255D01*
X118588718Y-108249525D01*
X118605565Y-108100003D01*
X118605565Y-108099996D01*
X123094435Y-108099996D01*
X123094435Y-108100003D01*
X123114630Y-108279249D01*
X123114631Y-108279254D01*
X123174211Y-108449523D01*
X123270184Y-108602262D01*
X123397738Y-108729816D01*
X123550478Y-108825789D01*
X123708279Y-108881006D01*
X123720745Y-108885368D01*
X123720750Y-108885369D01*
X123899996Y-108905565D01*
X123900000Y-108905565D01*
X123900004Y-108905565D01*
X124079249Y-108885369D01*
X124079252Y-108885368D01*
X124079255Y-108885368D01*
X124249522Y-108825789D01*
X124402262Y-108729816D01*
X124529816Y-108602262D01*
X124625789Y-108449522D01*
X124685368Y-108279255D01*
X124688718Y-108249525D01*
X124705565Y-108100003D01*
X124705565Y-108099996D01*
X124685369Y-107920750D01*
X124685368Y-107920745D01*
X124625788Y-107750476D01*
X124571981Y-107664843D01*
X124529816Y-107597738D01*
X124402262Y-107470184D01*
X124249523Y-107374211D01*
X124079254Y-107314631D01*
X124079249Y-107314630D01*
X123900004Y-107294435D01*
X123899996Y-107294435D01*
X123720750Y-107314630D01*
X123720745Y-107314631D01*
X123550476Y-107374211D01*
X123397737Y-107470184D01*
X123270184Y-107597737D01*
X123174211Y-107750476D01*
X123114631Y-107920745D01*
X123114630Y-107920750D01*
X123094435Y-108099996D01*
X118605565Y-108099996D01*
X118585369Y-107920750D01*
X118585368Y-107920745D01*
X118525788Y-107750476D01*
X118471981Y-107664843D01*
X118429816Y-107597738D01*
X118302262Y-107470184D01*
X118149523Y-107374211D01*
X117979254Y-107314631D01*
X117979249Y-107314630D01*
X117800004Y-107294435D01*
X117799996Y-107294435D01*
X117620750Y-107314630D01*
X117620745Y-107314631D01*
X117450476Y-107374211D01*
X117297737Y-107470184D01*
X117170184Y-107597737D01*
X117074211Y-107750476D01*
X117014631Y-107920745D01*
X117014630Y-107920750D01*
X116994435Y-108099996D01*
X108922305Y-108099996D01*
X108810689Y-107969311D01*
X108613140Y-107800588D01*
X108391628Y-107664846D01*
X108391627Y-107664845D01*
X108391623Y-107664843D01*
X108225627Y-107596086D01*
X108151610Y-107565427D01*
X108151611Y-107565427D01*
X108013921Y-107532370D01*
X107898994Y-107504779D01*
X107898992Y-107504778D01*
X107898991Y-107504778D01*
X107640000Y-107484396D01*
X107381009Y-107504778D01*
X107128389Y-107565427D01*
X106888376Y-107664843D01*
X106666859Y-107800588D01*
X106469311Y-107969311D01*
X106300588Y-108166859D01*
X106164843Y-108388376D01*
X106065427Y-108628389D01*
X106004778Y-108881009D01*
X105984396Y-109140000D01*
X104215604Y-109140000D01*
X104195221Y-108881006D01*
X104134573Y-108628390D01*
X104035154Y-108388372D01*
X103899412Y-108166860D01*
X103730689Y-107969311D01*
X103533140Y-107800588D01*
X103311628Y-107664846D01*
X103311627Y-107664845D01*
X103311623Y-107664843D01*
X103145627Y-107596086D01*
X103071610Y-107565427D01*
X103071611Y-107565427D01*
X102933921Y-107532370D01*
X102818994Y-107504779D01*
X102818992Y-107504778D01*
X102818991Y-107504778D01*
X102560000Y-107484396D01*
X102301009Y-107504778D01*
X102048389Y-107565427D01*
X101808376Y-107664843D01*
X101586859Y-107800588D01*
X101389311Y-107969311D01*
X101220585Y-108166862D01*
X101220584Y-108166864D01*
X101130227Y-108314315D01*
X101078416Y-108361190D01*
X101009486Y-108372613D01*
X100945323Y-108344956D01*
X100906298Y-108287000D01*
X100900500Y-108249525D01*
X100900500Y-106600000D01*
X103444396Y-106600000D01*
X103464778Y-106858990D01*
X103525427Y-107111610D01*
X103624843Y-107351623D01*
X103624845Y-107351627D01*
X103624846Y-107351628D01*
X103760588Y-107573140D01*
X103929311Y-107770689D01*
X104126860Y-107939412D01*
X104348372Y-108075154D01*
X104348374Y-108075154D01*
X104348376Y-108075156D01*
X104408346Y-108099996D01*
X104588390Y-108174573D01*
X104841006Y-108235221D01*
X105100000Y-108255604D01*
X105358994Y-108235221D01*
X105611610Y-108174573D01*
X105851628Y-108075154D01*
X106073140Y-107939412D01*
X106270689Y-107770689D01*
X106439412Y-107573140D01*
X106575154Y-107351628D01*
X106674573Y-107111610D01*
X106735221Y-106858994D01*
X106755604Y-106600000D01*
X106735221Y-106341006D01*
X106686964Y-106140000D01*
X136504898Y-106140000D01*
X136525274Y-106398912D01*
X136585901Y-106651445D01*
X136585906Y-106651462D01*
X136685290Y-106891397D01*
X136685292Y-106891400D01*
X136820992Y-107112842D01*
X136820993Y-107112843D01*
X136826801Y-107119644D01*
X137558949Y-106387497D01*
X137583967Y-106447896D01*
X137655103Y-106554358D01*
X137745642Y-106644897D01*
X137852104Y-106716033D01*
X137912502Y-106741050D01*
X137180354Y-107473197D01*
X137187157Y-107479007D01*
X137408599Y-107614707D01*
X137408602Y-107614709D01*
X137648537Y-107714093D01*
X137648554Y-107714098D01*
X137901088Y-107774725D01*
X137901087Y-107774725D01*
X138160000Y-107795101D01*
X138418912Y-107774725D01*
X138671445Y-107714098D01*
X138671462Y-107714093D01*
X138911397Y-107614709D01*
X138911400Y-107614707D01*
X139132844Y-107479005D01*
X139139644Y-107473197D01*
X138407497Y-106741050D01*
X138467896Y-106716033D01*
X138574358Y-106644897D01*
X138664897Y-106554358D01*
X138736033Y-106447896D01*
X138761050Y-106387497D01*
X139493197Y-107119644D01*
X139499005Y-107112844D01*
X139634707Y-106891400D01*
X139634709Y-106891397D01*
X139734093Y-106651462D01*
X139734098Y-106651445D01*
X139794725Y-106398912D01*
X139815101Y-106140000D01*
X139794725Y-105881087D01*
X139734098Y-105628554D01*
X139734093Y-105628537D01*
X139634709Y-105388602D01*
X139634707Y-105388599D01*
X139499007Y-105167157D01*
X139493197Y-105160354D01*
X138761050Y-105892501D01*
X138736033Y-105832104D01*
X138664897Y-105725642D01*
X138574358Y-105635103D01*
X138467896Y-105563967D01*
X138407497Y-105538949D01*
X139139645Y-104806801D01*
X139132843Y-104800993D01*
X139132842Y-104800992D01*
X138911400Y-104665292D01*
X138911397Y-104665290D01*
X138671462Y-104565906D01*
X138671445Y-104565901D01*
X138418911Y-104505274D01*
X138418912Y-104505274D01*
X138160000Y-104484898D01*
X137901087Y-104505274D01*
X137648554Y-104565901D01*
X137648537Y-104565906D01*
X137408602Y-104665290D01*
X137408599Y-104665292D01*
X137187155Y-104800993D01*
X137180353Y-104806800D01*
X137912502Y-105538949D01*
X137852104Y-105563967D01*
X137745642Y-105635103D01*
X137655103Y-105725642D01*
X137583967Y-105832104D01*
X137558949Y-105892502D01*
X136826800Y-105160353D01*
X136820993Y-105167155D01*
X136685292Y-105388599D01*
X136685290Y-105388602D01*
X136585906Y-105628537D01*
X136585901Y-105628554D01*
X136525274Y-105881087D01*
X136504898Y-106140000D01*
X106686964Y-106140000D01*
X106674573Y-106088390D01*
X106575154Y-105848372D01*
X106439412Y-105626860D01*
X106270689Y-105429311D01*
X106073140Y-105260588D01*
X105851628Y-105124846D01*
X105851627Y-105124845D01*
X105851623Y-105124843D01*
X105685627Y-105056086D01*
X105611610Y-105025427D01*
X105611611Y-105025427D01*
X105473921Y-104992370D01*
X105358994Y-104964779D01*
X105358992Y-104964778D01*
X105358991Y-104964778D01*
X105100000Y-104944396D01*
X104841009Y-104964778D01*
X104588389Y-105025427D01*
X104348376Y-105124843D01*
X104126859Y-105260588D01*
X103929311Y-105429311D01*
X103760588Y-105626859D01*
X103624843Y-105848376D01*
X103525427Y-106088389D01*
X103464778Y-106341009D01*
X103444396Y-106600000D01*
X100900500Y-106600000D01*
X100900500Y-104950474D01*
X100920185Y-104883435D01*
X100972989Y-104837680D01*
X101042147Y-104827736D01*
X101105703Y-104856761D01*
X101130228Y-104885685D01*
X101178696Y-104964779D01*
X101220588Y-105033140D01*
X101389311Y-105230689D01*
X101586860Y-105399412D01*
X101808372Y-105535154D01*
X101808374Y-105535154D01*
X101808376Y-105535156D01*
X101869693Y-105560554D01*
X102048390Y-105634573D01*
X102301006Y-105695221D01*
X102560000Y-105715604D01*
X102818994Y-105695221D01*
X103071610Y-105634573D01*
X103311628Y-105535154D01*
X103533140Y-105399412D01*
X103730689Y-105230689D01*
X103899412Y-105033140D01*
X104035154Y-104811628D01*
X104134573Y-104571610D01*
X104195221Y-104318994D01*
X104215604Y-104060000D01*
X105984396Y-104060000D01*
X106004778Y-104318990D01*
X106065427Y-104571610D01*
X106164843Y-104811623D01*
X106164845Y-104811627D01*
X106164846Y-104811628D01*
X106300588Y-105033140D01*
X106469311Y-105230689D01*
X106666860Y-105399412D01*
X106888372Y-105535154D01*
X106888374Y-105535154D01*
X106888376Y-105535156D01*
X106949693Y-105560554D01*
X107128390Y-105634573D01*
X107381006Y-105695221D01*
X107640000Y-105715604D01*
X107898994Y-105695221D01*
X108151610Y-105634573D01*
X108391628Y-105535154D01*
X108613140Y-105399412D01*
X108810689Y-105230689D01*
X108979412Y-105033140D01*
X109115154Y-104811628D01*
X109214573Y-104571610D01*
X109275221Y-104318994D01*
X109295604Y-104060000D01*
X109275221Y-103801006D01*
X109226964Y-103600000D01*
X139044396Y-103600000D01*
X139064778Y-103858990D01*
X139125427Y-104111610D01*
X139224843Y-104351623D01*
X139224845Y-104351627D01*
X139224846Y-104351628D01*
X139360588Y-104573140D01*
X139529311Y-104770689D01*
X139726860Y-104939412D01*
X139948372Y-105075154D01*
X139948374Y-105075154D01*
X139948376Y-105075156D01*
X140009693Y-105100554D01*
X140188390Y-105174573D01*
X140441006Y-105235221D01*
X140700000Y-105255604D01*
X140958994Y-105235221D01*
X141211610Y-105174573D01*
X141451628Y-105075154D01*
X141673140Y-104939412D01*
X141870689Y-104770689D01*
X142039412Y-104573140D01*
X142175154Y-104351628D01*
X142274573Y-104111610D01*
X142335221Y-103858994D01*
X142355604Y-103600000D01*
X142335221Y-103341006D01*
X142274573Y-103088390D01*
X142175154Y-102848372D01*
X142039412Y-102626860D01*
X141870689Y-102429311D01*
X141673140Y-102260588D01*
X141451628Y-102124846D01*
X141451627Y-102124845D01*
X141451623Y-102124843D01*
X141262885Y-102046666D01*
X141211610Y-102025427D01*
X141211611Y-102025427D01*
X141073921Y-101992370D01*
X140958994Y-101964779D01*
X140958992Y-101964778D01*
X140958991Y-101964778D01*
X140700000Y-101944396D01*
X140441009Y-101964778D01*
X140188389Y-102025427D01*
X139948376Y-102124843D01*
X139726859Y-102260588D01*
X139529311Y-102429311D01*
X139360588Y-102626859D01*
X139224843Y-102848376D01*
X139125427Y-103088389D01*
X139064778Y-103341009D01*
X139044396Y-103600000D01*
X109226964Y-103600000D01*
X109214573Y-103548390D01*
X109128673Y-103341009D01*
X109115156Y-103308376D01*
X109105496Y-103292613D01*
X108979412Y-103086860D01*
X108810689Y-102889311D01*
X108613140Y-102720588D01*
X108391628Y-102584846D01*
X108391627Y-102584845D01*
X108391623Y-102584843D01*
X108225627Y-102516086D01*
X108151610Y-102485427D01*
X108151611Y-102485427D01*
X108013921Y-102452370D01*
X107898994Y-102424779D01*
X107898992Y-102424778D01*
X107898991Y-102424778D01*
X107640000Y-102404396D01*
X107381009Y-102424778D01*
X107128389Y-102485427D01*
X106888376Y-102584843D01*
X106666859Y-102720588D01*
X106469311Y-102889311D01*
X106300588Y-103086859D01*
X106164843Y-103308376D01*
X106065427Y-103548389D01*
X106004778Y-103801009D01*
X105984396Y-104060000D01*
X104215604Y-104060000D01*
X104195221Y-103801006D01*
X104134573Y-103548390D01*
X104048673Y-103341009D01*
X104035156Y-103308376D01*
X104025496Y-103292613D01*
X103899412Y-103086860D01*
X103730689Y-102889311D01*
X103533140Y-102720588D01*
X103311628Y-102584846D01*
X103311627Y-102584845D01*
X103311623Y-102584843D01*
X103145627Y-102516086D01*
X103071610Y-102485427D01*
X103071611Y-102485427D01*
X102933921Y-102452370D01*
X102818994Y-102424779D01*
X102818992Y-102424778D01*
X102818991Y-102424778D01*
X102560000Y-102404396D01*
X102301009Y-102424778D01*
X102048389Y-102485427D01*
X101808376Y-102584843D01*
X101586859Y-102720588D01*
X101389311Y-102889311D01*
X101220585Y-103086862D01*
X101220584Y-103086864D01*
X101130227Y-103234315D01*
X101078416Y-103281190D01*
X101009486Y-103292613D01*
X100945323Y-103264956D01*
X100906298Y-103207000D01*
X100900500Y-103169525D01*
X100900500Y-101399996D01*
X110694435Y-101399996D01*
X110694435Y-101400003D01*
X110714630Y-101579249D01*
X110714631Y-101579254D01*
X110774211Y-101749523D01*
X110822534Y-101826428D01*
X110870184Y-101902262D01*
X110997738Y-102029816D01*
X111150478Y-102125789D01*
X111320742Y-102185367D01*
X111320745Y-102185368D01*
X111320750Y-102185369D01*
X111499996Y-102205565D01*
X111500000Y-102205565D01*
X111500004Y-102205565D01*
X111679249Y-102185369D01*
X111679252Y-102185368D01*
X111679255Y-102185368D01*
X111849522Y-102125789D01*
X112002262Y-102029816D01*
X112129816Y-101902262D01*
X112225789Y-101749522D01*
X112285368Y-101579255D01*
X112305565Y-101400000D01*
X112305565Y-101399996D01*
X117094435Y-101399996D01*
X117094435Y-101400003D01*
X117114630Y-101579249D01*
X117114631Y-101579254D01*
X117174211Y-101749523D01*
X117222534Y-101826428D01*
X117270184Y-101902262D01*
X117397738Y-102029816D01*
X117550478Y-102125789D01*
X117720745Y-102185368D01*
X117727974Y-102186182D01*
X117792388Y-102213246D01*
X117801776Y-102221722D01*
X118785325Y-103205272D01*
X118785332Y-103205278D01*
X118828790Y-103234315D01*
X118891874Y-103276466D01*
X118961221Y-103305189D01*
X119010256Y-103325501D01*
X119010259Y-103325501D01*
X119010260Y-103325502D01*
X119135928Y-103350500D01*
X119135931Y-103350500D01*
X132864071Y-103350500D01*
X132948615Y-103333682D01*
X132989744Y-103325501D01*
X133108127Y-103276465D01*
X133214669Y-103205277D01*
X133998224Y-102421720D01*
X134059545Y-102388237D01*
X134072019Y-102386183D01*
X134079255Y-102385368D01*
X134249522Y-102325789D01*
X134402262Y-102229816D01*
X134529816Y-102102262D01*
X134625789Y-101949522D01*
X134685368Y-101779255D01*
X134693170Y-101710012D01*
X134705565Y-101600003D01*
X134705565Y-101599996D01*
X134685369Y-101420750D01*
X134685368Y-101420745D01*
X134625788Y-101250476D01*
X134586582Y-101188080D01*
X134529816Y-101097738D01*
X134492078Y-101060000D01*
X136504898Y-101060000D01*
X136525274Y-101318912D01*
X136585901Y-101571445D01*
X136585906Y-101571462D01*
X136685290Y-101811397D01*
X136685292Y-101811400D01*
X136820992Y-102032842D01*
X136820993Y-102032843D01*
X136826801Y-102039644D01*
X137558949Y-101307497D01*
X137583967Y-101367896D01*
X137655103Y-101474358D01*
X137745642Y-101564897D01*
X137852104Y-101636033D01*
X137912502Y-101661050D01*
X137180354Y-102393197D01*
X137187157Y-102399007D01*
X137408599Y-102534707D01*
X137408602Y-102534709D01*
X137648537Y-102634093D01*
X137648554Y-102634098D01*
X137901088Y-102694725D01*
X137901087Y-102694725D01*
X138160000Y-102715101D01*
X138418912Y-102694725D01*
X138671445Y-102634098D01*
X138671462Y-102634093D01*
X138911397Y-102534709D01*
X138911400Y-102534707D01*
X139132844Y-102399005D01*
X139139644Y-102393197D01*
X138407497Y-101661050D01*
X138467896Y-101636033D01*
X138574358Y-101564897D01*
X138664897Y-101474358D01*
X138736033Y-101367896D01*
X138761050Y-101307497D01*
X139493197Y-102039644D01*
X139499005Y-102032844D01*
X139634707Y-101811400D01*
X139634709Y-101811397D01*
X139734093Y-101571462D01*
X139734098Y-101571445D01*
X139794725Y-101318912D01*
X139815101Y-101060000D01*
X139794725Y-100801087D01*
X139734098Y-100548554D01*
X139734093Y-100548537D01*
X139634709Y-100308602D01*
X139634707Y-100308599D01*
X139499007Y-100087157D01*
X139493197Y-100080354D01*
X138761050Y-100812501D01*
X138736033Y-100752104D01*
X138664897Y-100645642D01*
X138574358Y-100555103D01*
X138467896Y-100483967D01*
X138407497Y-100458949D01*
X139139645Y-99726801D01*
X139132843Y-99720993D01*
X139132842Y-99720992D01*
X138911400Y-99585292D01*
X138911397Y-99585290D01*
X138671462Y-99485906D01*
X138671445Y-99485901D01*
X138418911Y-99425274D01*
X138418912Y-99425274D01*
X138160000Y-99404898D01*
X137901087Y-99425274D01*
X137648554Y-99485901D01*
X137648537Y-99485906D01*
X137408602Y-99585290D01*
X137408599Y-99585292D01*
X137187155Y-99720993D01*
X137180353Y-99726800D01*
X137912502Y-100458949D01*
X137852104Y-100483967D01*
X137745642Y-100555103D01*
X137655103Y-100645642D01*
X137583967Y-100752104D01*
X137558949Y-100812502D01*
X136826800Y-100080353D01*
X136820993Y-100087155D01*
X136685292Y-100308599D01*
X136685290Y-100308602D01*
X136585906Y-100548537D01*
X136585901Y-100548554D01*
X136525274Y-100801087D01*
X136504898Y-101060000D01*
X134492078Y-101060000D01*
X134402262Y-100970184D01*
X134249523Y-100874211D01*
X134079254Y-100814631D01*
X134079249Y-100814630D01*
X133900004Y-100794435D01*
X133899996Y-100794435D01*
X133720750Y-100814630D01*
X133720745Y-100814631D01*
X133550476Y-100874211D01*
X133397737Y-100970184D01*
X133270184Y-101097737D01*
X133174210Y-101250478D01*
X133114632Y-101420744D01*
X133114630Y-101420752D01*
X133113815Y-101427988D01*
X133086743Y-101492400D01*
X133078277Y-101501775D01*
X132566873Y-102013181D01*
X132505550Y-102046666D01*
X132479192Y-102049500D01*
X124761661Y-102049500D01*
X124694622Y-102029815D01*
X124648867Y-101977011D01*
X124638923Y-101907853D01*
X124656668Y-101859527D01*
X124660088Y-101854085D01*
X124687556Y-101810369D01*
X124725788Y-101749524D01*
X124748355Y-101685032D01*
X124785368Y-101579255D01*
X124805565Y-101400000D01*
X124788718Y-101250478D01*
X124785369Y-101220750D01*
X124785368Y-101220745D01*
X124742326Y-101097738D01*
X124725789Y-101050478D01*
X124629816Y-100897738D01*
X124502262Y-100770184D01*
X124473488Y-100752104D01*
X124349523Y-100674211D01*
X124179254Y-100614631D01*
X124179249Y-100614630D01*
X124000004Y-100594435D01*
X123999996Y-100594435D01*
X123820750Y-100614630D01*
X123820745Y-100614631D01*
X123650476Y-100674211D01*
X123497737Y-100770184D01*
X123370184Y-100897737D01*
X123274211Y-101050476D01*
X123214631Y-101220745D01*
X123214630Y-101220750D01*
X123194435Y-101399996D01*
X123194435Y-101400003D01*
X123214630Y-101579249D01*
X123214631Y-101579254D01*
X123274211Y-101749524D01*
X123343332Y-101859527D01*
X123362333Y-101926764D01*
X123341966Y-101993599D01*
X123288698Y-102038814D01*
X123238339Y-102049500D01*
X119520808Y-102049500D01*
X119453769Y-102029815D01*
X119433127Y-102013181D01*
X118721722Y-101301776D01*
X118688237Y-101240453D01*
X118686182Y-101227973D01*
X118685368Y-101220745D01*
X118625789Y-101050478D01*
X118529816Y-100897738D01*
X118402262Y-100770184D01*
X118373488Y-100752104D01*
X118249523Y-100674211D01*
X118079254Y-100614631D01*
X118079249Y-100614630D01*
X117900004Y-100594435D01*
X117899996Y-100594435D01*
X117720750Y-100614630D01*
X117720745Y-100614631D01*
X117550476Y-100674211D01*
X117397737Y-100770184D01*
X117270184Y-100897737D01*
X117174211Y-101050476D01*
X117114631Y-101220745D01*
X117114630Y-101220750D01*
X117094435Y-101399996D01*
X112305565Y-101399996D01*
X112288718Y-101250478D01*
X112285369Y-101220750D01*
X112285368Y-101220745D01*
X112242326Y-101097738D01*
X112225789Y-101050478D01*
X112129816Y-100897738D01*
X112002262Y-100770184D01*
X111973488Y-100752104D01*
X111849523Y-100674211D01*
X111679254Y-100614631D01*
X111679249Y-100614630D01*
X111500004Y-100594435D01*
X111499996Y-100594435D01*
X111320750Y-100614630D01*
X111320745Y-100614631D01*
X111150476Y-100674211D01*
X110997737Y-100770184D01*
X110870184Y-100897737D01*
X110774211Y-101050476D01*
X110714631Y-101220745D01*
X110714630Y-101220750D01*
X110694435Y-101399996D01*
X100900500Y-101399996D01*
X100900500Y-99630474D01*
X100920185Y-99563435D01*
X100972989Y-99517680D01*
X101042147Y-99507736D01*
X101105703Y-99536761D01*
X101130227Y-99565684D01*
X101220588Y-99713140D01*
X101389311Y-99910689D01*
X101586860Y-100079412D01*
X101808372Y-100215154D01*
X101808374Y-100215154D01*
X101808376Y-100215156D01*
X101869693Y-100240554D01*
X102048390Y-100314573D01*
X102301006Y-100375221D01*
X102560000Y-100395604D01*
X102818994Y-100375221D01*
X103071610Y-100314573D01*
X103311628Y-100215154D01*
X103533140Y-100079412D01*
X103730689Y-99910689D01*
X103899412Y-99713140D01*
X104035154Y-99491628D01*
X104134573Y-99251610D01*
X104195221Y-98998994D01*
X104215604Y-98740000D01*
X105984396Y-98740000D01*
X106004778Y-98998990D01*
X106065427Y-99251610D01*
X106164843Y-99491623D01*
X106164845Y-99491627D01*
X106164846Y-99491628D01*
X106300588Y-99713140D01*
X106469311Y-99910689D01*
X106666860Y-100079412D01*
X106888372Y-100215154D01*
X106888374Y-100215154D01*
X106888376Y-100215156D01*
X106949693Y-100240554D01*
X107128390Y-100314573D01*
X107381006Y-100375221D01*
X107640000Y-100395604D01*
X107898994Y-100375221D01*
X108151610Y-100314573D01*
X108391628Y-100215154D01*
X108613140Y-100079412D01*
X108810689Y-99910689D01*
X108979412Y-99713140D01*
X109115154Y-99491628D01*
X109214573Y-99251610D01*
X109275221Y-98998994D01*
X109295604Y-98740000D01*
X109275221Y-98481006D01*
X109214573Y-98228390D01*
X109115154Y-97988372D01*
X108979412Y-97766860D01*
X108810689Y-97569311D01*
X108613140Y-97400588D01*
X108391628Y-97264846D01*
X108391627Y-97264845D01*
X108391623Y-97264843D01*
X108225627Y-97196086D01*
X108151610Y-97165427D01*
X108151611Y-97165427D01*
X108013921Y-97132370D01*
X107898994Y-97104779D01*
X107898992Y-97104778D01*
X107898991Y-97104778D01*
X107640000Y-97084396D01*
X107381009Y-97104778D01*
X107128389Y-97165427D01*
X106888376Y-97264843D01*
X106666859Y-97400588D01*
X106469311Y-97569311D01*
X106300588Y-97766859D01*
X106164843Y-97988376D01*
X106065427Y-98228389D01*
X106004778Y-98481009D01*
X105984396Y-98740000D01*
X104215604Y-98740000D01*
X104195221Y-98481006D01*
X104134573Y-98228390D01*
X104035154Y-97988372D01*
X103899412Y-97766860D01*
X103730689Y-97569311D01*
X103533140Y-97400588D01*
X103311628Y-97264846D01*
X103311627Y-97264845D01*
X103311623Y-97264843D01*
X103145627Y-97196086D01*
X103071610Y-97165427D01*
X103071611Y-97165427D01*
X102933921Y-97132370D01*
X102818994Y-97104779D01*
X102818992Y-97104778D01*
X102818991Y-97104778D01*
X102560000Y-97084396D01*
X102301009Y-97104778D01*
X102048389Y-97165427D01*
X101808376Y-97264843D01*
X101586859Y-97400588D01*
X101389311Y-97569311D01*
X101220585Y-97766862D01*
X101220584Y-97766864D01*
X101130227Y-97914315D01*
X101078416Y-97961190D01*
X101009486Y-97972613D01*
X100945323Y-97944956D01*
X100906298Y-97887000D01*
X100900500Y-97849525D01*
X100900500Y-96200000D01*
X103444396Y-96200000D01*
X103464778Y-96458990D01*
X103525427Y-96711610D01*
X103624843Y-96951623D01*
X103624845Y-96951627D01*
X103624846Y-96951628D01*
X103760588Y-97173140D01*
X103929311Y-97370689D01*
X104126860Y-97539412D01*
X104348372Y-97675154D01*
X104348374Y-97675154D01*
X104348376Y-97675156D01*
X104373033Y-97685369D01*
X104588390Y-97774573D01*
X104841006Y-97835221D01*
X105100000Y-97855604D01*
X105358994Y-97835221D01*
X105611610Y-97774573D01*
X105851628Y-97675154D01*
X106073140Y-97539412D01*
X106270689Y-97370689D01*
X106439412Y-97173140D01*
X106575154Y-96951628D01*
X106596541Y-96899996D01*
X116994435Y-96899996D01*
X116994435Y-96900003D01*
X117014630Y-97079249D01*
X117014631Y-97079254D01*
X117074211Y-97249523D01*
X117150345Y-97370688D01*
X117170184Y-97402262D01*
X117297738Y-97529816D01*
X117450478Y-97625789D01*
X117591555Y-97675154D01*
X117620745Y-97685368D01*
X117620750Y-97685369D01*
X117799996Y-97705565D01*
X117800000Y-97705565D01*
X117800004Y-97705565D01*
X117979249Y-97685369D01*
X117979252Y-97685368D01*
X117979255Y-97685368D01*
X118149522Y-97625789D01*
X118302262Y-97529816D01*
X118429816Y-97402262D01*
X118525789Y-97249522D01*
X118585368Y-97079255D01*
X118605565Y-96900000D01*
X118585368Y-96720745D01*
X118525789Y-96550478D01*
X118429816Y-96397738D01*
X118302262Y-96270184D01*
X118149523Y-96174211D01*
X117979254Y-96114631D01*
X117979249Y-96114630D01*
X117800004Y-96094435D01*
X117799996Y-96094435D01*
X117620750Y-96114630D01*
X117620745Y-96114631D01*
X117450476Y-96174211D01*
X117297737Y-96270184D01*
X117170184Y-96397737D01*
X117074211Y-96550476D01*
X117014631Y-96720745D01*
X117014630Y-96720750D01*
X116994435Y-96899996D01*
X106596541Y-96899996D01*
X106674573Y-96711610D01*
X106735221Y-96458994D01*
X106755604Y-96200000D01*
X106735221Y-95941006D01*
X106674573Y-95688390D01*
X106575154Y-95448372D01*
X106439412Y-95226860D01*
X106270689Y-95029311D01*
X106073140Y-94860588D01*
X105851628Y-94724846D01*
X105851627Y-94724845D01*
X105851623Y-94724843D01*
X105685627Y-94656086D01*
X105611610Y-94625427D01*
X105611611Y-94625427D01*
X105473921Y-94592370D01*
X105358994Y-94564779D01*
X105358992Y-94564778D01*
X105358991Y-94564778D01*
X105100000Y-94544396D01*
X104841009Y-94564778D01*
X104588389Y-94625427D01*
X104348376Y-94724843D01*
X104126859Y-94860588D01*
X103929311Y-95029311D01*
X103760588Y-95226859D01*
X103624843Y-95448376D01*
X103525427Y-95688389D01*
X103464778Y-95941009D01*
X103444396Y-96200000D01*
X100900500Y-96200000D01*
X100900500Y-94550474D01*
X100920185Y-94483435D01*
X100972989Y-94437680D01*
X101042147Y-94427736D01*
X101105703Y-94456761D01*
X101130228Y-94485685D01*
X101178696Y-94564779D01*
X101220588Y-94633140D01*
X101389311Y-94830689D01*
X101586860Y-94999412D01*
X101808372Y-95135154D01*
X101808374Y-95135154D01*
X101808376Y-95135156D01*
X101869693Y-95160554D01*
X102048390Y-95234573D01*
X102301006Y-95295221D01*
X102560000Y-95315604D01*
X102818994Y-95295221D01*
X103071610Y-95234573D01*
X103311628Y-95135154D01*
X103533140Y-94999412D01*
X103730689Y-94830689D01*
X103899412Y-94633140D01*
X104035154Y-94411628D01*
X104134573Y-94171610D01*
X104195221Y-93918994D01*
X104215604Y-93660000D01*
X105984396Y-93660000D01*
X106004778Y-93918990D01*
X106065427Y-94171610D01*
X106164843Y-94411623D01*
X106164845Y-94411627D01*
X106164846Y-94411628D01*
X106300588Y-94633140D01*
X106469311Y-94830689D01*
X106666860Y-94999412D01*
X106888372Y-95135154D01*
X106888374Y-95135154D01*
X106888376Y-95135156D01*
X106949693Y-95160554D01*
X107128390Y-95234573D01*
X107381006Y-95295221D01*
X107640000Y-95315604D01*
X107898994Y-95295221D01*
X108151610Y-95234573D01*
X108391628Y-95135154D01*
X108613140Y-94999412D01*
X108810689Y-94830689D01*
X108979412Y-94633140D01*
X109115154Y-94411628D01*
X109119972Y-94399996D01*
X131394435Y-94399996D01*
X131394435Y-94400003D01*
X131414630Y-94579249D01*
X131414631Y-94579254D01*
X131474211Y-94749523D01*
X131543998Y-94860588D01*
X131570184Y-94902262D01*
X131697738Y-95029816D01*
X131850478Y-95125789D01*
X132020745Y-95185368D01*
X132020750Y-95185369D01*
X132199996Y-95205565D01*
X132200000Y-95205565D01*
X132200004Y-95205565D01*
X132379249Y-95185369D01*
X132379252Y-95185368D01*
X132379255Y-95185368D01*
X132549522Y-95125789D01*
X132702262Y-95029816D01*
X132829816Y-94902262D01*
X132925789Y-94749522D01*
X132985368Y-94579255D01*
X132995911Y-94485685D01*
X133005565Y-94400003D01*
X133005565Y-94399996D01*
X132985369Y-94220750D01*
X132985368Y-94220745D01*
X132925788Y-94050476D01*
X132843172Y-93918994D01*
X132829816Y-93897738D01*
X132702262Y-93770184D01*
X132549523Y-93674211D01*
X132379254Y-93614631D01*
X132379249Y-93614630D01*
X132200004Y-93594435D01*
X132199996Y-93594435D01*
X132020750Y-93614630D01*
X132020745Y-93614631D01*
X131850476Y-93674211D01*
X131697737Y-93770184D01*
X131570184Y-93897737D01*
X131474211Y-94050476D01*
X131414631Y-94220745D01*
X131414630Y-94220750D01*
X131394435Y-94399996D01*
X109119972Y-94399996D01*
X109214573Y-94171610D01*
X109275221Y-93918994D01*
X109295604Y-93660000D01*
X109275221Y-93401006D01*
X109214573Y-93148390D01*
X109151879Y-92997035D01*
X109115156Y-92908376D01*
X109109751Y-92899556D01*
X108979412Y-92686860D01*
X108810689Y-92489311D01*
X108670994Y-92370000D01*
X136990138Y-92370000D01*
X137793001Y-92370000D01*
X137775784Y-92379940D01*
X137719929Y-92435795D01*
X137680433Y-92504204D01*
X137659989Y-92580504D01*
X137659989Y-92659496D01*
X137680433Y-92735796D01*
X137719929Y-92804205D01*
X137775784Y-92860060D01*
X137793001Y-92870000D01*
X136990138Y-92870000D01*
X136998430Y-92911690D01*
X136998430Y-92911692D01*
X137073807Y-93093671D01*
X137073814Y-93093684D01*
X137183248Y-93257462D01*
X137183251Y-93257466D01*
X137322533Y-93396748D01*
X137322537Y-93396751D01*
X137486315Y-93506185D01*
X137486328Y-93506192D01*
X137668306Y-93581569D01*
X137668318Y-93581572D01*
X137861504Y-93619999D01*
X137861508Y-93620000D01*
X138260000Y-93620000D01*
X138260000Y-92920000D01*
X138760000Y-92920000D01*
X138760000Y-93620000D01*
X139158492Y-93620000D01*
X139158495Y-93619999D01*
X139351681Y-93581572D01*
X139351693Y-93581569D01*
X139533671Y-93506192D01*
X139533684Y-93506185D01*
X139697462Y-93396751D01*
X139697466Y-93396748D01*
X139836748Y-93257466D01*
X139836751Y-93257462D01*
X139946185Y-93093684D01*
X139946192Y-93093671D01*
X140021569Y-92911692D01*
X140021569Y-92911690D01*
X140029862Y-92870000D01*
X139226999Y-92870000D01*
X139244216Y-92860060D01*
X139300071Y-92804205D01*
X139339567Y-92735796D01*
X139360011Y-92659496D01*
X139360011Y-92580504D01*
X139339567Y-92504204D01*
X139300071Y-92435795D01*
X139244216Y-92379940D01*
X139226999Y-92370000D01*
X140029862Y-92370000D01*
X141290138Y-92370000D01*
X142093013Y-92370000D01*
X142075796Y-92379940D01*
X142019941Y-92435795D01*
X141980445Y-92504204D01*
X141960001Y-92580504D01*
X141960001Y-92659496D01*
X141980445Y-92735796D01*
X142019941Y-92804205D01*
X142075796Y-92860060D01*
X142093013Y-92870000D01*
X141290138Y-92870000D01*
X141298430Y-92911690D01*
X141298430Y-92911692D01*
X141373807Y-93093671D01*
X141373814Y-93093684D01*
X141483248Y-93257462D01*
X141483251Y-93257466D01*
X141622533Y-93396748D01*
X141622537Y-93396751D01*
X141786315Y-93506185D01*
X141786328Y-93506192D01*
X141968306Y-93581569D01*
X141968318Y-93581572D01*
X142161504Y-93619999D01*
X142161508Y-93620000D01*
X142410000Y-93620000D01*
X142410000Y-92920000D01*
X142910000Y-92920000D01*
X142910000Y-93620000D01*
X143158492Y-93620000D01*
X143158495Y-93619999D01*
X143351681Y-93581572D01*
X143351693Y-93581569D01*
X143533671Y-93506192D01*
X143533684Y-93506185D01*
X143697462Y-93396751D01*
X143697466Y-93396748D01*
X143836748Y-93257466D01*
X143836751Y-93257462D01*
X143946185Y-93093684D01*
X143946192Y-93093671D01*
X144021569Y-92911692D01*
X144021569Y-92911690D01*
X144029862Y-92870000D01*
X143226987Y-92870000D01*
X143244204Y-92860060D01*
X143300059Y-92804205D01*
X143339555Y-92735796D01*
X143359999Y-92659496D01*
X143359999Y-92580504D01*
X143339555Y-92504204D01*
X143300059Y-92435795D01*
X143244204Y-92379940D01*
X143226987Y-92370000D01*
X144029862Y-92370000D01*
X144021569Y-92328309D01*
X144021569Y-92328307D01*
X143946192Y-92146328D01*
X143946185Y-92146315D01*
X143836751Y-91982537D01*
X143836748Y-91982533D01*
X143697466Y-91843251D01*
X143697462Y-91843248D01*
X143533684Y-91733814D01*
X143533671Y-91733807D01*
X143351693Y-91658430D01*
X143351681Y-91658427D01*
X143158495Y-91620000D01*
X142910000Y-91620000D01*
X142910000Y-92320000D01*
X142410000Y-92320000D01*
X142410000Y-91620000D01*
X142161504Y-91620000D01*
X141968318Y-91658427D01*
X141968306Y-91658430D01*
X141786328Y-91733807D01*
X141786315Y-91733814D01*
X141622537Y-91843248D01*
X141622533Y-91843251D01*
X141483251Y-91982533D01*
X141483248Y-91982537D01*
X141373814Y-92146315D01*
X141373807Y-92146328D01*
X141298430Y-92328307D01*
X141298430Y-92328309D01*
X141290138Y-92370000D01*
X140029862Y-92370000D01*
X140021569Y-92328309D01*
X140021569Y-92328307D01*
X139946192Y-92146328D01*
X139946185Y-92146315D01*
X139836751Y-91982537D01*
X139836748Y-91982533D01*
X139693532Y-91839317D01*
X139660047Y-91777994D01*
X139665031Y-91708302D01*
X139678321Y-91683547D01*
X139678272Y-91683519D01*
X139679207Y-91681898D01*
X139680905Y-91678737D01*
X139681516Y-91677895D01*
X139681522Y-91677889D01*
X139709373Y-91629647D01*
X139713633Y-91622796D01*
X139741548Y-91581021D01*
X139748846Y-91563402D01*
X139756017Y-91548859D01*
X139768286Y-91527611D01*
X139783577Y-91480548D01*
X139786932Y-91471453D01*
X139803776Y-91430789D01*
X139808715Y-91405957D01*
X139812401Y-91391835D01*
X139813938Y-91387103D01*
X139821908Y-91362576D01*
X139826427Y-91319576D01*
X139828125Y-91308373D01*
X139835500Y-91271305D01*
X139835500Y-91239761D01*
X139836179Y-91226800D01*
X139840047Y-91190000D01*
X139836179Y-91153198D01*
X139835500Y-91140237D01*
X139835500Y-91108690D01*
X139828130Y-91071647D01*
X139826425Y-91060409D01*
X139821908Y-91017428D01*
X139821908Y-91017424D01*
X139812396Y-90988151D01*
X139808715Y-90974041D01*
X139803776Y-90949211D01*
X139786933Y-90908549D01*
X139783579Y-90899457D01*
X139768286Y-90852389D01*
X139756018Y-90831140D01*
X139748844Y-90816592D01*
X139741550Y-90798983D01*
X139741549Y-90798982D01*
X139741548Y-90798979D01*
X139713641Y-90757213D01*
X139709367Y-90750340D01*
X139681522Y-90702111D01*
X139669284Y-90688519D01*
X139658337Y-90674445D01*
X139651208Y-90663775D01*
X139611297Y-90623864D01*
X139606831Y-90619158D01*
X139565410Y-90573155D01*
X139555666Y-90566075D01*
X139540875Y-90553441D01*
X139536227Y-90548793D01*
X139484135Y-90513987D01*
X139480140Y-90511203D01*
X139480133Y-90511198D01*
X139425024Y-90471158D01*
X139425023Y-90471157D01*
X139425021Y-90471156D01*
X139419740Y-90468805D01*
X139401282Y-90458626D01*
X139401025Y-90458454D01*
X139401018Y-90458450D01*
X139337426Y-90432110D01*
X139334444Y-90430829D01*
X139266500Y-90400578D01*
X139263170Y-90399496D01*
X139256766Y-90397502D01*
X139256618Y-90397992D01*
X139250788Y-90396223D01*
X139177155Y-90381576D01*
X139175567Y-90381249D01*
X139096768Y-90364500D01*
X139096764Y-90364500D01*
X138923236Y-90364500D01*
X138844372Y-90381262D01*
X138842786Y-90381588D01*
X138769203Y-90396225D01*
X138763380Y-90397992D01*
X138763237Y-90397523D01*
X138756296Y-90399669D01*
X138753504Y-90400576D01*
X138685571Y-90430821D01*
X138682595Y-90432099D01*
X138618982Y-90458450D01*
X138618975Y-90458454D01*
X138618696Y-90458641D01*
X138600269Y-90468801D01*
X138594983Y-90471154D01*
X138594973Y-90471160D01*
X138539864Y-90511198D01*
X138535875Y-90513978D01*
X138483778Y-90548789D01*
X138483768Y-90548797D01*
X138479122Y-90553444D01*
X138464336Y-90566072D01*
X138454595Y-90573149D01*
X138413167Y-90619159D01*
X138408701Y-90623864D01*
X138368795Y-90663771D01*
X138368790Y-90663776D01*
X138361659Y-90674449D01*
X138350715Y-90688519D01*
X138338479Y-90702108D01*
X138310632Y-90750340D01*
X138306349Y-90757226D01*
X138278454Y-90798974D01*
X138278453Y-90798976D01*
X138271153Y-90816598D01*
X138263986Y-90831130D01*
X138251713Y-90852389D01*
X138236428Y-90899433D01*
X138233059Y-90908564D01*
X138216223Y-90949211D01*
X138216222Y-90949213D01*
X138211283Y-90974041D01*
X138207600Y-90988156D01*
X138198092Y-91017422D01*
X138193571Y-91060424D01*
X138191869Y-91071648D01*
X138184500Y-91108696D01*
X138184500Y-91140237D01*
X138183821Y-91153198D01*
X138179953Y-91189999D01*
X138183821Y-91226800D01*
X138184500Y-91239761D01*
X138184500Y-91271309D01*
X138191868Y-91308351D01*
X138193571Y-91319576D01*
X138198091Y-91362572D01*
X138198091Y-91362574D01*
X138198092Y-91362576D01*
X138203262Y-91378490D01*
X138207601Y-91391844D01*
X138211285Y-91405963D01*
X138216224Y-91430791D01*
X138216224Y-91430792D01*
X138223579Y-91448548D01*
X138231048Y-91518018D01*
X138199772Y-91580497D01*
X138139683Y-91616148D01*
X138109018Y-91620000D01*
X137861504Y-91620000D01*
X137668318Y-91658427D01*
X137668306Y-91658430D01*
X137486328Y-91733807D01*
X137486315Y-91733814D01*
X137322537Y-91843248D01*
X137322533Y-91843251D01*
X137183251Y-91982533D01*
X137183248Y-91982537D01*
X137073814Y-92146315D01*
X137073807Y-92146328D01*
X136998430Y-92328307D01*
X136998430Y-92328309D01*
X136990138Y-92370000D01*
X108670994Y-92370000D01*
X108613140Y-92320588D01*
X108391628Y-92184846D01*
X108391627Y-92184845D01*
X108391623Y-92184843D01*
X108225627Y-92116086D01*
X108151610Y-92085427D01*
X108151611Y-92085427D01*
X108013921Y-92052370D01*
X107898994Y-92024779D01*
X107898992Y-92024778D01*
X107898991Y-92024778D01*
X107640000Y-92004396D01*
X107381009Y-92024778D01*
X107128389Y-92085427D01*
X106888376Y-92184843D01*
X106666859Y-92320588D01*
X106469311Y-92489311D01*
X106300588Y-92686859D01*
X106164843Y-92908376D01*
X106065427Y-93148389D01*
X106004778Y-93401009D01*
X105984396Y-93660000D01*
X104215604Y-93660000D01*
X104195221Y-93401006D01*
X104134573Y-93148390D01*
X104071879Y-92997035D01*
X104035156Y-92908376D01*
X104029751Y-92899556D01*
X103899412Y-92686860D01*
X103730689Y-92489311D01*
X103533140Y-92320588D01*
X103311628Y-92184846D01*
X103311627Y-92184845D01*
X103311623Y-92184843D01*
X103145627Y-92116086D01*
X103071610Y-92085427D01*
X103071611Y-92085427D01*
X102933921Y-92052370D01*
X102818994Y-92024779D01*
X102818992Y-92024778D01*
X102818991Y-92024778D01*
X102560000Y-92004396D01*
X102301009Y-92024778D01*
X102048389Y-92085427D01*
X101808376Y-92184843D01*
X101586859Y-92320588D01*
X101389311Y-92489311D01*
X101220585Y-92686862D01*
X101220584Y-92686864D01*
X101130227Y-92834315D01*
X101078416Y-92881190D01*
X101009486Y-92892613D01*
X100945323Y-92864956D01*
X100906298Y-92807000D01*
X100900500Y-92769525D01*
X100900500Y-89230474D01*
X100920185Y-89163435D01*
X100972989Y-89117680D01*
X101042147Y-89107736D01*
X101105703Y-89136761D01*
X101130227Y-89165684D01*
X101220588Y-89313140D01*
X101389311Y-89510689D01*
X101586860Y-89679412D01*
X101808372Y-89815154D01*
X101808374Y-89815154D01*
X101808376Y-89815156D01*
X101869693Y-89840554D01*
X102048390Y-89914573D01*
X102301006Y-89975221D01*
X102560000Y-89995604D01*
X102818994Y-89975221D01*
X103071610Y-89914573D01*
X103311628Y-89815154D01*
X103533140Y-89679412D01*
X103730689Y-89510689D01*
X103899412Y-89313140D01*
X104035154Y-89091628D01*
X104134573Y-88851610D01*
X104195221Y-88598994D01*
X104215604Y-88340000D01*
X105984396Y-88340000D01*
X106004778Y-88598990D01*
X106065427Y-88851610D01*
X106164843Y-89091623D01*
X106164845Y-89091627D01*
X106164846Y-89091628D01*
X106300588Y-89313140D01*
X106469311Y-89510689D01*
X106666860Y-89679412D01*
X106888372Y-89815154D01*
X106888374Y-89815154D01*
X106888376Y-89815156D01*
X106949693Y-89840554D01*
X107128390Y-89914573D01*
X107381006Y-89975221D01*
X107640000Y-89995604D01*
X107898994Y-89975221D01*
X108151610Y-89914573D01*
X108391628Y-89815154D01*
X108613140Y-89679412D01*
X108810689Y-89510689D01*
X108979412Y-89313140D01*
X109115154Y-89091628D01*
X109214573Y-88851610D01*
X109275221Y-88598994D01*
X109295604Y-88340000D01*
X109275221Y-88081006D01*
X109214573Y-87828390D01*
X109115154Y-87588372D01*
X108979412Y-87366860D01*
X108810689Y-87169311D01*
X108613140Y-87000588D01*
X108391628Y-86864846D01*
X108391627Y-86864845D01*
X108391623Y-86864843D01*
X108225627Y-86796086D01*
X108151610Y-86765427D01*
X108151611Y-86765427D01*
X108013921Y-86732370D01*
X107898994Y-86704779D01*
X107898992Y-86704778D01*
X107898991Y-86704778D01*
X107640000Y-86684396D01*
X107381009Y-86704778D01*
X107128389Y-86765427D01*
X106888376Y-86864843D01*
X106666859Y-87000588D01*
X106469311Y-87169311D01*
X106300588Y-87366859D01*
X106164843Y-87588376D01*
X106065427Y-87828389D01*
X106004778Y-88081009D01*
X105984396Y-88340000D01*
X104215604Y-88340000D01*
X104195221Y-88081006D01*
X104134573Y-87828390D01*
X104035154Y-87588372D01*
X103899412Y-87366860D01*
X103730689Y-87169311D01*
X103533140Y-87000588D01*
X103311628Y-86864846D01*
X103311627Y-86864845D01*
X103311623Y-86864843D01*
X103145627Y-86796086D01*
X103071610Y-86765427D01*
X103071611Y-86765427D01*
X102933921Y-86732370D01*
X102818994Y-86704779D01*
X102818992Y-86704778D01*
X102818991Y-86704778D01*
X102560000Y-86684396D01*
X102301009Y-86704778D01*
X102048389Y-86765427D01*
X101808376Y-86864843D01*
X101586859Y-87000588D01*
X101389311Y-87169311D01*
X101220585Y-87366862D01*
X101220584Y-87366864D01*
X101130227Y-87514315D01*
X101078416Y-87561190D01*
X101009486Y-87572613D01*
X100945323Y-87544956D01*
X100906298Y-87487000D01*
X100900500Y-87449525D01*
X100900500Y-85800000D01*
X103444396Y-85800000D01*
X103464778Y-86058990D01*
X103525427Y-86311610D01*
X103624843Y-86551623D01*
X103624845Y-86551627D01*
X103624846Y-86551628D01*
X103760588Y-86773140D01*
X103929311Y-86970689D01*
X104126860Y-87139412D01*
X104348372Y-87275154D01*
X104348374Y-87275154D01*
X104348376Y-87275156D01*
X104409693Y-87300554D01*
X104588390Y-87374573D01*
X104841006Y-87435221D01*
X105100000Y-87455604D01*
X105358994Y-87435221D01*
X105611610Y-87374573D01*
X105851628Y-87275154D01*
X106073140Y-87139412D01*
X106270689Y-86970689D01*
X106439412Y-86773140D01*
X106575154Y-86551628D01*
X106674573Y-86311610D01*
X106735221Y-86058994D01*
X106755604Y-85800000D01*
X106735221Y-85541006D01*
X106674573Y-85288390D01*
X106585101Y-85072385D01*
X106575156Y-85048376D01*
X106572536Y-85044101D01*
X106439412Y-84826860D01*
X106270689Y-84629311D01*
X106073140Y-84460588D01*
X105851628Y-84324846D01*
X105851627Y-84324845D01*
X105851623Y-84324843D01*
X105685627Y-84256086D01*
X105611610Y-84225427D01*
X105611611Y-84225427D01*
X105473921Y-84192370D01*
X105358994Y-84164779D01*
X105358992Y-84164778D01*
X105358991Y-84164778D01*
X105100000Y-84144396D01*
X104841009Y-84164778D01*
X104588389Y-84225427D01*
X104348376Y-84324843D01*
X104126859Y-84460588D01*
X103929311Y-84629311D01*
X103760588Y-84826859D01*
X103624843Y-85048376D01*
X103525427Y-85288389D01*
X103464778Y-85541009D01*
X103444396Y-85800000D01*
X100900500Y-85800000D01*
X100900500Y-84150474D01*
X100920185Y-84083435D01*
X100972989Y-84037680D01*
X101042147Y-84027736D01*
X101105703Y-84056761D01*
X101130228Y-84085685D01*
X101212572Y-84220060D01*
X101220588Y-84233140D01*
X101389311Y-84430689D01*
X101586860Y-84599412D01*
X101808372Y-84735154D01*
X101808374Y-84735154D01*
X101808376Y-84735156D01*
X101869693Y-84760554D01*
X102048390Y-84834573D01*
X102301006Y-84895221D01*
X102560000Y-84915604D01*
X102818994Y-84895221D01*
X103071610Y-84834573D01*
X103311628Y-84735154D01*
X103533140Y-84599412D01*
X103730689Y-84430689D01*
X103899412Y-84233140D01*
X104035154Y-84011628D01*
X104134573Y-83771610D01*
X104195221Y-83518994D01*
X104215604Y-83260000D01*
X105984396Y-83260000D01*
X106004778Y-83518990D01*
X106065427Y-83771610D01*
X106164843Y-84011623D01*
X106164845Y-84011627D01*
X106164846Y-84011628D01*
X106300588Y-84233140D01*
X106469311Y-84430689D01*
X106666860Y-84599412D01*
X106888372Y-84735154D01*
X106888374Y-84735154D01*
X106888376Y-84735156D01*
X106949693Y-84760554D01*
X107128390Y-84834573D01*
X107381006Y-84895221D01*
X107640000Y-84915604D01*
X107898994Y-84895221D01*
X108151610Y-84834573D01*
X108391628Y-84735154D01*
X108613140Y-84599412D01*
X108810689Y-84430689D01*
X108979412Y-84233140D01*
X109115154Y-84011628D01*
X109214573Y-83771610D01*
X109224563Y-83730000D01*
X136990138Y-83730000D01*
X137793001Y-83730000D01*
X137775784Y-83739940D01*
X137719929Y-83795795D01*
X137680433Y-83864204D01*
X137659989Y-83940504D01*
X137659989Y-84019496D01*
X137680433Y-84095796D01*
X137719929Y-84164205D01*
X137775784Y-84220060D01*
X137793001Y-84230000D01*
X136990138Y-84230000D01*
X136998430Y-84271690D01*
X136998430Y-84271692D01*
X137073807Y-84453671D01*
X137073814Y-84453684D01*
X137183248Y-84617462D01*
X137183251Y-84617466D01*
X137322533Y-84756748D01*
X137322537Y-84756751D01*
X137486315Y-84866185D01*
X137486328Y-84866192D01*
X137668306Y-84941569D01*
X137668318Y-84941572D01*
X137861504Y-84979999D01*
X137861508Y-84980000D01*
X138109018Y-84980000D01*
X138176057Y-84999685D01*
X138221812Y-85052489D01*
X138231756Y-85121647D01*
X138223580Y-85151450D01*
X138216223Y-85169211D01*
X138216222Y-85169213D01*
X138211283Y-85194041D01*
X138207600Y-85208156D01*
X138198092Y-85237422D01*
X138193571Y-85280424D01*
X138191869Y-85291648D01*
X138184500Y-85328696D01*
X138184500Y-85360237D01*
X138183821Y-85373198D01*
X138179953Y-85409999D01*
X138183821Y-85446800D01*
X138184500Y-85459761D01*
X138184500Y-85491309D01*
X138191868Y-85528351D01*
X138193571Y-85539576D01*
X138198091Y-85582572D01*
X138198091Y-85582574D01*
X138198092Y-85582576D01*
X138203262Y-85598490D01*
X138207601Y-85611844D01*
X138211285Y-85625963D01*
X138216224Y-85650791D01*
X138233057Y-85691432D01*
X138236425Y-85700562D01*
X138251711Y-85747605D01*
X138251712Y-85747608D01*
X138251714Y-85747611D01*
X138263975Y-85768849D01*
X138263982Y-85768860D01*
X138271154Y-85783404D01*
X138278450Y-85801018D01*
X138278451Y-85801020D01*
X138278452Y-85801021D01*
X138306344Y-85842764D01*
X138310627Y-85849651D01*
X138338476Y-85897886D01*
X138338480Y-85897891D01*
X138350715Y-85911480D01*
X138361666Y-85925560D01*
X138368793Y-85936227D01*
X138368794Y-85936228D01*
X138408697Y-85976130D01*
X138413168Y-85980841D01*
X138454588Y-86026844D01*
X138464325Y-86033918D01*
X138479123Y-86046557D01*
X138483770Y-86051204D01*
X138483773Y-86051206D01*
X138483775Y-86051208D01*
X138535878Y-86086021D01*
X138539843Y-86088784D01*
X138594976Y-86128842D01*
X138600248Y-86131189D01*
X138600259Y-86131194D01*
X138618714Y-86141371D01*
X138618763Y-86141403D01*
X138618979Y-86141548D01*
X138682630Y-86167912D01*
X138685514Y-86169151D01*
X138753501Y-86199422D01*
X138757813Y-86200823D01*
X138763225Y-86202520D01*
X138763381Y-86202007D01*
X138769208Y-86203774D01*
X138769211Y-86203776D01*
X138842931Y-86218439D01*
X138844390Y-86218740D01*
X138923236Y-86235500D01*
X139096763Y-86235500D01*
X139096764Y-86235500D01*
X139175626Y-86218736D01*
X139177051Y-86218443D01*
X139250789Y-86203776D01*
X139250794Y-86203773D01*
X139250798Y-86203773D01*
X139256627Y-86202005D01*
X139256782Y-86202516D01*
X139262255Y-86200800D01*
X139266495Y-86199423D01*
X139266495Y-86199422D01*
X139266499Y-86199422D01*
X139334494Y-86169147D01*
X139337358Y-86167917D01*
X139401021Y-86141548D01*
X139401274Y-86141378D01*
X139419742Y-86131193D01*
X139425024Y-86128842D01*
X139480163Y-86088779D01*
X139484127Y-86086018D01*
X139524578Y-86058990D01*
X139536225Y-86051208D01*
X139540870Y-86046562D01*
X139555667Y-86033923D01*
X139565410Y-86026845D01*
X139606852Y-85980817D01*
X139611283Y-85976148D01*
X139651208Y-85936225D01*
X139658340Y-85925549D01*
X139669285Y-85911477D01*
X139681522Y-85897889D01*
X139709373Y-85849647D01*
X139713633Y-85842796D01*
X139741548Y-85801021D01*
X139748846Y-85783402D01*
X139756017Y-85768859D01*
X139768286Y-85747611D01*
X139783577Y-85700548D01*
X139786932Y-85691453D01*
X139803776Y-85650789D01*
X139808715Y-85625957D01*
X139812401Y-85611835D01*
X139813938Y-85607103D01*
X139821908Y-85582576D01*
X139826427Y-85539576D01*
X139828125Y-85528373D01*
X139835500Y-85491305D01*
X139835500Y-85459761D01*
X139836179Y-85446800D01*
X139840047Y-85410000D01*
X139836179Y-85373198D01*
X139835500Y-85360237D01*
X139835500Y-85328690D01*
X139828130Y-85291647D01*
X139826425Y-85280409D01*
X139821908Y-85237428D01*
X139821908Y-85237424D01*
X139812396Y-85208151D01*
X139808715Y-85194041D01*
X139803776Y-85169211D01*
X139786933Y-85128549D01*
X139783579Y-85119457D01*
X139768286Y-85072389D01*
X139756018Y-85051140D01*
X139748844Y-85036592D01*
X139741550Y-85018983D01*
X139741549Y-85018982D01*
X139741548Y-85018979D01*
X139713641Y-84977213D01*
X139709373Y-84970350D01*
X139681522Y-84922111D01*
X139680899Y-84921254D01*
X139680691Y-84920673D01*
X139678272Y-84916482D01*
X139679038Y-84916039D01*
X139657416Y-84855449D01*
X139673237Y-84787395D01*
X139693532Y-84760681D01*
X139836752Y-84617461D01*
X139946185Y-84453684D01*
X139946192Y-84453671D01*
X140021569Y-84271692D01*
X140021569Y-84271690D01*
X140029862Y-84230000D01*
X139226999Y-84230000D01*
X139244216Y-84220060D01*
X139300071Y-84164205D01*
X139339567Y-84095796D01*
X139360011Y-84019496D01*
X139360011Y-83940504D01*
X139339567Y-83864204D01*
X139300071Y-83795795D01*
X139244216Y-83739940D01*
X139226999Y-83730000D01*
X140029862Y-83730000D01*
X141290138Y-83730000D01*
X142093013Y-83730000D01*
X142075796Y-83739940D01*
X142019941Y-83795795D01*
X141980445Y-83864204D01*
X141960001Y-83940504D01*
X141960001Y-84019496D01*
X141980445Y-84095796D01*
X142019941Y-84164205D01*
X142075796Y-84220060D01*
X142093013Y-84230000D01*
X141290138Y-84230000D01*
X141298430Y-84271690D01*
X141298430Y-84271692D01*
X141373807Y-84453671D01*
X141373814Y-84453684D01*
X141483248Y-84617462D01*
X141483251Y-84617466D01*
X141622533Y-84756748D01*
X141622537Y-84756751D01*
X141786315Y-84866185D01*
X141786328Y-84866192D01*
X141968306Y-84941569D01*
X141968318Y-84941572D01*
X142161504Y-84979999D01*
X142161508Y-84980000D01*
X142410000Y-84980000D01*
X142410000Y-84280000D01*
X142910000Y-84280000D01*
X142910000Y-84980000D01*
X143158492Y-84980000D01*
X143158495Y-84979999D01*
X143351681Y-84941572D01*
X143351693Y-84941569D01*
X143533671Y-84866192D01*
X143533684Y-84866185D01*
X143697462Y-84756751D01*
X143697466Y-84756748D01*
X143836748Y-84617466D01*
X143836751Y-84617462D01*
X143946185Y-84453684D01*
X143946192Y-84453671D01*
X144021569Y-84271692D01*
X144021569Y-84271690D01*
X144029862Y-84230000D01*
X143226987Y-84230000D01*
X143244204Y-84220060D01*
X143300059Y-84164205D01*
X143339555Y-84095796D01*
X143359999Y-84019496D01*
X143359999Y-83940504D01*
X143339555Y-83864204D01*
X143300059Y-83795795D01*
X143244204Y-83739940D01*
X143226987Y-83730000D01*
X144029862Y-83730000D01*
X144021569Y-83688309D01*
X144021569Y-83688307D01*
X143946192Y-83506328D01*
X143946185Y-83506315D01*
X143836751Y-83342537D01*
X143836748Y-83342533D01*
X143697466Y-83203251D01*
X143697462Y-83203248D01*
X143533684Y-83093814D01*
X143533671Y-83093807D01*
X143351693Y-83018430D01*
X143351681Y-83018427D01*
X143158495Y-82980000D01*
X142910000Y-82980000D01*
X142910000Y-83680000D01*
X142410000Y-83680000D01*
X142410000Y-82980000D01*
X142161504Y-82980000D01*
X141968318Y-83018427D01*
X141968306Y-83018430D01*
X141786328Y-83093807D01*
X141786315Y-83093814D01*
X141622537Y-83203248D01*
X141622533Y-83203251D01*
X141483251Y-83342533D01*
X141483248Y-83342537D01*
X141373814Y-83506315D01*
X141373807Y-83506328D01*
X141298430Y-83688307D01*
X141298430Y-83688309D01*
X141290138Y-83730000D01*
X140029862Y-83730000D01*
X140021569Y-83688309D01*
X140021569Y-83688307D01*
X139946192Y-83506328D01*
X139946185Y-83506315D01*
X139836751Y-83342537D01*
X139836748Y-83342533D01*
X139697466Y-83203251D01*
X139697462Y-83203248D01*
X139533684Y-83093814D01*
X139533671Y-83093807D01*
X139351693Y-83018430D01*
X139351681Y-83018427D01*
X139158495Y-82980000D01*
X138760000Y-82980000D01*
X138760000Y-83680000D01*
X138260000Y-83680000D01*
X138260000Y-82980000D01*
X137861504Y-82980000D01*
X137668318Y-83018427D01*
X137668306Y-83018430D01*
X137486328Y-83093807D01*
X137486315Y-83093814D01*
X137322537Y-83203248D01*
X137322533Y-83203251D01*
X137183251Y-83342533D01*
X137183248Y-83342537D01*
X137073814Y-83506315D01*
X137073807Y-83506328D01*
X136998430Y-83688307D01*
X136998430Y-83688309D01*
X136990138Y-83730000D01*
X109224563Y-83730000D01*
X109275221Y-83518994D01*
X109295604Y-83260000D01*
X109275221Y-83001006D01*
X109214573Y-82748390D01*
X109115154Y-82508372D01*
X108979412Y-82286860D01*
X108810689Y-82089311D01*
X108613140Y-81920588D01*
X108391628Y-81784846D01*
X108391627Y-81784845D01*
X108391623Y-81784843D01*
X108225627Y-81716086D01*
X108151610Y-81685427D01*
X108151611Y-81685427D01*
X108013921Y-81652370D01*
X107898994Y-81624779D01*
X107898992Y-81624778D01*
X107898991Y-81624778D01*
X107640000Y-81604396D01*
X107381009Y-81624778D01*
X107128389Y-81685427D01*
X106888376Y-81784843D01*
X106666859Y-81920588D01*
X106469311Y-82089311D01*
X106300588Y-82286859D01*
X106164843Y-82508376D01*
X106065427Y-82748389D01*
X106004778Y-83001009D01*
X105984396Y-83260000D01*
X104215604Y-83260000D01*
X104195221Y-83001006D01*
X104134573Y-82748390D01*
X104035154Y-82508372D01*
X103899412Y-82286860D01*
X103730689Y-82089311D01*
X103533140Y-81920588D01*
X103311628Y-81784846D01*
X103311627Y-81784845D01*
X103311623Y-81784843D01*
X103145627Y-81716086D01*
X103071610Y-81685427D01*
X103071611Y-81685427D01*
X102933921Y-81652370D01*
X102818994Y-81624779D01*
X102818992Y-81624778D01*
X102818991Y-81624778D01*
X102560000Y-81604396D01*
X102301009Y-81624778D01*
X102048389Y-81685427D01*
X101808376Y-81784843D01*
X101586859Y-81920588D01*
X101389311Y-82089311D01*
X101220585Y-82286862D01*
X101220584Y-82286864D01*
X101130227Y-82434315D01*
X101078416Y-82481190D01*
X101009486Y-82492613D01*
X100945323Y-82464956D01*
X100906298Y-82407000D01*
X100900500Y-82369525D01*
X100900500Y-80624500D01*
X100920185Y-80557461D01*
X100972989Y-80511706D01*
X101024500Y-80500500D01*
X144775500Y-80500500D01*
X144842539Y-80520185D01*
G37*
%TD.AperFunction*%
M02*
