%TF.GenerationSoftware,KiCad,Pcbnew,8.0.2*%
%TF.CreationDate,2024-10-06T11:27:00+02:00*%
%TF.ProjectId,distribution_amp_for_singapore_dude,64697374-7269-4627-9574-696f6e5f616d,rev?*%
%TF.SameCoordinates,Original*%
%TF.FileFunction,Soldermask,Top*%
%TF.FilePolarity,Negative*%
%FSLAX46Y46*%
G04 Gerber Fmt 4.6, Leading zero omitted, Abs format (unit mm)*
G04 Created by KiCad (PCBNEW 8.0.2) date 2024-10-06 11:27:00*
%MOMM*%
%LPD*%
G01*
G04 APERTURE LIST*
G04 Aperture macros list*
%AMRoundRect*
0 Rectangle with rounded corners*
0 $1 Rounding radius*
0 $2 $3 $4 $5 $6 $7 $8 $9 X,Y pos of 4 corners*
0 Add a 4 corners polygon primitive as box body*
4,1,4,$2,$3,$4,$5,$6,$7,$8,$9,$2,$3,0*
0 Add four circle primitives for the rounded corners*
1,1,$1+$1,$2,$3*
1,1,$1+$1,$4,$5*
1,1,$1+$1,$6,$7*
1,1,$1+$1,$8,$9*
0 Add four rect primitives between the rounded corners*
20,1,$1+$1,$2,$3,$4,$5,0*
20,1,$1+$1,$4,$5,$6,$7,0*
20,1,$1+$1,$6,$7,$8,$9,0*
20,1,$1+$1,$8,$9,$2,$3,0*%
G04 Aperture macros list end*
%ADD10R,1.410000X1.350000*%
%ADD11R,1.350000X1.410000*%
%ADD12R,1.400000X0.760000*%
%ADD13R,1.490000X1.730000*%
%ADD14R,1.380000X1.130000*%
%ADD15R,1.130000X1.380000*%
%ADD16C,0.650000*%
%ADD17O,2.100000X1.000000*%
%ADD18O,1.800000X1.000000*%
%ADD19R,1.150000X0.600000*%
%ADD20R,1.150000X0.300000*%
%ADD21R,2.000000X4.500000*%
%ADD22R,1.730000X1.490000*%
%ADD23C,2.300000*%
%ADD24R,1.600000X3.500000*%
%ADD25O,0.630000X1.860000*%
%ADD26R,0.760000X1.400000*%
%ADD27RoundRect,0.100000X-0.637500X-0.100000X0.637500X-0.100000X0.637500X0.100000X-0.637500X0.100000X0*%
G04 APERTURE END LIST*
D10*
X112500000Y-83300000D03*
X110500000Y-83300000D03*
X110500000Y-111800000D03*
X108500000Y-111800000D03*
X104000000Y-111800000D03*
X106000000Y-111800000D03*
X104100000Y-91000000D03*
X106100000Y-91000000D03*
D11*
X133600000Y-109900000D03*
X133600000Y-107900000D03*
D12*
X110500000Y-109170000D03*
X110500000Y-107900000D03*
X110500000Y-106630000D03*
X113940000Y-106630000D03*
X113940000Y-107900000D03*
X113940000Y-109170000D03*
D13*
X135380000Y-84700000D03*
X132200000Y-84700000D03*
D14*
X110400000Y-98150000D03*
X110400000Y-100150000D03*
D12*
X110500000Y-116970000D03*
X110500000Y-115700000D03*
X110500000Y-114430000D03*
X113940000Y-114430000D03*
X113940000Y-115700000D03*
X113940000Y-116970000D03*
D15*
X130970000Y-114500000D03*
X129030000Y-114500000D03*
D14*
X139700000Y-96800000D03*
X139700000Y-94800000D03*
D10*
X129000000Y-112000000D03*
X131000000Y-112000000D03*
D14*
X122800000Y-102850000D03*
X122800000Y-104850000D03*
D16*
X139010000Y-91190000D03*
X139010000Y-85410000D03*
D17*
X138510000Y-92620000D03*
X138510000Y-83980000D03*
D18*
X142660000Y-92620000D03*
X142660000Y-83980000D03*
D19*
X137940000Y-91500000D03*
X137940000Y-90700000D03*
D20*
X137940000Y-89550000D03*
X137940000Y-88550000D03*
X137940000Y-88050000D03*
X137940000Y-90050000D03*
D19*
X137940000Y-85100000D03*
X137940000Y-85900000D03*
D20*
X137940000Y-86550000D03*
X137940000Y-87550000D03*
X137940000Y-89050000D03*
X137940000Y-87050000D03*
D21*
X135500000Y-88800000D03*
X132200000Y-88800000D03*
D10*
X129400000Y-101500000D03*
X127400000Y-101500000D03*
D11*
X116100000Y-105700000D03*
X116100000Y-107700000D03*
D15*
X118000000Y-117000000D03*
X116000000Y-117000000D03*
D11*
X135400000Y-101600000D03*
X135400000Y-103600000D03*
D22*
X123600000Y-92880000D03*
X123600000Y-89700000D03*
D11*
X120800000Y-115000000D03*
X120800000Y-117000000D03*
D13*
X126500000Y-84700000D03*
X129680000Y-84700000D03*
D11*
X133600000Y-114500000D03*
X133600000Y-112500000D03*
D15*
X130900000Y-119500000D03*
X128960000Y-119500000D03*
D12*
X110500000Y-88340000D03*
X110500000Y-87070000D03*
X110500000Y-85800000D03*
X113940000Y-85800000D03*
X113940000Y-87070000D03*
X113940000Y-88340000D03*
D14*
X125100000Y-104850000D03*
X125100000Y-102850000D03*
D15*
X119300000Y-86700000D03*
X117300000Y-86700000D03*
D10*
X135600000Y-117000000D03*
X133600000Y-117000000D03*
D14*
X125100000Y-98150000D03*
X125100000Y-100150000D03*
D23*
X102460000Y-119540000D03*
X102460000Y-114460000D03*
X107540000Y-114460000D03*
X107540000Y-119540000D03*
X105000000Y-117000000D03*
D10*
X129000000Y-109700000D03*
X131000000Y-109700000D03*
D23*
X102560000Y-109140000D03*
X102560000Y-104060000D03*
X107640000Y-104060000D03*
X107640000Y-109140000D03*
X105100000Y-106600000D03*
D14*
X112700000Y-100150000D03*
X112700000Y-98150000D03*
D11*
X115400000Y-97200000D03*
X115400000Y-95200000D03*
D14*
X115400000Y-93100000D03*
X115400000Y-91100000D03*
D24*
X122400000Y-108100000D03*
X119200000Y-108100000D03*
D10*
X106000000Y-101400000D03*
X108000000Y-101400000D03*
D25*
X129737500Y-87420000D03*
X128457500Y-87420000D03*
X127197500Y-87420000D03*
X125927500Y-87420000D03*
X125927500Y-92780000D03*
X127197500Y-92780000D03*
X128457500Y-92780000D03*
X129737500Y-92780000D03*
D10*
X128900000Y-117000000D03*
X130900000Y-117000000D03*
D26*
X113000000Y-95420000D03*
X111730000Y-95420000D03*
X110460000Y-95420000D03*
X110460000Y-91980000D03*
X111730000Y-91980000D03*
X113000000Y-91980000D03*
D22*
X123600000Y-87380000D03*
X123600000Y-84200000D03*
D24*
X121000000Y-94500000D03*
X117800000Y-94500000D03*
D11*
X119400000Y-90900000D03*
X119400000Y-88900000D03*
D10*
X134200000Y-92800000D03*
X132200000Y-92800000D03*
D23*
X143240000Y-101060000D03*
X143240000Y-106140000D03*
X138160000Y-106140000D03*
X138160000Y-101060000D03*
X140700000Y-103600000D03*
X143240000Y-114460000D03*
X143240000Y-119540000D03*
X138160000Y-119540000D03*
X138160000Y-114460000D03*
X140700000Y-117000000D03*
D14*
X116100000Y-109900000D03*
X116100000Y-111900000D03*
D15*
X130970000Y-107200000D03*
X129030000Y-107200000D03*
D14*
X122800000Y-100150000D03*
X122800000Y-98150000D03*
D23*
X102560000Y-88340000D03*
X102560000Y-83260000D03*
X107640000Y-83260000D03*
X107640000Y-88340000D03*
X105100000Y-85800000D03*
D14*
X112700000Y-102600000D03*
X112700000Y-104600000D03*
X135400000Y-97300000D03*
X135400000Y-99300000D03*
D27*
X114937500Y-99450000D03*
X114937500Y-100100000D03*
X114937500Y-100750000D03*
X114937500Y-101400000D03*
X114937500Y-102050000D03*
X114937500Y-102700000D03*
X114937500Y-103350000D03*
X120662500Y-103350000D03*
X120662500Y-102700000D03*
X120662500Y-102050000D03*
X120662500Y-101400000D03*
X120662500Y-100750000D03*
X120662500Y-100100000D03*
X120662500Y-99450000D03*
D14*
X142000000Y-96800000D03*
X142000000Y-94800000D03*
D23*
X102560000Y-98740000D03*
X102560000Y-93660000D03*
X107640000Y-93660000D03*
X107640000Y-98740000D03*
X105100000Y-96200000D03*
D14*
X110400000Y-104600000D03*
X110400000Y-102600000D03*
D11*
X132400000Y-103600000D03*
X132400000Y-101600000D03*
D13*
X123700000Y-95500000D03*
X126880000Y-95500000D03*
G36*
X145343039Y-121319685D02*
G01*
X145388794Y-121372489D01*
X145400000Y-121424000D01*
X145400000Y-122676000D01*
X145380315Y-122743039D01*
X145327511Y-122788794D01*
X145276000Y-122800000D01*
X100532542Y-122800000D01*
X100465503Y-122780315D01*
X100419748Y-122727511D01*
X100408817Y-122667752D01*
X100492283Y-121415752D01*
X100516383Y-121350170D01*
X100572114Y-121308029D01*
X100616008Y-121300000D01*
X145276000Y-121300000D01*
X145343039Y-121319685D01*
G37*
G36*
X145343039Y-80019685D02*
G01*
X145388794Y-80072489D01*
X145400000Y-80124000D01*
X145400000Y-81376000D01*
X145380315Y-81443039D01*
X145327511Y-81488794D01*
X145276000Y-81500000D01*
X100524000Y-81500000D01*
X100456961Y-81480315D01*
X100411206Y-81427511D01*
X100400000Y-81376000D01*
X100400000Y-80124000D01*
X100419685Y-80056961D01*
X100472489Y-80011206D01*
X100524000Y-80000000D01*
X145276000Y-80000000D01*
X145343039Y-80019685D01*
G37*
M02*
